<svg id="Layer_18" data-name="Layer 18" xmlns="http://www.w3.org/2000/svg" xmlns:xlink="http://www.w3.org/1999/xlink" viewBox="0 0 550.22 424.81"><defs><style>.cls-1{fill:#f49bc2;}.cls-2{fill:#6695ce;}.cls-3{fill:#ef482c;}.cls-4{fill:#7e61aa;}.cls-5{fill:#f174ac;}.cls-6{fill:#ccb6d8;}.cls-7{fill:#e4d7ea;}.cls-8{fill:#ed2480;}.cls-9{clip-path:url(#clip-path);}.cls-10{clip-path:url(#clip-path-2);}.cls-11{fill:#5986c5;}.cls-12{clip-path:url(#clip-path-3);}.cls-13{fill:#da3f26;}.cls-14{clip-path:url(#clip-path-4);}.cls-15{fill:#784ea0;}.cls-16{fill:#6a55a4;}.cls-17{fill:#725ba7;}.cls-18{fill:#5f3494;}.cls-19{fill:#a5def5;}.cls-20{fill:#fff;}.cls-21{clip-path:url(#clip-path-5);}.cls-22{fill:#967db9;}.cls-23{fill:#79d1f1;}.cls-24{clip-path:url(#clip-path-6);}.cls-25{fill:#f9cade;}</style><clipPath id="clip-path" transform="translate(-45.4 -69.05)"><path class="cls-1" d="M487.35,92.19,480.6,98.3,481,86.62a106,106,0,0,0-16.64-12.47s-23.2,32.06-16.3,63.92a111.4,111.4,0,0,0,6.53,20.57l12.71,5-9.36,2c8.74,16.41,20.66,26.18,31.41,23.86,15.91-3.45,23.2-32.07,16.3-63.92C503.24,114.42,493.86,100,487.35,92.19Z"/></clipPath><clipPath id="clip-path-2" transform="translate(-45.4 -69.05)"><path class="cls-2" d="M493.27,182.37a27.44,27.44,0,0,1,2.51-30.16c3.77-4.62,8.94-7.83,13.71-11.41s9.39-7.87,11.25-13.53c2.25-6.85,0-14.35.92-21.5.93-7.53,5.33-14.38,11.24-19.13s14-7,21.42-8.37a17.08,17.08,0,0,0-5.67,20.4c1.59,3.51,4.33,6.35,6.32,9.64a29.13,29.13,0,0,1,3.76,10.84,17.51,17.51,0,0,1-.25,7.49c-.88,3-3,5.59-4,8.58-2.43,7.17,1.6,14.7,3.76,22a44.5,44.5,0,0,1-3.3,33.35,43,43,0,0,1-26.08,21Z"/></clipPath><clipPath id="clip-path-3" transform="translate(-45.4 -69.05)"><path class="cls-3" d="M160.17,339a33.09,33.09,0,0,1-26.3,15.62c-17,.77-31.58-11.53-43.65-23.56-5.6-5.59-11.21-11.38-18.24-15s-15.89-4.74-22.72-.75a68.9,68.9,0,0,1,97.57,8.21Z"/></clipPath><clipPath id="clip-path-4" transform="translate(-45.4 -69.05)"><path class="cls-4" d="M176.36,370.77c-2,7.19-4.07,14.46-7.74,21s-9.21,12.24-16.28,14.66c-3.28,1.12-7,1.46-10.1-.17-3.21-1.71-5.08-5.34-5.42-9a23,23,0,0,1,2-10.61,73.82,73.82,0,0,1-13.38,10.85c-3.85,2.43-8.22,4.56-12.75,4.09-7.16-.75-12.4-9.15-9.92-15.91C102,388,94,390,91.94,390.66a35.65,35.65,0,0,1-14.41,1.82c-14.36-1.66-13.67-17.12-6-25.89a42.73,42.73,0,0,1,33.63-14.43c-2.17-.4-3.57-2.76-3.48-5a9.3,9.3,0,0,1,2.9-5.77,19,19,0,0,1,24.16-2c-4.06-6-.62-14.67,5.28-18.86a21.58,21.58,0,0,1,34.08,16.82Z"/></clipPath><clipPath id="clip-path-5" transform="translate(-45.4 -69.05)"><rect class="cls-5" x="206.82" y="192.16" width="181.62" height="64.84" rx="3.28"/></clipPath><clipPath id="clip-path-6" transform="translate(-45.4 -69.05)"><rect class="cls-6" x="414.43" y="237.06" width="136.08" height="81.52" rx="3.04"/></clipPath></defs><path class="cls-7" d="M589.05,214.93C566.92,125.39,484,65.64,392.37,101.67c-32.45,12.76-63.19,32-97.83,38.67-38,7.28-76.31-8.93-114.75-5-33,3.4-67.34,15-90.8,39.35-26.63,27.68-34.43,67.94-22.8,104.19,6.06,18.87,21.16,34.69,22.85,55,1.28,15.46-4.7,29.12-9.22,43.42a87.45,87.45,0,0,0-1.21,48.53c9.5,35.76,42.27,55.17,77.51,58.23a129.83,129.83,0,0,0,51.24-5.67c16.32-5.39,31-14.29,48-18.22,34-7.89,65.08,11.95,97.6,18,114.45,21.19,226-66.44,240.83-179.84A227.37,227.37,0,0,0,589.05,214.93Z" transform="translate(-45.4 -69.05)"/><path class="cls-8" d="M296.27,184.07a2,2,0,0,1-1.22-.41,2,2,0,0,1-.36-2.8,161.08,161.08,0,0,1,10.49-12.35,2,2,0,0,1,2.92,2.74,155.13,155.13,0,0,0-10.24,12A2,2,0,0,1,296.27,184.07Zm21.87-23.32a2,2,0,0,1-1.51-.67,2,2,0,0,1,.19-2.83c4-3.55,8.3-6.95,12.65-10.09a2,2,0,0,1,2.34,3.24c-4.25,3.07-8.4,6.39-12.35,9.86A2,2,0,0,1,318.14,160.75Zm25.91-18.69a2,2,0,0,1-1-3.73c4.66-2.71,9.49-5.22,14.37-7.45a2,2,0,1,1,1.67,3.63c-4.77,2.18-9.48,4.63-14,7.28A2.07,2.07,0,0,1,344.05,142.06Zm29.05-13.3a2,2,0,0,1-.65-3.89c5.09-1.76,10.32-3.27,15.55-4.51a2,2,0,0,1,.92,3.89c-5.1,1.21-10.21,2.69-15.17,4.4A2.16,2.16,0,0,1,373.1,128.76ZM452,121.85a1.55,1.55,0,0,1-.31,0c-5.16-.8-10.45-1.37-15.72-1.67a2,2,0,0,1,.23-4c5.4.31,10.81.89,16.1,1.71a2,2,0,0,1-.3,4Zm-47.84-.47a2,2,0,0,1-.27-4c5.32-.72,10.74-1.19,16.13-1.39a2,2,0,1,1,.15,4c-5.25.2-10.55.66-15.74,1.37Z" transform="translate(-45.4 -69.05)"/><path class="cls-8" d="M193.15,250.08a141.28,141.28,0,0,0-6.94-48.59A145.8,145.8,0,0,0,163.32,158a137.8,137.8,0,0,0-19-20.11c-1.82-1.58.79-4.28,2.6-2.7a144.31,144.31,0,0,1,31.53,39.15A148.67,148.67,0,0,1,195,221.66,142.45,142.45,0,0,1,196.9,250c-.08,2.41-3.83,2.49-3.75.07Z" transform="translate(-45.4 -69.05)"/><path class="cls-8" d="M127.05,145.91c10.79,1.42,20.09-1.67,20.78-6.9s-7.5-10.63-18.28-12-20.77,6.9-20.77,6.9S116.27,144.49,127.05,145.91Z" transform="translate(-45.4 -69.05)"/><path class="cls-8" d="M143,125.37c0,8.51,3.3,15.41,7.43,15.43s7.5-6.88,7.52-15.39S150.55,110,150.55,110,143.05,116.86,143,125.37Z" transform="translate(-45.4 -69.05)"/><path class="cls-8" d="M162.39,146.55c-.36,5.69,1.6,10.45,4.36,10.62s5.29-4.3,5.65-10S168,136.55,168,136.55,162.74,140.86,162.39,146.55Z" transform="translate(-45.4 -69.05)"/><path class="cls-8" d="M164.76,194.35c9.72-4.88,15.68-12.66,13.31-17.37s-12.16-4.6-21.88.28-13.32,17.37-13.32,17.37S155,199.22,164.76,194.35Z" transform="translate(-45.4 -69.05)"/><path class="cls-1" d="M487.35,92.19,480.6,98.3,481,86.62a106,106,0,0,0-16.64-12.47s-23.2,32.06-16.3,63.92a111.4,111.4,0,0,0,6.53,20.57l12.71,5-9.36,2c8.74,16.41,20.66,26.18,31.41,23.86,15.91-3.45,23.2-32.07,16.3-63.92C503.24,114.42,493.86,100,487.35,92.19Z" transform="translate(-45.4 -69.05)"/><g class="cls-9"><rect class="cls-5" x="474.99" y="67.95" width="2.71" height="122.95" transform="translate(-62.01 34.75) rotate(-12.23)"/><rect class="cls-5" x="468.6" y="110.88" width="39.65" height="2.71" transform="translate(48.56 352.3) rotate(-51.03)"/><rect class="cls-5" x="470.86" y="121.31" width="39.65" height="2.71" transform="translate(41.3 357.94) rotate(-51.03)"/><rect class="cls-5" x="479.98" y="163.4" width="39.65" height="2.71" transform="translate(11.96 380.65) rotate(-51.03)"/><rect class="cls-5" x="462.18" y="130.14" width="2.71" height="38.45" transform="translate(138.41 478.97) rotate(-72.81)"/><rect class="cls-5" x="460.9" y="124.23" width="2.71" height="38.45" transform="translate(143.15 473.58) rotate(-72.81)"/><rect class="cls-5" x="451.58" y="81.23" width="2.71" height="38.45" transform="translate(177.67 434.39) rotate(-72.81)"/></g><path class="cls-2" d="M493.27,182.37a27.44,27.44,0,0,1,2.51-30.16c3.77-4.62,8.94-7.83,13.71-11.41s9.39-7.87,11.25-13.53c2.25-6.85,0-14.35.92-21.5.93-7.53,5.33-14.38,11.24-19.13s14-7,21.42-8.37a17.08,17.08,0,0,0-5.67,20.4c1.59,3.51,4.33,6.35,6.32,9.64a29.13,29.13,0,0,1,3.76,10.84,17.51,17.51,0,0,1-.25,7.49c-.88,3-3,5.59-4,8.58-2.43,7.17,1.6,14.7,3.76,22a44.5,44.5,0,0,1-3.3,33.35,43,43,0,0,1-26.08,21Z" transform="translate(-45.4 -69.05)"/><g class="cls-10"><path class="cls-11" d="M555.83,75.72c-9.09,4.39-18.07,10.35-22,20.07a24,24,0,0,0-.8,14.85c1.25,5.28,2.69,10.44,3.21,15.87a52.64,52.64,0,0,1-.7,16,42.59,42.59,0,0,1-6.19,14.52c-5.62,8.61-12.9,15.92-17.54,25.2-5,10.07-7.56,21.67-4.63,32.75a1.25,1.25,0,0,0,2.41-.66c-2.56-9.71-.66-19.93,3.46-28.93a71.3,71.3,0,0,1,7.6-12.66c3-4,6.26-7.87,9.17-12a49.3,49.3,0,0,0,7-13.38,48.79,48.79,0,0,0,2.21-15.18A71,71,0,0,0,537.22,117c-1.15-5.16-3.2-10.3-2.36-15.67,1.83-11.66,12.41-18.72,22.23-23.46,1.45-.7.18-2.86-1.26-2.16Z" transform="translate(-45.4 -69.05)"/><path class="cls-11" d="M538.1,125a51.85,51.85,0,0,0,22.83-21.64c.77-1.41-1.38-2.67-2.16-1.26a49.55,49.55,0,0,1-21.94,20.74c-1.45.7-.18,2.85,1.27,2.16Z" transform="translate(-45.4 -69.05)"/><path class="cls-11" d="M536.38,115a51.8,51.8,0,0,0,22.83-21.64c.78-1.41-1.38-2.67-2.16-1.26a49.58,49.58,0,0,1-21.93,20.74c-1.45.7-.18,2.85,1.26,2.16Z" transform="translate(-45.4 -69.05)"/><path class="cls-11" d="M509.08,136.1a53,53,0,0,0,13.1,30.68c1.06,1.21,2.83-.57,1.76-1.77a50.2,50.2,0,0,1-12.36-28.91c-.13-1.59-2.63-1.6-2.5,0Z" transform="translate(-45.4 -69.05)"/><path class="cls-11" d="M513.38,131.31A53,53,0,0,0,526.47,162c1.07,1.21,2.83-.56,1.77-1.76a50.23,50.23,0,0,1-12.36-28.91c-.13-1.59-2.63-1.61-2.5,0Z" transform="translate(-45.4 -69.05)"/></g><path class="cls-3" d="M160.17,339a33.09,33.09,0,0,1-26.3,15.62c-17,.77-31.58-11.53-43.65-23.56-5.6-5.59-11.21-11.38-18.24-15s-15.89-4.74-22.72-.75a68.9,68.9,0,0,1,97.57,8.21Z" transform="translate(-45.4 -69.05)"/><g class="cls-12"><path class="cls-13" d="M47.57,319.67c12-12.61,31.6-14.42,47.52-9.59a50.33,50.33,0,0,1,11.36,5A87.48,87.48,0,0,1,118,324a73.59,73.59,0,0,0,12.36,9.15A46.93,46.93,0,0,0,143.64,338c10.43,2.1,21.73.74,30.53-5.55,1.3-.93,0-3.06-1.32-2.12-8,5.71-18.12,7.14-27.65,5.43A45.13,45.13,0,0,1,131.5,331a74,74,0,0,1-12.31-9.19,87.93,87.93,0,0,0-11.55-8.88,52.68,52.68,0,0,0-11.29-5,57.81,57.81,0,0,0-25.63-2.16c-9.39,1.38-18.38,5.3-25,12.25a1.25,1.25,0,0,0,1.82,1.72Z" transform="translate(-45.4 -69.05)"/><path class="cls-13" d="M93.23,296.3a49.31,49.31,0,0,1,6.36,14.48c.4,1.56,2.8.85,2.4-.71A51.41,51.41,0,0,0,95.35,295c-.87-1.34-3,0-2.12,1.32Z" transform="translate(-45.4 -69.05)"/><path class="cls-13" d="M99.42,295.4a71.38,71.38,0,0,1,6.91,18.69c.34,1.58,2.74.86,2.4-.7a74,74,0,0,0-7.18-19.31c-.76-1.42-2.89-.1-2.13,1.32Z" transform="translate(-45.4 -69.05)"/><path class="cls-13" d="M87.74,335a60.29,60.29,0,0,0,38.5-5c1.44-.7.11-2.82-1.32-2.12a57.51,57.51,0,0,1-36.58,4.67c-1.57-.33-2.17,2.1-.6,2.42Z" transform="translate(-45.4 -69.05)"/><path class="cls-13" d="M70.54,317.28a60,60,0,0,0,19.7-8.65c1.33-.9,0-3-1.32-2.13a58.12,58.12,0,0,1-19.08,8.39c-1.57.37-.86,2.77.7,2.39Z" transform="translate(-45.4 -69.05)"/><path class="cls-13" d="M93.33,341.24a60.28,60.28,0,0,0,38.18-7c1.4-.79.08-2.91-1.32-2.13a57.58,57.58,0,0,1-36.26,6.68c-1.58-.24-2.19,2.19-.6,2.42Z" transform="translate(-45.4 -69.05)"/></g><path class="cls-4" d="M176.36,370.77c-2,7.19-4.07,14.46-7.74,21s-9.21,12.24-16.28,14.66c-3.28,1.12-7,1.46-10.1-.17-3.21-1.71-5.08-5.34-5.42-9a23,23,0,0,1,2-10.61,73.82,73.82,0,0,1-13.38,10.85c-3.85,2.43-8.22,4.56-12.75,4.09-7.16-.75-12.4-9.15-9.92-15.91C102,388,94,390,91.94,390.66a35.65,35.65,0,0,1-14.41,1.82c-14.36-1.66-13.67-17.12-6-25.89a42.73,42.73,0,0,1,33.63-14.43c-2.17-.4-3.57-2.76-3.48-5a9.3,9.3,0,0,1,2.9-5.77,19,19,0,0,1,24.16-2c-4.06-6-.62-14.67,5.28-18.86a21.58,21.58,0,0,1,34.08,16.82Z" transform="translate(-45.4 -69.05)"/><g class="cls-14"><path class="cls-15" d="M63.62,391.1c5.6-6.21,12.75-10.56,20.27-14.06s15.6-6.51,23.5-9.43c14.77-5.46,30.09-10.23,45.64-12.81a101.37,101.37,0,0,1,25.44-1.25c1.6.14,1.71-2.36.11-2.5-15.41-1.34-30.78,1.65-45.58,5.72a353,353,0,0,0-47.47,16.79c-8.7,3.8-17.17,8.57-23.6,15.69-1.07,1.18.61,3,1.69,1.85Z" transform="translate(-45.4 -69.05)"/><rect class="cls-15" x="76.74" y="379.8" width="30.69" height="3" transform="translate(-318.48 168.98) rotate(-55)"/><rect class="cls-15" x="88.29" y="375.68" width="31.74" height="3" transform="translate(-309.96 177.11) rotate(-55)"/><polygon class="cls-15" points="63.55 331.65 95.4 286.45 98.89 286.71 66 333.37 63.55 331.65"/><polygon class="cls-15" points="70.9 333.45 105.48 284.4 108.84 284.84 76.08 331.32 70.9 333.45"/><rect class="cls-15" x="117.63" y="329.36" width="3" height="38.08" transform="translate(-290.07 222.55) rotate(-62.25)"/><polygon class="cls-15" points="61.4 267.92 62.8 265.27 100.95 285.33 98.19 287.27 61.4 267.92"/></g><path class="cls-16" d="M306.45,483.82H451.5a20.27,20.27,0,0,1,17.49,10h2.1a20.28,20.28,0,0,0-19.59-15.07h-145a20.28,20.28,0,0,0-19.59,15.07H289A20.27,20.27,0,0,1,306.45,483.82Z" transform="translate(-45.4 -69.05)"/><path class="cls-17" d="M451.5,483.82h-145a20.27,20.27,0,0,0-17.49,10H469A20.27,20.27,0,0,0,451.5,483.82Z" transform="translate(-45.4 -69.05)"/><polygon class="cls-17" points="280.55 385 272.64 409.74 394.5 409.74 386.59 385 280.55 385"/><polygon class="cls-18" points="381.5 369.09 285.64 369.09 280.55 385 386.59 385 381.5 369.09"/><path class="cls-17" d="M142.69,333.84H523.94a0,0,0,0,1,0,0v21.58a13.67,13.67,0,0,1-13.67,13.67H156.35a13.67,13.67,0,0,1-13.67-13.67V333.84A0,0,0,0,1,142.69,333.84Z"/><circle class="cls-18" cx="378.72" cy="420.52" r="9.72" transform="translate(-177.5 107.88) rotate(-22.5)"/><path class="cls-19" d="M154.63,104.27H512a11.94,11.94,0,0,1,11.94,11.94V333.84a0,0,0,0,1,0,0H142.69a0,0,0,0,1,0,0V116.22A11.94,11.94,0,0,1,154.63,104.27Z"/><rect class="cls-20" x="154.25" y="115.84" width="195.95" height="206.44" rx="2.19"/><rect class="cls-20" x="361.75" y="115.84" width="150.63" height="34.62" rx="2.19"/><rect class="cls-20" x="361.75" y="161.78" width="150.63" height="160.5" rx="2.19"/><path class="cls-1" d="M387,292.4h-22.9a2.48,2.48,0,0,1-2.48-2,2.44,2.44,0,0,1,2.41-2.84h23a2.44,2.44,0,0,1,2.44,2.44h0A2.43,2.43,0,0,1,387,292.4Z" transform="translate(-45.4 -69.05)"/><path class="cls-1" d="M356,292.4H321.36a2.48,2.48,0,0,1-2.48-2,2.44,2.44,0,0,1,2.41-2.84H356a2.44,2.44,0,0,1,2.44,2.44h0A2.43,2.43,0,0,1,356,292.4Z" transform="translate(-45.4 -69.05)"/><path class="cls-1" d="M387,303.54h-9.86a2.49,2.49,0,0,1-2.48-2,2.44,2.44,0,0,1,2.41-2.83H387a2.48,2.48,0,0,1,2.48,2A2.44,2.44,0,0,1,387,303.54Z" transform="translate(-45.4 -69.05)"/><path class="cls-1" d="M370.5,301.5a2.48,2.48,0,0,1-2.47,2H322.61a2.48,2.48,0,0,1-2.47-2,2.44,2.44,0,0,1,2.4-2.83h45.55A2.44,2.44,0,0,1,370.5,301.5Z" transform="translate(-45.4 -69.05)"/><path class="cls-1" d="M320.73,309.8h5a2.48,2.48,0,0,1,2.47,2,2.43,2.43,0,0,1-2.4,2.84h-5a2.43,2.43,0,0,1-2.43-2.44h0A2.43,2.43,0,0,1,320.73,309.8Z" transform="translate(-45.4 -69.05)"/><path class="cls-1" d="M389.47,312.24a2.44,2.44,0,0,1-2.44,2.44H334.78a2.43,2.43,0,0,1-2.43-2.44h0a2.43,2.43,0,0,1,2.43-2.44H387a2.44,2.44,0,0,1,2.44,2.44Z" transform="translate(-45.4 -69.05)"/><path class="cls-1" d="M387,369.08h-22.9a2.48,2.48,0,0,1-2.48-2,2.44,2.44,0,0,1,2.41-2.84h23a2.44,2.44,0,0,1,2.44,2.44h0A2.43,2.43,0,0,1,387,369.08Z" transform="translate(-45.4 -69.05)"/><path class="cls-1" d="M356,369.08H321.36a2.48,2.48,0,0,1-2.48-2,2.44,2.44,0,0,1,2.41-2.84H356a2.44,2.44,0,0,1,2.44,2.44h0A2.43,2.43,0,0,1,356,369.08Z" transform="translate(-45.4 -69.05)"/><path class="cls-1" d="M387,380.22h-9.86a2.49,2.49,0,0,1-2.48-2,2.44,2.44,0,0,1,2.41-2.83H387a2.48,2.48,0,0,1,2.48,2A2.44,2.44,0,0,1,387,380.22Z" transform="translate(-45.4 -69.05)"/><path class="cls-1" d="M370.5,378.18a2.48,2.48,0,0,1-2.47,2H322.61a2.48,2.48,0,0,1-2.47-2,2.44,2.44,0,0,1,2.4-2.83h45.55A2.44,2.44,0,0,1,370.5,378.18Z" transform="translate(-45.4 -69.05)"/><rect class="cls-8" x="258.35" y="195.04" width="85.72" height="15.67" rx="1.88"/><rect class="cls-5" x="161.41" y="123.11" width="181.62" height="64.84" rx="3.28"/><g class="cls-21"><rect class="cls-20" x="295.13" y="128.16" width="5" height="192.84" transform="translate(-58 362.36) rotate(-70.73)"/><rect class="cls-20" x="201.2" y="222.08" width="192.84" height="5" transform="translate(-102.85 41.78) rotate(-19.27)"/></g><polygon class="cls-22" points="268.96 158.28 297.95 187.27 274.52 210.71 268.96 158.28"/><path class="cls-8" d="M137,202.2a4.8,4.8,0,0,0-4.8,4.8V381.84a4.79,4.79,0,0,0,4.8,4.79h29.51V202.2Z" transform="translate(-45.4 -69.05)"/><path class="cls-22" d="M318.75,202.2H166.49V386.63H318.75a4.79,4.79,0,0,0,4.8-4.79V207A4.8,4.8,0,0,0,318.75,202.2Z" transform="translate(-45.4 -69.05)"/><path class="cls-1" d="M157.91,221.81H140.76A2.77,2.77,0,0,1,138,219h0a2.78,2.78,0,0,1,2.78-2.78h17.15a2.78,2.78,0,0,1,2.78,2.78h0A2.77,2.77,0,0,1,157.91,221.81Z" transform="translate(-45.4 -69.05)"/><path class="cls-1" d="M157.91,246.94H140.76a2.78,2.78,0,0,1-2.78-2.78h0a2.77,2.77,0,0,1,2.78-2.78h17.15a2.77,2.77,0,0,1,2.78,2.78h0A2.78,2.78,0,0,1,157.91,246.94Z" transform="translate(-45.4 -69.05)"/><path class="cls-1" d="M157.91,272.07H140.76a2.78,2.78,0,0,1-2.78-2.78h0a2.77,2.77,0,0,1,2.78-2.78h17.15a2.77,2.77,0,0,1,2.78,2.78h0A2.78,2.78,0,0,1,157.91,272.07Z" transform="translate(-45.4 -69.05)"/><path class="cls-1" d="M157.91,297.2H140.76a2.78,2.78,0,0,1-2.78-2.78h0a2.77,2.77,0,0,1,2.78-2.78h17.15a2.77,2.77,0,0,1,2.78,2.78h0A2.78,2.78,0,0,1,157.91,297.2Z" transform="translate(-45.4 -69.05)"/><path class="cls-1" d="M157.91,322.32H140.76a2.77,2.77,0,0,1-2.78-2.77h0a2.77,2.77,0,0,1,2.78-2.78h17.15a2.77,2.77,0,0,1,2.78,2.78h0A2.77,2.77,0,0,1,157.91,322.32Z" transform="translate(-45.4 -69.05)"/><rect class="cls-1" x="92.58" y="272.84" width="22.71" height="5.56" rx="2.78"/><path class="cls-1" d="M157.91,372.58H140.76A2.77,2.77,0,0,1,138,369.8h0a2.78,2.78,0,0,1,2.78-2.78h17.15a2.78,2.78,0,0,1,2.78,2.78h0A2.77,2.77,0,0,1,157.91,372.58Z" transform="translate(-45.4 -69.05)"/><path class="cls-20" d="M207.36,226.33H179.24a2.89,2.89,0,0,1,0-5.78h28.12a2.89,2.89,0,1,1,0,5.78Z" transform="translate(-45.4 -69.05)"/><path class="cls-20" d="M258.31,226.33H216.86a2.89,2.89,0,0,1,0-5.78h41.45a2.89,2.89,0,0,1,0,5.78Z" transform="translate(-45.4 -69.05)"/><path class="cls-6" d="M187,239.27h-7.77a2.89,2.89,0,0,1,0-5.77H187a2.89,2.89,0,1,1,0,5.77Z" transform="translate(-45.4 -69.05)"/><path class="cls-5" d="M267.18,239.27H194.69a2.89,2.89,0,0,1,0-5.77h72.49a2.89,2.89,0,1,1,0,5.77Z" transform="translate(-45.4 -69.05)"/><path class="cls-20" d="M207.36,312.33H179.24a2.89,2.89,0,0,1,0-5.77h28.12a2.89,2.89,0,1,1,0,5.77Z" transform="translate(-45.4 -69.05)"/><path class="cls-5" d="M226.4,312.33H216.18a2.89,2.89,0,1,1,0-5.77H226.4a2.89,2.89,0,0,1,0,5.77Z" transform="translate(-45.4 -69.05)"/><path class="cls-6" d="M300.86,312.33h-64.8a2.89,2.89,0,0,1,0-5.77h64.8a2.89,2.89,0,1,1,0,5.77Z" transform="translate(-45.4 -69.05)"/><path class="cls-20" d="M233.21,325.28h-54a2.89,2.89,0,0,1,0-5.78h54a2.89,2.89,0,0,1,0,5.78Z" transform="translate(-45.4 -69.05)"/><path class="cls-6" d="M257.86,325.28H241.42a2.89,2.89,0,0,1,0-5.78h16.44a2.89,2.89,0,0,1,0,5.78Z" transform="translate(-45.4 -69.05)"/><path class="cls-20" d="M293.39,325.28H266.85a2.89,2.89,0,0,1,0-5.78h26.54a2.89,2.89,0,0,1,0,5.78Z" transform="translate(-45.4 -69.05)"/><path class="cls-20" d="M201.15,269.33H179.24a2.89,2.89,0,0,1,0-5.77h21.91a2.89,2.89,0,1,1,0,5.77Z" transform="translate(-45.4 -69.05)"/><path class="cls-20" d="M285.1,269.33H210.64a2.89,2.89,0,1,1,0-5.77H285.1a2.89,2.89,0,0,1,0,5.77Z" transform="translate(-45.4 -69.05)"/><path class="cls-5" d="M231.87,282.27H179.24a2.89,2.89,0,0,1,0-5.77h52.63a2.89,2.89,0,1,1,0,5.77Z" transform="translate(-45.4 -69.05)"/><path class="cls-6" d="M261.49,282.27H243a2.89,2.89,0,0,1,0-5.77h18.5a2.89,2.89,0,1,1,0,5.77Z" transform="translate(-45.4 -69.05)"/><path class="cls-20" d="M201.15,355.34H179.24a2.89,2.89,0,0,1,0-5.78h21.91a2.89,2.89,0,1,1,0,5.78Z" transform="translate(-45.4 -69.05)"/><path class="cls-20" d="M285.1,355.34H210.64a2.89,2.89,0,1,1,0-5.78H285.1a2.89,2.89,0,0,1,0,5.78Z" transform="translate(-45.4 -69.05)"/><path class="cls-5" d="M231.87,368.28H179.24a2.89,2.89,0,0,1,0-5.77h52.63a2.89,2.89,0,1,1,0,5.77Z" transform="translate(-45.4 -69.05)"/><path class="cls-6" d="M261.49,368.28H243a2.89,2.89,0,0,1,0-5.77h18.5a2.89,2.89,0,1,1,0,5.77Z" transform="translate(-45.4 -69.05)"/><rect class="cls-23" x="369.02" y="120.68" width="24.93" height="24.93" rx="2.17"/><path class="cls-23" d="M461.69,200.06H447.84a2.89,2.89,0,1,1,0-5.77h13.85a2.89,2.89,0,1,1,0,5.77Z" transform="translate(-45.4 -69.05)"/><path class="cls-23" d="M479.2,200.06h-8a2.89,2.89,0,1,1,0-5.77h8a2.89,2.89,0,1,1,0,5.77Z" transform="translate(-45.4 -69.05)"/><path class="cls-23" d="M515.65,210.12H447.84a2.89,2.89,0,1,1,0-5.78h67.81a2.89,2.89,0,0,1,0,5.78Z" transform="translate(-45.4 -69.05)"/><path class="cls-23" d="M547.62,210.12H523.88a2.89,2.89,0,1,1,0-5.78h23.74a2.89,2.89,0,0,1,0,5.78Z" transform="translate(-45.4 -69.05)"/><rect class="cls-6" x="369.02" y="168.01" width="136.08" height="81.52" rx="3.04"/><g class="cls-24"><polygon class="cls-18" points="485.31 178.62 429.79 249.53 540.83 249.53 485.31 178.62"/><polygon class="cls-17" points="436.34 198.1 396.07 249.53 476.61 249.53 436.34 198.1"/><circle class="cls-18" cx="400.97" cy="191.63" r="6.47"/></g><path class="cls-6" d="M486,331.41H439.68a2.89,2.89,0,1,1,0-5.77H486a2.89,2.89,0,1,1,0,5.77Z" transform="translate(-45.4 -69.05)"/><path class="cls-17" d="M503.48,331.41h-8a2.89,2.89,0,1,1,0-5.77h8a2.89,2.89,0,0,1,0,5.77Z" transform="translate(-45.4 -69.05)"/><path class="cls-6" d="M446,341.47h-6.31a2.89,2.89,0,1,1,0-5.78H446a2.89,2.89,0,0,1,0,5.78Z" transform="translate(-45.4 -69.05)"/><path class="cls-6" d="M492.57,341.47H454.75a2.89,2.89,0,1,1,0-5.78h37.82a2.89,2.89,0,1,1,0,5.78Z" transform="translate(-45.4 -69.05)"/><path class="cls-6" d="M547.62,341.47H502.35a2.89,2.89,0,0,1,0-5.78h45.27a2.89,2.89,0,1,1,0,5.78Z" transform="translate(-45.4 -69.05)"/><circle class="cls-17" cx="376.94" cy="264.5" r="7.91"/><path class="cls-6" d="M454.38,358.94h-14.7a2.89,2.89,0,0,1,0-5.78h14.7a2.89,2.89,0,0,1,0,5.78Z" transform="translate(-45.4 -69.05)"/><path class="cls-6" d="M471.89,358.94h-8a2.89,2.89,0,0,1,0-5.78h8a2.89,2.89,0,0,1,0,5.78Z" transform="translate(-45.4 -69.05)"/><path class="cls-6" d="M463.5,369H439.68a2.89,2.89,0,1,1,0-5.77H463.5a2.89,2.89,0,1,1,0,5.77Z" transform="translate(-45.4 -69.05)"/><path class="cls-17" d="M525,369H472.26a2.89,2.89,0,1,1,0-5.77H525a2.89,2.89,0,0,1,0,5.77Z" transform="translate(-45.4 -69.05)"/><path class="cls-6" d="M547.62,369H534.77a2.89,2.89,0,1,1,0-5.77h12.85a2.89,2.89,0,1,1,0,5.77Z" transform="translate(-45.4 -69.05)"/><circle class="cls-17" cx="376.94" cy="292.02" r="7.91"/><path class="cls-17" d="M546.6,385.1H418.33a3.91,3.91,0,0,1-3.9-3.9h0a3.91,3.91,0,0,1,3.9-3.91H546.6a3.91,3.91,0,0,1,3.91,3.91h0A3.91,3.91,0,0,1,546.6,385.1Z" transform="translate(-45.4 -69.05)"/><rect class="cls-25" x="278.14" y="253.64" width="65.92" height="33.49"/></svg>