<svg id="Layer_20" data-name="Layer 20" xmlns="http://www.w3.org/2000/svg" xmlns:xlink="http://www.w3.org/1999/xlink" viewBox="0 0 544.78 427"><defs><style>.cls-1{fill:#76a5d8;}.cls-2{fill:#ee4993;}.cls-3{fill:#79d1f1;}.cls-4{fill:#f5982d;}.cls-5{fill:#f4b027;}.cls-6{fill:#f0e6f2;}.cls-7{fill:#e4d7ea;}.cls-8{clip-path:url(#clip-path);}.cls-9{fill:#718bc6;}.cls-10{fill:#7e61aa;}.cls-11{fill:#ed2480;}.cls-12{clip-path:url(#clip-path-2);}.cls-13{fill:#ed1c80;}.cls-14{clip-path:url(#clip-path-3);}.cls-15{clip-path:url(#clip-path-4);}.cls-16{fill:#f4792c;}.cls-17{clip-path:url(#clip-path-5);}.cls-18{fill:#f170ab;}.cls-19{fill:#fff;}.cls-20{clip-path:url(#clip-path-6);}.cls-21{fill:#b295c6;}.cls-22{fill:#d1bbdb;}.cls-23{fill:#f2a0c5;}.cls-24{fill:#c1a9d1;}.cls-25{fill:#d7eff4;}.cls-26{fill:#38c6f4;}.cls-27{fill:#a8dee9;}.cls-28{fill:#47c2ca;}.cls-29{fill:#775ea8;}</style><clipPath id="clip-path" transform="translate(-37.19 -65.83)"><path class="cls-1" d="M307.89,338.35c3.95,6.33,7.95,12.74,10.27,19.84s2.84,15.05-.13,21.9c-1.38,3.18-3.67,6.19-6.94,7.35s-7.36.16-10.26-2a23,23,0,0,1-6.49-8.63,73.34,73.34,0,0,1-1,17.19c-.79,4.48-2.16,9.15-5.56,12.18-5.38,4.79-15.12,3-18.44-3.4,1.12,2.15-2.71,9.43-3.62,11.37-2,4.34-4.71,8.7-8.37,11.88-10.9,9.49-21.87-1.44-23.19-13a42.72,42.72,0,0,1,12-34.57c-1.75,1.33-4.44.78-6-.77a9.32,9.32,0,0,1-2.32-6,18.94,18.94,0,0,1,14.78-19.21c-7.16-1-11.26-9.43-10.38-16.61A21.58,21.58,0,0,1,277.63,322Z"/></clipPath><clipPath id="clip-path-2" transform="translate(-37.19 -65.83)"><path class="cls-2" d="M449.35,196.39l-7.55-3.1,9.6-4.19A94.82,94.82,0,0,0,455,170.81s-34.92-6.35-58,11.58a101.1,101.1,0,0,0-14.11,13.25l.9,12.21-5.26-6.78c-9.89,13.42-13.18,26.86-7.13,34.65,8.95,11.53,34.92,6.34,58-11.58C437.54,217.85,445.53,204.69,449.35,196.39Z"/></clipPath><clipPath id="clip-path-3" transform="translate(-37.19 -65.83)"><path class="cls-3" d="M209.92,334.35l7.44,3.34-9.73,3.88a94.92,94.92,0,0,0-4.23,18.16s34.7,7.47,58.36-9.7a100,100,0,0,0,14.53-12.79l-.5-12.24,5,7c10.32-13.1,14-26.42,8.25-34.41-8.58-11.81-34.7-7.46-58.36,9.71C222.42,313.28,214,326.17,209.92,334.35Z"/></clipPath><clipPath id="clip-path-4" transform="translate(-37.19 -65.83)"><path class="cls-4" d="M386.32,151.34c8.05-2.26,13.58-11.19,12-19.4a9.32,9.32,0,0,0-3.26-5.88c-1.85-1.35-4.71-1.48-6.3.18,1.07-3.74,1.16-8-1-11.23s-7.21-4.56-10.11-2c.62-5.05,1.23-10.28-.31-15.12s-5.89-9.19-11-9c-4.52.16-8.22,3.73-10.49,7.63a28.68,28.68,0,0,0-1.3,25.85c-3.37-3-9.08-1.81-11.93,1.65s-3.18,8.46-2,12.77,3.76,8.11,6.27,11.82c-4.05-1.36-8.37,2.54-8.88,6.78s1.69,8.31,4.26,11.71l4,31.51,35.8-18.6Z"/></clipPath><clipPath id="clip-path-5" transform="translate(-37.19 -65.83)"><path class="cls-5" d="M326.88,211a27.43,27.43,0,0,1,13.59-27c5.23-2.87,11.23-3.91,17-5.45s11.65-3.79,15.5-8.35c4.64-5.51,5.4-13.28,8.89-19.59,3.67-6.63,10.31-11.35,17.57-13.54s15.58-1.3,23,.25a17.06,17.06,0,0,0-12.88,16.8c.15,3.84,1.64,7.5,2.25,11.3a29.32,29.32,0,0,1-.56,11.46,17.48,17.48,0,0,1-3,6.86c-1.95,2.48-4.83,4.07-6.89,6.46-4.94,5.74-4,14.24-4.73,21.77A44.56,44.56,0,0,1,381,241.62a43,43,0,0,1-32,9.68Z"/></clipPath><clipPath id="clip-path-6" transform="translate(-37.19 -65.83)"><rect class="cls-6" x="97.58" y="120.97" width="231.74" height="97.88" rx="3.93"/></clipPath></defs><path class="cls-7" d="M272.35,68.53c-22.91,4.41-44.85,13.88-65.17,26.12-16.78,10.1-35.29,17.78-52.53,27.27-25.75,14.19-56.45,29.63-75.42,52.8-34.7,42.39-41.66,116.63-4.94,159.66,16.32,19.11,34.8,27.82,44.83,52.78,12.73,31.64,19.35,63.72,47.81,85.79,30,23.27,74.44,27.12,106.64,6.2,21.13-13.73,35-35.63,54.94-50.75,43.07-32.63,85.21-11.32,132.54-7.14,35,3.09,70.22-15,88.89-44.62a82.46,82.46,0,0,0,13.07-43c.15-17.07-8.56-31.52-9.79-48.23-1.41-19.07,10.94-34.49,19.4-50.4C605,174.12,547.89,98.08,485,90.39c-29.34-3.59-58.15,11.36-87.53,4C370.18,87.52,347.14,71,318.83,67.12A142.06,142.06,0,0,0,272.35,68.53Z" transform="translate(-37.19 -65.83)"/><path class="cls-1" d="M307.89,338.35c3.95,6.33,7.95,12.74,10.27,19.84s2.84,15.05-.13,21.9c-1.38,3.18-3.67,6.19-6.94,7.35s-7.36.16-10.26-2a23,23,0,0,1-6.49-8.63,73.34,73.34,0,0,1-1,17.19c-.79,4.48-2.16,9.15-5.56,12.18-5.38,4.79-15.12,3-18.44-3.4,1.12,2.15-2.71,9.43-3.62,11.37-2,4.34-4.71,8.7-8.37,11.88-10.9,9.49-21.87-1.44-23.19-13a42.72,42.72,0,0,1,12-34.57c-1.75,1.33-4.44.78-6-.77a9.32,9.32,0,0,1-2.32-6,18.94,18.94,0,0,1,14.78-19.21c-7.16-1-11.26-9.43-10.38-16.61A21.58,21.58,0,0,1,277.63,322Z" transform="translate(-37.19 -65.83)"/><g class="cls-8"><path class="cls-9" d="M246.94,435.34c-.81-8.32.79-16.53,3.28-24.45s5.7-15.91,8.86-23.72c5.92-14.59,12.72-29.12,21.29-42.35a101.61,101.61,0,0,1,16.22-19.64c1.18-1.09-.59-2.86-1.77-1.77C283.45,333.9,275.3,347.27,268.33,361a352.36,352.36,0,0,0-19.58,46.39c-3.05,9-5.24,18.46-4.31,28,.16,1.59,2.66,1.61,2.5,0Z" transform="translate(-37.19 -65.83)"/><rect class="cls-9" x="257.39" y="392.37" width="3" height="30.69" transform="translate(-120.12 0.69) rotate(-12.64)"/><rect class="cls-9" x="262.48" y="380.14" width="3" height="31.74" transform="translate(-117.44 1.52) rotate(-12.64)"/><rect class="cls-9" x="233.76" y="364.05" width="38.08" height="3" transform="translate(-146.46 41.96) rotate(-19.89)"/><rect class="cls-9" x="234.31" y="356.98" width="41.56" height="3" transform="translate(-143.92 42.31) rotate(-19.89)"/></g><path class="cls-10" d="M108.57,260.3a141.48,141.48,0,0,1-30.19-38.71A146,146,0,0,1,62.94,175a138.64,138.64,0,0,1-1.33-27.61c.13-2.41-3.62-2.4-3.75,0a144.48,144.48,0,0,0,6.34,49.87,148.56,148.56,0,0,0,22.61,44.7,142.75,142.75,0,0,0,19.11,21c1.79,1.61,4.45-1,2.65-2.65Z" transform="translate(-37.19 -65.83)"/><path class="cls-10" d="M79.37,140.43c-6.46,8.75-15.13,13.31-19.38,10.18s-2.46-12.77,4-21.52,19.38-10.18,19.38-10.18S85.82,131.68,79.37,140.43Z" transform="translate(-37.19 -65.83)"/><path class="cls-10" d="M53.49,137.69c6.15,5.88,8.81,13.07,6,16.05s-10.15.64-16.3-5.25-6-16.05-6-16.05S47.35,131.81,53.49,137.69Z" transform="translate(-37.19 -65.83)"/><path class="cls-10" d="M55.32,166.33c4.35,3.69,6.42,8.4,4.63,10.51s-6.77.82-11.12-2.87-4.63-10.51-4.63-10.51S51,162.63,55.32,166.33Z" transform="translate(-37.19 -65.83)"/><path class="cls-10" d="M64.47,217.74c7.53.74,13.35,4.3,13,7.95s-6.75,6-14.28,5.29-13-7.95-13-7.95S56.94,217,64.47,217.74Z" transform="translate(-37.19 -65.83)"/><path class="cls-11" d="M146.39,303.76h-.13a2,2,0,0,1-1.87-2.12c.18-2.84.42-5.49.75-8.09a2,2,0,0,1,2.24-1.74,2,2,0,0,1,1.73,2.24c-.32,2.52-.56,5.08-.73,7.83A2,2,0,0,1,146.39,303.76Z" transform="translate(-37.19 -65.83)"/><path class="cls-11" d="M261.23,443.82h-1.05a2,2,0,0,1-2-2,2,2,0,0,1,2-2c1.42,0,2.87,0,4.33-.06a90.58,90.58,0,0,0,10.74-1.05,2,2,0,1,1,.62,4,94.11,94.11,0,0,1-11.21,1.1Q263,443.82,261.23,443.82Zm-16.39-1.48-.36,0a99.88,99.88,0,0,1-15.23-4,2,2,0,1,1,1.32-3.78,95.68,95.68,0,0,0,14.62,3.88,2,2,0,0,1-.35,4Zm-29.11-10.12a2,2,0,0,1-.92-.22,127.25,127.25,0,0,1-13.45-8.13,2,2,0,0,1,2.28-3.29,120.84,120.84,0,0,0,13,7.87,2,2,0,0,1-.93,3.77ZM190.31,414.7a2,2,0,0,1-1.32-.5,141.81,141.81,0,0,1-10.37-10.07l-.84-.91a2,2,0,1,1,2.94-2.71l.82.88a137.81,137.81,0,0,0,10.09,9.8,2,2,0,0,1,.18,2.83A2,2,0,0,1,190.31,414.7Zm-20.75-22.87a2,2,0,0,1-1.64-.85,122.27,122.27,0,0,1-8.18-13.4,2,2,0,1,1,3.54-1.87,116,116,0,0,0,7.92,13,2,2,0,0,1-.49,2.79A2,2,0,0,1,169.56,391.83Zm-14.38-27.28a2,2,0,0,1-1.87-1.3,137.84,137.84,0,0,1-4.68-15,2,2,0,0,1,3.88-1,134.32,134.32,0,0,0,4.54,14.54,2,2,0,0,1-1.16,2.58A2.17,2.17,0,0,1,155.18,364.55Zm-7.57-29.93a2,2,0,0,1-2-1.73,155.05,155.05,0,0,1-1.41-15.6,2,2,0,0,1,4-.16,150.23,150.23,0,0,0,1.37,15.21,2,2,0,0,1-1.7,2.26Z" transform="translate(-37.19 -65.83)"/><path class="cls-11" d="M290.61,439.05a2,2,0,0,1-.62-3.9c2.46-.81,4.93-1.74,7.34-2.75a2,2,0,1,1,1.55,3.68c-2.51,1.06-5.08,2-7.64,2.86A2,2,0,0,1,290.61,439.05Z" transform="translate(-37.19 -65.83)"/><path class="cls-11" d="M329.31,116.61a2,2,0,0,1-.22-4c2.65-.31,5.3-.53,8.09-.68a2,2,0,0,1,.21,4c-2.71.14-5.28.36-7.85.65Z" transform="translate(-37.19 -65.83)"/><path class="cls-11" d="M493.79,222.86a2,2,0,0,1-1.9-1.4A160.74,160.74,0,0,0,486,205.73a2,2,0,1,1,3.66-1.61,162.84,162.84,0,0,1,6.08,16.13,2,2,0,0,1-1.3,2.51A1.86,1.86,0,0,1,493.79,222.86Zm-13.66-31.14a2,2,0,0,1-1.74-1,150.28,150.28,0,0,0-9.16-14.08,2,2,0,1,1,3.23-2.37,157.06,157.06,0,0,1,9.4,14.46,2,2,0,0,1-.74,2.73A2,2,0,0,1,480.13,191.72ZM460,164.31a2,2,0,0,1-1.46-.64A149.48,149.48,0,0,0,446.46,152a2,2,0,1,1,2.6-3,151.17,151.17,0,0,1,12.42,12,2,2,0,0,1-.11,2.82A2,2,0,0,1,460,164.31Zm-25.77-22.15a2.05,2.05,0,0,1-1.12-.35,146.33,146.33,0,0,0-14.42-8.61,2,2,0,0,1,1.85-3.54,150.46,150.46,0,0,1,14.82,8.84,2,2,0,0,1-1.13,3.66Zm-30.13-15.73a2,2,0,0,1-.72-.13,155.35,155.35,0,0,0-16-5.17,2,2,0,0,1,1-3.87,161.06,161.06,0,0,1,16.41,5.3,2,2,0,0,1-.72,3.87Zm-32.86-8.71a1.55,1.55,0,0,1-.31,0A164.53,164.53,0,0,0,354.2,116a2,2,0,0,1,.21-4,169.56,169.56,0,0,1,17.14,1.78,2,2,0,0,1-.3,4Z" transform="translate(-37.19 -65.83)"/><path class="cls-11" d="M499.45,247.24a2,2,0,0,1-2-1.71c-.38-2.62-.82-5.16-1.35-7.77a2,2,0,0,1,1.57-2.36A2,2,0,0,1,500,237c.55,2.68,1,5.29,1.39,8a2,2,0,0,1-1.69,2.27Z" transform="translate(-37.19 -65.83)"/><path class="cls-2" d="M449.35,196.39l-7.55-3.1,9.6-4.19A94.82,94.82,0,0,0,455,170.81s-34.92-6.35-58,11.58a101.1,101.1,0,0,0-14.11,13.25l.9,12.21-5.26-6.78c-9.89,13.42-13.18,26.86-7.13,34.65,8.95,11.53,34.92,6.34,58-11.58C437.54,217.85,445.53,204.69,449.35,196.39Z" transform="translate(-37.19 -65.83)"/><g class="cls-12"><rect class="cls-13" x="359.84" y="200.7" width="110.28" height="2.43" transform="translate(-73.84 231.02) rotate(-37.82)"/><rect class="cls-13" x="432.35" y="187.24" width="2.43" height="35.56" transform="translate(96.58 513.53) rotate(-76.62)"/><rect class="cls-13" x="424.79" y="193.11" width="2.43" height="35.56" transform="translate(85.07 510.7) rotate(-76.62)"/><rect class="cls-13" x="394.27" y="216.8" width="2.43" height="35.56" transform="translate(38.58 499.22) rotate(-76.62)"/><rect class="cls-13" x="392.66" y="182.03" width="2.43" height="34.49" transform="translate(-62.08 -6.16) rotate(-8.4)"/><rect class="cls-13" x="396.95" y="178.7" width="2.43" height="34.49" transform="translate(-61.55 -5.57) rotate(-8.4)"/><rect class="cls-13" x="428.12" y="154.5" width="2.43" height="34.49" transform="translate(-57.68 -1.28) rotate(-8.4)"/></g><path class="cls-3" d="M209.92,334.35l7.44,3.34-9.73,3.88a94.92,94.92,0,0,0-4.23,18.16s34.7,7.47,58.36-9.7a100,100,0,0,0,14.53-12.79l-.5-12.24,5,7c10.32-13.1,14-26.42,8.25-34.41-8.58-11.81-34.7-7.46-58.36,9.71C222.42,313.28,214,326.17,209.92,334.35Z" transform="translate(-37.19 -65.83)"/><g class="cls-14"><rect class="cls-1" x="189.31" y="328.73" width="110.28" height="2.43" transform="translate(-184.38 140.66) rotate(-35.97)"/><rect class="cls-1" x="224.76" y="308.45" width="2.43" height="35.56" transform="translate(-185.35 392.76) rotate(-74.77)"/><rect class="cls-1" x="232.51" y="302.83" width="2.43" height="35.56" transform="translate(-174.21 396.09) rotate(-74.77)"/><rect class="cls-1" x="263.77" y="280.14" width="2.43" height="35.56" transform="translate(-129.26 409.53) rotate(-74.77)"/><rect class="cls-1" x="264.24" y="316.02" width="2.43" height="34.49" transform="translate(-73.49 -33.37) rotate(-6.55)"/><rect class="cls-1" x="259.85" y="319.2" width="2.43" height="34.49" transform="translate(-73.88 -33.85) rotate(-6.55)"/><rect class="cls-1" x="227.91" y="342.38" width="2.43" height="34.49" transform="translate(-76.73 -37.34) rotate(-6.55)"/></g><path class="cls-4" d="M386.32,151.34c8.05-2.26,13.58-11.19,12-19.4a9.32,9.32,0,0,0-3.26-5.88c-1.85-1.35-4.71-1.48-6.3.18,1.07-3.74,1.16-8-1-11.23s-7.21-4.56-10.11-2c.62-5.05,1.23-10.28-.31-15.12s-5.89-9.19-11-9c-4.52.16-8.22,3.73-10.49,7.63a28.68,28.68,0,0,0-1.3,25.85c-3.37-3-9.08-1.81-11.93,1.65s-3.18,8.46-2,12.77,3.76,8.11,6.27,11.82c-4.05-1.36-8.37,2.54-8.88,6.78s1.69,8.31,4.26,11.71l4,31.51,35.8-18.6Z" transform="translate(-37.19 -65.83)"/><g class="cls-15"><path class="cls-16" d="M365.42,84.91c-2.91,15-1,30.27.92,45.27,1,7.63,2,15.27,2.45,23a147.33,147.33,0,0,1-5.38,48.4.62.62,0,0,0,1.2.33A148.85,148.85,0,0,0,370.2,157c-.46-15.39-3.62-30.52-4.71-45.86a99.06,99.06,0,0,1,1.14-25.85c.15-.79-1.05-1.12-1.21-.33Z" transform="translate(-37.19 -65.83)"/><path class="cls-16" d="M365,104.3a10,10,0,0,0,3.52-2.07c1.17-.93,2.32-1.89,3.44-2.9a76.46,76.46,0,0,0,6.34-6.39c.53-.6-.35-1.49-.89-.89a74.59,74.59,0,0,1-6,6.08q-1.53,1.4-3.15,2.7a10.28,10.28,0,0,1-3.61,2.26.63.63,0,0,0,.33,1.21Z" transform="translate(-37.19 -65.83)"/><path class="cls-16" d="M365.25,110.87A38.51,38.51,0,0,0,383.52,97c.47-.65-.61-1.28-1.08-.63a37.08,37.08,0,0,1-17.52,13.32c-.75.27-.43,1.48.33,1.21Z" transform="translate(-37.19 -65.83)"/><path class="cls-16" d="M368,135.67c9.78-4.5,17.31-12.82,22.29-22.22.38-.71-.7-1.34-1.08-.63-4.89,9.24-12.23,17.36-21.84,21.77-.73.34-.1,1.41.63,1.08Z" transform="translate(-37.19 -65.83)"/><path class="cls-16" d="M342.94,122.93A59.42,59.42,0,0,0,368.73,150c.71.37,1.34-.7.63-1.08A58.27,58.27,0,0,1,344,122.29c-.34-.72-1.42-.09-1.08.64Z" transform="translate(-37.19 -65.83)"/><path class="cls-16" d="M339.32,125.89a68,68,0,0,0,29.89,30.69c.72.37,1.35-.71.64-1.08a66.81,66.81,0,0,1-29.45-30.24c-.35-.72-1.43-.09-1.08.63Z" transform="translate(-37.19 -65.83)"/></g><path class="cls-5" d="M326.88,211a27.43,27.43,0,0,1,13.59-27c5.23-2.87,11.23-3.91,17-5.45s11.65-3.79,15.5-8.35c4.64-5.51,5.4-13.28,8.89-19.59,3.67-6.63,10.31-11.35,17.57-13.54s15.58-1.3,23,.25a17.06,17.06,0,0,0-12.88,16.8c.15,3.84,1.64,7.5,2.25,11.3a29.32,29.32,0,0,1-.56,11.46,17.48,17.48,0,0,1-3,6.86c-1.95,2.48-4.83,4.07-6.89,6.46-4.94,5.74-4,14.24-4.73,21.77A44.56,44.56,0,0,1,381,241.62a43,43,0,0,1-32,9.68Z" transform="translate(-37.19 -65.83)"/><g class="cls-17"><path class="cls-4" d="M431.26,136.92c-11.44-2-22.78,3.74-29.66,12.73a44.27,44.27,0,0,0-7.26,14.75c-1.55,5.44-2.13,11.09-3.62,16.54a32.36,32.36,0,0,1-3.16,7.85,27.6,27.6,0,0,1-5.55,6.68c-4.37,3.91-9.63,6.65-15,9-6.1,2.66-12.41,4.9-18.22,8.18a50.53,50.53,0,0,0-14.34,12.3,61.26,61.26,0,0,0-13,30.42c-.18,1.39-.31,2.78-.4,4.18,0,.54.81.69.84.14a60.69,60.69,0,0,1,10.89-31.11,52.05,52.05,0,0,1,13-13c5.49-3.75,11.72-6.17,17.83-8.69,10.3-4.26,21.35-9.59,26.1-20.38,2.23-5.05,3-10.57,4.09-15.95a52.39,52.39,0,0,1,5.46-15.74A35.74,35.74,0,0,1,410.5,142.4a29.61,29.61,0,0,1,16.29-5,26,26,0,0,1,4.32.39.42.42,0,0,0,.15-.83Z" transform="translate(-37.19 -65.83)"/><path class="cls-4" d="M396.68,159.88a46.75,46.75,0,0,0,16.38-4,45.7,45.7,0,0,0,4.3-2.19.43.43,0,0,0,.09-.6.43.43,0,0,0-.59-.09,45.61,45.61,0,0,1-7.55,3.47A45.15,45.15,0,0,1,396.6,159c-.54,0-.46.88.08.85Z" transform="translate(-37.19 -65.83)"/><path class="cls-4" d="M394.81,165.46c3.13-.13,6.26-.27,9.38-.55a65.11,65.11,0,0,0,9.31-1.47,42.44,42.44,0,0,0,5-1.54.43.43,0,0,0-.3-.8,45.3,45.3,0,0,1-8.95,2.32,90.68,90.68,0,0,1-9.3.94c-1.75.11-3.51.18-5.26.25-.55,0-.47.87.08.85Z" transform="translate(-37.19 -65.83)"/><path class="cls-4" d="M384.7,194.18a41.25,41.25,0,0,0,19.68,3.46,39,39,0,0,0,5.59-.79.44.44,0,0,0,.39-.46.42.42,0,0,0-.46-.38,40.56,40.56,0,0,1-9.89.86,41,41,0,0,1-9.76-1.56,40.45,40.45,0,0,1-5.2-1.9.42.42,0,0,0-.35.77Z" transform="translate(-37.19 -65.83)"/><path class="cls-4" d="M377.07,200.47a30.48,30.48,0,0,0,9.29,5.44,51.64,51.64,0,0,0,11.17,2.73c2.21.32,4.43.55,6.66.75a.43.43,0,1,0,.14-.84,89.42,89.42,0,0,1-11.63-1.64,38.75,38.75,0,0,1-10.22-3.71,27.29,27.29,0,0,1-4.88-3.39c-.41-.36-.94.3-.53.66Z" transform="translate(-37.19 -65.83)"/><path class="cls-4" d="M350,176.82a88,88,0,0,0-1,13.37,34.82,34.82,0,0,0,2.43,13.08,22.81,22.81,0,0,0,4,6.35.43.43,0,0,0,.59.1.42.42,0,0,0,.1-.59,24.11,24.11,0,0,1-5.58-11.63,48.77,48.77,0,0,1-.51-13.27c.18-2.43.48-4.85.81-7.27.08-.54-.76-.68-.83-.14Z" transform="translate(-37.19 -65.83)"/><path class="cls-4" d="M338.85,181.61A73.33,73.33,0,0,0,340,195.4a40.35,40.35,0,0,0,4,12.15,20.46,20.46,0,0,0,4.27,5.47c.41.36,1-.3.54-.66a23.55,23.55,0,0,1-6.28-10.31A55,55,0,0,1,340,189.21c-.22-2.55-.31-5.12-.29-7.68a.44.44,0,0,0-.47-.39.45.45,0,0,0-.38.47Z" transform="translate(-37.19 -65.83)"/><path class="cls-4" d="M365.87,171.29a57.52,57.52,0,0,0,4.57,12.29,56.06,56.06,0,0,0,3.19,5.52,23.88,23.88,0,0,0,3.34,4.09,12,12,0,0,0,5,2.95.43.43,0,0,0,.49-.35.45.45,0,0,0-.35-.49c-3.27-.92-5.67-3.61-7.52-6.32a55.07,55.07,0,0,1-5.74-11.1,57.34,57.34,0,0,1-2.17-6.89.42.42,0,1,0-.79.3Z" transform="translate(-37.19 -65.83)"/></g><path class="cls-10" d="M516.9,224.59H284.38A7.39,7.39,0,0,0,277,232V430.65a7.39,7.39,0,0,0,7.39,7.39H516.9a7.38,7.38,0,0,0,7.38-7.39V232A7.38,7.38,0,0,0,516.9,224.59Z" transform="translate(-37.19 -65.83)"/><path class="cls-18" d="M342.71,86.63H110.19A7.38,7.38,0,0,0,102.8,94V292.68a7.39,7.39,0,0,0,7.39,7.39H342.71a7.39,7.39,0,0,0,7.39-7.39V94A7.38,7.38,0,0,0,342.71,86.63Z" transform="translate(-37.19 -65.83)"/><path class="cls-19" d="M52.61,47.9H299.9a0,0,0,0,1,0,0v191a7.39,7.39,0,0,1-7.39,7.39H60a7.39,7.39,0,0,1-7.39-7.39V47.9A0,0,0,0,1,52.61,47.9Z"/><path class="cls-13" d="M60,32.79H292.51a7.39,7.39,0,0,1,7.39,7.39V47.9a0,0,0,0,1,0,0H52.61a0,0,0,0,1,0,0V40.18A7.39,7.39,0,0,1,60,32.79Z"/><path class="cls-18" d="M104.35,106.18a3.39,3.39,0,1,1-3.38-3.39A3.38,3.38,0,0,1,104.35,106.18Z" transform="translate(-37.19 -65.83)"/><path class="cls-18" d="M118.22,106.18a3.39,3.39,0,1,1-3.39-3.39A3.38,3.38,0,0,1,118.22,106.18Z" transform="translate(-37.19 -65.83)"/><path class="cls-18" d="M132.08,106.18a3.39,3.39,0,1,1-3.38-3.39A3.38,3.38,0,0,1,132.08,106.18Z" transform="translate(-37.19 -65.83)"/><rect class="cls-6" x="60.39" y="55.14" width="231.74" height="97.88" rx="3.93"/><g class="cls-20"><path class="cls-21" d="M219.09,144a7.55,7.55,0,0,0-10.66-6.86,7.94,7.94,0,0,0-14.72,3.7h-.28a5.37,5.37,0,0,0-5.36,5.36h0a5.37,5.37,0,0,0,5.36,5.35h19.28C214.77,151.54,219.09,150.75,219.09,144Z" transform="translate(-37.19 -65.83)"/><path class="cls-22" d="M150.37,178.68a2.13,2.13,0,1,0-.53,4.19H167.7a3.24,3.24,0,0,0,0-6.48,2.17,2.17,0,0,0-.36,0v-.08a6.42,6.42,0,0,0-12.49-2.11,4.62,4.62,0,0,0-2-.45,4.88,4.88,0,0,0-2.67.7,3.48,3.48,0,0,0-1.47,2.79,2.72,2.72,0,0,0,.45,1.81Z" transform="translate(-37.19 -65.83)"/><path class="cls-22" d="M209,151.49a2.21,2.21,0,1,0-.56,4.36H227a3.37,3.37,0,0,0,0-6.74l-.37,0v-.07a6.68,6.68,0,0,0-13-2.2,4.58,4.58,0,0,0-2-.46,5.06,5.06,0,0,0-2.77.72,3.6,3.6,0,0,0-1.53,2.9,2.85,2.85,0,0,0,.46,1.88Z" transform="translate(-37.19 -65.83)"/><path class="cls-13" d="M303.28,138.57,238,218.85H373.15l-65.24-80.28A3,3,0,0,0,303.28,138.57Z" transform="translate(-37.19 -65.83)"/><path class="cls-18" d="M232.17,138.57l-65.24,80.28H302.05l-65.24-80.28A3,3,0,0,0,232.17,138.57Z" transform="translate(-37.19 -65.83)"/></g><path class="cls-23" d="M100.61,245.62h12.24a3.07,3.07,0,0,0,3.07-2.53,3,3,0,0,0-3-3.52H100.69a3.07,3.07,0,0,0-3.07,2.53A3,3,0,0,0,100.61,245.62Z" transform="translate(-37.19 -65.83)"/><path class="cls-23" d="M171.39,245.62H199.2a3.09,3.09,0,0,0,3.08-2.53,3,3,0,0,0-3-3.52H171.47a3.07,3.07,0,0,0-3.07,2.53A3,3,0,0,0,171.39,245.62Z" transform="translate(-37.19 -65.83)"/><path class="cls-23" d="M121.13,243.09a3.09,3.09,0,0,0,3.07,2.53h36.38a3.07,3.07,0,0,0,3.07-2.53,3,3,0,0,0-3-3.52H124.12A3,3,0,0,0,121.13,243.09Z" transform="translate(-37.19 -65.83)"/><path class="cls-23" d="M162.91,253.39h-6.17a3.1,3.1,0,0,0-3.08,2.53,3,3,0,0,0,3,3.53h6.26a3,3,0,0,0,3-3h0A3,3,0,0,0,162.91,253.39Z" transform="translate(-37.19 -65.83)"/><path class="cls-23" d="M97.58,256.42a3,3,0,0,0,3,3h44.86a3,3,0,0,0,3-3h0a3,3,0,0,0-3-3H100.61a3,3,0,0,0-3,3Z" transform="translate(-37.19 -65.83)"/><path class="cls-23" d="M171,256.42a3,3,0,0,0,3,3h25.23a3,3,0,0,0,3-3h0a3,3,0,0,0-3-3H174.06a3,3,0,0,0-3,3Z" transform="translate(-37.19 -65.83)"/><path class="cls-18" d="M198.22,233.06H101.67A4.09,4.09,0,0,1,97.58,229h0a4.09,4.09,0,0,1,4.09-4.09h96.55a4.1,4.1,0,0,1,4.1,4.09h0A4.1,4.1,0,0,1,198.22,233.06Z" transform="translate(-37.19 -65.83)"/><path class="cls-21" d="M326.29,253.39H314a3.1,3.1,0,0,0-3.07,2.53,3,3,0,0,0,3,3.53H326.2a3.1,3.1,0,0,0,3.08-2.53A3,3,0,0,0,326.29,253.39Z" transform="translate(-37.19 -65.83)"/><path class="cls-21" d="M255.51,253.39H227.69a3.08,3.08,0,0,0-3.07,2.53,3,3,0,0,0,3,3.53h27.82a3.1,3.1,0,0,0,3.07-2.53A3,3,0,0,0,255.51,253.39Z" transform="translate(-37.19 -65.83)"/><path class="cls-21" d="M305.77,255.92a3.1,3.1,0,0,0-3.08-2.53H266.31a3.1,3.1,0,0,0-3.07,2.53,3,3,0,0,0,3,3.53h36.55A3,3,0,0,0,305.77,255.92Z" transform="translate(-37.19 -65.83)"/><path class="cls-21" d="M264,245.62h6.18a3.07,3.07,0,0,0,3.07-2.53,3,3,0,0,0-3-3.52H264a3,3,0,0,0-3,3h0A3,3,0,0,0,264,245.62Z" transform="translate(-37.19 -65.83)"/><path class="cls-21" d="M329.32,242.59a3,3,0,0,0-3-3H281.42a3,3,0,0,0-3,3h0a3,3,0,0,0,3,3h44.87a3,3,0,0,0,3-3Z" transform="translate(-37.19 -65.83)"/><path class="cls-21" d="M255.86,242.59a3,3,0,0,0-3-3H227.61a3,3,0,0,0-3,3h0a3,3,0,0,0,3,3h25.23a3,3,0,0,0,3-3Z" transform="translate(-37.19 -65.83)"/><path class="cls-10" d="M325.22,233.06H228.67a4.09,4.09,0,0,1-4.09-4.09h0a4.09,4.09,0,0,1,4.09-4.09h96.55a4.1,4.1,0,0,1,4.1,4.09h0A4.1,4.1,0,0,1,325.22,233.06Z" transform="translate(-37.19 -65.83)"/><path class="cls-10" d="M267.05,79.17h21.79a6.1,6.1,0,0,1,5.8,4.24l4.87,15.22H277.84Z" transform="translate(-37.19 -65.83)"/><path class="cls-21" d="M250.69,147.3l17.68-12.92,17.68,12.92V82.11a2.86,2.86,0,0,1,.61-2,2.92,2.92,0,0,1,2.33-1H253.62a2.94,2.94,0,0,0-2.93,2.94Z" transform="translate(-37.19 -65.83)"/><path class="cls-23" d="M212.43,177.49a2.5,2.5,0,0,1-1.94-4.08l4.13-5.08a2.5,2.5,0,0,1,3.88,3.15l-4.13,5.08A2.51,2.51,0,0,1,212.43,177.49Z" transform="translate(-37.19 -65.83)"/><path class="cls-23" d="M222.31,165.32a2.46,2.46,0,0,1-1.57-.56,2.5,2.5,0,0,1-.36-3.52L233,145.72a2.5,2.5,0,0,1,3.88,3.15L224.26,164.4A2.54,2.54,0,0,1,222.31,165.32Z" transform="translate(-37.19 -65.83)"/><rect class="cls-21" x="60.39" y="204.2" width="104.74" height="31.95" rx="2.76"/><rect class="cls-21" x="187.39" y="204.2" width="104.74" height="31.95" rx="2.76"/><path class="cls-24" d="M119.3,284h-7.6a3.23,3.23,0,0,1-3.23-3.23h0a3.24,3.24,0,0,1,3.23-3.24h7.6a3.24,3.24,0,0,1,3.23,3.24h0A3.23,3.23,0,0,1,119.3,284Z" transform="translate(-37.19 -65.83)"/><path class="cls-24" d="M188.19,284H129a3.23,3.23,0,0,1-3.24-3.23h0A3.24,3.24,0,0,1,129,277.5h59.16a3.24,3.24,0,0,1,3.24,3.24h0A3.23,3.23,0,0,1,188.19,284Z" transform="translate(-37.19 -65.83)"/><path class="cls-24" d="M131.12,294.53H111.7a3.24,3.24,0,0,1-3.23-3.24h0a3.24,3.24,0,0,1,3.23-3.24h19.42a3.24,3.24,0,0,1,3.24,3.24h0A3.24,3.24,0,0,1,131.12,294.53Z" transform="translate(-37.19 -65.83)"/><path class="cls-24" d="M188.19,294.53H155.38a3.24,3.24,0,0,1-3.24-3.24h0a3.24,3.24,0,0,1,3.24-3.24h32.81a3.24,3.24,0,0,1,3.24,3.24h0A3.24,3.24,0,0,1,188.19,294.53Z" transform="translate(-37.19 -65.83)"/><path class="cls-24" d="M145.08,294.53h-4.22a3.24,3.24,0,0,1-3.24-3.24h0a3.24,3.24,0,0,1,3.24-3.24h4.22a3.24,3.24,0,0,1,3.24,3.24h0A3.24,3.24,0,0,1,145.08,294.53Z" transform="translate(-37.19 -65.83)"/><path class="cls-25" d="M251.8,185.86H499.09a0,0,0,0,1,0,0v191a7.39,7.39,0,0,1-7.39,7.39H259.18a7.39,7.39,0,0,1-7.39-7.39v-191A0,0,0,0,1,251.8,185.86Z"/><path class="cls-3" d="M259.18,170.76H491.7a7.39,7.39,0,0,1,7.39,7.39v7.71a0,0,0,0,1,0,0H251.8a0,0,0,0,1,0,0v-7.71a7.39,7.39,0,0,1,7.39-7.39Z"/><path class="cls-26" d="M303.54,244.14a3.39,3.39,0,1,1-3.39-3.38A3.39,3.39,0,0,1,303.54,244.14Z" transform="translate(-37.19 -65.83)"/><path class="cls-26" d="M317.41,244.14a3.39,3.39,0,1,1-3.39-3.38A3.39,3.39,0,0,1,317.41,244.14Z" transform="translate(-37.19 -65.83)"/><path class="cls-26" d="M331.27,244.14a3.39,3.39,0,1,1-3.38-3.38A3.38,3.38,0,0,1,331.27,244.14Z" transform="translate(-37.19 -65.83)"/><path class="cls-27" d="M251.8,185.86h64.42a0,0,0,0,1,0,0V384.2a0,0,0,0,1,0,0H259.29a7.49,7.49,0,0,1-7.49-7.49V185.86A0,0,0,0,1,251.8,185.86Z"/><path class="cls-19" d="M329.86,272.53H300.12a2.28,2.28,0,0,1,0-4.55h29.74a2.28,2.28,0,0,1,0,4.55Z" transform="translate(-37.19 -65.83)"/><path class="cls-19" d="M342.27,272.53h-5.79a2.28,2.28,0,1,1,0-4.55h5.79a2.28,2.28,0,1,1,0,4.55Z" transform="translate(-37.19 -65.83)"/><path class="cls-19" d="M342.27,282.15H300.12a2.28,2.28,0,0,1,0-4.55h42.15a2.28,2.28,0,1,1,0,4.55Z" transform="translate(-37.19 -65.83)"/><path class="cls-19" d="M316.13,302.9h-16a2.28,2.28,0,0,1,0-4.55h16a2.28,2.28,0,0,1,0,4.55Z" transform="translate(-37.19 -65.83)"/><path class="cls-19" d="M342.27,302.9H321.89a2.28,2.28,0,1,1,0-4.55h20.38a2.28,2.28,0,1,1,0,4.55Z" transform="translate(-37.19 -65.83)"/><path class="cls-19" d="M342.27,312.52H300.12a2.28,2.28,0,0,1,0-4.56h42.15a2.28,2.28,0,0,1,0,4.56Z" transform="translate(-37.19 -65.83)"/><path class="cls-19" d="M328.54,333.26H300.12a2.28,2.28,0,0,1,0-4.55h28.42a2.28,2.28,0,1,1,0,4.55Z" transform="translate(-37.19 -65.83)"/><path class="cls-19" d="M342.27,333.26h-8a2.28,2.28,0,0,1,0-4.55h8a2.28,2.28,0,1,1,0,4.55Z" transform="translate(-37.19 -65.83)"/><path class="cls-19" d="M342.27,342.88H300.12a2.28,2.28,0,0,1,0-4.55h42.15a2.28,2.28,0,1,1,0,4.55Z" transform="translate(-37.19 -65.83)"/><path class="cls-19" d="M327.65,368.69h14.62a2.28,2.28,0,1,1,0,4.55H327.65a2.28,2.28,0,1,1,0-4.55Z" transform="translate(-37.19 -65.83)"/><path class="cls-19" d="M300.12,368.69h21.77a2.28,2.28,0,0,1,0,4.55H300.12a2.28,2.28,0,0,1,0-4.55Z" transform="translate(-37.19 -65.83)"/><path class="cls-19" d="M300.12,359.07h42.15a2.28,2.28,0,0,1,0,4.56H300.12a2.28,2.28,0,0,1,0-4.56Z" transform="translate(-37.19 -65.83)"/><path class="cls-19" d="M314.75,424.35H300.12a2.28,2.28,0,0,1,0-4.55h14.63a2.28,2.28,0,0,1,0,4.55Z" transform="translate(-37.19 -65.83)"/><path class="cls-19" d="M342.27,424.35H320.51a2.28,2.28,0,1,1,0-4.55h21.76a2.28,2.28,0,1,1,0,4.55Z" transform="translate(-37.19 -65.83)"/><path class="cls-19" d="M342.27,434H300.12a2.28,2.28,0,0,1,0-4.55h42.15a2.28,2.28,0,1,1,0,4.55Z" transform="translate(-37.19 -65.83)"/><rect class="cls-19" x="260.65" y="322.88" width="46.7" height="15.63" rx="2.67"/><path class="cls-28" d="M418.92,276.48H383.66a3.63,3.63,0,0,1,0-7.25h35.26a3.63,3.63,0,0,1,0,7.25Z" transform="translate(-37.19 -65.83)"/><path class="cls-13" d="M411.14,328.48H383.66a3.62,3.62,0,1,1,0-7.24h27.48a3.62,3.62,0,0,1,0,7.24Z" transform="translate(-37.19 -65.83)"/><path class="cls-28" d="M499.7,328.48H423a3.62,3.62,0,0,1,0-7.24H499.7a3.62,3.62,0,0,1,0,7.24Z" transform="translate(-37.19 -65.83)"/><path class="cls-18" d="M417.24,380.49H383.66a3.62,3.62,0,1,1,0-7.24h33.58a3.62,3.62,0,0,1,0,7.24Z" transform="translate(-37.19 -65.83)"/><path class="cls-28" d="M488.93,380.49H427.47a3.62,3.62,0,0,1,0-7.24h61.46a3.62,3.62,0,0,1,0,7.24Z" transform="translate(-37.19 -65.83)"/><path class="cls-28" d="M434.07,302.48H383.66a3.62,3.62,0,1,1,0-7.24h50.41a3.62,3.62,0,1,1,0,7.24Z" transform="translate(-37.19 -65.83)"/><path class="cls-28" d="M481.05,302.48h-23.2a3.62,3.62,0,0,1,0-7.24h23.2a3.62,3.62,0,1,1,0,7.24Z" transform="translate(-37.19 -65.83)"/><path class="cls-28" d="M418.92,406.49H383.66a3.62,3.62,0,1,1,0-7.24h35.26a3.62,3.62,0,0,1,0,7.24Z" transform="translate(-37.19 -65.83)"/><path class="cls-29" d="M468.05,406.49H433a3.62,3.62,0,1,1,0-7.24h35.1a3.62,3.62,0,1,1,0,7.24Z" transform="translate(-37.19 -65.83)"/><path class="cls-28" d="M513.91,406.49H479.43a3.62,3.62,0,1,1,0-7.24h34.48a3.62,3.62,0,0,1,0,7.24Z" transform="translate(-37.19 -65.83)"/><path class="cls-29" d="M434.62,432.5h-51a3.63,3.63,0,0,1,0-7.25h51a3.63,3.63,0,1,1,0,7.25Z" transform="translate(-37.19 -65.83)"/><path class="cls-18" d="M497.69,432.5H464.41a3.63,3.63,0,0,1,0-7.25h33.28a3.63,3.63,0,0,1,0,7.25Z" transform="translate(-37.19 -65.83)"/><path class="cls-28" d="M433,354.49H383.66a3.63,3.63,0,0,1,0-7.25H433a3.63,3.63,0,0,1,0,7.25Z" transform="translate(-37.19 -65.83)"/><path class="cls-13" d="M470.1,354.49H446.9a3.63,3.63,0,0,1,0-7.25h23.2a3.63,3.63,0,0,1,0,7.25Z" transform="translate(-37.19 -65.83)"/><circle class="cls-18" cx="334.84" cy="207.02" r="3.62"/><circle class="cls-13" cx="334.84" cy="233.02" r="3.62"/><circle class="cls-18" cx="409.71" cy="233.02" r="3.62"/><circle class="cls-28" cx="334.84" cy="259.03" r="3.62"/><circle class="cls-28" cx="334.84" cy="285.03" r="3.62"/><circle class="cls-28" cx="447.48" cy="285.03" r="3.62"/><circle class="cls-13" cx="334.84" cy="311.04" r="3.62"/><circle class="cls-28" cx="334.84" cy="337.04" r="3.62"/><circle class="cls-28" cx="334.84" cy="363.04" r="3.62"/><circle class="cls-28" cx="412.2" cy="363.04" r="3.62"/><path class="cls-10" d="M88.11,201.18c-10.25,3.62-20,2.53-21.75-2.45s5.13-11.95,15.39-15.57,21.75,2.45,21.75,2.45S98.37,197.56,88.11,201.18Z" transform="translate(-37.19 -65.83)"/></svg>