<svg viewBox="0 0 652 575" xmlns="http://www.w3.org/2000/svg"><path d="m134.5 403.1c-2.8 0-5-2.2-5-5v-345.9c0-1.3.5-2.6 1.5-3.5.9-.9 2.2-1.5 3.5-1.5h291.9c1.3 0 2.6.5 3.5 1.5l91.2 91.1c.9.9 1.5 2.2 1.5 3.5v254.7c0 1.3-.5 2.6-1.5 3.5-.9.9-2.2 1.5-3.5 1.5h-383.1z" fill="#f174ac"/><path d="m426.3 52.2 91.2 91.1v254.7h-383v-345.9zm0-10h-291.9c-2.7 0-5.2 1.1-7.1 2.9-1.9 1.9-2.9 4.4-2.9 7.1v345.9c0 5.5 4.5 10 10 10h383c2.7 0 5.2-1.1 7.1-2.9 1.9-1.9 2.9-4.4 2.9-7.1v-254.7c0-2.7-1.1-5.2-2.9-7.1l-91.2-91.1c-1.8-1.9-4.3-3-7-3z" fill="#fff"/><path d="m134.5 527.8c-1.3 0-2.6-.5-3.5-1.5-.9-.9-1.5-2.2-1.5-3.5v-124.7c0-1.3.5-2.6 1.5-3.5.9-.9 2.2-1.5 3.5-1.5h383c2.8 0 5 2.2 5 5v124.7c0 2.8-2.2 5-5 5z" fill="#ed2480"/><path d="m517.5 398.1v124.7h-383v-124.7zm0-10h-383c-2.7 0-5.2 1.1-7.1 2.9-1.9 1.9-2.9 4.4-2.9 7.1v124.7c0 2.7 1.1 5.2 2.9 7.1 1.9 1.9 4.4 2.9 7.1 2.9h383c5.5 0 10-4.5 10-10v-124.7c0-5.5-4.5-10-10-10z" fill="#fff"/><g fill="#ed2480"><path d="m426.3 143.4h91.2l-91.2-91.2z"/><path d="m203.2 216.8c-.6.8-1.5 1.9-2.7 3.3-1 1.1-1.7 2-2.2 2.8-.4.7-.7 1.5-.7 2.3s.2 1.6.8 2.4c.5.8 1.3 1.7 2.3 2.9 1.1 1.2 2 2.3 2.5 3.2.6.9.8 1.9.8 3v16.6c0 5.6.4 10.1 1.2 13.4.8 3.4 2.7 5.3 5.7 5.9 1.8.3 3.2 1.1 4.2 2.4 1 1.2 1.5 2.6 1.5 4 0 1.5-.5 2.7-1.5 3.6-1 1-2.4 1.4-4.2 1.4h-1.8c-7.5 0-13.2-2.7-17-8-3.9-5.3-5.8-12.2-5.8-20.6v-18.8c0-1.1-.3-2.1-.8-3-.6-.9-1.4-2-2.5-3.2-1.9-2.1-2.9-3.9-2.9-5.2 0-.8.2-1.5.7-2.3.4-.7 1.2-1.7 2.2-2.8 1.1-1.2 2-2.3 2.5-3.2.6-.9.8-2 .8-3.2v-18.8c0-8.4 1.9-15.3 5.8-20.6s9.5-8 17-8h1.8c1.8 0 3.2.5 4.2 1.4 1 1 1.5 2.2 1.5 3.6 0 1.5-.5 2.8-1.5 4s-2.4 2-4.2 2.4c-3 .6-4.9 2.5-5.7 5.9s-1.2 7.8-1.2 13.4v16.6c.1 1.4-.2 2.4-.8 3.2zm75.5-40.8c3.5 2.3 6.2 5.3 8.2 9.2s2.9 8.1 2.9 12.8v9.2c0 .8-.3 1.5-.8 2-.6.5-1.2.8-2 .8h-10.1c-.8 0-1.5-.2-2-.8-.5-.5-.8-1.1-.8-2v-7.1c0-3.4-.8-6.2-2.4-8.4s-3.9-3.3-6.9-3.3c-3.1 0-5.5 1.1-7.1 3.3s-2.4 5-2.4 8.4v50.2c0 3.4.8 6.2 2.4 8.4s4 3.3 7.1 3.3c3 0 5.3-1.1 6.9-3.3s2.4-5 2.4-8.4v-6.4c0-.8.3-1.5.8-2s1.2-.8 2-.8h10.1c.8 0 1.5.3 2 .8.5.6.8 1.2.8 2v8.6c0 4.7-1 9-2.9 12.8-2 3.9-4.7 6.9-8.2 9.2s-7.5 3.4-12 3.4h-4.1c-4.6 0-8.7-1.1-12.2-3.4s-6.2-5.3-8.2-9.2-2.9-8.1-2.9-12.8v-54.5c0-4.7 1-9 2.9-12.8 2-3.9 4.7-6.9 8.2-9.2s7.6-3.4 12.2-3.4h4.1c4.5 0 8.5 1.1 12 3.4zm61.4 0c3.5 2.3 6.2 5.3 8.2 9.2s2.9 8.1 2.9 12.8v3.5c0 .7-.3 1.4-.8 2s-1.2.9-2 .9h-10.2c-.7 0-1.3-.3-2-.9-.6-.6-.9-1.3-.9-2v-1.4c0-3.4-.8-6.2-2.3-8.4-1.6-2.2-3.9-3.3-7-3.3-3 0-5.3 1.1-6.9 3.3s-2.4 5-2.4 8.4v4.6c0 3.8.7 6.7 2.3 8.6 1.2 1.4 2.6 2.6 4.1 3.5 1.6 1 3.5 1.9 5.9 2.9 4.2 1.9 7.8 3.9 10.7 6 3 2.1 5.7 5.3 8.3 9.6 1 1.6 1.8 3.8 2.3 6.6s.8 4.9.8 6.3v4.1c0 4.7-1 9-2.9 12.8-2 3.9-4.7 6.9-8.2 9.2s-7.6 3.4-12.2 3.4h-3.8c-4.5 0-8.5-1.1-12-3.4s-6.2-5.3-8.2-9.2-2.9-8.1-2.9-12.8v-2.9c0-.8.3-1.5.8-2s1.2-.8 2-.8h10.1c.8 0 1.5.3 2 .8.5.6.8 1.2.8 2v.8c0 3.4.8 6.2 2.4 8.4s3.9 3.3 6.9 3.3c3.1 0 5.4-1.1 7-3.3s2.3-5 2.3-8.4v-2c0-1.4-.2-3.1-.7-5.1-.4-2-1.3-3.7-2.5-5.1-1.2-1.5-2.7-2.7-4.4-3.7-1.7-.9-3.9-1.9-6.6-2.9-4.6-1.7-8.4-3.6-11.3-5.7-3-2.1-5.4-5.5-7.3-10.1-.6-1.5-1-3.3-1.3-5.5s-.4-4-.4-5.5v-6.6c0-4.7 1-9 2.9-12.8 2-3.9 4.7-6.9 8.2-9.2s7.5-3.4 12-3.4h3.9c4.9 0 8.9 1.1 12.4 3.4zm61.4 0c3.5 2.3 6.2 5.3 8.2 9.2s2.9 8.1 2.9 12.8v3.5c0 .7-.3 1.4-.8 2s-1.2.9-2 .9h-10.2c-.7 0-1.3-.3-2-.9-.6-.6-.9-1.3-.9-2v-1.4c0-3.4-.8-6.2-2.3-8.4-1.6-2.2-3.9-3.3-7-3.3-3 0-5.3 1.1-6.9 3.3s-2.4 5-2.4 8.4v4.6c0 3.8.7 6.7 2.3 8.6 1.2 1.4 2.6 2.6 4.1 3.5 1.6 1 3.5 1.9 5.9 2.9 4.2 1.9 7.8 3.9 10.7 6 3 2.1 5.7 5.3 8.3 9.6 1 1.6 1.8 3.8 2.3 6.6s.8 4.9.8 6.3v4.1c0 4.7-1 9-2.9 12.8-2 3.9-4.7 6.9-8.2 9.2s-7.6 3.4-12.2 3.4h-3.9c-4.5 0-8.5-1.1-12-3.4s-6.2-5.3-8.2-9.2-2.9-8.1-2.9-12.8v-2.9c0-.8.3-1.5.8-2s1.2-.8 2-.8h10.1c.8 0 1.5.3 2 .8.5.6.8 1.2.8 2v.8c0 3.4.8 6.2 2.4 8.4s3.9 3.3 6.9 3.3c3.1 0 5.4-1.1 7-3.3s2.3-5 2.3-8.4v-2c0-1.4-.2-3.1-.7-5.1s-1.3-3.7-2.5-5.1c-1.2-1.5-2.7-2.7-4.4-3.7-1.7-.9-3.9-1.9-6.6-2.9-4.6-1.7-8.4-3.6-11.3-5.7-3-2.1-5.4-5.5-7.3-10.1-.6-1.5-1-3.3-1.3-5.5s-.4-4-.4-5.5v-6.6c0-4.7 1-9 2.9-12.8 2-3.9 4.7-6.9 8.2-9.2s7.5-3.4 12-3.4h3.9c5 0 9 1.1 12.5 3.4zm46.4 21.1c0-5.6-.4-10.1-1.2-13.4-.8-3.4-2.7-5.3-5.7-5.9-1.8-.3-3.2-1.1-4.2-2.4-1-1.2-1.5-2.6-1.5-4 0-1.5.5-2.7 1.5-3.6s2.4-1.4 4.2-1.4h1.8c7.5 0 13.2 2.7 17 8 3.9 5.3 5.8 12.2 5.8 20.6v18.8c0 1.2.3 2.3.8 3.2.6.9 1.4 2 2.5 3.2 1 1.1 1.7 2 2.2 2.8.4.7.7 1.5.7 2.3 0 1.3-1 3.1-2.9 5.2-1.1 1.2-2 2.3-2.5 3.2-.6.9-.8 1.9-.8 3v18.8c0 8.4-1.9 15.3-5.8 20.6s-9.5 8-17 8h-1.8c-1.8 0-3.2-.5-4.2-1.4-1-1-1.5-2.2-1.5-3.6 0-1.5.5-2.8 1.5-4s2.4-2 4.2-2.4c3-.6 4.9-2.5 5.7-5.9s1.2-7.8 1.2-13.4v-16.6c0-1.1.3-2.1.8-3 .6-.9 1.4-2 2.5-3.2 1-1.1 1.8-2.1 2.3-2.9s.8-1.6.8-2.4-.2-1.5-.7-2.3c-.4-.7-1.2-1.7-2.2-2.8-1.2-1.3-2.1-2.4-2.7-3.3-.6-.8-.8-1.9-.8-3.1z"/><path d="m461.9 320.7h-271.8c-5.5 0-10-4.5-10-10s4.5-10 10-10h271.7c5.5 0 10 4.5 10 10 .1 5.5-4.4 10-9.9 10z"/></g><g fill="#f6a9ca"><path d="m160.5 484.1h13.5c3.3 0 6.2 2.3 6.7 5.5.7 4.1-2.5 7.7-6.5 7.7h-13.7c-3.7 0-6.6-3-6.6-6.6s3-6.6 6.6-6.6zm33.9 0h79c3.3 0 6.2 2.3 6.7 5.5.7 4.1-2.5 7.7-6.5 7.7h-79.2c-3.7 0-6.6-3-6.6-6.6s3-6.6 6.6-6.6zm98.4 0h94.2c3.3 0 6.2 2.3 6.7 5.5.7 4.1-2.5 7.7-6.5 7.7h-94.4c-3.7 0-6.6-3-6.6-6.6-.1-3.6 2.9-6.6 6.6-6.6z"/><path d="m160.5 453.8h94.1c3.3 0 6.2 2.3 6.7 5.5.7 4.1-2.5 7.7-6.5 7.7h-94.1c-3.3 0-6.2-2.3-6.7-5.5-.7-4.1 2.5-7.7 6.5-7.7zm112.3 5.6c.5-3.2 3.4-5.5 6.7-5.5h107.5c3.3 0 6.2 2.3 6.7 5.5.7 4.1-2.5 7.7-6.5 7.7h-107.9c-4 0-7.2-3.6-6.5-7.7z"/><path d="m252 436.8h-17c-3.3 0-6.2-2.3-6.7-5.5-.7-4.1 2.5-7.7 6.5-7.7h17.2c3.7 0 6.6 3 6.6 6.6.1 3.6-2.9 6.6-6.6 6.6zm-98.1-6.6c0-3.7 3-6.6 6.6-6.6h55c3.7 0 6.6 3 6.6 6.6 0 3.7-3 6.6-6.6 6.6h-55c-3.6 0-6.6-3-6.6-6.6z"/></g></svg>