<svg viewBox="0 0 544.78 427" xmlns="http://www.w3.org/2000/svg" xmlns:xlink="http://www.w3.org/1999/xlink"><clipPath id="a" transform="translate(-37.19 -65.83)"><path d="m307.89 338.35c3.95 6.33 7.95 12.74 10.27 19.84s2.84 15.05-.13 21.9c-1.38 3.18-3.67 6.19-6.94 7.35s-7.36.16-10.26-2a23 23 0 0 1 -6.49-8.63 73.34 73.34 0 0 1 -1 17.19c-.79 4.48-2.16 9.15-5.56 12.18-5.38 4.79-15.12 3-18.44-3.4 1.12 2.15-2.71 9.43-3.62 11.37-2 4.34-4.71 8.7-8.37 11.88-10.9 9.49-21.87-1.44-23.19-13a42.72 42.72 0 0 1 12-34.57c-1.75 1.33-4.44.78-6-.77a9.32 9.32 0 0 1 -2.32-6 18.94 18.94 0 0 1 14.78-19.21c-7.16-1-11.26-9.43-10.38-16.61a21.58 21.58 0 0 1 35.39-13.87z"/></clipPath><clipPath id="b" transform="translate(-37.19 -65.83)"><path d="m449.35 196.39-7.55-3.1 9.6-4.19a94.82 94.82 0 0 0 3.6-18.29s-34.92-6.35-58 11.58a101.1 101.1 0 0 0 -14.11 13.25l.9 12.21-5.26-6.78c-9.89 13.42-13.18 26.86-7.13 34.65 8.95 11.53 34.92 6.34 58-11.58 8.14-6.29 16.13-19.45 19.95-27.75z"/></clipPath><clipPath id="c" transform="translate(-37.19 -65.83)"><path d="m209.92 334.35 7.44 3.34-9.73 3.88a94.92 94.92 0 0 0 -4.23 18.16s34.7 7.47 58.36-9.7a100 100 0 0 0 14.53-12.79l-.5-12.24 5 7c10.32-13.1 14-26.42 8.25-34.41-8.58-11.81-34.7-7.46-58.36 9.71-8.26 5.98-16.68 18.87-20.76 27.05z"/></clipPath><clipPath id="d" transform="translate(-37.19 -65.83)"><path d="m386.32 151.34c8.05-2.26 13.58-11.19 12-19.4a9.32 9.32 0 0 0 -3.26-5.88c-1.85-1.35-4.71-1.48-6.3.18 1.07-3.74 1.16-8-1-11.23s-7.21-4.56-10.11-2c.62-5.05 1.23-10.28-.31-15.12s-5.89-9.19-11-9c-4.52.16-8.22 3.73-10.49 7.63a28.68 28.68 0 0 0 -1.3 25.85c-3.37-3-9.08-1.81-11.93 1.65s-3.18 8.46-2 12.77 3.76 8.11 6.27 11.82c-4.05-1.36-8.37 2.54-8.88 6.78s1.69 8.31 4.26 11.71l4 31.51 35.8-18.6z"/></clipPath><clipPath id="e" transform="translate(-37.19 -65.83)"><path d="m326.88 211a27.43 27.43 0 0 1 13.59-27c5.23-2.87 11.23-3.91 17-5.45s11.65-3.79 15.5-8.35c4.64-5.51 5.4-13.28 8.89-19.59 3.67-6.63 10.31-11.35 17.57-13.54s15.58-1.3 23 .25a17.06 17.06 0 0 0 -12.88 16.8c.15 3.84 1.64 7.5 2.25 11.3a29.32 29.32 0 0 1 -.56 11.46 17.48 17.48 0 0 1 -3 6.86c-1.95 2.48-4.83 4.07-6.89 6.46-4.94 5.74-4 14.24-4.73 21.77a44.56 44.56 0 0 1 -15.62 29.65 43 43 0 0 1 -32 9.68z"/></clipPath><clipPath id="f" transform="translate(-37.19 -65.83)"><rect height="97.88" rx="3.93" width="231.74" x="97.58" y="120.97"/></clipPath><path d="m272.35 68.53c-22.91 4.41-44.85 13.88-65.17 26.12-16.78 10.1-35.29 17.78-52.53 27.27-25.75 14.19-56.45 29.63-75.42 52.8-34.7 42.39-41.66 116.63-4.94 159.66 16.32 19.11 34.8 27.82 44.83 52.78 12.73 31.64 19.35 63.72 47.81 85.79 30 23.27 74.44 27.12 106.64 6.2 21.13-13.73 35-35.63 54.94-50.75 43.07-32.63 85.21-11.32 132.54-7.14 35 3.09 70.22-15 88.89-44.62a82.46 82.46 0 0 0 13.07-43c.15-17.07-8.56-31.52-9.79-48.23-1.41-19.07 10.94-34.49 19.4-50.4 32.38-60.89-24.73-136.93-87.62-144.62-29.34-3.59-58.15 11.36-87.53 4-27.29-6.87-50.33-23.39-78.64-27.27a142.06 142.06 0 0 0 -46.48 1.41z" fill="#e4d7ea" transform="translate(-37.19 -65.83)"/><path d="m307.89 338.35c3.95 6.33 7.95 12.74 10.27 19.84s2.84 15.05-.13 21.9c-1.38 3.18-3.67 6.19-6.94 7.35s-7.36.16-10.26-2a23 23 0 0 1 -6.49-8.63 73.34 73.34 0 0 1 -1 17.19c-.79 4.48-2.16 9.15-5.56 12.18-5.38 4.79-15.12 3-18.44-3.4 1.12 2.15-2.71 9.43-3.62 11.37-2 4.34-4.71 8.7-8.37 11.88-10.9 9.49-21.87-1.44-23.19-13a42.72 42.72 0 0 1 12-34.57c-1.75 1.33-4.44.78-6-.77a9.32 9.32 0 0 1 -2.32-6 18.94 18.94 0 0 1 14.78-19.21c-7.16-1-11.26-9.43-10.38-16.61a21.58 21.58 0 0 1 35.39-13.87z" fill="#76a5d8" transform="translate(-37.19 -65.83)"/><g clip-path="url(#a)" fill="#718bc6"><path d="m246.94 435.34c-.81-8.32.79-16.53 3.28-24.45s5.7-15.91 8.86-23.72c5.92-14.59 12.72-29.12 21.29-42.35a101.61 101.61 0 0 1 16.22-19.64c1.18-1.09-.59-2.86-1.77-1.77-11.37 10.49-19.52 23.86-26.49 37.59a352.36 352.36 0 0 0 -19.58 46.39c-3.05 9-5.24 18.46-4.31 28 .16 1.59 2.66 1.61 2.5 0z" transform="translate(-37.19 -65.83)"/><path d="m257.39 392.37h3v30.69h-3z" transform="matrix(.97576423 -.21882451 .21882451 .97576423 -120.119973 .689997)"/><path d="m262.48 380.14h3v31.74h-3z" transform="matrix(.97576423 -.21882451 .21882451 .97576423 -117.43994 1.519986)"/><path d="m233.76 364.05h38.08v3h-38.08z" transform="matrix(.94034752 -.34021543 .34021543 .94034752 -146.46001 41.959988)"/><path d="m234.31 356.98h41.56v3h-41.56z" transform="matrix(.94034752 -.34021543 .34021543 .94034752 -143.920075 42.309973)"/></g><path d="m108.57 260.3a141.48 141.48 0 0 1 -30.19-38.71 146 146 0 0 1 -15.44-46.59 138.64 138.64 0 0 1 -1.33-27.61c.13-2.41-3.62-2.4-3.75 0a144.48 144.48 0 0 0 6.34 49.87 148.56 148.56 0 0 0 22.61 44.7 142.75 142.75 0 0 0 19.11 21c1.79 1.61 4.45-1 2.65-2.65z" fill="#7e61aa" transform="translate(-37.19 -65.83)"/><path d="m79.37 140.43c-6.46 8.75-15.13 13.31-19.38 10.18s-2.46-12.77 4-21.52 19.38-10.18 19.38-10.18 2.45 12.77-4 21.52z" fill="#7e61aa" transform="translate(-37.19 -65.83)"/><path d="m53.49 137.69c6.15 5.88 8.81 13.07 6 16.05s-10.15.64-16.3-5.25-6-16.05-6-16.05 10.16-.63 16.3 5.25zm1.83 28.64c4.35 3.69 6.42 8.4 4.63 10.51s-6.77.82-11.12-2.87-4.63-10.51-4.63-10.51 6.8-.83 11.12 2.87zm9.15 51.41c7.53.74 13.35 4.3 13 7.95s-6.75 6-14.28 5.29-13-7.95-13-7.95 6.75-6.03 14.28-5.29z" fill="#7e61aa" transform="translate(-37.19 -65.83)"/><path d="m146.39 303.76h-.13a2 2 0 0 1 -1.87-2.12c.18-2.84.42-5.49.75-8.09a2 2 0 0 1 2.24-1.74 2 2 0 0 1 1.73 2.24c-.32 2.52-.56 5.08-.73 7.83a2 2 0 0 1 -1.99 1.88zm114.84 140.06h-1.05a2 2 0 0 1 -2-2 2 2 0 0 1 2-2c1.42 0 2.87 0 4.33-.06a90.58 90.58 0 0 0 10.74-1.05 2 2 0 1 1 .62 4 94.11 94.11 0 0 1 -11.21 1.1q-1.66.01-3.43.01zm-16.39-1.48h-.36a99.88 99.88 0 0 1 -15.23-4 2 2 0 1 1 1.32-3.78 95.68 95.68 0 0 0 14.62 3.88 2 2 0 0 1 -.35 4zm-29.11-10.12a2 2 0 0 1 -.92-.22 127.25 127.25 0 0 1 -13.45-8.13 2 2 0 0 1 2.28-3.29 120.84 120.84 0 0 0 13 7.87 2 2 0 0 1 -.93 3.77zm-25.42-17.52a2 2 0 0 1 -1.32-.5 141.81 141.81 0 0 1 -10.37-10.07l-.84-.91a2 2 0 1 1 2.94-2.71l.82.88a137.81 137.81 0 0 0 10.09 9.8 2 2 0 0 1 .18 2.83 2 2 0 0 1 -1.5.68zm-20.75-22.87a2 2 0 0 1 -1.64-.85 122.27 122.27 0 0 1 -8.18-13.4 2 2 0 1 1 3.54-1.87 116 116 0 0 0 7.92 13 2 2 0 0 1 -.49 2.79 2 2 0 0 1 -1.15.33zm-14.38-27.28a2 2 0 0 1 -1.87-1.3 137.84 137.84 0 0 1 -4.68-15 2 2 0 0 1 3.88-1 134.32 134.32 0 0 0 4.54 14.54 2 2 0 0 1 -1.16 2.58 2.17 2.17 0 0 1 -.71.18zm-7.57-29.93a2 2 0 0 1 -2-1.73 155.05 155.05 0 0 1 -1.41-15.6 2 2 0 0 1 4-.16 150.23 150.23 0 0 0 1.37 15.21 2 2 0 0 1 -1.7 2.26zm143 104.43a2 2 0 0 1 -.62-3.9c2.46-.81 4.93-1.74 7.34-2.75a2 2 0 1 1 1.55 3.68c-2.51 1.06-5.08 2-7.64 2.86a2 2 0 0 1 -.63.11zm38.7-322.44a2 2 0 0 1 -.22-4c2.65-.31 5.3-.53 8.09-.68a2 2 0 0 1 .21 4c-2.71.14-5.28.36-7.85.65zm164.48 106.25a2 2 0 0 1 -1.9-1.4 160.74 160.74 0 0 0 -5.89-15.73 2 2 0 1 1 3.66-1.61 162.84 162.84 0 0 1 6.08 16.13 2 2 0 0 1 -1.3 2.51 1.86 1.86 0 0 1 -.65.1zm-13.66-31.14a2 2 0 0 1 -1.74-1 150.28 150.28 0 0 0 -9.16-14.08 2 2 0 1 1 3.23-2.37 157.06 157.06 0 0 1 9.4 14.46 2 2 0 0 1 -.74 2.73 2 2 0 0 1 -.99.26zm-20.13-27.41a2 2 0 0 1 -1.46-.64 149.48 149.48 0 0 0 -12.08-11.67 2 2 0 1 1 2.6-3 151.17 151.17 0 0 1 12.42 12 2 2 0 0 1 -.11 2.82 2 2 0 0 1 -1.37.49zm-25.77-22.15a2.05 2.05 0 0 1 -1.12-.35 146.33 146.33 0 0 0 -14.42-8.61 2 2 0 0 1 1.85-3.54 150.46 150.46 0 0 1 14.82 8.84 2 2 0 0 1 -1.13 3.66zm-30.13-15.73a2 2 0 0 1 -.72-.13 155.35 155.35 0 0 0 -16-5.17 2 2 0 0 1 1-3.87 161.06 161.06 0 0 1 16.41 5.3 2 2 0 0 1 -.72 3.87zm-32.86-8.71a1.55 1.55 0 0 1 -.31 0 164.53 164.53 0 0 0 -16.73-1.72 2 2 0 0 1 .21-4 169.56 169.56 0 0 1 17.14 1.78 2 2 0 0 1 -.3 4zm128.21 129.52a2 2 0 0 1 -2-1.71c-.38-2.62-.82-5.16-1.35-7.77a2 2 0 0 1 1.57-2.36 2 2 0 0 1 2.33 1.6c.55 2.68 1 5.29 1.39 8a2 2 0 0 1 -1.69 2.27z" fill="#ed2480" transform="translate(-37.19 -65.83)"/><path d="m449.35 196.39-7.55-3.1 9.6-4.19a94.82 94.82 0 0 0 3.6-18.29s-34.92-6.35-58 11.58a101.1 101.1 0 0 0 -14.11 13.25l.9 12.21-5.26-6.78c-9.89 13.42-13.18 26.86-7.13 34.65 8.95 11.53 34.92 6.34 58-11.58 8.14-6.29 16.13-19.45 19.95-27.75z" fill="#ee4993" transform="translate(-37.19 -65.83)"/><g clip-path="url(#b)" fill="#ed1c80"><path d="m359.84 200.7h110.28v2.43h-110.28z" transform="matrix(.78994102 -.61318283 .61318283 .78994102 -73.839943 231.019943)"/><path d="m432.35 187.24h2.43v35.56h-2.43z" transform="matrix(.23140833 -.97285671 .97285671 .23140833 96.58 513.529618)"/><path d="m424.79 193.11h2.43v35.56h-2.43z" transform="matrix(.23140833 -.97285671 .97285671 .23140833 85.070511 510.699306)"/><path d="m394.27 216.8h2.43v35.56h-2.43z" transform="matrix(.23140833 -.97285671 .97285671 .23140833 38.580613 499.220004)"/><path d="m392.66 182.03h2.43v34.49h-2.43z" transform="matrix(.98927233 -.14608303 .14608303 .98927233 -62.07995 -6.16006)"/><path d="m396.95 178.7h2.43v34.49h-2.43z" transform="matrix(.98927233 -.14608303 .14608303 .98927233 -61.549895 -5.570084)"/><path d="m428.12 154.5h2.43v34.49h-2.43z" transform="matrix(.98927233 -.14608303 .14608303 .98927233 -57.679988 -1.27998)"/></g><path d="m209.92 334.35 7.44 3.34-9.73 3.88a94.92 94.92 0 0 0 -4.23 18.16s34.7 7.47 58.36-9.7a100 100 0 0 0 14.53-12.79l-.5-12.24 5 7c10.32-13.1 14-26.42 8.25-34.41-8.58-11.81-34.7-7.46-58.36 9.71-8.26 5.98-16.68 18.87-20.76 27.05z" fill="#79d1f1" transform="translate(-37.19 -65.83)"/><g clip-path="url(#c)" fill="#76a5d8"><path d="m189.31 328.73h110.28v2.43h-110.28z" transform="matrix(.80932465 -.58736157 .58736157 .80932465 -184.380323 140.659809)"/><path d="m224.76 308.45h2.43v35.56h-2.43z" transform="matrix(.26269442 -.96487908 .96487908 .26269442 -185.350174 392.760455)"/><path d="m232.51 302.83h2.43v35.56h-2.43z" transform="matrix(.26269442 -.96487908 .96487908 .26269442 -174.209348 396.089959)"/><path d="m263.77 280.14h2.43v35.56h-2.43z" transform="matrix(.26269442 -.96487908 .96487908 .26269442 -129.259504 409.529825)"/><path d="m264.24 316.02h2.43v34.49h-2.43z" transform="matrix(.99347269 -.11407023 .11407023 .99347269 -73.490046 -33.370073)"/><path d="m259.85 319.2h2.43v34.49h-2.43z" transform="matrix(.99347269 -.11407023 .11407023 .99347269 -73.879954 -33.850055)"/><path d="m227.91 342.38h2.43v34.49h-2.43z" transform="matrix(.99347269 -.11407023 .11407023 .99347269 -76.729945 -37.340017)"/></g><path d="m386.32 151.34c8.05-2.26 13.58-11.19 12-19.4a9.32 9.32 0 0 0 -3.26-5.88c-1.85-1.35-4.71-1.48-6.3.18 1.07-3.74 1.16-8-1-11.23s-7.21-4.56-10.11-2c.62-5.05 1.23-10.28-.31-15.12s-5.89-9.19-11-9c-4.52.16-8.22 3.73-10.49 7.63a28.68 28.68 0 0 0 -1.3 25.85c-3.37-3-9.08-1.81-11.93 1.65s-3.18 8.46-2 12.77 3.76 8.11 6.27 11.82c-4.05-1.36-8.37 2.54-8.88 6.78s1.69 8.31 4.26 11.71l4 31.51 35.8-18.6z" fill="#f5982d" transform="translate(-37.19 -65.83)"/><g clip-path="url(#d)" fill="#f4792c"><path d="m365.42 84.91c-2.91 15-1 30.27.92 45.27 1 7.63 2 15.27 2.45 23a147.33 147.33 0 0 1 -5.38 48.4.62.62 0 0 0 1.2.33 148.85 148.85 0 0 0 5.59-44.91c-.46-15.39-3.62-30.52-4.71-45.86a99.06 99.06 0 0 1 1.14-25.85c.15-.79-1.05-1.12-1.21-.33z" transform="translate(-37.19 -65.83)"/><path d="m365 104.3a10 10 0 0 0 3.52-2.07 72.27 72.27 0 0 0 3.44-2.9 76.46 76.46 0 0 0 6.34-6.39c.53-.6-.35-1.49-.89-.89a74.59 74.59 0 0 1 -6 6.08q-1.53 1.4-3.15 2.7a10.28 10.28 0 0 1 -3.61 2.26.63.63 0 0 0 .33 1.21zm.25 6.57a38.51 38.51 0 0 0 18.27-13.87c.47-.65-.61-1.28-1.08-.63a37.08 37.08 0 0 1 -17.52 13.32c-.75.27-.43 1.48.33 1.21zm2.75 24.8c9.78-4.5 17.31-12.82 22.29-22.22.38-.71-.7-1.34-1.08-.63-4.89 9.24-12.23 17.36-21.84 21.77-.73.34-.1 1.41.63 1.08zm-25.06-12.74a59.42 59.42 0 0 0 25.79 27.07c.71.37 1.34-.7.63-1.08a58.27 58.27 0 0 1 -25.36-26.63c-.34-.72-1.42-.09-1.08.64z" transform="translate(-37.19 -65.83)"/><path d="m339.32 125.89a68 68 0 0 0 29.89 30.69c.72.37 1.35-.71.64-1.08a66.81 66.81 0 0 1 -29.45-30.24c-.35-.72-1.43-.09-1.08.63z" transform="translate(-37.19 -65.83)"/></g><path d="m326.88 211a27.43 27.43 0 0 1 13.59-27c5.23-2.87 11.23-3.91 17-5.45s11.65-3.79 15.5-8.35c4.64-5.51 5.4-13.28 8.89-19.59 3.67-6.63 10.31-11.35 17.57-13.54s15.58-1.3 23 .25a17.06 17.06 0 0 0 -12.88 16.8c.15 3.84 1.64 7.5 2.25 11.3a29.32 29.32 0 0 1 -.56 11.46 17.48 17.48 0 0 1 -3 6.86c-1.95 2.48-4.83 4.07-6.89 6.46-4.94 5.74-4 14.24-4.73 21.77a44.56 44.56 0 0 1 -15.62 29.65 43 43 0 0 1 -32 9.68z" fill="#f4b027" transform="translate(-37.19 -65.83)"/><g clip-path="url(#e)" fill="#f5982d"><path d="m431.26 136.92c-11.44-2-22.78 3.74-29.66 12.73a44.27 44.27 0 0 0 -7.26 14.75c-1.55 5.44-2.13 11.09-3.62 16.54a32.36 32.36 0 0 1 -3.16 7.85 27.6 27.6 0 0 1 -5.55 6.68c-4.37 3.91-9.63 6.65-15 9-6.1 2.66-12.41 4.9-18.22 8.18a50.53 50.53 0 0 0 -14.34 12.3 61.26 61.26 0 0 0 -13 30.42 64.93 64.93 0 0 0 -.4 4.18c0 .54.81.69.84.14a60.69 60.69 0 0 1 10.89-31.11 52.05 52.05 0 0 1 13-13c5.49-3.75 11.72-6.17 17.83-8.69 10.3-4.26 21.35-9.59 26.1-20.38 2.23-5.05 3-10.57 4.09-15.95a52.39 52.39 0 0 1 5.46-15.74 35.74 35.74 0 0 1 11.24-12.42 29.61 29.61 0 0 1 16.29-5 26 26 0 0 1 4.32.39.42.42 0 0 0 .15-.83z" transform="translate(-37.19 -65.83)"/><path d="m396.68 159.88a46.75 46.75 0 0 0 16.38-4 45.7 45.7 0 0 0 4.3-2.19.43.43 0 0 0 .09-.6.43.43 0 0 0 -.59-.09 45.61 45.61 0 0 1 -7.55 3.47 45.15 45.15 0 0 1 -12.71 2.53c-.54 0-.46.88.08.85zm-1.87 5.58c3.13-.13 6.26-.27 9.38-.55a65.11 65.11 0 0 0 9.31-1.47 42.44 42.44 0 0 0 5-1.54.43.43 0 0 0 -.3-.8 45.3 45.3 0 0 1 -8.95 2.32 90.68 90.68 0 0 1 -9.3.94c-1.75.11-3.51.18-5.26.25-.55 0-.47.87.08.85zm-10.11 28.72a41.25 41.25 0 0 0 19.68 3.46 39 39 0 0 0 5.59-.79.44.44 0 0 0 .39-.46.42.42 0 0 0 -.46-.38 40.56 40.56 0 0 1 -9.89.86 41 41 0 0 1 -9.76-1.56 40.45 40.45 0 0 1 -5.2-1.9.42.42 0 0 0 -.35.77zm-7.63 6.29a30.48 30.48 0 0 0 9.29 5.44 51.64 51.64 0 0 0 11.17 2.73c2.21.32 4.43.55 6.66.75a.43.43 0 1 0 .14-.84 89.42 89.42 0 0 1 -11.63-1.64 38.75 38.75 0 0 1 -10.22-3.71 27.29 27.29 0 0 1 -4.88-3.39c-.41-.36-.94.3-.53.66zm-27.07-23.65a88 88 0 0 0 -1 13.37 34.82 34.82 0 0 0 2.43 13.08 22.81 22.81 0 0 0 4 6.35.43.43 0 0 0 .59.1.42.42 0 0 0 .1-.59 24.11 24.11 0 0 1 -5.58-11.63 48.77 48.77 0 0 1 -.51-13.27c.18-2.43.48-4.85.81-7.27.08-.54-.76-.68-.83-.14zm-11.15 4.79a73.33 73.33 0 0 0 1.15 13.79 40.35 40.35 0 0 0 4 12.15 20.46 20.46 0 0 0 4.27 5.47c.41.36 1-.3.54-.66a23.55 23.55 0 0 1 -6.28-10.31 55 55 0 0 1 -2.53-12.84c-.22-2.55-.31-5.12-.29-7.68a.44.44 0 0 0 -.47-.39.45.45 0 0 0 -.38.47zm27.02-10.32a57.52 57.52 0 0 0 4.57 12.29 56.06 56.06 0 0 0 3.19 5.52 23.88 23.88 0 0 0 3.34 4.09 12 12 0 0 0 5 2.95.43.43 0 0 0 .49-.35.45.45 0 0 0 -.35-.49c-3.27-.92-5.67-3.61-7.52-6.32a55.07 55.07 0 0 1 -5.74-11.1 57.34 57.34 0 0 1 -2.17-6.89.42.42 0 1 0 -.79.3z" transform="translate(-37.19 -65.83)"/></g><path d="m516.9 224.59h-232.52a7.39 7.39 0 0 0 -7.38 7.41v198.65a7.39 7.39 0 0 0 7.39 7.39h232.51a7.38 7.38 0 0 0 7.38-7.39v-198.65a7.38 7.38 0 0 0 -7.38-7.41z" fill="#7e61aa" transform="translate(-37.19 -65.83)"/><path d="m342.71 86.63h-232.52a7.38 7.38 0 0 0 -7.39 7.37v198.68a7.39 7.39 0 0 0 7.39 7.39h232.52a7.39 7.39 0 0 0 7.39-7.39v-198.68a7.38 7.38 0 0 0 -7.39-7.37z" fill="#f170ab" transform="translate(-37.19 -65.83)"/><path d="m52.61 47.9h247.29v191a7.39 7.39 0 0 1 -7.39 7.39h-232.51a7.39 7.39 0 0 1 -7.39-7.39z" fill="#fff"/><path d="m60 32.79h232.51a7.39 7.39 0 0 1 7.39 7.39v7.72h-247.29v-7.72a7.39 7.39 0 0 1 7.39-7.39z" fill="#ed1c80"/><path d="m104.35 106.18a3.39 3.39 0 1 1 -3.38-3.39 3.38 3.38 0 0 1 3.38 3.39zm13.87 0a3.39 3.39 0 1 1 -3.39-3.39 3.38 3.38 0 0 1 3.39 3.39zm13.86 0a3.39 3.39 0 1 1 -3.38-3.39 3.38 3.38 0 0 1 3.38 3.39z" fill="#f170ab" transform="translate(-37.19 -65.83)"/><rect fill="#f0e6f2" height="97.88" rx="3.93" width="231.74" x="60.39" y="55.14"/><g clip-path="url(#f)"><path d="m219.09 144a7.55 7.55 0 0 0 -10.66-6.86 7.94 7.94 0 0 0 -14.72 3.7h-.28a5.37 5.37 0 0 0 -5.36 5.36 5.37 5.37 0 0 0 5.36 5.35h19.28c2.06-.01 6.38-.8 6.38-7.55z" fill="#b295c6" transform="translate(-37.19 -65.83)"/><path d="m150.37 178.68a2.13 2.13 0 1 0 -.53 4.19h17.86a3.24 3.24 0 0 0 0-6.48 2.17 2.17 0 0 0 -.36 0v-.08a6.42 6.42 0 0 0 -12.49-2.11 4.62 4.62 0 0 0 -2-.45 4.88 4.88 0 0 0 -2.67.7 3.48 3.48 0 0 0 -1.47 2.79 2.72 2.72 0 0 0 .45 1.81zm58.63-27.19a2.21 2.21 0 1 0 -.56 4.36h18.56a3.37 3.37 0 0 0 0-6.74h-.37v-.07a6.68 6.68 0 0 0 -13-2.2 4.58 4.58 0 0 0 -2-.46 5.06 5.06 0 0 0 -2.77.72 3.6 3.6 0 0 0 -1.53 2.9 2.85 2.85 0 0 0 .46 1.88z" fill="#d1bbdb" transform="translate(-37.19 -65.83)"/><path d="m303.28 138.57-65.28 80.28h135.15l-65.24-80.28a3 3 0 0 0 -4.63 0z" fill="#ed1c80" transform="translate(-37.19 -65.83)"/><path d="m232.17 138.57-65.24 80.28h135.12l-65.24-80.28a3 3 0 0 0 -4.64 0z" fill="#f170ab" transform="translate(-37.19 -65.83)"/></g><path d="m100.61 245.62h12.24a3.07 3.07 0 0 0 3.07-2.53 3 3 0 0 0 -3-3.52h-12.23a3.07 3.07 0 0 0 -3.07 2.53 3 3 0 0 0 2.99 3.52zm70.78 0h27.81a3.09 3.09 0 0 0 3.08-2.53 3 3 0 0 0 -3-3.52h-27.81a3.07 3.07 0 0 0 -3.07 2.53 3 3 0 0 0 2.99 3.52zm-50.26-2.53a3.09 3.09 0 0 0 3.07 2.53h36.38a3.07 3.07 0 0 0 3.07-2.53 3 3 0 0 0 -3-3.52h-36.53a3 3 0 0 0 -2.99 3.52zm41.78 10.3h-6.17a3.1 3.1 0 0 0 -3.08 2.53 3 3 0 0 0 3 3.53h6.26a3 3 0 0 0 3-3 3 3 0 0 0 -3.01-3.06zm-65.33 3.03a3 3 0 0 0 3 3h44.86a3 3 0 0 0 3-3 3 3 0 0 0 -3-3h-44.83a3 3 0 0 0 -3 3zm73.42 0a3 3 0 0 0 3 3h25.23a3 3 0 0 0 3-3 3 3 0 0 0 -3-3h-25.17a3 3 0 0 0 -3 3z" fill="#f2a0c5" transform="translate(-37.19 -65.83)"/><path d="m198.22 233.06h-96.55a4.09 4.09 0 0 1 -4.09-4.06 4.09 4.09 0 0 1 4.09-4.09h96.55a4.1 4.1 0 0 1 4.1 4.09 4.1 4.1 0 0 1 -4.1 4.06z" fill="#f170ab" transform="translate(-37.19 -65.83)"/><path d="m326.29 253.39h-12.29a3.1 3.1 0 0 0 -3.07 2.53 3 3 0 0 0 3 3.53h12.27a3.1 3.1 0 0 0 3.08-2.53 3 3 0 0 0 -2.99-3.53zm-70.78 0h-27.82a3.08 3.08 0 0 0 -3.07 2.53 3 3 0 0 0 3 3.53h27.82a3.1 3.1 0 0 0 3.07-2.53 3 3 0 0 0 -3-3.53zm50.26 2.53a3.1 3.1 0 0 0 -3.08-2.53h-36.38a3.1 3.1 0 0 0 -3.07 2.53 3 3 0 0 0 3 3.53h36.55a3 3 0 0 0 2.98-3.53zm-41.77-10.3h6.18a3.07 3.07 0 0 0 3.07-2.53 3 3 0 0 0 -3-3.52h-6.25a3 3 0 0 0 -3 3 3 3 0 0 0 3 3.05zm65.32-3.03a3 3 0 0 0 -3-3h-44.9a3 3 0 0 0 -3 3 3 3 0 0 0 3 3h44.87a3 3 0 0 0 3-3zm-73.46 0a3 3 0 0 0 -3-3h-25.25a3 3 0 0 0 -3 3 3 3 0 0 0 3 3h25.23a3 3 0 0 0 3-3z" fill="#b295c6" transform="translate(-37.19 -65.83)"/><path d="m325.22 233.06h-96.55a4.09 4.09 0 0 1 -4.09-4.09 4.09 4.09 0 0 1 4.09-4.09h96.55a4.1 4.1 0 0 1 4.1 4.09 4.1 4.1 0 0 1 -4.1 4.09zm-58.17-153.89h21.79a6.1 6.1 0 0 1 5.8 4.24l4.87 15.22h-21.67z" fill="#7e61aa" transform="translate(-37.19 -65.83)"/><path d="m250.69 147.3 17.68-12.92 17.68 12.92v-65.19a2.86 2.86 0 0 1 .61-2 2.92 2.92 0 0 1 2.33-1h-35.37a2.94 2.94 0 0 0 -2.93 2.94z" fill="#b295c6" transform="translate(-37.19 -65.83)"/><path d="m212.43 177.49a2.5 2.5 0 0 1 -1.94-4.08l4.13-5.08a2.5 2.5 0 0 1 3.88 3.15l-4.13 5.08a2.51 2.51 0 0 1 -1.94.93zm9.88-12.17a2.46 2.46 0 0 1 -1.57-.56 2.5 2.5 0 0 1 -.36-3.52l12.62-15.52a2.5 2.5 0 0 1 3.88 3.15l-12.62 15.53a2.54 2.54 0 0 1 -1.95.92z" fill="#f2a0c5" transform="translate(-37.19 -65.83)"/><rect fill="#b295c6" height="31.95" rx="2.76" width="104.74" x="60.39" y="204.2"/><rect fill="#b295c6" height="31.95" rx="2.76" width="104.74" x="187.39" y="204.2"/><path d="m119.3 284h-7.6a3.23 3.23 0 0 1 -3.23-3.23 3.24 3.24 0 0 1 3.23-3.24h7.6a3.24 3.24 0 0 1 3.23 3.24 3.23 3.23 0 0 1 -3.23 3.23zm68.89 0h-59.19a3.23 3.23 0 0 1 -3.24-3.23 3.24 3.24 0 0 1 3.24-3.27h59.16a3.24 3.24 0 0 1 3.24 3.24 3.23 3.23 0 0 1 -3.21 3.26zm-57.07 10.53h-19.42a3.24 3.24 0 0 1 -3.23-3.24 3.24 3.24 0 0 1 3.23-3.24h19.42a3.24 3.24 0 0 1 3.24 3.24 3.24 3.24 0 0 1 -3.24 3.24zm57.07 0h-32.81a3.24 3.24 0 0 1 -3.24-3.24 3.24 3.24 0 0 1 3.24-3.24h32.81a3.24 3.24 0 0 1 3.24 3.24 3.24 3.24 0 0 1 -3.24 3.24zm-43.11 0h-4.22a3.24 3.24 0 0 1 -3.24-3.24 3.24 3.24 0 0 1 3.24-3.24h4.22a3.24 3.24 0 0 1 3.24 3.24 3.24 3.24 0 0 1 -3.24 3.24z" fill="#c1a9d1" transform="translate(-37.19 -65.83)"/><path d="m251.8 185.86h247.29v191a7.39 7.39 0 0 1 -7.39 7.39h-232.52a7.39 7.39 0 0 1 -7.39-7.39v-191z" fill="#d7eff4"/><path d="m259.18 170.76h232.52a7.39 7.39 0 0 1 7.39 7.39v7.71h-247.29v-7.71a7.39 7.39 0 0 1 7.39-7.39z" fill="#79d1f1"/><path d="m303.54 244.14a3.39 3.39 0 1 1 -3.39-3.38 3.39 3.39 0 0 1 3.39 3.38zm13.87 0a3.39 3.39 0 1 1 -3.39-3.38 3.39 3.39 0 0 1 3.39 3.38zm13.86 0a3.39 3.39 0 1 1 -3.38-3.38 3.38 3.38 0 0 1 3.38 3.38z" fill="#38c6f4" transform="translate(-37.19 -65.83)"/><path d="m251.8 185.86h64.42v198.34h-56.93a7.49 7.49 0 0 1 -7.49-7.49z" fill="#a8dee9"/><path d="m329.86 272.53h-29.74a2.28 2.28 0 0 1 0-4.55h29.74a2.28 2.28 0 0 1 0 4.55zm12.41 0h-5.79a2.28 2.28 0 1 1 0-4.55h5.79a2.28 2.28 0 1 1 0 4.55zm0 9.62h-42.15a2.28 2.28 0 0 1 0-4.55h42.15a2.28 2.28 0 1 1 0 4.55zm-26.14 20.75h-16a2.28 2.28 0 0 1 0-4.55h16a2.28 2.28 0 0 1 0 4.55zm26.14 0h-20.38a2.28 2.28 0 1 1 0-4.55h20.38a2.28 2.28 0 1 1 0 4.55zm0 9.62h-42.15a2.28 2.28 0 0 1 0-4.56h42.15a2.28 2.28 0 0 1 0 4.56zm-13.73 20.74h-28.42a2.28 2.28 0 0 1 0-4.55h28.42a2.28 2.28 0 1 1 0 4.55zm13.73 0h-8a2.28 2.28 0 0 1 0-4.55h8a2.28 2.28 0 1 1 0 4.55zm0 9.62h-42.15a2.28 2.28 0 0 1 0-4.55h42.15a2.28 2.28 0 1 1 0 4.55zm-14.62 25.81h14.62a2.28 2.28 0 1 1 0 4.55h-14.62a2.28 2.28 0 1 1 0-4.55zm-27.53 0h21.77a2.28 2.28 0 0 1 0 4.55h-21.77a2.28 2.28 0 0 1 0-4.55zm0-9.62h42.15a2.28 2.28 0 0 1 0 4.56h-42.15a2.28 2.28 0 0 1 0-4.56zm14.63 65.28h-14.63a2.28 2.28 0 0 1 0-4.55h14.63a2.28 2.28 0 0 1 0 4.55zm27.52 0h-21.76a2.28 2.28 0 1 1 0-4.55h21.76a2.28 2.28 0 1 1 0 4.55zm0 9.65h-42.15a2.28 2.28 0 0 1 0-4.55h42.15a2.28 2.28 0 1 1 0 4.55z" fill="#fff" transform="translate(-37.19 -65.83)"/><rect fill="#fff" height="15.63" rx="2.67" width="46.7" x="260.65" y="322.88"/><g transform="translate(-37.19 -65.83)"><path d="m418.92 276.48h-35.26a3.63 3.63 0 0 1 0-7.25h35.26a3.63 3.63 0 0 1 0 7.25z" fill="#47c2ca"/><path d="m411.14 328.48h-27.48a3.62 3.62 0 1 1 0-7.24h27.48a3.62 3.62 0 0 1 0 7.24z" fill="#ed1c80"/><path d="m499.7 328.48h-76.7a3.62 3.62 0 0 1 0-7.24h76.7a3.62 3.62 0 0 1 0 7.24z" fill="#47c2ca"/><path d="m417.24 380.49h-33.58a3.62 3.62 0 1 1 0-7.24h33.58a3.62 3.62 0 0 1 0 7.24z" fill="#f170ab"/><path d="m488.93 380.49h-61.46a3.62 3.62 0 0 1 0-7.24h61.46a3.62 3.62 0 0 1 0 7.24zm-54.86-78.01h-50.41a3.62 3.62 0 1 1 0-7.24h50.41a3.62 3.62 0 1 1 0 7.24zm46.98 0h-23.2a3.62 3.62 0 0 1 0-7.24h23.2a3.62 3.62 0 1 1 0 7.24zm-62.13 104.01h-35.26a3.62 3.62 0 1 1 0-7.24h35.26a3.62 3.62 0 0 1 0 7.24z" fill="#47c2ca"/><path d="m468.05 406.49h-35.05a3.62 3.62 0 1 1 0-7.24h35.1a3.62 3.62 0 1 1 0 7.24z" fill="#775ea8"/><path d="m513.91 406.49h-34.48a3.62 3.62 0 1 1 0-7.24h34.48a3.62 3.62 0 0 1 0 7.24z" fill="#47c2ca"/><path d="m434.62 432.5h-51a3.63 3.63 0 0 1 0-7.25h51a3.63 3.63 0 1 1 0 7.25z" fill="#775ea8"/><path d="m497.69 432.5h-33.28a3.63 3.63 0 0 1 0-7.25h33.28a3.63 3.63 0 0 1 0 7.25z" fill="#f170ab"/><path d="m433 354.49h-49.34a3.63 3.63 0 0 1 0-7.25h49.34a3.63 3.63 0 0 1 0 7.25z" fill="#47c2ca"/><path d="m470.1 354.49h-23.2a3.63 3.63 0 0 1 0-7.25h23.2a3.63 3.63 0 0 1 0 7.25z" fill="#ed1c80"/></g><circle cx="334.84" cy="207.02" fill="#f170ab" r="3.62"/><circle cx="334.84" cy="233.02" fill="#ed1c80" r="3.62"/><circle cx="409.71" cy="233.02" fill="#f170ab" r="3.62"/><circle cx="334.84" cy="259.03" fill="#47c2ca" r="3.62"/><circle cx="334.84" cy="285.03" fill="#47c2ca" r="3.62"/><circle cx="447.48" cy="285.03" fill="#47c2ca" r="3.62"/><circle cx="334.84" cy="311.04" fill="#ed1c80" r="3.62"/><circle cx="334.84" cy="337.04" fill="#47c2ca" r="3.62"/><circle cx="334.84" cy="363.04" fill="#47c2ca" r="3.62"/><circle cx="412.2" cy="363.04" fill="#47c2ca" r="3.62"/><path d="m88.11 201.18c-10.25 3.62-20 2.53-21.75-2.45s5.13-11.95 15.39-15.57 21.75 2.45 21.75 2.45-5.13 11.95-15.39 15.57z" fill="#7e61aa" transform="translate(-37.19 -65.83)"/></svg>