<svg viewBox="0 0 652 575" xmlns="http://www.w3.org/2000/svg"><path d="m244.2 408.8c-2.8 0-5-2.2-5-5v-40.7c0-2.8 2.2-5 5-5h126.9c2.8 0 5 2.2 5 5v40.7c0 2.8-2.2 5-5 5z" fill="#79d1f1"/><path d="m371.1 363.1v40.7h-126.9v-40.7zm0-10h-126.9c-5.5 0-10 4.5-10 10v40.7c0 5.5 4.5 10 10 10h126.9c5.5 0 10-4.5 10-10v-40.7c0-5.5-4.4-10-10-10z" fill="#fff"/><path d="m303.7 122.5c-2.8 0-5-2.2-5-5v-39.4c0-2.8 2.2-5 5-5h7.9c2.8 0 5 2.2 5 5v39.4c0 2.8-2.2 5-5 5z" fill="#5986c5"/><path d="m311.6 78.1v39.4h-7.9v-39.4zm0-10h-7.9c-5.5 0-10 4.5-10 10v39.4c0 5.5 4.5 10 10 10h7.9c5.5 0 10-4.5 10-10v-39.4c0-5.5-4.5-10-10-10z" fill="#fff"/><path d="m165.7 376c-10.7 0-19.4-8.7-19.4-19.4v-192.4c0-10.7 8.7-19.4 19.4-19.4h283.9c10.7 0 19.4 8.7 19.4 19.4v192.4c0 10.7-8.7 19.4-19.4 19.4z" fill="#a5def5"/><path d="m449.6 149.9c7.9 0 14.4 6.4 14.4 14.4v192.4c0 7.9-6.4 14.4-14.4 14.4h-283.9c-7.9 0-14.4-6.4-14.4-14.4v-192.5c0-7.9 6.4-14.4 14.4-14.4h283.9m0-9.9h-283.9c-13.4 0-24.4 10.9-24.4 24.4v192.4c0 13.4 10.9 24.4 24.4 24.4h283.9c13.4 0 24.4-10.9 24.4-24.4v-192.5c0-13.4-11-24.3-24.4-24.3z" fill="#fff"/><path d="m193.4 342.3c-8.7 0-15.8-7.1-15.8-15.8v-132.1c0-8.7 7.1-15.8 15.8-15.8h228.6c8.7 0 15.8 7.1 15.8 15.8v132.1c0 8.7-7.1 15.8-15.8 15.8z" fill="#79d1f1"/><path d="m422 183.6c6 0 10.8 4.8 10.8 10.8v132.1c0 6-4.8 10.8-10.8 10.8h-228.6c-6 0-10.8-4.8-10.8-10.8v-132.1c0-6 4.8-10.8 10.8-10.8zm0-10h-228.6c-11.5 0-20.8 9.3-20.8 20.8v132.1c0 11.5 9.3 20.8 20.8 20.8h228.6c11.5 0 20.8-9.3 20.8-20.8v-132.1c0-11.5-9.3-20.8-20.8-20.8z" fill="#fff"/><path d="m464 301.3c-2.8 0-5-2.2-5-5v-80.1c0-2.8 2.2-5 5-5h13.6c3.9 0 7.1 3.2 7.1 7.1v75.8c0 3.9-3.2 7.1-7.1 7.1h-13.6z" fill="#79d1f1"/><path d="m477.6 216.2c1.2 0 2.1.9 2.1 2.1v75.8c0 1.2-.9 2.1-2.1 2.1h-13.6v-80.1h13.6m0-9.9h-13.6c-5.5 0-10 4.5-10 10v80.1c0 5.5 4.5 10 10 10h13.6c6.7 0 12.1-5.4 12.1-12.1v-75.8c0-6.7-5.5-12.2-12.1-12.2z" fill="#fff"/><path d="m479.7 291.6c-2.8 0-5-2.2-5-5v-60.6c0-2.8 2.2-5 5-5h11.9c7 0 12.6 5.7 12.6 12.6v45.4c0 7-5.7 12.6-12.6 12.6z" fill="#5986c5"/><path d="m491.6 226c4.2 0 7.6 3.4 7.6 7.6v45.4c0 4.2-3.4 7.6-7.6 7.6h-11.9v-60.6zm0-10h-11.9c-5.5 0-10 4.5-10 10v60.6c0 5.5 4.5 10 10 10h11.9c9.7 0 17.6-7.9 17.6-17.6v-45.4c0-9.7-7.9-17.6-17.6-17.6z" fill="#fff"/><path d="m137.8 301.3c-3.9 0-7.1-3.2-7.1-7.1v-75.8c0-3.9 3.2-7.1 7.1-7.1h13.6c2.8 0 5 2.2 5 5v80.1c0 2.8-2.2 5-5 5h-13.6z" fill="#79d1f1"/><path d="m151.4 216.2v80.1h-13.6c-1.2 0-2.1-.9-2.1-2.1v-75.8c0-1.2.9-2.1 2.1-2.1h13.6m0-10.1h-13.6c-6.7 0-12.1 5.4-12.1 12.1v75.8c0 6.7 5.4 12.1 12.1 12.1h13.6c5.5 0 10-4.5 10-10v-80.1c0-5.4-4.5-9.9-10-9.9z" fill="#fff"/><path d="m123.7 291.6c-7 0-12.6-5.7-12.6-12.6v-45.4c0-7 5.7-12.6 12.6-12.6h11.9c2.8 0 5 2.2 5 5v60.6c0 2.8-2.2 5-5 5z" fill="#5986c5"/><path d="m135.7 226v60.6h-11.9c-4.2 0-7.6-3.4-7.6-7.6v-45.4c0-4.2 3.4-7.6 7.6-7.6zm0-10h-11.9c-9.7 0-17.6 7.9-17.6 17.6v45.4c0 9.7 7.9 17.6 17.6 17.6h11.9c5.5 0 10-4.5 10-10v-60.6c0-5.6-4.5-10-10-10z" fill="#fff"/><path d="m267.1 154.9c-2.8 0-5-2.2-5-5v-17.1c0-4.8 3.9-8.7 8.7-8.7h73.7c4.8 0 8.7 3.9 8.7 8.7v17.1c0 2.8-2.2 5-5 5z" fill="#79d1f1"/><path d="m344.5 129c2.1 0 3.7 1.7 3.7 3.7v17.1h-81.2v-17.1c0-2.1 1.7-3.7 3.7-3.7zm0-10h-73.7c-7.6 0-13.7 6.2-13.7 13.7v17.1c0 5.5 4.5 10 10 10h81.2c5.5 0 10-4.5 10-10v-17.1c-.1-7.6-6.2-13.7-13.8-13.7z" fill="#fff"/><path d="m291.2 134c-2.8 0-5-2.2-5-5v-13.2c0-6.3 5.1-11.4 11.4-11.4h20.1c6.3 0 11.4 5.1 11.4 11.4v13.2c0 2.8-2.2 5-5 5z" fill="#5986c5"/><path d="m317.7 109.4c3.5 0 6.4 2.9 6.4 6.4v13.2h-32.9v-13.2c0-3.5 2.9-6.4 6.4-6.4zm0-10h-20.1c-9.1 0-16.4 7.4-16.4 16.4v13.2c0 5.5 4.5 10 10 10h32.9c5.5 0 10-4.5 10-10v-13.2c0-9-7.3-16.4-16.4-16.4z" fill="#fff"/><path d="m307.7 87.9c-12.8 0-23.1-10.4-23.1-23.1s10.4-23.1 23.1-23.1c12.8 0 23.1 10.4 23.1 23.1s-10.4 23.1-23.1 23.1z" fill="#ed2480"/><path d="m307.7 46.6c10 0 18.1 8.1 18.1 18.1s-8.1 18.1-18.1 18.1-18.1-8.1-18.1-18.1c-.1-9.9 8-18.1 18.1-18.1m0-10c-15.5 0-28.1 12.6-28.1 28.1s12.6 28.1 28.1 28.1 28.1-12.6 28.1-28.1-12.6-28.1-28.1-28.1z" fill="#fff"/><path d="m258.5 261.3c-9.3 0-16.9-7.6-16.9-16.9s7.6-16.9 16.9-16.9 16.9 7.6 16.9 16.9c.1 9.3-7.5 16.9-16.9 16.9z" fill="#5986c5"/><path d="m258.5 232.4c6.6 0 11.9 5.3 11.9 11.9s-5.3 11.9-11.9 11.9-11.9-5.3-11.9-11.9 5.4-11.9 11.9-11.9m0-10c-12.1 0-21.9 9.8-21.9 21.9s9.8 21.9 21.9 21.9 21.9-9.8 21.9-21.9c.1-12.1-9.8-21.9-21.9-21.9z" fill="#fff"/><path d="m356.8 261.3c-9.3 0-16.9-7.6-16.9-16.9s7.6-16.9 16.9-16.9 16.9 7.6 16.9 16.9-7.6 16.9-16.9 16.9z" fill="#5986c5"/><path d="m356.8 232.4c6.6 0 11.9 5.3 11.9 11.9s-5.3 11.9-11.9 11.9-11.9-5.3-11.9-11.9 5.3-11.9 11.9-11.9m0-10c-12.1 0-21.9 9.8-21.9 21.9s9.8 21.9 21.9 21.9 21.9-9.8 21.9-21.9-9.8-21.9-21.9-21.9z" fill="#fff"/><path d="m284.4 273.9c-.9 0-1.8-.2-2.6-.7-3.6-2.1-4.8-6.8-2.6-10.4.9-1.6 9.8-15.6 27.1-16.3h1.3c11.6 0 22.5 6.2 28.5 16.3 2.1 3.6 1 8.2-2.6 10.4-.8.5-1.7.7-2.6.7z" fill="#5a87c5"/><path d="m307.6 251.6c9.8 0 19 5.2 24.2 13.8.7 1.2.3 2.8-.9 3.5h-46.5c-1.2-.7-1.6-2.3-.9-3.5.8-1.4 8.3-13.2 23-13.8zm0-10h-1.5c-15.2.6-26.3 10.4-31.2 18.7-1.7 2.9-2.2 6.3-1.4 9.5.8 3.3 2.9 6 5.7 7.7 1.5.9 3.3 1.4 5.1 1.4h46.5c1.8 0 3.6-.5 5.1-1.4 5.9-3.6 7.9-11.3 4.3-17.2-6.7-11.6-19.2-18.7-32.6-18.7z" fill="#fff"/><path d="m122.7 539c-2.8 0-5-2.2-5-5v-127.1c0-11.6 9.5-21.1 21.1-21.1h337.7c11.6 0 21.1 9.5 21.1 21.1v127.1c0 2.8-2.2 5-5 5z" fill="#a5def5"/><path d="m476.5 390.8c8.9 0 16.1 7.2 16.1 16.1v127.1h-369.9v-127.1c0-8.9 7.2-16.1 16.1-16.1zm0-10h-337.7c-14.4 0-26.1 11.7-26.1 26.1v127.1c0 5.5 4.5 10 10 10h369.8c5.5 0 10-4.5 10-10v-127.1c.1-14.4-11.6-26.1-26-26.1z" fill="#fff"/><g stroke="#fff" stroke-miterlimit="10"><path d="m463 507h-114.3c-1.2 0-2.2-1-2.2-2.2v-61.7c0-1.2 1-2.2 2.2-2.2h114.3c1.2 0 2.2 1 2.2 2.2v61.7c0 1.2-1 2.2-2.2 2.2z" fill="#5986c5"/><path d="m445.7 470.2h-46.5c-2.5 0-4.6-1.7-5-4.1-.5-3.1 1.9-5.8 4.9-5.8h46.7c2.7 0 5 2.2 5 5-.2 2.7-2.4 4.9-5.1 4.9zm-63 0h-16.6c-2.5 0-4.6-1.7-5-4.1-.5-3.1 1.9-5.8 4.9-5.8h16.7c2.7 0 5 2.2 5 5-.1 2.7-2.3 4.9-5 4.9zm63 17.5h-20c-2.5 0-4.6-1.7-5-4.1-.5-3.1 1.9-5.8 4.9-5.8h20c2.4 0 4.6 1.7 5 4.1.5 3.1-1.9 5.8-4.9 5.8zm-33.6-4.1c-.4 2.4-2.6 4.1-5 4.1h-41c-2.4 0-4.6-1.7-5-4.1-.5-3.1 1.9-5.8 4.9-5.8h41.2c3 0 5.4 2.7 4.9 5.8z" fill="#fff"/><path d="m166.9 209c-3.2 0-5.7-2.6-5.7-5.7v-20.8c0-3.2 2.6-5.7 5.7-5.7 3.2 0 5.7 2.6 5.7 5.7v20.8c.1 3.2-2.5 5.7-5.7 5.7zm0 27.8c-3.2 0-5.7-2.6-5.7-5.7v-6.3c0-3.2 2.6-5.7 5.7-5.7 3.2 0 5.7 2.6 5.7 5.7v6.3c.1 3.2-2.5 5.7-5.7 5.7z" fill="#d6effc"/></g></svg>