<svg viewBox="0 0 532.9 435.6" xmlns="http://www.w3.org/2000/svg" xmlns:xlink="http://www.w3.org/1999/xlink"><clipPath id="a" transform="translate(-55.98 -62.74)"><path d="m139.57 414.38a13.72 13.72 0 0 0 -14.71 10.22 7.3 7.3 0 0 0 .51 5.25 3.9 3.9 0 0 0 4.6 1.85c-1.94 2.35-3.35 5.42-2.77 8.41s3.78 5.54 6.68 4.58c-2 3.44-4.11 7-4.51 11s1.37 8.46 5.09 9.92c3.3 1.29 7.08-.12 9.94-2.22a22.55 22.55 0 0 0 9-18.22c1.5 3.18 6 4.15 9.11 2.54s4.93-5.1 5.41-8.58-.18-7-.83-10.47c3.49 1 7 .14 8.52-2.11 1.77-2.55.45-5.92-.22-7.63a13.49 13.49 0 0 0 -5.43-6.4c1.39-.08 4.56-.48 6.06-2.7 2.18-3.22.43-9.72-5.91-14.25l-18.54-.57z"/></clipPath><clipPath id="b" transform="translate(-55.98 -62.74)"><path d="m85 401.69 5.3 4.71-9.08.67a82.31 82.31 0 0 0 -8.22 13.93s26.81 15.25 50.91 7.2a88.08 88.08 0 0 0 15.38-6.81l2.77-10.28 2.37 7.08c12-8.16 18.54-18.23 15.82-26.37-4-12-26.82-15.24-50.91-7.19-8.43 2.85-18.78 11.37-24.34 17.06z"/></clipPath><clipPath id="c" transform="translate(-55.98 -62.74)"><path d="m354.74 202.19a29.12 29.12 0 0 1 12.32-29.65c5.31-3.45 11.58-5 17.56-7.07s12.05-4.91 15.76-10c4.49-6.19 4.7-14.47 7.91-21.41 3.38-7.31 10-12.8 17.56-15.68s16.39-2.58 24.36-1.5a18.12 18.12 0 0 0 -12.35 18.77c.46 4 2.31 7.81 3.25 11.78a31.16 31.16 0 0 1 .29 12.17 18.78 18.78 0 0 1 -2.69 7.5c-1.88 2.77-4.81 4.68-6.8 7.37-4.79 6.45-3.16 15.37-3.33 23.4a47.24 47.24 0 0 1 -14.17 32.62 45.62 45.62 0 0 1 -33.15 12.71z"/></clipPath><clipPath id="d" transform="translate(-55.98 -62.74)"><path d="m465.74 212.26-8-3.29 10.19-4.45a100.65 100.65 0 0 0 3.87-19.4s-37.06-6.74-61.57 12.28a107.81 107.81 0 0 0 -15 14.06l1 13-5.59-7.21c-10.5 14.25-14 28.5-7.57 36.77 9.5 12.24 37.06 6.73 61.56-12.28 8.57-6.74 17.06-20.67 21.11-29.48z"/></clipPath><path d="m558.67 176.13q-1.74-1.56-3.57-3c-16.48-13.16-37.9-17-56.11-27.05a83.94 83.94 0 0 1 -8-5c-23.8-16.8-32.47-48.87-57.74-63.9-27.39-16.3-62-17.84-92.21-9.46-52.95 14.7-87 60-107.44 108.86-3.49 8.34-6.59 17-12 24.21-8.73 11.57-18.38 11.25-31.22 13a268 268 0 0 0 -38.76 8.71c-22.37 6.55-43.83 16.74-59.76 34.21-38.42 42.1-45.3 111.34-23.65 162.8 25.64 61.11 81.79 85.91 144.79 69.49 24.51-6.4 49.5-10.07 74.72-6.17 33 5.11 65.47 22.84 99.3 12.16 19.67-6.22 35.33-21.23 48.21-37.35 17.91-22.42 33.86-45.7 54.33-66 22.76-22.57 52.51-34.44 72.36-60.4 23.86-31.24 33.59-76.24 22.21-114.24a90 90 0 0 0 -25.46-40.87z" fill="#e4d7ea" transform="translate(-55.98 -62.74)"/><path d="m111.22 293.45a2 2 0 0 1 -1.62-3.18c2.47-3.38 4.39-5.6 5.11-6.4a2 2 0 1 1 3 2.66c-.67.75-2.49 2.86-4.85 6.1a2 2 0 0 1 -1.64.82zm-21.28 70.63a2 2 0 0 1 -2-1.83c-.21-2.6-.32-5.25-.32-7.87a95.92 95.92 0 0 1 .67-11.33 2 2 0 1 1 4 .47 92.23 92.23 0 0 0 -.64 10.86c0 2.51.1 5.05.31 7.53a2 2 0 0 1 -1.83 2.16zm4.32-37.18a2.08 2.08 0 0 1 -.6-.09 2 2 0 0 1 -1.31-2.51 115.17 115.17 0 0 1 7.26-17.71 2 2 0 1 1 3.57 1.81 111.12 111.12 0 0 0 -7 17.1 2 2 0 0 1 -1.92 1.4zm1.74 63.25a2 2 0 0 1 -1.87-1.28c-1-2.53-1.86-5.13-2.62-7.73a2 2 0 0 1 3.81-1.14c.73 2.5 1.58 5 2.52 7.42a2 2 0 0 1 -1.14 2.58 2 2 0 0 1 -.7.15zm431.71-54.76a2 2 0 0 1 -1.51-3.31 112.6 112.6 0 0 0 9.48-12.53 2 2 0 0 1 3.35 2.19 117.1 117.1 0 0 1 -9.81 13 2 2 0 0 1 -1.51.65zm17.39-26.73a2.08 2.08 0 0 1 -.84-.18 2 2 0 0 1 -1-2.66 104.21 104.21 0 0 0 5.49-14.69 2 2 0 1 1 3.84 1.11 108.1 108.1 0 0 1 -5.7 15.26 2 2 0 0 1 -1.79 1.16zm8.79-30.66h-.24a2 2 0 0 1 -1.75-2.23 90.33 90.33 0 0 0 .67-11c0-1.55 0-3.12-.12-4.65a2 2 0 0 1 4-.21c.09 1.6.13 3.23.13 4.86a94.2 94.2 0 0 1 -.7 11.45 2 2 0 0 1 -1.99 1.78zm-1.8-31.76a2 2 0 0 1 -1.94-1.51 70.91 70.91 0 0 0 -5.39-14.57 2 2 0 0 1 3.58-1.8 75.16 75.16 0 0 1 5.66 15.41 2 2 0 0 1 -1.45 2.43 2.12 2.12 0 0 1 -.46.06zm-14.41-28.24a2 2 0 0 1 -1.51-.68 59.91 59.91 0 0 0 -11.58-10.21 2 2 0 1 1 2.24-3.31 63.74 63.74 0 0 1 12.35 10.89 2 2 0 0 1 -1.5 3.31zm-26.15-17.89a2 2 0 0 1 -.72-.13 86 86 0 0 0 -15-4.24 2 2 0 1 1 .74-3.93 90.31 90.31 0 0 1 15.73 4.44 2 2 0 0 1 -.72 3.86zm-47.26-5.56a2 2 0 0 1 -.24-4 97.85 97.85 0 0 1 11.78-.65c1.5 0 3 0 4.52.08a2 2 0 0 1 1.92 2.08 2 2 0 0 1 -2.07 1.92c-1.45-.05-2.92-.08-4.37-.08a93.9 93.9 0 0 0 -11.29.62z" fill="#ed2480" transform="translate(-55.98 -62.74)"/><path d="m139.57 414.38a13.72 13.72 0 0 0 -14.71 10.22 7.3 7.3 0 0 0 .51 5.25 3.9 3.9 0 0 0 4.6 1.85c-1.94 2.35-3.35 5.42-2.77 8.41s3.78 5.54 6.68 4.58c-2 3.44-4.11 7-4.51 11s1.37 8.46 5.09 9.92c3.3 1.29 7.08-.12 9.94-2.22a22.55 22.55 0 0 0 9-18.22c1.5 3.18 6 4.15 9.11 2.54s4.93-5.1 5.41-8.58-.18-7-.83-10.47c3.49 1 7 .14 8.52-2.11 1.77-2.55.45-5.92-.22-7.63a13.49 13.49 0 0 0 -5.43-6.4c1.39-.08 4.56-.48 6.06-2.7 2.18-3.22.43-9.72-5.91-14.25l-18.54-.57z" fill="#f5982d" transform="translate(-55.98 -62.74)"/><g clip-path="url(#a)" fill="#f4792c"><path d="m134.34 468.93c6.61-9.63 10-20.91 13.23-32 1.62-5.63 3.2-11.28 5.16-16.81a115.2 115.2 0 0 1 7.6-16.93 116.47 116.47 0 0 1 11.77-17.42c.79-1-.63-2.32-1.43-1.34a117.91 117.91 0 0 0 -18.67 32.12c-4.25 11-6.66 22.63-10.62 33.74a76.69 76.69 0 0 1 -8.72 17.7c-.71 1 1 2 1.72.94z" transform="translate(-55.98 -62.74)"/><path d="m140.42 454.47a8.36 8.36 0 0 0 -3.33.35c-1.18.31-2.35.66-3.51 1a61.29 61.29 0 0 0 -6.79 2.73 1 1 0 0 0 -.31 1.35 1 1 0 0 0 1.35.32 54.71 54.71 0 0 1 6.06-2.43c1-.34 2-.64 3-.92a7.87 7.87 0 0 1 3.06-.53 1 1 0 0 0 1.19-.72 1 1 0 0 0 -.72-1.19zm1.58-4.84a30.67 30.67 0 0 0 -17.63 4.37 1 1 0 0 0 1 1.67 28.83 28.83 0 0 1 16.64-4.06c1.26.08 1.22-1.89 0-2zm6-18.71c-8.55.19-16.65 3.81-23.27 9.09-1 .78 0 2.46 1 1.67 6.35-5.07 14.05-8.61 22.26-8.8a1 1 0 0 0 0-2zm14.44 17.53a47.11 47.11 0 0 0 -10.17-27.84c-.78-1-2.46.05-1.67 1a45.34 45.34 0 0 1 9.87 26.83 1 1 0 0 0 2 0z" transform="translate(-55.98 -62.74)"/><path d="m166 447.44a53.85 53.85 0 0 0 -12-31.71c-.78-1-2.46 0-1.67 1a52.13 52.13 0 0 1 11.67 30.75 1 1 0 0 0 2 0z" transform="translate(-55.98 -62.74)"/></g><path d="m85 401.69 5.3 4.71-9.08.67a82.31 82.31 0 0 0 -8.22 13.93s26.81 15.25 50.91 7.2a88.08 88.08 0 0 0 15.38-6.81l2.77-10.28 2.37 7.08c12-8.16 18.54-18.23 15.82-26.37-4-12-26.82-15.24-50.91-7.19-8.43 2.85-18.78 11.37-24.34 17.06z" fill="#ed2480" transform="translate(-55.98 -62.74)"/><g clip-path="url(#b)" fill="#be3894"><path d="m66.9 405.99h95.84v2.11h-95.84z" transform="matrix(.94837902 -.31713914 .31713914 .94837902 -179.150079 -5.300129)"/><path d="m99.42 383.69h2.11v30.9h-2.11z" transform="matrix(.54038718 -.84141648 .84141648 .54038718 -345.649929 205.280197)"/><path d="m107.31 381.06h2.11v30.9h-2.11z" transform="matrix(.54038718 -.84141648 .84141648 .54038718 -339.809887 210.719602)"/><path d="m139.15 370.41h2.11v30.9h-2.11z" transform="matrix(.54038718 -.84141648 .84141648 .54038718 -316.210148 232.599814)"/><path d="m116.38 414.22h29.97v2.11h-29.97z" transform="matrix(.18960957 -.98185957 .98185957 .18960957 -357.259888 402.800098)"/><path d="m111.91 415.71h29.97v2.11h-29.97z" transform="matrix(.18960957 -.98185957 .98185957 .18960957 -362.350852 399.619945)"/><path d="m79.38 426.59h29.97v2.11h-29.97z" transform="matrix(.18960957 -.98185957 .98185957 .18960957 -399.39028 376.499408)"/></g><path d="m349.81 178.92c-9-3.92-18.2-10.07-21.6-19.77-3.06-8.75-.85-19.77 8.64-23.3 4.17-1.55 9.13-1.45 12.72 1.42l1.46-1.89c-5.67-3.07-10.22-9.41-8.9-16.11 1.18-6 6.62-11 12.95-9.25a9.16 9.16 0 0 1 6.64 6.35c.38 1.52 2.61.87 2.32-.63-1-4.92-1.87-9.92-1.63-14.95.21-4.62 1.58-9.81 5.21-12.94 4.12-3.56 9.35-1 12.56 2.47a21.21 21.21 0 0 1 5.29 12.62c.48 6-1.21 12-3.86 17.36a1.21 1.21 0 0 0 1 1.81c6.72 0 13 5 13.05 12 .07 6.56-5.15 11.33-11.3 12.53a17.93 17.93 0 0 1 -5.71.18c-1.37-.19-1.58 2-.32 2.36a20.38 20.38 0 0 1 8.23 4.74 10.55 10.55 0 0 1 3.38 8.81c-.12 1.54 2.29 1.53 2.41 0a12.81 12.81 0 0 0 -3.84-10.28 22.8 22.8 0 0 0 -9.54-5.59c-.1.79-.21 1.57-.32 2.36a18.47 18.47 0 0 0 15.47-5.12 14.31 14.31 0 0 0 .48-19.11 16 16 0 0 0 -12-5.24l1 1.81c5-10.09 6.53-22.79-1.07-32-3.3-4-8.95-7.37-14.16-5-4.82 2.2-7.31 7.92-8.1 12.86-1 6.36.13 12.8 1.36 19l2.32-.63c-1.79-7-10.42-10.37-16.74-7.29-7.06 3.45-9.41 12.47-6.47 19.38a20.09 20.09 0 0 0 9 9.63c1.15.61 2.57-1 1.46-1.89-7.47-6-19.11-2.8-23.94 5.06-6 9.77-2.06 22.31 5.44 30a49.59 49.59 0 0 0 15.9 10.32c1.4.61 2.63-1.46 1.21-2.08z" fill="#5986c5" transform="translate(-55.98 -62.74)"/><path d="m371.81 87.14c5.61 11.87 3 25.63-1.8 37.29-5.07 12.4-12.62 23.65-17.11 36.3a55.05 55.05 0 0 0 -3.52 22.06c.1 1.54 2.5 1.55 2.4 0-.94-14 5.21-26.94 11.47-39 6.1-11.78 12.61-23.73 13.9-37.17a39.3 39.3 0 0 0 -3.26-20.67c-.66-1.4-2.74-.18-2.08 1.21z" fill="#5986c5" transform="translate(-55.98 -62.74)"/><path d="m367.37 132.55a61.11 61.11 0 0 1 -9.09-10.76c-2.56-3.86-5.25-8.27-6.14-12.86-.3-1.52-2.62-.88-2.32.64.93 4.78 3.72 9.42 6.38 13.44a64.41 64.41 0 0 0 9.47 11.24c1.13 1.06 2.83-.63 1.7-1.7zm-3.37 6.9a51.13 51.13 0 0 1 -17.51-28.13c-.34-1.51-2.66-.87-2.32.64a53.26 53.26 0 0 0 18.13 29.19c1.18 1 2.89-.71 1.7-1.7z" fill="#5986c5" transform="translate(-55.98 -62.74)"/><path d="m364.34 140.6a27 27 0 0 0 29.57-15.13c.63-1.4-1.44-2.63-2.08-1.22a24.59 24.59 0 0 1 -26.85 14c-1.52-.29-2.16 2-.64 2.32zm-10.1 20.25a40.26 40.26 0 0 0 33.22-6.34c1.25-.9.05-3-1.21-2.07a38 38 0 0 1 -31.37 6.09c-1.51-.37-2.15 1.95-.64 2.32z" fill="#5986c5" transform="translate(-55.98 -62.74)"/><path d="m356.12 156.83a40.46 40.46 0 0 0 28-4.85 1.2 1.2 0 0 0 -1.21-2.08 37.87 37.87 0 0 1 -26.15 4.61c-1.51-.28-2.16 2-.64 2.32z" fill="#5986c5" transform="translate(-55.98 -62.74)"/><path d="m354.74 202.19a29.12 29.12 0 0 1 12.32-29.65c5.31-3.45 11.58-5 17.56-7.07s12.05-4.91 15.76-10c4.49-6.19 4.7-14.47 7.91-21.41 3.38-7.31 10-12.8 17.56-15.68s16.39-2.58 24.36-1.5a18.12 18.12 0 0 0 -12.35 18.77c.46 4 2.31 7.81 3.25 11.78a31.16 31.16 0 0 1 .29 12.17 18.78 18.78 0 0 1 -2.69 7.5c-1.88 2.77-4.81 4.68-6.8 7.37-4.79 6.45-3.16 15.37-3.33 23.4a47.24 47.24 0 0 1 -14.17 32.62 45.62 45.62 0 0 1 -33.15 12.71z" fill="#f4b027" transform="translate(-55.98 -62.74)"/><g clip-path="url(#c)" fill="#f5982d"><path d="m459.53 115.81c-12.25-1.24-23.82 5.7-30.4 15.75a46.9 46.9 0 0 0 -6.55 16.16c-1.23 5.88-1.41 11.9-2.57 17.78a34.55 34.55 0 0 1 -2.74 8.55 29.43 29.43 0 0 1 -5.36 7.5c-4.33 4.47-9.68 7.77-15.15 10.64-6.26 3.29-12.77 6.13-18.67 10.06a53.65 53.65 0 0 0 -14.23 14.11 65 65 0 0 0 -11.44 33.19c-.09 1.49-.12 3-.1 4.46 0 .57.9.66.89.08a64.32 64.32 0 0 1 9.15-33.76 55.2 55.2 0 0 1 12.73-14.79c5.52-4.39 11.93-7.43 18.2-10.57 10.58-5.3 21.86-11.78 26.07-23.56 2-5.52 2.38-11.42 3.1-17.19a55.29 55.29 0 0 1 4.54-17.08 38 38 0 0 1 11-13.94 31.43 31.43 0 0 1 16.85-6.58 26.28 26.28 0 0 1 4.61.09.45.45 0 0 0 .08-.9z" transform="translate(-55.98 -62.74)"/><path d="m424.7 142.76a49.18 49.18 0 0 0 21.41-8.13.45.45 0 0 0 .06-.63.47.47 0 0 0 -.64-.06 48.26 48.26 0 0 1 -21 7.93.45.45 0 0 0 .14.89zm-1.55 6.05c3.3-.38 6.61-.76 9.89-1.3a69.16 69.16 0 0 0 9.74-2.27 44.52 44.52 0 0 0 5.21-2 .45.45 0 0 0 -.38-.82 48.39 48.39 0 0 1 -9.29 3.14 95 95 0 0 1 -9.77 1.71q-2.78.36-5.55.67c-.58.07-.43 1 .15.89zm-8.5 31.19a43.38 43.38 0 0 0 10.42 2.37 43.87 43.87 0 0 0 10.68-.22 41.87 41.87 0 0 0 5.86-1.26.47.47 0 0 0 .37-.52.46.46 0 0 0 -.52-.37 42.94 42.94 0 0 1 -20.84.77 41.49 41.49 0 0 1 -5.66-1.62.45.45 0 0 0 -.31.85zm-7.59 7.22a32.48 32.48 0 0 0 10.25 5.05 55 55 0 0 0 12 2c2.36.17 4.73.24 7.1.28a.45.45 0 0 0 .09-.9 95.65 95.65 0 0 1 -12.43-.84 41.44 41.44 0 0 1 -11.07-3.11 29 29 0 0 1 -5.42-3.22c-.47-.34-1 .39-.52.74zm-30.5-22.95a95.2 95.2 0 0 0 -.06 14.23 36.53 36.53 0 0 0 3.57 13.65 24.16 24.16 0 0 0 4.75 6.42.48.48 0 0 0 .64.06.46.46 0 0 0 .05-.64 25.67 25.67 0 0 1 -6.8-11.88 52.37 52.37 0 0 1 -1.56-14c0-2.59.14-5.17.31-7.75 0-.58-.86-.67-.9-.09zm-11.39 5.92a77.37 77.37 0 0 0 2.23 14.51 42.9 42.9 0 0 0 5.2 12.55 21.47 21.47 0 0 0 4.95 5.46c.46.35 1-.39.51-.74-3.45-2.64-5.77-6.48-7.43-10.43a58.7 58.7 0 0 1 -3.63-13.39c-.43-2.69-.71-5.4-.89-8.11a.46.46 0 0 0 -.52-.37.45.45 0 0 0 -.37.52zm27.83-12.99a61.25 61.25 0 0 0 5.78 12.65 58.62 58.62 0 0 0 3.8 5.6 25.2 25.2 0 0 0 3.85 4.08 12.71 12.71 0 0 0 5.49 2.74.46.46 0 0 0 .5-.41.47.47 0 0 0 -.41-.49c-3.53-.72-6.28-3.39-8.44-6.12a57.47 57.47 0 0 1 -6.93-11.31 62.41 62.41 0 0 1 -2.83-7.12.45.45 0 1 0 -.81.38z" transform="translate(-55.98 -62.74)"/></g><path d="m465.74 212.26-8-3.29 10.19-4.45a100.65 100.65 0 0 0 3.87-19.4s-37.06-6.74-61.57 12.28a107.81 107.81 0 0 0 -15 14.06l1 13-5.59-7.21c-10.5 14.25-14 28.5-7.57 36.77 9.5 12.24 37.06 6.73 61.56-12.28 8.57-6.74 17.06-20.67 21.11-29.48z" fill="#ee4993" transform="translate(-55.98 -62.74)"/><g clip-path="url(#d)" fill="#ed1c80"><path d="m370.75 216.83h117.01v2.58h-117.01z" transform="matrix(.78994102 -.61318283 .61318283 .78994102 -99.549878 246.280112)"/><path d="m447.69 202.55h2.58v37.73h-2.58z" transform="matrix(.23140833 -.97285671 .97285671 .23140833 73.699506 544.240281)"/><path d="m439.67 208.78h2.58v37.73h-2.58z" transform="matrix(.23140833 -.97285671 .97285671 .23140833 61.480545 541.219944)"/><path d="m407.29 233.91h2.58v37.73h-2.58z" transform="matrix(.23140833 -.97285671 .97285671 .23140833 12.150784 529.050042)"/><path d="m405.59 197.02h2.58v36.6h-2.58z" transform="matrix(.98927233 -.14608303 .14608303 .98927233 -83.059995 -.98991)"/><path d="m410.13 193.49h2.58v36.6h-2.58z" transform="matrix(.98927233 -.14608303 .14608303 .98927233 -82.499991 -.370115)"/><path d="m443.21 167.82h2.58v36.6h-2.58z" transform="matrix(.98927233 -.14608303 .14608303 .98927233 -78.390101 4.189938)"/></g><path d="m535.35 489.51h-389.82a9.19 9.19 0 0 1 -8.57-5.88l-6.21-16.17h419.38l-6.21 16.17a9.19 9.19 0 0 1 -8.57 5.88z" fill="#725ba7" transform="translate(-55.98 -62.74)"/><path d="m242 404.72h84.84v7.4a3.62 3.62 0 0 1 -3.62 3.62h-77.6a3.62 3.62 0 0 1 -3.62-3.62z" fill="#674199"/><path d="m113 172.12h342.89a13.19 13.19 0 0 1 13.19 13.19v219.41h-369.23v-219.41a13.19 13.19 0 0 1 13.15-13.19z" fill="#5f3494"/><path d="m332.18 243.92a3.36 3.36 0 1 1 -3.36-3.36 3.35 3.35 0 0 1 3.36 3.36zm19.88 3.36h-13.16a3.36 3.36 0 0 1 -3.36-3.36 3.37 3.37 0 0 1 3.36-3.36h13.16a3.36 3.36 0 0 1 3.36 3.36 3.35 3.35 0 0 1 -3.36 3.36z" fill="#725ba7" transform="translate(-55.98 -62.74)"/><path d="m114.56 190.25h339.8v206.35h-339.8z" fill="#fff"/><g transform="translate(-55.98 -62.74)"><path d="m318.89 418.29c3.56 1.18 7 2.65 10.49 4.14 5.13-3.69 9.84-8 15.26-11.21a47.2 47.2 0 0 1 35.1-5.17c6.32 1.58 12.42 4.5 18.94 4.56 7.51.06 14.45-3.67 21.5-6.28 1.17-.44 2.35-.85 3.54-1.22a176.6 176.6 0 0 0 -6.63-4.55c-12.75-8.3-27.5-14.47-42.71-13.93-10.39.38-20.45 3.85-30.81 4.75-10.88.94-21.77-1-32.68-1.45a64.32 64.32 0 0 0 -20.58 2v25.16a69.74 69.74 0 0 1 28.58 3.2z" fill="#784ea0"/><path d="m310.89 387.93c10.91.46 21.8 2.39 32.68 1.45 10.36-.9 20.42-4.37 30.81-4.75 15.21-.54 30 5.63 42.71 13.93 2.25 1.46 4.45 3 6.63 4.55 15.29-4.84 31.94-4.85 47.67-1.56a146.24 146.24 0 0 1 33.11 11.57v-90a2.79 2.79 0 0 0 -2.79-2.79h-208.61a2.79 2.79 0 0 0 -2.79 2.79v66.88a64.32 64.32 0 0 1 20.58-2.07z" fill="#dce9f7"/><path d="m462.7 387.43a10.44 10.44 0 0 0 -4.31-.86 4.9 4.9 0 1 0 -9.65-1.67 8.48 8.48 0 0 0 -9.59 3.89 5.13 5.13 0 0 0 -5.76 1.19 5.38 5.38 0 0 0 -6.58-1.78c-2.49 1.06-4 3.47-4.94 5.89-.12.3-.13.26-.46.31a4.56 4.56 0 0 0 -.62.13 4.76 4.76 0 0 0 -1.19.55 4.5 4.5 0 0 0 -1.69 2 4.45 4.45 0 0 0 -.36 2.1 7.44 7.44 0 0 0 -4.38 1 8.38 8.38 0 0 0 -3.6 8.11l34.94 10.11 21.66-10.46 2.11-6.6a10.55 10.55 0 0 0 -5.58-13.91z" fill="#784ea0"/><path d="m440.21 402.3a3.79 3.79 0 0 1 2.31-.91 7.66 7.66 0 0 1 3.94 1c2.52-8.12 9.32-3.73 9.32-3.73a7 7 0 0 1 5.52-8.43 8.75 8.75 0 0 1 2 .13 8.89 8.89 0 0 1 4.35 2.14c0-.12 0-.25.05-.38a5.85 5.85 0 0 1 6.8-4.7 6.52 6.52 0 0 1 .79.2 8.85 8.85 0 0 1 16.07 6.49l-.06.3a7.58 7.58 0 0 1 2.6 0c1.44.26 6.77 3.85 6.52 9.16a8 8 0 0 1 -.52 2.47 9 9 0 0 1 4 11.32l-64.7-11.78a4.08 4.08 0 0 1 1.01-3.28z" fill="#967db9"/><path d="m471.39 401.55c-15.73-3.29-32.38-3.28-47.67 1.56-1.19.37-2.37.78-3.54 1.22-7.05 2.61-14 6.34-21.5 6.28-6.52-.06-12.62-3-18.94-4.56a47.2 47.2 0 0 0 -35.1 5.17c-5.42 3.23-10.13 7.52-15.26 11.21 6 2.57 12 5.16 18.38 6.33 11.64 2.11 23.57-.71 35.39-.72 18.86 0 37.45 7.72 51.22 20.54h70.13v-35.46a146.24 146.24 0 0 0 -33.11-11.57z" fill="#967db9"/><path d="m383.15 428c-11.82 0-23.75 2.83-35.39.72-6.39-1.17-12.38-3.76-18.38-6.33-3.46-1.49-6.93-3-10.49-4.14a69.74 69.74 0 0 0 -28.58-3.18v33.47h144.06c-13.77-12.78-32.37-20.54-51.22-20.54z" fill="#c3acd3"/><path d="m336.65 425.72 21 18.27 19.79-.29 3.86-4.19a8.69 8.69 0 0 0 .68-12.26 8.58 8.58 0 0 0 -2.92-2.13 4 4 0 0 0 -5.68-5.59 4.23 4.23 0 0 0 -.94 1 7 7 0 0 0 -8.5-.42 4.23 4.23 0 0 0 -4.71-1.1 4.42 4.42 0 0 0 -4.29-3.61c-2.22-.07-4.18 1.21-5.73 2.68-.19.19-.18.16-.44.08l-.51-.12a3.91 3.91 0 0 0 -1.08 0 3.71 3.71 0 0 0 -2.95 2.35 2.21 2.21 0 0 0 -.34-.18 5 5 0 0 0 -7.05 4.05z" fill="#c3acd3"/><path d="m221.94 412.8h-2.62a2.25 2.25 0 0 1 -2.19-2 2.29 2.29 0 0 1 2.13-2.73h2.62a2.26 2.26 0 0 1 2.2 2 2.3 2.3 0 0 1 -2.14 2.73zm25.68 0h-19a2.25 2.25 0 0 1 -2.19-2 2.29 2.29 0 0 1 2.13-2.73h19a2.26 2.26 0 0 1 2.2 2 2.3 2.3 0 0 1 -2.14 2.73zm-33.76-1.96a2.26 2.26 0 0 1 -2.2 2h-33a2.35 2.35 0 0 1 -.06-4.69h33.18a2.29 2.29 0 0 1 2.08 2.69zm67.35 0a2.27 2.27 0 0 1 -2.2 2h-25.61a2.27 2.27 0 0 1 -2.2-2 2.3 2.3 0 0 1 2.14-2.73h25.73a2.3 2.3 0 0 1 2.14 2.73zm-102.64 7.02h4.43a2.26 2.26 0 0 1 2.2 2 2.29 2.29 0 0 1 -2.13 2.73h-4.46a2.26 2.26 0 0 1 -2.16-2.34 2.26 2.26 0 0 1 2.12-2.39zm62.43 0h38a2.27 2.27 0 0 1 2.2 2 2.3 2.3 0 0 1 -2.14 2.73h-38.06a2.26 2.26 0 0 1 -2.17-2.34 2.26 2.26 0 0 1 2.17-2.39zm-5.22 2.35a2.26 2.26 0 0 1 -2.16 2.34h-42.62a2.26 2.26 0 0 1 -2.16-2.34 2.26 2.26 0 0 1 2.16-2.35h42.6a2.26 2.26 0 0 1 2.16 2.35z" fill="#a5def5"/></g><path d="m120.67 364.72h104.59v21.13h-104.59z" fill="#a5def5"/><path d="m360.41 372.28a6.17 6.17 0 0 1 6.17-6.17 6.1 6.1 0 0 1 2.56.56 6.5 6.5 0 0 1 10.75-.56 6.5 6.5 0 0 0 -9.37 1.91 6.1 6.1 0 0 0 -2.56-.56 6.17 6.17 0 0 0 -6.17 6.17 7.36 7.36 0 0 0 1 4.1c-1.27-.73-2.38-2.35-2.38-5.45z" fill="#fff" transform="translate(-55.98 -62.74)"/><path d="m368 367.46a6.1 6.1 0 0 1 2.56.56 6.5 6.5 0 0 1 11.87 1.79 4.38 4.38 0 0 1 -1 8.66h-15.8a5.46 5.46 0 0 1 -2.83-.74 7.36 7.36 0 0 1 -1-4.1 6.17 6.17 0 0 1 6.2-6.17zm108.54-28.14a4.5 4.5 0 0 0 -1.69-4 5.78 5.78 0 0 0 -3.12-.81 5.34 5.34 0 0 0 -2.29.52 7.5 7.5 0 0 0 -10.61-4.16 7.51 7.51 0 0 1 11.83 3.36 5.17 5.17 0 0 1 2.29-.52 5.66 5.66 0 0 1 3.11.81 4 4 0 0 1 1.71 3.26 3.44 3.44 0 0 1 -.3 1.77 2.27 2.27 0 0 0 -.93-.23z" fill="#fff" transform="translate(-55.98 -62.74)"/><path d="m453 337.81a3.81 3.81 0 0 1 2.66-1.09h.41v-.09a6.8 6.8 0 0 1 13.37-1.63 5.34 5.34 0 0 1 2.29-.52 5.78 5.78 0 0 1 3.12.81 4.5 4.5 0 0 1 1.69 4 2.27 2.27 0 0 1 .93.19 2.53 2.53 0 0 1 1.49 2.33 2.46 2.46 0 0 1 -1.76 2.35 2.61 2.61 0 0 1 -.69.1h-20.86a3.79 3.79 0 0 1 -3.79-3.79 3.74 3.74 0 0 1 1.14-2.66zm-19.46 18.65a1.79 1.79 0 0 0 0-.4 2 2 0 0 0 -.86-1.64 2.93 2.93 0 0 0 -1.56-.4 2.56 2.56 0 0 0 -1.15.26 3.79 3.79 0 0 0 -3.57-2.53 3.66 3.66 0 0 0 -1.77.44 3.76 3.76 0 0 1 5.94 1.69 2.64 2.64 0 0 1 1.16-.27 2.85 2.85 0 0 1 1.56.41 2 2 0 0 1 .86 1.64 1.7 1.7 0 0 1 -.15.89 1.16 1.16 0 0 0 -.46-.09z" fill="#fff" transform="translate(-55.98 -62.74)"/><path d="m421.7 355.7a1.81 1.81 0 0 1 .95-.51 1.61 1.61 0 0 1 .39 0h.2a3.76 3.76 0 0 1 1.4-2.93 3.66 3.66 0 0 1 1.77-.44 3.79 3.79 0 0 1 3.57 2.53 2.56 2.56 0 0 1 1.15-.26 2.93 2.93 0 0 1 1.56.4 2 2 0 0 1 .86 1.64 1.79 1.79 0 0 1 0 .4 1.16 1.16 0 0 1 .47.09 1.27 1.27 0 0 1 .75 1.17 1.22 1.22 0 0 1 -.89 1.18 1 1 0 0 1 -.34.05h-10.54a1.91 1.91 0 0 1 -1.91-1.9 1.88 1.88 0 0 1 .61-1.42zm-101.39-9.7a5.21 5.21 0 0 0 0-.79 4.09 4.09 0 0 0 -1.74-3.3 5.78 5.78 0 0 0 -3.15-.82 5.26 5.26 0 0 0 -2.31.53 7.61 7.61 0 0 0 -10.74-4.22 7.59 7.59 0 0 1 12 3.41 5.31 5.31 0 0 1 2.32-.54 5.78 5.78 0 0 1 3.15.82 4.1 4.1 0 0 1 1.73 3.3 3.56 3.56 0 0 1 -.3 1.8 2.35 2.35 0 0 0 -.96-.19z" fill="#fff" transform="translate(-55.98 -62.74)"/><path d="m296.47 344.5a3.84 3.84 0 0 1 1.92-1 3.94 3.94 0 0 1 .77-.08 2.86 2.86 0 0 1 .42 0v-.09a6.89 6.89 0 0 1 13.55-1.68 5.26 5.26 0 0 1 2.31-.53 5.78 5.78 0 0 1 3.15.82 4.09 4.09 0 0 1 1.74 3.3 5.21 5.21 0 0 1 0 .79 2.35 2.35 0 0 1 .94.19 2.56 2.56 0 0 1 1.5 2.35 2.47 2.47 0 0 1 -1.77 2.43 2.28 2.28 0 0 1 -.7.1h-21.14a3.83 3.83 0 0 1 -2.69-6.55z" fill="#fff" transform="translate(-55.98 -62.74)"/><path d="m331.41 229.43h107.65a9.46 9.46 0 0 1 9.46 9.46 9.46 9.46 0 0 1 -9.46 9.46h-107.65z" fill="#e4d7ea"/><path d="m124.67 190.25h329.69v28.42h-329.69z" fill="#ed1c80"/><path d="m435.8 271.29h-132.42a4.09 4.09 0 0 1 -4.09-4.09 4.09 4.09 0 0 1 4.09-4.09h132.42a4.09 4.09 0 0 1 4.09 4.09 4.09 4.09 0 0 1 -4.09 4.09z" fill="#f390bb" transform="translate(-55.98 -62.74)"/><path d="m489.82 271.29h-39.08a4.09 4.09 0 0 1 -4.09-4.09 4.09 4.09 0 0 1 4.09-4.09h39.08a4.09 4.09 0 0 1 4.09 4.09 4.09 4.09 0 0 1 -4.09 4.09z" fill="#ee4993" transform="translate(-55.98 -62.74)"/><path d="m114.56 190.25h215.6v138.5a8.45 8.45 0 0 1 -8.45 8.45h-207.15z" fill="#5397d1"/><rect fill="#5397d1" height="219.81" rx="8.45" width="259.35" x="59.02" y="105.61"/><path d="m179.7 192.8h126.59a13 13 0 0 0 11.52-7.05l1.13-2.23a6.14 6.14 0 0 1 5.47-3.34h43.8a6.13 6.13 0 0 1 6.14 6.13v190.88a11 11 0 0 1 -11 11h-176.08a7.57 7.57 0 0 1 -7.57-7.57z" fill="#dce9f7" transform="translate(-55.98 -62.74)"/><path d="m115 192.8h126.59a12.93 12.93 0 0 0 11.51-7.05l1.14-2.23a6.14 6.14 0 0 1 5.46-3.34h43.81a6.12 6.12 0 0 1 6.13 6.13v201.84h-187.07a7.57 7.57 0 0 1 -7.57-7.57z" fill="#fff" transform="translate(-55.98 -62.74)"/><circle cx="70.44" cy="117.83" fill="#4661ad" r="4.51"/><circle cx="87.58" cy="117.83" fill="#4661ad" r="4.51"/><path d="m165.2 180.57a4.51 4.51 0 1 1 -4.5-4.51 4.49 4.49 0 0 1 4.5 4.51z" fill="#4661ad" transform="translate(-55.98 -62.74)"/><path d="m324.55 257.81h-14.91v-7.24h14.91a3.62 3.62 0 0 1 3.62 3.62 3.62 3.62 0 0 1 -3.62 3.62zm25.68 0h-14.43a3.62 3.62 0 0 1 -3.62-3.62 3.62 3.62 0 0 1 3.62-3.62h14.43a3.62 3.62 0 0 1 3.62 3.62 3.62 3.62 0 0 1 -3.62 3.62zm0 44.07h-40.59v-7.23h40.59a3.62 3.62 0 0 1 3.62 3.61 3.62 3.62 0 0 1 -3.62 3.62zm-34.86 44.12h-5.73v-7.23h5.73a3.62 3.62 0 0 1 3.62 3.61 3.62 3.62 0 0 1 -3.62 3.62zm34.86 0h-22.15a3.61 3.61 0 0 1 -3.61-3.62 3.61 3.61 0 0 1 3.61-3.61h22.15a3.62 3.62 0 0 1 3.62 3.61 3.62 3.62 0 0 1 -3.62 3.62zm-2.09 19.6h-38.63v-11.42h38.63a5.71 5.71 0 0 1 5.71 5.71 5.71 5.71 0 0 1 -5.71 5.71zm0-44.07h-38.63v-11.42h38.63a5.71 5.71 0 0 1 5.71 5.71 5.71 5.71 0 0 1 -5.71 5.71zm0-44.07h-38.63v-11.46h38.63a5.71 5.71 0 0 1 5.71 5.71 5.71 5.71 0 0 1 -5.71 5.75z" fill="#add8f4" transform="translate(-55.98 -62.74)"/><path d="m125 209.29v15.08a2.38 2.38 0 0 0 2.37 2.37h157.44v-19.82h-157.47a2.37 2.37 0 0 0 -2.34 2.37z" fill="#a8dee9" transform="translate(-55.98 -62.74)"/><rect fill="#79d1f1" height="19.82" rx="2.37" width="22.64" x="221.05" y="144.18"/><path d="m291.18 219.65a6 6 0 1 1 0-8.55 6.06 6.06 0 0 1 0 8.55zm-7.09-7.08a4 4 0 1 0 5.62 0 4 4 0 0 0 -5.62 0z" fill="#fff" transform="translate(-55.98 -62.74)"/><path d="m295.54 224a1 1 0 0 1 -1.46 0l-4.1-4.09a1 1 0 0 1 1.47-1.47l4.09 4.09a1 1 0 0 1 0 1.47zm-25.54-7.17a3.11 3.11 0 1 1 -3.1-3.11 3.1 3.1 0 0 1 3.1 3.11zm-15.95 0a3.11 3.11 0 1 1 -3.11-3.11 3.1 3.1 0 0 1 3.11 3.11zm-15.96 0a3.11 3.11 0 1 1 -3.11-3.11 3.1 3.1 0 0 1 3.11 3.11z" fill="#fff" transform="translate(-55.98 -62.74)"/><path d="m151 235.53h-24.18a1.85 1.85 0 1 1 0-3.69h24.18a1.85 1.85 0 1 1 0 3.69zm36 0h-24.1a1.85 1.85 0 1 1 0-3.69h24.1a1.85 1.85 0 1 1 0 3.69zm36.12 0h-24.12a1.85 1.85 0 1 1 0-3.69h24.14a1.85 1.85 0 1 1 0 3.69z" fill="#a8dee9" transform="translate(-55.98 -62.74)"/><rect fill="#f49bc2" height="34.39" rx=".69" width="34.39" x="69" y="187.84"/><path d="m199.34 257.81h-29.82a3.62 3.62 0 0 1 -3.62-3.62 3.62 3.62 0 0 1 3.62-3.62h29.82a3.62 3.62 0 0 1 3.62 3.62 3.62 3.62 0 0 1 -3.62 3.62zm48.88 0h-36.62a3.62 3.62 0 0 1 -3.62-3.62 3.62 3.62 0 0 1 3.62-3.62h36.62a3.62 3.62 0 0 1 3.62 3.62 3.62 3.62 0 0 1 -3.62 3.62z" fill="#ed2480" transform="translate(-55.98 -62.74)"/><path d="m188.31 269.5h-20.55a1.82 1.82 0 0 1 -1.84-1.48 1.73 1.73 0 0 1 1.71-2h20.55a1.82 1.82 0 0 1 1.84 1.48 1.73 1.73 0 0 1 -1.71 2zm49.78 0h-43.83a1.83 1.83 0 0 1 -1.85-1.48 1.73 1.73 0 0 1 1.72-2h43.87a1.82 1.82 0 0 1 1.84 1.48 1.73 1.73 0 0 1 -1.75 2zm59.85 7.96h-22.23a1.83 1.83 0 0 1 -1.85-1.48 1.73 1.73 0 0 1 1.72-2h22.23a1.82 1.82 0 0 1 1.84 1.48 1.73 1.73 0 0 1 -1.71 2zm-28.94 0h-49.85a1.83 1.83 0 0 1 -1.85-1.46 1.73 1.73 0 0 1 1.72-2h49.88a1.83 1.83 0 0 1 1.85 1.48 1.74 1.74 0 0 1 -1.75 1.98zm-57.54 0h-43.7a1.82 1.82 0 0 1 -1.84-1.48 1.73 1.73 0 0 1 1.71-2h43.69a1.83 1.83 0 0 1 1.85 1.48 1.74 1.74 0 0 1 -1.71 2z" fill="#f49bc2" transform="translate(-55.98 -62.74)"/><rect fill="#89c1e9" height="34.39" rx=".69" width="34.39" x="69" y="231.91"/><path d="m226 301.88h-56.48a3.62 3.62 0 0 1 -3.62-3.62 3.62 3.62 0 0 1 3.62-3.61h56.48a3.62 3.62 0 0 1 3.62 3.61 3.62 3.62 0 0 1 -3.62 3.62zm19.16 0h-7.73a3.62 3.62 0 0 1 -3.61-3.62 3.61 3.61 0 0 1 3.61-3.61h7.73a3.62 3.62 0 0 1 3.62 3.61 3.62 3.62 0 0 1 -3.62 3.62z" fill="#5397d1" transform="translate(-55.98 -62.74)"/><path d="m175.71 313.57h-8.08a1.73 1.73 0 1 1 0-3.46h8.08a1.73 1.73 0 1 1 0 3.46zm100.54 0h-95.35a1.73 1.73 0 0 1 0-3.46h95.35a1.73 1.73 0 1 1 0 3.46zm21.69 7.96h-90.42a1.73 1.73 0 0 1 0-3.46h90.42a1.73 1.73 0 1 1 0 3.46zm-96.71 0h-33.6a1.73 1.73 0 0 1 0-3.46h33.6a1.73 1.73 0 1 1 0 3.46z" fill="#89c1e9" transform="translate(-55.98 -62.74)"/><rect fill="#5f3494" height="34.39" rx=".69" width="34.39" x="69" y="275.98"/><path d="m183.43 346h-13.91a3.62 3.62 0 0 1 -3.62-3.62 3.62 3.62 0 0 1 3.62-3.61h13.91a3.62 3.62 0 0 1 3.62 3.61 3.62 3.62 0 0 1 -3.62 3.62zm46.77 0h-35.41a3.62 3.62 0 0 1 -3.62-3.61 3.62 3.62 0 0 1 3.62-3.62h35.41a3.62 3.62 0 0 1 3.62 3.62 3.62 3.62 0 0 1 -3.62 3.61z" fill="#5f3494" transform="translate(-55.98 -62.74)"/><path d="m201.75 357.64h-34.12a1.73 1.73 0 0 1 0-3.46h34.12a1.73 1.73 0 0 1 0 3.46zm54.37 0h-34.12a1.73 1.73 0 0 1 0-3.46h34.11a1.73 1.73 0 1 1 0 3.46zm-40.74 0h-8.45a1.73 1.73 0 0 1 0-3.46h8.45a1.73 1.73 0 1 1 0 3.46zm82.56 7.96h-34.36a1.73 1.73 0 1 1 0-3.46h34.36a1.73 1.73 0 0 1 0 3.46zm-115.32 0h-15a1.73 1.73 0 1 1 0-3.46h15a1.73 1.73 0 0 1 0 3.46zm70.11 0h-62.49a1.73 1.73 0 0 1 0-3.46h62.49a1.73 1.73 0 1 1 0 3.46z" fill="#725ba7" transform="translate(-55.98 -62.74)"/><circle cx="253.67" cy="234.7" fill="#5a71b6" r="19.49"/><path d="m306.16 311.72a2.41 2.41 0 0 1 -1.78-4l9.34-10.27-9.34-10.26a2.41 2.41 0 0 1 3.56-3.24l10.81 11.88a2.4 2.4 0 0 1 0 3.24l-10.81 11.88a2.42 2.42 0 0 1 -1.78.77z" fill="#4c59a7" transform="translate(-55.98 -62.74)"/><path d="m329.63 186.38a4 4 0 1 1 -4-4 4 4 0 0 1 4 4z" fill="#5397d1" transform="translate(-55.98 -62.74)"/><path d="m265.84 186.38a4 4 0 1 1 -4-4 4 4 0 0 1 4 4zm27.49-.85h-24.27a1.3 1.3 0 0 1 -1.3-1.3 1.3 1.3 0 0 1 1.3-1.3h24.27a1.3 1.3 0 0 1 1.3 1.3 1.3 1.3 0 0 1 -1.3 1.3zm-8.95 4.3h-15.32a1.3 1.3 0 0 1 -1.3-1.3 1.3 1.3 0 0 1 1.3-1.3h15.32a1.3 1.3 0 0 1 1.3 1.3 1.31 1.31 0 0 1 -1.3 1.3zm16.9 0h-13.07a1.3 1.3 0 0 1 -1.3-1.3 1.3 1.3 0 0 1 1.3-1.3h13.07a1.3 1.3 0 0 1 1.3 1.3 1.31 1.31 0 0 1 -1.3 1.3z" fill="#ed2480" transform="translate(-55.98 -62.74)"/><path d="m337.65 185.53h-3.15a1.3 1.3 0 0 1 -1.3-1.3 1.3 1.3 0 0 1 1.3-1.3h3.15a1.3 1.3 0 0 1 1.3 1.3 1.3 1.3 0 0 1 -1.3 1.3zm30.7 0h-26.51a1.3 1.3 0 0 1 -1.3-1.3 1.3 1.3 0 0 1 1.3-1.3h26.51a1.3 1.3 0 0 1 1.3 1.3 1.3 1.3 0 0 1 -1.3 1.3zm-22.58 4.3h-11.27a1.3 1.3 0 0 1 -1.3-1.3 1.3 1.3 0 0 1 1.3-1.3h11.27a1.3 1.3 0 0 1 1.3 1.3 1.3 1.3 0 0 1 -1.3 1.3zm19.99 0h-16.16a1.3 1.3 0 0 1 -1.3-1.3 1.3 1.3 0 0 1 1.3-1.3h16.16a1.3 1.3 0 0 1 1.3 1.3 1.31 1.31 0 0 1 -1.3 1.3z" fill="#5397d1" transform="translate(-55.98 -62.74)"/></svg>