<svg enable-background="new 0 0 583.6 533.9" viewBox="0 0 583.6 533.9" xmlns="http://www.w3.org/2000/svg"><path d="m400.1 184.7c2.7 4.8 2.7 10.7 0 15.5l-190 312.5c-2.9 4.6-7.9 7.3-13.3 7.4-2.4-.1-4.6-.6-6.8-1.5-7.1-3.5-10.4-11.8-7.7-19.2l87.2-242.6-72.4 1.5c-5.1.2-9.9-2.3-12.7-6.5-3.1-3.9-3.9-9.2-2.2-13.9l73.3-213.5c2.2-6.2 8-10.4 14.5-10.5h116.6c5.5 0 10.6 2.9 13.3 7.6 2.8 4.7 2.9 10.5.3 15.3l-77.7 139.8h63.4c6.1-.3 11.5 2.9 14.2 8.1z" fill="#f5d72c" stroke="#fff" stroke-miterlimit="10" stroke-width="10"/></svg>