<svg viewBox="0 0 550.22 424.81" xmlns="http://www.w3.org/2000/svg" xmlns:xlink="http://www.w3.org/1999/xlink"><clipPath id="a" transform="translate(-45.4 -69.05)"><path d="m487.35 92.19-6.75 6.11.4-11.68a106 106 0 0 0 -16.64-12.47s-23.2 32.06-16.3 63.92a111.4 111.4 0 0 0 6.53 20.57l12.71 5-9.36 2c8.74 16.41 20.66 26.18 31.41 23.86 15.91-3.45 23.2-32.07 16.3-63.92-2.41-11.16-11.79-25.58-18.3-33.39z"/></clipPath><clipPath id="b" transform="translate(-45.4 -69.05)"><path d="m493.27 182.37a27.44 27.44 0 0 1 2.51-30.16c3.77-4.62 8.94-7.83 13.71-11.41s9.39-7.87 11.25-13.53c2.25-6.85 0-14.35.92-21.5.93-7.53 5.33-14.38 11.24-19.13s14-7 21.42-8.37a17.08 17.08 0 0 0 -5.67 20.4c1.59 3.51 4.33 6.35 6.32 9.64a29.13 29.13 0 0 1 3.76 10.84 17.51 17.51 0 0 1 -.25 7.49c-.88 3-3 5.59-4 8.58-2.43 7.17 1.6 14.7 3.76 22a44.5 44.5 0 0 1 -3.3 33.35 43 43 0 0 1 -26.08 21z"/></clipPath><clipPath id="c" transform="translate(-45.4 -69.05)"><path d="m160.17 339a33.09 33.09 0 0 1 -26.3 15.62c-17 .77-31.58-11.53-43.65-23.56-5.6-5.59-11.21-11.38-18.24-15s-15.89-4.74-22.72-.75a68.9 68.9 0 0 1 97.57 8.21z"/></clipPath><clipPath id="d" transform="translate(-45.4 -69.05)"><path d="m176.36 370.77c-2 7.19-4.07 14.46-7.74 21s-9.21 12.24-16.28 14.66c-3.28 1.12-7 1.46-10.1-.17-3.21-1.71-5.08-5.34-5.42-9a23 23 0 0 1 2-10.61 73.82 73.82 0 0 1 -13.38 10.85c-3.85 2.43-8.22 4.56-12.75 4.09-7.16-.75-12.4-9.15-9.92-15.91-.77 2.32-8.77 4.32-10.83 4.98a35.65 35.65 0 0 1 -14.41 1.82c-14.36-1.66-13.67-17.12-6-25.89a42.73 42.73 0 0 1 33.63-14.43c-2.17-.4-3.57-2.76-3.48-5a9.3 9.3 0 0 1 2.9-5.77 19 19 0 0 1 24.16-2c-4.06-6-.62-14.67 5.28-18.86a21.58 21.58 0 0 1 34.08 16.82z"/></clipPath><clipPath id="e" transform="translate(-45.4 -69.05)"><rect height="64.84" rx="3.28" width="181.62" x="206.82" y="192.16"/></clipPath><clipPath id="f" transform="translate(-45.4 -69.05)"><rect height="81.52" rx="3.04" width="136.08" x="414.43" y="237.06"/></clipPath><path d="m589.05 214.93c-22.13-89.54-105.05-149.29-196.68-113.26-32.45 12.76-63.19 32-97.83 38.67-38 7.28-76.31-8.93-114.75-5-33 3.4-67.34 15-90.8 39.35-26.63 27.68-34.43 67.94-22.8 104.19 6.06 18.87 21.16 34.69 22.85 55 1.28 15.46-4.7 29.12-9.22 43.42a87.45 87.45 0 0 0 -1.21 48.53c9.5 35.76 42.27 55.17 77.51 58.23a129.83 129.83 0 0 0 51.24-5.67c16.32-5.39 31-14.29 48-18.22 34-7.89 65.08 11.95 97.6 18 114.45 21.19 226-66.44 240.83-179.84a227.37 227.37 0 0 0 -4.74-83.4z" fill="#e4d7ea" transform="translate(-45.4 -69.05)"/><path d="m296.27 184.07a2 2 0 0 1 -1.22-.41 2 2 0 0 1 -.36-2.8 161.08 161.08 0 0 1 10.49-12.35 2 2 0 0 1 2.92 2.74 155.13 155.13 0 0 0 -10.24 12 2 2 0 0 1 -1.59.82zm21.87-23.32a2 2 0 0 1 -1.51-.67 2 2 0 0 1 .19-2.83c4-3.55 8.3-6.95 12.65-10.09a2 2 0 0 1 2.34 3.24c-4.25 3.07-8.4 6.39-12.35 9.86a2 2 0 0 1 -1.32.49zm25.91-18.69a2 2 0 0 1 -1-3.73c4.66-2.71 9.49-5.22 14.37-7.45a2 2 0 1 1 1.67 3.63c-4.77 2.18-9.48 4.63-14 7.28a2.07 2.07 0 0 1 -1.04.27zm29.05-13.3a2 2 0 0 1 -.65-3.89c5.09-1.76 10.32-3.27 15.55-4.51a2 2 0 0 1 .92 3.89 160.27 160.27 0 0 0 -15.17 4.4 2.16 2.16 0 0 1 -.65.11zm78.9-6.91a1.55 1.55 0 0 1 -.31 0c-5.16-.8-10.45-1.37-15.72-1.67a2 2 0 0 1 .23-4c5.4.31 10.81.89 16.1 1.71a2 2 0 0 1 -.3 4zm-47.84-.47a2 2 0 0 1 -.27-4c5.32-.72 10.74-1.19 16.13-1.39a2 2 0 1 1 .15 4c-5.25.2-10.55.66-15.74 1.37zm-211.01 128.7a141.28 141.28 0 0 0 -6.94-48.59 145.8 145.8 0 0 0 -22.89-43.49 137.8 137.8 0 0 0 -19-20.11c-1.82-1.58.79-4.28 2.6-2.7a144.31 144.31 0 0 1 31.53 39.15 148.67 148.67 0 0 1 16.55 47.32 142.45 142.45 0 0 1 1.9 28.34c-.08 2.41-3.83 2.49-3.75.07z" fill="#ed2480" transform="translate(-45.4 -69.05)"/><path d="m127.05 145.91c10.79 1.42 20.09-1.67 20.78-6.9s-7.5-10.63-18.28-12-20.77 6.9-20.77 6.9 7.49 10.58 18.27 12z" fill="#ed2480" transform="translate(-45.4 -69.05)"/><path d="m143 125.37c0 8.51 3.3 15.41 7.43 15.43s7.5-6.88 7.52-15.39-7.4-15.41-7.4-15.41-7.5 6.86-7.55 15.37zm19.39 21.18c-.36 5.69 1.6 10.45 4.36 10.62s5.29-4.3 5.65-10-4.4-10.62-4.4-10.62-5.26 4.31-5.61 10zm2.37 47.8c9.72-4.88 15.68-12.66 13.31-17.37s-12.16-4.6-21.88.28-13.32 17.37-13.32 17.37 12.13 4.59 21.89-.28z" fill="#ed2480" transform="translate(-45.4 -69.05)"/><path d="m487.35 92.19-6.75 6.11.4-11.68a106 106 0 0 0 -16.64-12.47s-23.2 32.06-16.3 63.92a111.4 111.4 0 0 0 6.53 20.57l12.71 5-9.36 2c8.74 16.41 20.66 26.18 31.41 23.86 15.91-3.45 23.2-32.07 16.3-63.92-2.41-11.16-11.79-25.58-18.3-33.39z" fill="#f49bc2" transform="translate(-45.4 -69.05)"/><g clip-path="url(#a)" fill="#f174ac"><path d="m474.99 67.95h2.71v122.95h-2.71z" transform="matrix(.97730511 -.21183654 .21183654 .97730511 -62.01 34.749974)"/><path d="m468.6 110.88h39.65v2.71h-39.65z" transform="matrix(.62891339 -.77747537 .77747537 .62891339 48.559979 352.299558)"/><path d="m470.86 121.31h39.65v2.71h-39.65z" transform="matrix(.62891339 -.77747537 .77747537 .62891339 41.299727 357.940374)"/><path d="m479.98 163.4h39.65v2.71h-39.65z" transform="matrix(.62891339 -.77747537 .77747537 .62891339 11.960099 380.649984)"/><path d="m462.18 130.14h2.71v38.45h-2.71z" transform="matrix(.29554132 -.95532996 .95532996 .29554132 138.409631 478.96996)"/><path d="m460.9 124.23h2.71v38.45h-2.71z" transform="matrix(.29554132 -.95532996 .95532996 .29554132 143.149446 473.579715)"/><path d="m451.58 81.23h2.71v38.45h-2.71z" transform="matrix(.29554132 -.95532996 .95532996 .29554132 177.669921 434.389595)"/></g><path d="m493.27 182.37a27.44 27.44 0 0 1 2.51-30.16c3.77-4.62 8.94-7.83 13.71-11.41s9.39-7.87 11.25-13.53c2.25-6.85 0-14.35.92-21.5.93-7.53 5.33-14.38 11.24-19.13s14-7 21.42-8.37a17.08 17.08 0 0 0 -5.67 20.4c1.59 3.51 4.33 6.35 6.32 9.64a29.13 29.13 0 0 1 3.76 10.84 17.51 17.51 0 0 1 -.25 7.49c-.88 3-3 5.59-4 8.58-2.43 7.17 1.6 14.7 3.76 22a44.5 44.5 0 0 1 -3.3 33.35 43 43 0 0 1 -26.08 21z" fill="#6695ce" transform="translate(-45.4 -69.05)"/><g clip-path="url(#b)" fill="#5986c5"><path d="m555.83 75.72c-9.09 4.39-18.07 10.35-22 20.07a24 24 0 0 0 -.8 14.85c1.25 5.28 2.69 10.44 3.21 15.87a52.64 52.64 0 0 1 -.7 16 42.59 42.59 0 0 1 -6.19 14.52c-5.62 8.61-12.9 15.92-17.54 25.2-5 10.07-7.56 21.67-4.63 32.75a1.25 1.25 0 0 0 2.41-.66c-2.56-9.71-.66-19.93 3.46-28.93a71.3 71.3 0 0 1 7.6-12.66c3-4 6.26-7.87 9.17-12a49.3 49.3 0 0 0 7-13.38 48.79 48.79 0 0 0 2.21-15.18 71 71 0 0 0 -1.81-15.17c-1.15-5.16-3.2-10.3-2.36-15.67 1.83-11.66 12.41-18.72 22.23-23.46 1.45-.7.18-2.86-1.26-2.16z" transform="translate(-45.4 -69.05)"/><path d="m538.1 125a51.85 51.85 0 0 0 22.83-21.64c.77-1.41-1.38-2.67-2.16-1.26a49.55 49.55 0 0 1 -21.94 20.74c-1.45.7-.18 2.85 1.27 2.16zm-1.72-10a51.8 51.8 0 0 0 22.83-21.64c.78-1.41-1.38-2.67-2.16-1.26a49.58 49.58 0 0 1 -21.93 20.74c-1.45.7-.18 2.85 1.26 2.16zm-27.3 21.1a53 53 0 0 0 13.1 30.68c1.06 1.21 2.83-.57 1.76-1.77a50.2 50.2 0 0 1 -12.36-28.91c-.13-1.59-2.63-1.6-2.5 0z" transform="translate(-45.4 -69.05)"/><path d="m513.38 131.31a53 53 0 0 0 13.09 30.69c1.07 1.21 2.83-.56 1.77-1.76a50.23 50.23 0 0 1 -12.36-28.91c-.13-1.59-2.63-1.61-2.5 0z" transform="translate(-45.4 -69.05)"/></g><path d="m160.17 339a33.09 33.09 0 0 1 -26.3 15.62c-17 .77-31.58-11.53-43.65-23.56-5.6-5.59-11.21-11.38-18.24-15s-15.89-4.74-22.72-.75a68.9 68.9 0 0 1 97.57 8.21z" fill="#ef482c" transform="translate(-45.4 -69.05)"/><g clip-path="url(#c)" fill="#da3f26"><path d="m47.57 319.67c12-12.61 31.6-14.42 47.52-9.59a50.33 50.33 0 0 1 11.36 5 87.48 87.48 0 0 1 11.55 8.92 73.59 73.59 0 0 0 12.36 9.15 46.93 46.93 0 0 0 13.28 4.85c10.43 2.1 21.73.74 30.53-5.55 1.3-.93 0-3.06-1.32-2.12-8 5.71-18.12 7.14-27.65 5.43a45.13 45.13 0 0 1 -13.7-4.76 74 74 0 0 1 -12.31-9.19 87.93 87.93 0 0 0 -11.55-8.88 52.68 52.68 0 0 0 -11.29-5 57.81 57.81 0 0 0 -25.63-2.16c-9.39 1.38-18.38 5.3-25 12.25a1.25 1.25 0 0 0 1.82 1.72z" transform="translate(-45.4 -69.05)"/><path d="m93.23 296.3a49.31 49.31 0 0 1 6.36 14.48c.4 1.56 2.8.85 2.4-.71a51.41 51.41 0 0 0 -6.64-15.07c-.87-1.34-3 0-2.12 1.32zm6.19-.9a71.38 71.38 0 0 1 6.91 18.69c.34 1.58 2.74.86 2.4-.7a74 74 0 0 0 -7.18-19.31c-.76-1.42-2.89-.1-2.13 1.32zm-11.68 39.6a60.29 60.29 0 0 0 38.5-5c1.44-.7.11-2.82-1.32-2.12a57.51 57.51 0 0 1 -36.58 4.67c-1.57-.33-2.17 2.1-.6 2.42zm-17.2-17.72a60 60 0 0 0 19.7-8.65c1.33-.9 0-3-1.32-2.13a58.12 58.12 0 0 1 -19.08 8.39c-1.57.37-.86 2.77.7 2.39z" transform="translate(-45.4 -69.05)"/><path d="m93.33 341.24a60.28 60.28 0 0 0 38.18-7c1.4-.79.08-2.91-1.32-2.13a57.58 57.58 0 0 1 -36.26 6.68c-1.58-.24-2.19 2.19-.6 2.42z" transform="translate(-45.4 -69.05)"/></g><path d="m176.36 370.77c-2 7.19-4.07 14.46-7.74 21s-9.21 12.24-16.28 14.66c-3.28 1.12-7 1.46-10.1-.17-3.21-1.71-5.08-5.34-5.42-9a23 23 0 0 1 2-10.61 73.82 73.82 0 0 1 -13.38 10.85c-3.85 2.43-8.22 4.56-12.75 4.09-7.16-.75-12.4-9.15-9.92-15.91-.77 2.32-8.77 4.32-10.83 4.98a35.65 35.65 0 0 1 -14.41 1.82c-14.36-1.66-13.67-17.12-6-25.89a42.73 42.73 0 0 1 33.63-14.43c-2.17-.4-3.57-2.76-3.48-5a9.3 9.3 0 0 1 2.9-5.77 19 19 0 0 1 24.16-2c-4.06-6-.62-14.67 5.28-18.86a21.58 21.58 0 0 1 34.08 16.82z" fill="#7e61aa" transform="translate(-45.4 -69.05)"/><g clip-path="url(#d)" fill="#784ea0"><path d="m63.62 391.1c5.6-6.21 12.75-10.56 20.27-14.06s15.6-6.51 23.5-9.43c14.77-5.46 30.09-10.23 45.64-12.81a101.37 101.37 0 0 1 25.44-1.25c1.6.14 1.71-2.36.11-2.5-15.41-1.34-30.78 1.65-45.58 5.72a353 353 0 0 0 -47.47 16.79c-8.7 3.8-17.17 8.57-23.6 15.69-1.07 1.18.61 3 1.69 1.85z" transform="translate(-45.4 -69.05)"/><path d="m76.74 379.8h30.69v3h-30.69z" transform="matrix(.57357644 -.81915204 .81915204 .57357644 -318.479747 168.980098)"/><path d="m88.29 375.68h31.74v3h-31.74z" transform="matrix(.57357644 -.81915204 .81915204 .57357644 -309.959973 177.110431)"/><path d="m63.55 331.65 31.85-45.2 3.49.26-32.89 46.66zm7.35 1.8 34.58-49.05 3.36.44-32.76 46.48z"/><path d="m117.63 329.36h3v38.08h-3z" transform="matrix(.46561452 -.88498764 .88498764 .46561452 -290.069687 222.550017)"/><path d="m61.4 267.92 1.4-2.65 38.15 20.06-2.76 1.94z"/></g><path d="m306.45 483.82h145.05a20.27 20.27 0 0 1 17.49 10h2.1a20.28 20.28 0 0 0 -19.59-15.07h-145a20.28 20.28 0 0 0 -19.59 15.07h2.09a20.27 20.27 0 0 1 17.45-10z" fill="#6a55a4" transform="translate(-45.4 -69.05)"/><path d="m451.5 483.82h-145a20.27 20.27 0 0 0 -17.49 10h179.99a20.27 20.27 0 0 0 -17.5-10z" fill="#725ba7" transform="translate(-45.4 -69.05)"/><path d="m280.55 385-7.91 24.74h121.86l-7.91-24.74z" fill="#725ba7"/><path d="m381.5 369.09h-95.86l-5.09 15.91h106.04z" fill="#5f3494"/><path d="m142.69 333.84h381.25v21.58a13.67 13.67 0 0 1 -13.67 13.67h-353.92a13.67 13.67 0 0 1 -13.67-13.67v-21.58z" fill="#725ba7"/><circle cx="378.72" cy="420.52" fill="#5f3494" r="9.72" transform="matrix(.92387953 -.38268343 .38268343 .92387953 -177.499831 107.880089)"/><path d="m154.63 104.27h357.37a11.94 11.94 0 0 1 11.94 11.94v217.63h-381.25v-217.62a11.94 11.94 0 0 1 11.94-11.95z" fill="#a5def5"/><rect fill="#fff" height="206.44" rx="2.19" width="195.95" x="154.25" y="115.84"/><rect fill="#fff" height="34.62" rx="2.19" width="150.63" x="361.75" y="115.84"/><rect fill="#fff" height="160.5" rx="2.19" width="150.63" x="361.75" y="161.78"/><path d="m387 292.4h-22.9a2.48 2.48 0 0 1 -2.48-2 2.44 2.44 0 0 1 2.41-2.84h23a2.44 2.44 0 0 1 2.44 2.44 2.43 2.43 0 0 1 -2.47 2.4zm-31 0h-34.64a2.48 2.48 0 0 1 -2.48-2 2.44 2.44 0 0 1 2.41-2.84h34.71a2.44 2.44 0 0 1 2.44 2.44 2.43 2.43 0 0 1 -2.44 2.4zm31 11.14h-9.86a2.49 2.49 0 0 1 -2.48-2 2.44 2.44 0 0 1 2.41-2.83h9.93a2.48 2.48 0 0 1 2.48 2 2.44 2.44 0 0 1 -2.48 2.83zm-16.5-2.04a2.48 2.48 0 0 1 -2.47 2h-45.42a2.48 2.48 0 0 1 -2.47-2 2.44 2.44 0 0 1 2.4-2.83h45.55a2.44 2.44 0 0 1 2.41 2.83zm-49.77 8.3h5a2.48 2.48 0 0 1 2.47 2 2.43 2.43 0 0 1 -2.4 2.84h-5a2.43 2.43 0 0 1 -2.43-2.44 2.43 2.43 0 0 1 2.36-2.4zm68.74 2.44a2.44 2.44 0 0 1 -2.44 2.44h-52.25a2.43 2.43 0 0 1 -2.43-2.44 2.43 2.43 0 0 1 2.43-2.44h52.22a2.44 2.44 0 0 1 2.44 2.44zm-2.47 56.84h-22.9a2.48 2.48 0 0 1 -2.48-2 2.44 2.44 0 0 1 2.41-2.84h23a2.44 2.44 0 0 1 2.44 2.44 2.43 2.43 0 0 1 -2.47 2.4zm-31 0h-34.64a2.48 2.48 0 0 1 -2.48-2 2.44 2.44 0 0 1 2.41-2.84h34.71a2.44 2.44 0 0 1 2.44 2.44 2.43 2.43 0 0 1 -2.44 2.4zm31 11.14h-9.86a2.49 2.49 0 0 1 -2.48-2 2.44 2.44 0 0 1 2.41-2.83h9.93a2.48 2.48 0 0 1 2.48 2 2.44 2.44 0 0 1 -2.48 2.83zm-16.5-2.04a2.48 2.48 0 0 1 -2.47 2h-45.42a2.48 2.48 0 0 1 -2.47-2 2.44 2.44 0 0 1 2.4-2.83h45.55a2.44 2.44 0 0 1 2.41 2.83z" fill="#f49bc2" transform="translate(-45.4 -69.05)"/><rect fill="#ed2480" height="15.67" rx="1.88" width="85.72" x="258.35" y="195.04"/><rect fill="#f174ac" height="64.84" rx="3.28" width="181.62" x="161.41" y="123.11"/><g clip-path="url(#e)" fill="#fff"><path d="m295.13 128.16h5v192.84h-5z" transform="matrix(.33002017 -.94397388 .94397388 .33002017 -58.000275 362.36001)"/><path d="m201.2 222.08h192.84v5h-192.84z" transform="matrix(.94397388 -.33002017 .33002017 .94397388 -102.84986 41.780005)"/></g><path d="m268.96 158.28 28.99 28.99-23.43 23.44z" fill="#967db9"/><path d="m137 202.2a4.8 4.8 0 0 0 -4.8 4.8v174.84a4.79 4.79 0 0 0 4.8 4.79h29.51v-184.43z" fill="#ed2480" transform="translate(-45.4 -69.05)"/><path d="m318.75 202.2h-152.26v184.43h152.26a4.79 4.79 0 0 0 4.8-4.79v-174.84a4.8 4.8 0 0 0 -4.8-4.8z" fill="#967db9" transform="translate(-45.4 -69.05)"/><path d="m157.91 221.81h-17.15a2.77 2.77 0 0 1 -2.76-2.81 2.78 2.78 0 0 1 2.78-2.78h17.15a2.78 2.78 0 0 1 2.78 2.78 2.77 2.77 0 0 1 -2.8 2.81zm0 25.13h-17.15a2.78 2.78 0 0 1 -2.78-2.78 2.77 2.77 0 0 1 2.78-2.78h17.15a2.77 2.77 0 0 1 2.78 2.78 2.78 2.78 0 0 1 -2.78 2.78zm0 25.13h-17.15a2.78 2.78 0 0 1 -2.78-2.78 2.77 2.77 0 0 1 2.78-2.78h17.15a2.77 2.77 0 0 1 2.78 2.78 2.78 2.78 0 0 1 -2.78 2.78zm0 25.13h-17.15a2.78 2.78 0 0 1 -2.78-2.78 2.77 2.77 0 0 1 2.78-2.78h17.15a2.77 2.77 0 0 1 2.78 2.78 2.78 2.78 0 0 1 -2.78 2.78zm0 25.12h-17.15a2.77 2.77 0 0 1 -2.78-2.77 2.77 2.77 0 0 1 2.78-2.78h17.15a2.77 2.77 0 0 1 2.78 2.78 2.77 2.77 0 0 1 -2.78 2.77z" fill="#f49bc2" transform="translate(-45.4 -69.05)"/><rect fill="#f49bc2" height="5.56" rx="2.78" width="22.71" x="92.58" y="272.84"/><g transform="translate(-45.4 -69.05)"><path d="m157.91 372.58h-17.15a2.77 2.77 0 0 1 -2.76-2.78 2.78 2.78 0 0 1 2.78-2.78h17.15a2.78 2.78 0 0 1 2.78 2.78 2.77 2.77 0 0 1 -2.8 2.78z" fill="#f49bc2"/><path d="m207.36 226.33h-28.12a2.89 2.89 0 0 1 0-5.78h28.12a2.89 2.89 0 1 1 0 5.78zm50.95 0h-41.45a2.89 2.89 0 0 1 0-5.78h41.45a2.89 2.89 0 0 1 0 5.78z" fill="#fff"/><path d="m187 239.27h-7.77a2.89 2.89 0 0 1 0-5.77h7.77a2.89 2.89 0 1 1 0 5.77z" fill="#ccb6d8"/><path d="m267.18 239.27h-72.49a2.89 2.89 0 0 1 0-5.77h72.49a2.89 2.89 0 1 1 0 5.77z" fill="#f174ac"/><path d="m207.36 312.33h-28.12a2.89 2.89 0 0 1 0-5.77h28.12a2.89 2.89 0 1 1 0 5.77z" fill="#fff"/><path d="m226.4 312.33h-10.22a2.89 2.89 0 1 1 0-5.77h10.22a2.89 2.89 0 0 1 0 5.77z" fill="#f174ac"/><path d="m300.86 312.33h-64.8a2.89 2.89 0 0 1 0-5.77h64.8a2.89 2.89 0 1 1 0 5.77z" fill="#ccb6d8"/><path d="m233.21 325.28h-54a2.89 2.89 0 0 1 0-5.78h54a2.89 2.89 0 0 1 0 5.78z" fill="#fff"/><path d="m257.86 325.28h-16.44a2.89 2.89 0 0 1 0-5.78h16.44a2.89 2.89 0 0 1 0 5.78z" fill="#ccb6d8"/><path d="m293.39 325.28h-26.54a2.89 2.89 0 0 1 0-5.78h26.54a2.89 2.89 0 0 1 0 5.78zm-92.24-55.95h-21.91a2.89 2.89 0 0 1 0-5.77h21.91a2.89 2.89 0 1 1 0 5.77zm83.95 0h-74.46a2.89 2.89 0 1 1 0-5.77h74.46a2.89 2.89 0 0 1 0 5.77z" fill="#fff"/><path d="m231.87 282.27h-52.63a2.89 2.89 0 0 1 0-5.77h52.63a2.89 2.89 0 1 1 0 5.77z" fill="#f174ac"/><path d="m261.49 282.27h-18.49a2.89 2.89 0 0 1 0-5.77h18.5a2.89 2.89 0 1 1 0 5.77z" fill="#ccb6d8"/><path d="m201.15 355.34h-21.91a2.89 2.89 0 0 1 0-5.78h21.91a2.89 2.89 0 1 1 0 5.78zm83.95 0h-74.46a2.89 2.89 0 1 1 0-5.78h74.46a2.89 2.89 0 0 1 0 5.78z" fill="#fff"/><path d="m231.87 368.28h-52.63a2.89 2.89 0 0 1 0-5.77h52.63a2.89 2.89 0 1 1 0 5.77z" fill="#f174ac"/><path d="m261.49 368.28h-18.49a2.89 2.89 0 0 1 0-5.77h18.5a2.89 2.89 0 1 1 0 5.77z" fill="#ccb6d8"/></g><rect fill="#79d1f1" height="24.93" rx="2.17" width="24.93" x="369.02" y="120.68"/><path d="m461.69 200.06h-13.85a2.89 2.89 0 1 1 0-5.77h13.85a2.89 2.89 0 1 1 0 5.77zm17.51 0h-8a2.89 2.89 0 1 1 0-5.77h8a2.89 2.89 0 1 1 0 5.77zm36.45 10.06h-67.81a2.89 2.89 0 1 1 0-5.78h67.81a2.89 2.89 0 0 1 0 5.78zm31.97 0h-23.74a2.89 2.89 0 1 1 0-5.78h23.74a2.89 2.89 0 0 1 0 5.78z" fill="#79d1f1" transform="translate(-45.4 -69.05)"/><rect fill="#ccb6d8" height="81.52" rx="3.04" width="136.08" x="369.02" y="168.01"/><g clip-path="url(#f)"><path d="m485.31 178.62-55.52 70.91h111.04z" fill="#5f3494"/><path d="m436.34 198.1-40.27 51.43h80.54z" fill="#725ba7"/><circle cx="400.97" cy="191.63" fill="#5f3494" r="6.47"/></g><path d="m486 331.41h-46.32a2.89 2.89 0 1 1 0-5.77h46.32a2.89 2.89 0 1 1 0 5.77z" fill="#ccb6d8" transform="translate(-45.4 -69.05)"/><path d="m503.48 331.41h-8a2.89 2.89 0 1 1 0-5.77h8a2.89 2.89 0 0 1 0 5.77z" fill="#725ba7" transform="translate(-45.4 -69.05)"/><path d="m446 341.47h-6.31a2.89 2.89 0 1 1 0-5.78h6.31a2.89 2.89 0 0 1 0 5.78zm46.57 0h-37.82a2.89 2.89 0 1 1 0-5.78h37.82a2.89 2.89 0 1 1 0 5.78zm55.05 0h-45.27a2.89 2.89 0 0 1 0-5.78h45.27a2.89 2.89 0 1 1 0 5.78z" fill="#ccb6d8" transform="translate(-45.4 -69.05)"/><circle cx="376.94" cy="264.5" fill="#725ba7" r="7.91"/><path d="m454.38 358.94h-14.7a2.89 2.89 0 0 1 0-5.78h14.7a2.89 2.89 0 0 1 0 5.78zm17.51 0h-8a2.89 2.89 0 0 1 0-5.78h8a2.89 2.89 0 0 1 0 5.78zm-8.39 10.06h-23.82a2.89 2.89 0 1 1 0-5.77h23.82a2.89 2.89 0 1 1 0 5.77z" fill="#ccb6d8" transform="translate(-45.4 -69.05)"/><path d="m525 369h-52.74a2.89 2.89 0 1 1 0-5.77h52.74a2.89 2.89 0 0 1 0 5.77z" fill="#725ba7" transform="translate(-45.4 -69.05)"/><path d="m547.62 369h-12.85a2.89 2.89 0 1 1 0-5.77h12.85a2.89 2.89 0 1 1 0 5.77z" fill="#ccb6d8" transform="translate(-45.4 -69.05)"/><circle cx="376.94" cy="292.02" fill="#725ba7" r="7.91"/><path d="m546.6 385.1h-128.27a3.91 3.91 0 0 1 -3.9-3.9 3.91 3.91 0 0 1 3.9-3.91h128.27a3.91 3.91 0 0 1 3.91 3.91 3.91 3.91 0 0 1 -3.91 3.9z" fill="#725ba7" transform="translate(-45.4 -69.05)"/><path d="m278.14 253.64h65.92v33.49h-65.92z" fill="#f9cade"/></svg>