<svg viewBox="0 0 482.04 444.54" xmlns="http://www.w3.org/2000/svg" xmlns:xlink="http://www.w3.org/1999/xlink"><clipPath id="a" transform="translate(-75.55 -60.69)"><path d="m317.55 443.29a13.5 13.5 0 0 0 -7.05 16.15 7.15 7.15 0 0 0 3.14 4.14 3.83 3.83 0 0 0 4.8-.82c-.41 3 0 6.26 2 8.47s6 2.69 7.95.4c.07 3.93.18 8 1.89 11.53s5.52 6.38 9.38 5.69c3.44-.62 5.88-3.76 7.18-7a22.18 22.18 0 0 0 -1.84-19.91c2.9 1.89 7.15.39 8.94-2.57s1.5-6.82.1-10-3.73-5.77-6.04-8.37c3.44-1 5.9-3.46 6-6.16.17-3.05-2.68-5.2-4.13-6.28a13.27 13.27 0 0 0 -7.84-2.56c1.12-.79 3.57-2.75 3.68-5.39.17-3.83-4.65-8.37-12.3-8.89l-15.82 9.13z"/></clipPath><clipPath id="b" transform="translate(-75.55 -60.69)"><path d="m247.83 463 7.93 2.86-9.76 4.74a98.47 98.47 0 0 0 -2.92 19s36.33 5 59.35-14.59a104.72 104.72 0 0 0 14-14.32l-1.49-12.56 5.75 6.76c9.59-14.3 12.38-28.32 5.78-36.08-9.76-11.5-36.33-5-59.35 14.58-8.07 6.9-15.73 20.85-19.29 29.61z"/></clipPath><clipPath id="c" transform="translate(-75.55 -60.69)"><path d="m239.13 180.09a35.77 35.77 0 0 0 .5-33.08c-8.44-16.39-27.81-23.43-45.6-28.28-8.26-2.24-16.72-4.4-23.9-9s-13-12.36-12.93-20.92a74.53 74.53 0 0 0 60.23 87.14z"/></clipPath><clipPath id="d" transform="translate(-75.55 -60.69)"><path d="m255.89 182.41c-7.69-1.47-15.46-3-22.57-6.22s-13.6-8.53-16.75-15.69c-1.46-3.32-2.14-7.22-.71-10.56 1.5-3.5 5.12-5.77 8.86-6.45a24.3 24.3 0 0 1 11.28 1.15 77 77 0 0 1 -12.51-13c-2.88-3.8-5.49-8.18-5.4-12.94.15-7.54 8.45-13.76 15.73-11.77-2.45-.67-5.32-8.78-6.17-10.87-1.88-4.66-3.33-9.81-3.18-14.88.45-15.18 16.65-15.79 26.53-8.58a44.78 44.78 0 0 1 18 33.82c.21-2.3 2.55-4 4.86-4.07a9.76 9.76 0 0 1 6.29 2.51c7.2 5.81 9.13 17.18 4.25 25 5.89-4.77 15.26-2 20.16 3.84a22.61 22.61 0 0 1 -14.56 37.1z"/></clipPath><path d="m494.15 244.73c3.45-13.63 16.61-17.37 27.23-23.91a76.94 76.94 0 0 0 29.08-32.31c16-33.72 3.77-75.2-23.54-99.29-21.48-18.94-50.75-26.43-78.75-28.13a237.89 237.89 0 0 0 -67.9 6c-2.14.5-4.28 1-6.41 1.58-26.62 6.89-50.86 12.01-78.73 10.33-48.73-3-48.65-13.21-79.41-11.72-60.72 2.92-119.01 61.3-118.21 122.59a254.71 254.71 0 0 0 11.78 73.3l88.81 162.83c38.26 41.74 99 79.26 157.37 66.09 29.87-6.74 56.71-25.35 74.18-50.4 17.92-25.7 24.22-57 46.72-80 14.6-14.89 32.17-29.84 35.86-51.53 5.03-29.49-24.08-41.72-18.08-65.43z" fill="#e4d7ea" transform="translate(-75.55 -60.69)"/><path d="m440.1 130.13a2 2 0 0 1 -1.73-1 108.53 108.53 0 0 0 -8.76-13 2 2 0 0 1 3.15-2.47 112.65 112.65 0 0 1 9.08 13.51 2 2 0 0 1 -.74 2.73 2.13 2.13 0 0 1 -1 .23zm-173.24-7.9a2 2 0 0 1 -1.13-.35 2 2 0 0 1 -.51-2.78 101.8 101.8 0 0 1 10.46-12.56 2 2 0 0 1 2.88 2.78 98.29 98.29 0 0 0 -10.05 12.05 2 2 0 0 1 -1.65.86zm153.56-17.18a2 2 0 0 1 -1.37-.54 103.51 103.51 0 0 0 -12.17-9.89 2 2 0 0 1 2.28-3.29 108.84 108.84 0 0 1 12.64 10.27 2 2 0 0 1 .08 2.83 2 2 0 0 1 -1.46.62zm-131.42-5.87a2 2 0 0 1 -1.25-3.57 114.24 114.24 0 0 1 13.45-9.18 2 2 0 0 1 2 3.46 109.72 109.72 0 0 0 -13 8.85 2 2 0 0 1 -1.2.44zm105.23-12.29a1.94 1.94 0 0 1 -.87-.2 100.18 100.18 0 0 0 -14.58-5.69 2 2 0 1 1 1.16-3.83 102.89 102.89 0 0 1 15.17 6 2 2 0 0 1 -.88 3.79zm-77.64-3.66a2 2 0 0 1 -.72-3.87 97.91 97.91 0 0 1 15.65-4.6 2 2 0 1 1 .8 3.92 94.34 94.34 0 0 0 -15 4.41 2 2 0 0 1 -.73.14zm47.16-5.56h-.27a95.61 95.61 0 0 0 -14.26-.82h-1.38a2 2 0 0 1 -2.06-1.93 2 2 0 0 1 1.94-2.06h1.43a99.63 99.63 0 0 1 14.86.85 2 2 0 0 1 -.26 4z" fill="#ed2480" transform="translate(-75.55 -60.69)"/><path d="m215.14 431.2c-8.64.38-17.73 4-21.13 12.6-1.42 3.54-1.66 8.39 1.47 11.14s8.16 2.52 12 1.24c4.76-1.6 8.74-4.83 12.55-8l-1.77-1.76a9.19 9.19 0 0 0 -2.12 9.61 9.62 9.62 0 0 0 7.87 6.34c8.41 1.23 14.4-6.36 14.38-14.22 0-1.36-2.22-1.76-2.45-.33-1.26 7.53 5.46 14.34 12.85 14.44 8.22.11 14.86-6.45 17.42-13.81a36.78 36.78 0 0 0 1.44-15.29c-.15-1.59-2.65-1.61-2.5 0 .65 7.32 0 15.56-5.21 21.26-4.39 4.85-11.76 7.37-17.44 3.13-2.78-2.07-4.74-5.53-4.15-9.06l-2.46-.34c0 6.13-4.2 12.27-10.85 11.83a7.26 7.26 0 0 1 -6.43-4.46 6.76 6.76 0 0 1 1.42-7.34c1.19-1.12-.55-2.78-1.77-1.76a47.7 47.7 0 0 1 -9.16 6.41c-3.08 1.52-7.18 2.58-10.49 1.15-3.5-1.52-3.47-5.69-2.41-8.8a15.7 15.7 0 0 1 6.47-7.92 25.14 25.14 0 0 1 12.52-3.55c1.6-.08 1.61-2.58 0-2.5z" fill="#5986c5" transform="translate(-75.55 -60.69)"/><path d="m197 452c5.53-7.6 15.07-10.94 24-12.05 10.6-1.32 21.35-.27 31.91-2.08a41.42 41.42 0 0 0 15.37-5.62c1.35-.86.1-3-1.26-2.16-8.88 5.66-19.64 6.28-29.87 6.52s-21 .31-30.56 4.7a29.68 29.68 0 0 0 -11.8 9.42c-.94 1.31 1.22 2.55 2.16 1.27z" fill="#5986c5" transform="translate(-75.55 -60.69)"/><path d="m228.05 438.25a46.06 46.06 0 0 1 -3.86 10c-1.6 3-3.5 6.32-6.16 8.53-1.24 1 .54 2.79 1.76 1.77 2.81-2.34 4.86-5.84 6.56-9a49.6 49.6 0 0 0 4.11-10.57 1.25 1.25 0 0 0 -2.41-.67zm5.79-.25a38.41 38.41 0 0 1 -12.18 21.64c-1.21 1.06.56 2.83 1.77 1.77a40.55 40.55 0 0 0 12.82-22.75c.31-1.57-2.1-2.24-2.41-.66zm15.16-1.43a24.06 24.06 0 0 0 -15.17-13.71 1.25 1.25 0 0 0 -.66 2.41 21.42 21.42 0 0 1 13.42 12 1.3 1.3 0 0 0 1.54.87 1.25 1.25 0 0 0 .87-1.54z" fill="#5986c5" transform="translate(-75.55 -60.69)"/><path d="m317.55 443.29a13.5 13.5 0 0 0 -7.05 16.15 7.15 7.15 0 0 0 3.14 4.14 3.83 3.83 0 0 0 4.8-.82c-.41 3 0 6.26 2 8.47s6 2.69 7.95.4c.07 3.93.18 8 1.89 11.53s5.52 6.38 9.38 5.69c3.44-.62 5.88-3.76 7.18-7a22.18 22.18 0 0 0 -1.84-19.91c2.9 1.89 7.15.39 8.94-2.57s1.5-6.82.1-10-3.73-5.77-6.04-8.37c3.44-1 5.9-3.46 6-6.16.17-3.05-2.68-5.2-4.13-6.28a13.27 13.27 0 0 0 -7.84-2.56c1.12-.79 3.57-2.75 3.68-5.39.17-3.83-4.65-8.37-12.3-8.89l-15.82 9.13z" fill="#f5982d" transform="translate(-75.55 -60.69)"/><g clip-path="url(#a)" fill="#f4792c"><path d="m341.31 491.69c.57-11.47-2.38-22.69-5.43-33.64-1.55-5.56-3.14-11.11-4.35-16.75a113 113 0 0 1 -1.53-38.78c.16-1.22-1.73-1.63-1.9-.39a116.08 116.08 0 0 0 .91 36.59c2.13 11.42 6.09 22.39 8.51 33.75a75.23 75.23 0 0 1 1.83 19.32c-.07 1.25 1.86 1.13 1.92-.1z" transform="translate(-75.55 -60.69)"/><path d="m339 476.45a8.09 8.09 0 0 0 -2.61 2c-.83.87-1.63 1.77-2.4 2.69a60.57 60.57 0 0 0 -4.29 5.79 1 1 0 0 0 1.73.86 55.11 55.11 0 0 1 3.83-5.16c.65-.79 1.33-1.57 2-2.32a7.64 7.64 0 0 1 2.3-2 1 1 0 0 0 .63-1.22 1 1 0 0 0 -1.22-.62zm-1.21-4.89a30.18 30.18 0 0 0 -12.54 12.75 1 1 0 0 0 1.72.87 28.34 28.34 0 0 1 11.86-12c1.1-.59.05-2.21-1-1.63zm-4.69-18.74c-7.06 4.57-12 11.79-14.8 19.63-.42 1.15 1.31 2 1.73.86 2.7-7.52 7.33-14.46 14.12-18.86a1 1 0 0 0 -1-1.63zm21.19 7.18a46.37 46.37 0 0 0 -22.88-18c-1.16-.41-2 1.31-.87 1.73a44.69 44.69 0 0 1 22.12 17.39 1 1 0 0 0 1.63-1z" transform="translate(-75.55 -60.69)"/><path d="m356.73 457.37a53 53 0 0 0 -26.42-20.37c-1.15-.4-2 1.32-.86 1.73a51.2 51.2 0 0 1 25.65 19.7c.7 1 2.33 0 1.63-1.05z" transform="translate(-75.55 -60.69)"/></g><path d="m247.83 463 7.93 2.86-9.76 4.74a98.47 98.47 0 0 0 -2.92 19s36.33 5 59.35-14.59a104.72 104.72 0 0 0 14-14.32l-1.49-12.56 5.75 6.76c9.59-14.3 12.38-28.32 5.78-36.08-9.76-11.5-36.33-5-59.35 14.58-8.07 6.9-15.73 20.85-19.29 29.61z" fill="#4661ad" transform="translate(-75.55 -60.69)"/><g clip-path="url(#b)" fill="#4c59a7"><path d="m226.1 454.47h113.92v2.51h-113.92z" transform="matrix(.7622166 -.64732206 .64732206 .7622166 -303.249794 230.929584)"/><path d="m262.48 434.99h2.51v36.73h-2.51z" transform="matrix(.18840986 -.98209049 .98209049 .18840986 -306.729537 566.300159)"/><path d="m270.01 428.59h2.51v36.73h-2.51z" transform="matrix(.18840986 -.98209049 .98209049 .18840986 -294.33092 568.4995)"/><path d="m300.43 402.76h2.51v36.73h-2.51z" transform="matrix(.18840986 -.98209049 .98209049 .18840986 -244.269399 577.410037)"/><path d="m303.69 439.67h2.51v35.63h-2.51z" transform="matrix(.98189265 -.1894382 .1894382 .98189265 -156.719949 5.390005)"/><path d="m299.42 443.3h2.51v35.63h-2.51z" transform="matrix(.98189265 -.1894382 .1894382 .98189265 -157.480037 4.649998)"/><path d="m268.35 469.69h2.51v35.63h-2.51z" transform="matrix(.98189265 -.1894382 .1894382 .98189265 -163.049927 -.759904)"/></g><path d="m239.13 180.09a35.77 35.77 0 0 0 .5-33.08c-8.44-16.39-27.81-23.43-45.6-28.28-8.26-2.24-16.72-4.4-23.9-9s-13-12.36-12.93-20.92a74.53 74.53 0 0 0 60.23 87.14z" fill="#6695ce" transform="translate(-75.55 -60.69)"/><g clip-path="url(#c)" fill="#5986c5"><path d="m160.34 84.86c-5.39 18 3.48 37.42 16.59 49.75a54.1 54.1 0 0 0 10.82 8c4.6 2.56 9.61 4.24 14.55 6a80.17 80.17 0 0 1 15.24 6.68 51 51 0 0 1 11.71 9.91c7.58 8.65 12.4 20 11.23 31.63-.18 1.72-2.88 1.64-2.71-.1 1.06-10.55-3.05-20.84-9.78-28.86a48.83 48.83 0 0 0 -11.87-10.28c-4.75-2.9-10-4.77-15.24-6.62a93 93 0 0 1 -14.55-6 56.83 56.83 0 0 1 -10.8-7.88 62.27 62.27 0 0 1 -15.83-22.99c-3.76-9.55-4.92-20.09-1.95-30a1.35 1.35 0 0 1 2.59.78z" transform="translate(-75.55 -60.69)"/><path d="m163 140.28a53 53 0 0 0 17-1.82c1.68-.46 2.31 2.17.63 2.63a55.8 55.8 0 0 1 -17.73 1.91 1.36 1.36 0 0 1 .1-2.71zm2.48 6.3a77.12 77.12 0 0 0 21.26-3.58c1.66-.53 2.28 2.11.63 2.63a80 80 0 0 1 -22 3.66c-1.74 0-1.64-2.66.09-2.71zm30.87-32.27a65.23 65.23 0 0 1 16.06 38.79c.11 1.74-2.6 1.64-2.71-.09a62.18 62.18 0 0 0 -15.31-36.83c-1.14-1.31.81-3.18 2-1.87zm-25.88-6.61a65.15 65.15 0 0 1 2.53 23.15c-.13 1.73-2.83 1.65-2.7-.1a62.72 62.72 0 0 0 -2.41-22.42c-.49-1.67 2.15-2.29 2.63-.63z" transform="translate(-75.55 -60.69)"/><path d="m205.22 116.19a65.18 65.18 0 0 1 14 39.58c0 1.74-2.68 1.64-2.7-.1a62.21 62.21 0 0 0 -13.25-37.62c-1.07-1.35.87-3.23 1.95-1.86z" transform="translate(-75.55 -60.69)"/></g><path d="m255.89 182.41c-7.69-1.47-15.46-3-22.57-6.22s-13.6-8.53-16.75-15.69c-1.46-3.32-2.14-7.22-.71-10.56 1.5-3.5 5.12-5.77 8.86-6.45a24.3 24.3 0 0 1 11.28 1.15 77 77 0 0 1 -12.51-13c-2.88-3.8-5.49-8.18-5.4-12.94.15-7.54 8.45-13.76 15.73-11.77-2.45-.67-5.32-8.78-6.17-10.87-1.88-4.66-3.33-9.81-3.18-14.88.45-15.18 16.65-15.79 26.53-8.58a44.78 44.78 0 0 1 18 33.82c.21-2.3 2.55-4 4.86-4.07a9.76 9.76 0 0 1 6.29 2.51c7.2 5.81 9.13 17.18 4.25 25 5.89-4.77 15.26-2 20.16 3.84a22.61 22.61 0 0 1 -14.56 37.1z" fill="#7e61aa" transform="translate(-75.55 -60.69)"/><g clip-path="url(#d)" fill="#784ea0"><path d="m224.67 66.53c7 5.3 12.15 12.37 16.47 19.92s8.18 15.7 11.93 23.69c7 14.93 13.34 30.5 17.42 46.51a106.78 106.78 0 0 1 3.56 26.43c0 1.69 2.61 1.59 2.62-.1 0-16.2-4.46-32-10-47.07a368.5 368.5 0 0 0 -21.74-48.06c-4.74-8.75-10.46-17.16-18.46-23.24-1.33-1-3.13.9-1.78 1.92z" transform="translate(-75.55 -60.69)"/><path d="m235.84 79.31h3.14v32.15h-3.14z" transform="matrix(.5021146 -.86480109 .86480109 .5021146 -39.829839 192.119638)"/><path d="m241.22 90.99h3.14v33.25h-3.14z" transform="matrix(.5021146 -.86480109 .86480109 .5021146 -47.739866 202.860331)"/><path d="m143.11 54.02 50.01 29.24.04 3.67-51.63-30.19zm-1.23 7.84 54.27 31.73-.16 3.55-51.42-30.07z"/><path d="m254.21 119.12h39.89v3.14h-39.89z" transform="matrix(.38896317 -.92125331 .92125331 .38896317 -19.229687 265.619618)"/><path d="m209.44 46.13 2.89 1.22-17.56 41.61-2.26-2.72z"/></g><path d="m453.62 397h-364.26a8.57 8.57 0 0 1 -8-5.5l-5.81-15.1h391.88l-5.81 15.1a8.57 8.57 0 0 1 -8 5.5z" fill="#5397d1" transform="translate(-75.55 -60.69)"/><path d="m156.3 315.7h79.28v6.68a3.62 3.62 0 0 1 -3.58 3.62h-72a3.62 3.62 0 0 1 -3.62-3.62v-6.68z" fill="#674199"/><path d="m36.62 98.35h318.64a13.19 13.19 0 0 1 13.19 13.19v204.16h-345v-204.16a13.19 13.19 0 0 1 13.17-13.19z" fill="#4661ad"/><circle cx="185.08" cy="106.82" fill="#354ea2" r="3.14"/><path d="m282.35 170.65h-12.3a3.15 3.15 0 0 1 -3.14-3.14 3.15 3.15 0 0 1 3.14-3.14h12.3a3.15 3.15 0 0 1 3.14 3.14 3.15 3.15 0 0 1 -3.14 3.14z" fill="#354ea2" transform="translate(-75.55 -60.69)"/><path d="m37.18 115.3h317.52v192.81h-317.52z" fill="#fff"/><path d="m47.55 125.66h181.96v81.36h-181.96zm0 91.73h96.05v17.15h-96.05zm0 27.52h298.48v63.2h-298.48z" fill="#dce9f7"/><path d="m305.05 271a3.12 3.12 0 0 1 -1.32-.29l-182-81.36a3.24 3.24 0 0 1 2.65-5.92l182 81.36a3.25 3.25 0 0 1 -1.33 6.21z" fill="#fff" transform="translate(-75.55 -60.69)"/><path d="m123.1 271a3.25 3.25 0 0 1 -1.33-6.21l182-81.36a3.24 3.24 0 1 1 2.65 5.92l-182 81.36a3.12 3.12 0 0 1 -1.32.29z" fill="#fff" transform="translate(-75.55 -60.69)"/><path d="m416 438.16a2 2 0 0 1 -.12-4 102.49 102.49 0 0 0 15.54-2.16 2 2 0 1 1 .85 3.91 105.47 105.47 0 0 1 -16.14 2.21zm-16-.27h-.19a107.83 107.83 0 0 1 -16-2.72 2 2 0 0 1 1-3.89 102.76 102.76 0 0 0 15.46 2.63 2 2 0 0 1 -.18 4zm47.13-6.49a2 2 0 0 1 -.73-3.86 101.87 101.87 0 0 0 14.13-6.78 2 2 0 0 1 2 3.46 104.86 104.86 0 0 1 -14.69 7 2 2 0 0 1 -.68.18zm-78.07-1.2a1.93 1.93 0 0 1 -.77-.16 109.35 109.35 0 0 1 -14.52-7.37 2 2 0 0 1 -.67-2.75 2 2 0 0 1 2.75-.67 104.28 104.28 0 0 0 14 7.1 2 2 0 0 1 -.77 3.85zm105.64-14.81a2 2 0 0 1 -1.27-3.54 94.71 94.71 0 0 0 11.24-10.85 2 2 0 1 1 3 2.64 99.48 99.48 0 0 1 -11.67 11.3 2 2 0 0 1 -1.3.45zm21-23.94a2 2 0 0 1 -1.69-3.06 106.27 106.27 0 0 0 7.28-13.89 2 2 0 0 1 3.67 1.59 108.9 108.9 0 0 1 -7.56 14.42 2 2 0 0 1 -1.71.94zm12.77-29.24a2 2 0 0 1 -1.93-2.54 122.24 122.24 0 0 0 3.28-15.4 2 2 0 0 1 3.95.57 128.16 128.16 0 0 1 -3.37 15.91 2 2 0 0 1 -1.94 1.46z" fill="#ed2480" transform="translate(-75.55 -60.69)"/><path d="m356.25 255.78h-186.11a6.93 6.93 0 0 0 -6.93 6.93v166.59a4.22 4.22 0 0 0 4.22 4.21h191.57a4.21 4.21 0 0 0 4.21-4.21v-166.59a6.93 6.93 0 0 0 -6.96-6.93z" fill="#5397d1" transform="translate(-75.55 -60.69)"/><path d="m196.73 83.16h257.6v187.47a7.39 7.39 0 0 1 -7.39 7.39h-242.82a7.39 7.39 0 0 1 -7.39-7.39z" fill="#f49bc2"/><path d="m204.12 67.43h242.83a7.39 7.39 0 0 1 7.39 7.39v8.34h-257.61v-8.34a7.39 7.39 0 0 1 7.39-7.39z" fill="#ed2480"/><path d="m287.44 136a3.53 3.53 0 1 1 -3.53-3.53 3.53 3.53 0 0 1 3.53 3.53zm14.44 0a3.53 3.53 0 1 1 -3.52-3.53 3.52 3.52 0 0 1 3.52 3.53zm14.45 0a3.53 3.53 0 1 1 -3.53-3.53 3.53 3.53 0 0 1 3.53 3.53z" fill="#f5a2c6" transform="translate(-75.55 -60.69)"/><rect fill="#fff" height="88.25" rx="2.82" width="237.6" x="206.74" y="93.16"/><path d="m383.87 257.57h-47.87a3.2 3.2 0 0 1 -3.2-3.2 3.19 3.19 0 0 1 3.2-3.19h47.87a3.19 3.19 0 0 1 3.19 3.19 3.19 3.19 0 0 1 -3.19 3.2zm66.41 0h-47.87a3.2 3.2 0 0 1 -3.2-3.2 3.19 3.19 0 0 1 3.2-3.19h47.87a3.19 3.19 0 0 1 3.19 3.19 3.19 3.19 0 0 1 -3.19 3.2zm66.41 0h-47.88a3.19 3.19 0 0 1 -3.19-3.2 3.19 3.19 0 0 1 3.19-3.19h47.88a3.19 3.19 0 0 1 3.19 3.19 3.19 3.19 0 0 1 -3.19 3.2z" fill="#f174ac" transform="translate(-75.55 -60.69)"/><path d="m334.15 312.51h51.56a1.34 1.34 0 0 0 1.35-1.35v-14.16h-54.26v14.2a1.34 1.34 0 0 0 1.35 1.31z" fill="#ed2480" transform="translate(-75.55 -60.69)"/><path d="m364.39 303.5h-11.14a1.21 1.21 0 0 1 -1.2-1 1.18 1.18 0 0 1 1.17-1.38h11.17a1.19 1.19 0 0 1 1.19 1.19 1.19 1.19 0 0 1 -1.19 1.19zm-15.08-.01h-12.31a1.2 1.2 0 0 1 -1.2-1 1.18 1.18 0 0 1 1.17-1.38h12.3a1.18 1.18 0 0 1 1.18 1.19 1.18 1.18 0 0 1 -1.14 1.19zm23.11 4.85h-12.82a1.21 1.21 0 0 1 -1.21-1 1.18 1.18 0 0 1 1.17-1.38h12.83a1.2 1.2 0 0 1 1.2 1 1.18 1.18 0 0 1 -1.17 1.38zm-16.07-.99a1.2 1.2 0 0 1 -1.2 1h-18.15a1.2 1.2 0 0 1 -1.2-1 1.18 1.18 0 0 1 1.2-1.35h18.17a1.18 1.18 0 0 1 1.18 1.35zm27.65 0a1.22 1.22 0 0 1 -1.21 1h-6.51a1.2 1.2 0 0 1 -1.2-1 1.18 1.18 0 0 1 1.17-1.38h6.58a1.19 1.19 0 0 1 1.17 1.38z" fill="#fff" transform="translate(-75.55 -60.69)"/><path d="m400.56 312.51h51.56a1.34 1.34 0 0 0 1.35-1.35v-14.16h-54.26v14.2a1.34 1.34 0 0 0 1.35 1.31z" fill="#ed2480" transform="translate(-75.55 -60.69)"/><path d="m427.17 303.5h-16.72a1.21 1.21 0 0 1 -1.2-1 1.18 1.18 0 0 1 1.17-1.38h16.75a1.19 1.19 0 0 1 1.19 1.19 1.19 1.19 0 0 1 -1.19 1.19zm-20.66-.01h-3.06a1.2 1.2 0 0 1 -1.2-1 1.18 1.18 0 0 1 1.17-1.38h3.09a1.18 1.18 0 0 1 1.18 1.19 1.18 1.18 0 0 1 -1.18 1.19zm15.04 4.85h-4.07a1.2 1.2 0 0 1 -1.2-1 1.18 1.18 0 0 1 1.17-1.38h4.07a1.2 1.2 0 0 1 1.2 1 1.18 1.18 0 0 1 -1.17 1.38zm-7.31-.99a1.22 1.22 0 0 1 -1.21 1h-9.58a1.2 1.2 0 0 1 -1.2-1 1.18 1.18 0 0 1 1.17-1.38h9.65a1.19 1.19 0 0 1 1.17 1.38zm36.2 0a1.22 1.22 0 0 1 -1.21 1h-23.79a1.2 1.2 0 0 1 -1.2-1 1.18 1.18 0 0 1 1.17-1.38h23.86a1.2 1.2 0 0 1 1.17 1.38z" fill="#fff" transform="translate(-75.55 -60.69)"/><path d="m465.62 297v14.2a1.34 1.34 0 0 0 1.35 1.35h51.56a1.34 1.34 0 0 0 1.35-1.35v-14.2z" fill="#ed2480" transform="translate(-75.55 -60.69)"/><path d="m495.67 303.5h-5.82a1.21 1.21 0 0 1 -1.2-1 1.18 1.18 0 0 1 1.17-1.38h5.85a1.19 1.19 0 0 1 1.18 1.19 1.19 1.19 0 0 1 -1.18 1.19zm-9.76-.01h-16.05a1.2 1.2 0 0 1 -1.2-1 1.18 1.18 0 0 1 1.17-1.38h16.08a1.18 1.18 0 0 1 1.18 1.19 1.18 1.18 0 0 1 -1.18 1.19zm5.9 4.85h-7.92a1.2 1.2 0 0 1 -1.2-1 1.18 1.18 0 0 1 1.17-1.38h7.91a1.21 1.21 0 0 1 1.21 1 1.18 1.18 0 0 1 -1.17 1.38zm-11.16-.99a1.22 1.22 0 0 1 -1.21 1h-9.58a1.2 1.2 0 0 1 -1.2-1 1.18 1.18 0 0 1 1.17-1.38h9.65a1.2 1.2 0 0 1 1.17 1.38zm36.19 0a1.2 1.2 0 0 1 -1.2 1h-19.94a1.22 1.22 0 0 1 -1.21-1 1.19 1.19 0 0 1 1.17-1.38h20a1.18 1.18 0 0 1 1.18 1.38z" fill="#fff" transform="translate(-75.55 -60.69)"/><path d="m332.8 264.92v32h54.26v-32a1.31 1.31 0 0 0 -1.35-1.27h-51.56a1.31 1.31 0 0 0 -1.35 1.27zm66.41 0v32h54.26v-32a1.31 1.31 0 0 0 -1.35-1.27h-51.56a1.31 1.31 0 0 0 -1.35 1.27zm119.32-1.27h-51.53a1.31 1.31 0 0 0 -1.35 1.27v32h54.26v-32a1.31 1.31 0 0 0 -1.38-1.27z" fill="#fbd6e6" transform="translate(-75.55 -60.69)"/><circle cx="506.5" cy="227.72" fill="#ed2480" r="18.7" transform="matrix(.22971002 -.97325912 .97325912 .22971002 92.950264 607.670384)"/><circle cx="506.5" cy="223.22" fill="#f174ac" r="7.72" transform="matrix(.22971002 -.97325912 .97325912 .22971002 97.329566 604.199619)"/><path d="m506.5 246.43a18.64 18.64 0 0 0 14.06-6.43 14.42 14.42 0 0 0 -28.13 0 18.67 18.67 0 0 0 14.07 6.43z" fill="#f174ac" transform="translate(-75.55 -60.69)"/><path d="m511.35 223.75a4.85 4.85 0 0 1 -9.7 0z" fill="#fff" transform="translate(-75.55 -60.69)"/><path d="m451.51 323.83h-31.84a1.58 1.58 0 0 1 -1.54-1.37 1.61 1.61 0 0 1 1.5-1.92h31.83a1.59 1.59 0 0 1 1.55 1.38 1.61 1.61 0 0 1 -1.5 1.91zm18.02 0h-13.36a1.58 1.58 0 0 1 -1.54-1.37 1.61 1.61 0 0 1 1.5-1.92h13.36a1.58 1.58 0 0 1 1.54 1.38 1.6 1.6 0 0 1 -1.5 1.91zm-53.69-1.37a1.59 1.59 0 0 1 -1.55 1.37h-23.2a1.58 1.58 0 0 1 -1.54-1.37 1.61 1.61 0 0 1 1.5-1.92h23.29a1.61 1.61 0 0 1 1.5 1.92zm104.02 0a1.58 1.58 0 0 1 -1.54 1.37h-44.73a1.58 1.58 0 0 1 -1.54-1.37 1.61 1.61 0 0 1 1.5-1.92h44.81a1.61 1.61 0 0 1 1.5 1.92zm-128.79 4.93h3.08a1.58 1.58 0 0 1 1.54 1.37 1.61 1.61 0 0 1 -1.5 1.92h-3.12a1.59 1.59 0 0 1 -1.52-1.65 1.58 1.58 0 0 1 1.52-1.64zm73.78 0h53.47a1.58 1.58 0 0 1 1.54 1.37 1.61 1.61 0 0 1 -1.5 1.92h-53.51a1.59 1.59 0 0 1 -1.52-1.65 1.58 1.58 0 0 1 1.52-1.64zm-3.63 1.61a1.59 1.59 0 0 1 -1.52 1.65h-59.9a1.59 1.59 0 0 1 -1.51-1.65 1.58 1.58 0 0 1 1.51-1.64h59.9a1.58 1.58 0 0 1 1.52 1.64zm-84.16 1.68h-22.22v-10.14h22.22a5.07 5.07 0 0 1 5.07 5.07 5.07 5.07 0 0 1 -5.07 5.07z" fill="#fbd6e6" transform="translate(-75.55 -60.69)"/><path d="m354.84 254.37a6.93 6.93 0 0 0 -6.93-6.93h-186.11a6.93 6.93 0 0 0 -6.93 6.93v5.82h200z" fill="#f04b23" transform="translate(-75.55 -60.69)"/><circle cx="92.68" cy="193.14" fill="#fff" r="3.77"/><circle cx="106.75" cy="193.14" fill="#fff" r="3.77"/><g transform="translate(-75.55 -60.69)"><path d="m154.87 260.19v160.81a4.22 4.22 0 0 0 4.21 4.21h27v-165z" fill="#f36e36"/><path d="m175.68 285.94h-10.41c-.49 0-.89-.73-.89-1.64s.4-1.65.89-1.65h10.41c.49 0 .89.74.89 1.65s-.4 1.64-.89 1.64zm0 18.29h-10.41c-.49 0-.89-.73-.89-1.64s.4-1.65.89-1.65h10.41c.49 0 .89.74.89 1.65s-.4 1.64-.89 1.64zm0 18.29h-10.41c-.49 0-.89-.73-.89-1.64s.4-1.65.89-1.65h10.41c.49 0 .89.74.89 1.65s-.4 1.64-.89 1.64zm0 18.29h-10.41c-.49 0-.89-.73-.89-1.64s.4-1.65.89-1.65h10.41c.49 0 .89.74.89 1.65s-.4 1.64-.89 1.64zm0 18.29h-10.41c-.49 0-.89-.74-.89-1.65s.4-1.64.89-1.64h10.41c.49 0 .89.73.89 1.64s-.4 1.65-.89 1.65zm0 18.29h-10.41c-.49 0-.89-.74-.89-1.65s.4-1.64.89-1.64h10.41c.49 0 .89.73.89 1.64s-.4 1.65-.89 1.65zm0 18.29h-10.41c-.49 0-.89-.74-.89-1.65s.4-1.64.89-1.64h10.41c.49 0 .89.73.89 1.64s-.4 1.65-.89 1.65zm179.16-135.47h-168.76v165h164.55a4.22 4.22 0 0 0 4.21-4.21z" fill="#fff"/><path d="m229.71 285h-26.36a2.71 2.71 0 1 1 0-5.42h26.36a2.71 2.71 0 0 1 0 5.42zm47.76 0h-38.85a2.71 2.71 0 1 1 0-5.42h38.85a2.71 2.71 0 0 1 0 5.42z" fill="#5397d1"/><path d="m210.63 304.43h-7.28a2.71 2.71 0 0 1 0-5.42h7.28a2.71 2.71 0 0 1 0 5.42z" fill="#ed2480"/><path d="m285.8 304.43h-68a2.71 2.71 0 0 1 0-5.42h68a2.71 2.71 0 0 1 0 5.42z" fill="#f174ac"/><path d="m229.71 386.35h-26.36a2.71 2.71 0 1 1 0-5.41h26.36a2.71 2.71 0 1 1 0 5.41z" fill="#5397d1"/><path d="m247.56 386.35h-9.56a2.71 2.71 0 1 1 0-5.41h9.58a2.71 2.71 0 0 1 0 5.41z" fill="#ed2480"/><path d="m317.38 386.35h-60.76a2.71 2.71 0 1 1 0-5.41h60.76a2.71 2.71 0 0 1 0 5.41z" fill="#f174ac"/><path d="m253.94 405.79h-50.59a2.71 2.71 0 0 1 0-5.42h50.59a2.71 2.71 0 1 1 0 5.42z" fill="#ed2480"/><path d="m277.05 405.79h-15.41a2.71 2.71 0 0 1 0-5.42h15.41a2.71 2.71 0 0 1 0 5.42z" fill="#f174ac"/><path d="m310.36 405.79h-24.88a2.71 2.71 0 0 1 0-5.42h24.88a2.71 2.71 0 0 1 0 5.42zm-86.47-70.12h-20.54a2.71 2.71 0 0 1 0-5.42h20.54a2.71 2.71 0 1 1 0 5.42zm78.7 0h-69.8a2.71 2.71 0 1 1 0-5.42h69.8a2.71 2.71 0 1 1 0 5.42z" fill="#5397d1"/><path d="m252.69 355.11h-49.34a2.71 2.71 0 0 1 0-5.42h49.34a2.71 2.71 0 1 1 0 5.42z" fill="#f174ac"/><path d="m280.46 355.11h-17.34a2.71 2.71 0 1 1 0-5.42h17.34a2.71 2.71 0 1 1 0 5.42z" fill="#ed2480"/></g><path d="m325.53 70.42-55.75 46.56v16.48h111.51v-16.48z" fill="#4661ad"/><path d="m371.7 181.41h-92.22v-54.35l46.11-38.85 46.11 38.85z" fill="#5397d1"/><path d="m353.75 84.77h14.26v25.33h-14.26z" fill="#4661ad"/><circle cx="401.14" cy="176.74" fill="#4a75ba" r="10.51" transform="matrix(.92387953 -.38268343 .38268343 .92387953 -112.650026 106.280076)"/><path d="m394.11 174.89a.8.8 0 0 1 -.34-.07.91.91 0 0 1 -.52-1.19 8.45 8.45 0 0 1 3.76-4.3.92.92 0 0 1 .9 1.61 6.63 6.63 0 0 0 -3 3.36.91.91 0 0 1 -.8.59zm1.96 8.38a.93.93 0 0 1 -.62-.24 8.46 8.46 0 0 1 -2.74-5.39.92.92 0 0 1 1.83-.19 6.62 6.62 0 0 0 2.15 4.21.91.91 0 0 1 .06 1.3.92.92 0 0 1 -.68.31z" fill="#fff" transform="translate(-75.55 -60.69)"/><path d="m305.43 134.74h40.33v5.87h-40.33z" fill="#fff"/><path d="m309.12 140.61h32.95v40.8h-32.95z" fill="#4661ad"/><path d="m417.62 222.54h-4.62a2.55 2.55 0 0 1 -2.55-2.55 2.55 2.55 0 0 1 2.55-2.54h4.63z" fill="#4a75ba" transform="translate(-75.55 -60.69)"/><path d="m351.94 83.61h17.87v3.91h-17.87z" fill="#4a75ba"/><path d="m309.12 140.61h32.95v5.87h-32.95z" fill="#4c59a7"/><path d="m296 242.05a5.08 5.08 0 0 1 3.48-4.83 3.08 3.08 0 0 1 -.35-1.42 3.14 3.14 0 0 1 .52-1.73 3.24 3.24 0 0 1 .61-.67 2.8 2.8 0 0 1 .35-.25c.2-.12.21-.1.21-.32a6.79 6.79 0 0 1 1.52-5.07 3.69 3.69 0 0 1 4.64-.67 3.53 3.53 0 0 1 3.31-2.32 5.84 5.84 0 0 1 5-5.07 3.33 3.33 0 0 1 -.11-1.14 3.4 3.4 0 0 1 3.08-3.08 3.36 3.36 0 0 1 3.58 2.65 7.1 7.1 0 0 1 2.95-.64 7.28 7.28 0 0 1 7.28 7.26l.46 4.75-10.8 12.5h-25.75z" fill="#5397d1" transform="translate(-75.55 -60.69)"/><path d="m310.05 239a3.2 3.2 0 0 1 1.83-1.13 6.72 6.72 0 0 1 3.53.26c.88-7.34 7.38-4.65 7.38-4.65a6 6 0 0 1 3.41-8.07 7.26 7.26 0 0 1 1.7-.19 7.68 7.68 0 0 1 4.05 1.15v-.33a5.07 5.07 0 0 1 5.05-5.04 5.52 5.52 0 0 1 .71.05 7.69 7.69 0 0 1 14.76 3v.27a6.82 6.82 0 0 1 9.07 6.45 7 7 0 0 1 -.36 2.21 10.08 10.08 0 0 1 5.63 9h-57.17a3.57 3.57 0 0 1 .41-2.98z" fill="#4661ad" transform="translate(-75.55 -60.69)"/></svg>