<svg id="Layer_16" data-name="Layer 16" xmlns="http://www.w3.org/2000/svg" viewBox="0 0 554.55 453.64"><defs><clipPath id="clip-path" transform="translate(-39.75 -47.28)"><path class="cls-1" d="M155.42 438a16.91 16.91 0 0 0-20.93 7 9 9 0 0 0-1.22 6.39c.53 2.15 2.58 4 4.78 3.77-3.11 2.11-5.83 5.24-6.18 9s2.53 7.85 6.28 7.72c-3.59 3.36-7.28 6.86-9.14 11.42s-1.32 10.47 2.56 13.48c3.45 2.68 8.41 2.32 12.51.83a27.73 27.73 0 0 0 17-18.38c.67 4.28 5.62 7 9.88 6.17s7.59-4.31 9.37-8.26 2.23-8.35 2.66-12.66c3.78 2.4 8.16 2.59 10.79.47 3-2.4 2.59-6.84 2.39-9.09a16.63 16.63 0 0 0-4.18-9.44c1.67.38 5.55 1 8.09-1.08 3.7-3.06 3.89-11.34-2-18.88l-21.73-7.08z"/></clipPath><clipPath id="clip-path-2" transform="translate(-39.75 -47.28)"><path class="cls-2" d="m67.05 422.32 6.93 8-13.52-.72a122.55 122.55 0 0 0-14.81 19s36.67 27.57 73.73 20.26a131.2 131.2 0 0 0 24-7.13l6-14.64 2.15 10.9c19.2-9.78 30.79-23.39 28.32-35.9-3.66-18.5-36.67-27.57-73.73-20.25-12.98 2.54-29.84 13.1-39.07 20.48z"/></clipPath><clipPath id="clip-path-3" transform="translate(-39.75 -47.28)"><path class="cls-3" d="M274 161.38c-1.41-7.22-2.82-14.52-2.45-21.86s2.69-14.84 7.83-20.09c2.39-2.44 5.56-4.39 9-4.31 3.58.08 6.82 2.45 8.72 5.48a22.64 22.64 0 0 1 2.9 10.22 72.33 72.33 0 0 1 7-15.45c2.31-3.84 5.22-7.65 9.41-9.23 6.63-2.51 14.95 2.57 15.75 9.61-.27-2.37 5.81-7.71 7.34-9.17a34.92 34.92 0 0 1 11.87-8c13.37-4.89 19.6 9 16.74 20.11a42.05 42.05 0 0 1-23.2 27.56c2.08-.61 4.35.84 5.24 2.82a9.15 9.15 0 0 1 0 6.36c-2.56 8.31-11.8 14-20.36 12.46 6.22 3.48 7 12.63 3.69 18.93a21.25 21.25 0 0 1-37.41.26z"/></clipPath><clipPath id="clip-path-4" transform="translate(-39.75 -47.28)"><path class="cls-4" d="m312.25 79.68-8.89 1.41 6.64-9.45a104.61 104.61 0 0 0-7-19.33s-36.55 14-48 44.17a111.27 111.27 0 0 0-5.71 20.57l7.85 11-8.85-3.38c-1.63 18.32 3 32.87 13.14 36.75 15 5.74 36.55-14 48-44.16 3.98-10.57 3.98-27.56 2.82-37.58z"/></clipPath><clipPath id="clip-path-5" transform="translate(-39.75 -47.28)"><path class="cls-5" d="M503.17 290.76A32.29 32.29 0 0 1 485 267.08c-2.74-16.43 7.48-32 17.75-45.11 4.76-6.08 9.73-12.21 12.42-19.45s2.73-16-1.93-22.13a67.33 67.33 0 0 1 3.39 95.61z"/></clipPath><clipPath id="clip-path-6" transform="translate(-39.75 -47.28)"><path class="cls-6" d="m551.46 280.68-7.48-.9 7.52-6.09a87.71 87.71 0 0 0-1.25-17.16s-32.62 2.92-48.77 24.53a92.53 92.53 0 0 0-9.3 15.25L496 307l-6.35-4.74c-5.51 14.37-5.14 27.12 2.16 32.57 10.79 8.06 32.62-2.92 48.77-24.52 5.63-7.63 9.52-21.31 10.88-29.63z"/></clipPath><clipPath id="clip-path-7" transform="translate(-39.75 -47.28)"><path class="cls-7" d="M141.64 200.68h342.54v208.01H141.64z"/></clipPath><style>.cls-1{fill:#f5982d}.cls-2{fill:#a5def5}.cls-3{fill:#7e61aa}.cls-4{fill:#79d1f1}.cls-5{fill:#6695ce}.cls-6{fill:#f4b027}.cls-7{fill:#fff}.cls-9{fill:#5986c5}.cls-11{fill:#f4792c}.cls-12{fill:#5f3494}.cls-14{fill:#ed2480}.cls-16{fill:#784ea0}.cls-20{fill:#725ba7}.cls-23{fill:#e9f7fe}.cls-24{fill:#f174ac}.cls-25{fill:#967db9}.cls-28{fill:#d6effc}</style></defs><path d="M104.71 222.51c-53.64 58.25-70.18 159.58-9.41 219.26 20.08 19.72 48 33.88 76.37 33.68 26.86-.19 53.69-5 80.49-6.62 65.87-4 131.17 12.81 197.09 9.12 40.61-2.28 85.09-15.47 115.49-44.09 27.78-26.16 34.27-59.27 26.54-92.14a145.85 145.85 0 0 0-14.58-37c-9.48-17.13-20.9-33.05-31.18-49.68-12.11-19.61-20.48-38.32-24.93-60.89-4-20.47-6.91-41.23-12.64-61.34-8.89-31.21-26-59.93-59.67-67.8-33.36-7.81-66.82 8.33-98.77 15.56-20.69 4.69-42.06 3.29-62.88.38-18.88-2.64-39.3-7-57.11 2.39-22.79 12-27.79 38.54-41.34 58.2-16.85 24.47-41.49 41.52-63.33 61.11-7 6.35-13.76 12.92-20.14 19.86z" transform="translate(-39.75 -47.28)" fill="#e4d7ea"/><path class="cls-9" d="M546.21 291c1.53-7.23 5.63-14.68 13.27-16.72 3.17-.84 7.89-.74 9.26 2.91 1.24 3.33-.32 7.25-2.13 10.06-2.24 3.45-5.41 6.21-8.49 8.87-1.06.91.38 2.82 1.51 2a6.73 6.73 0 0 1 7.26-.44 7.19 7.19 0 0 1 3.68 6.92c-.33 6.72-7.29 10.14-13.33 9.13-.11.82-.23 1.63-.34 2.45 6.45 0 10.76 7.13 9.38 13-1.57 6.79-8.14 11.06-14.7 12.05a34.86 34.86 0 0 1-13.92-1.13 1.25 1.25 0 0 0-.66 2.41c8.59 2.22 18.34 2.47 25.6-3.37 5.92-4.75 8.61-13.08 4.22-19.77a12 12 0 0 0-9.92-5.73c-1.36 0-1.76 2.22-.33 2.46a15.35 15.35 0 0 0 11.36-2.25 12 12 0 0 0 5.15-9.64 9.6 9.6 0 0 0-5.07-8.8 9.18 9.18 0 0 0-9.64.51l1.52 2c3.25-2.8 6.52-5.73 8.87-9.37 2.16-3.34 3.73-7.86 2.45-11.81-1.35-4.17-5.74-5.69-9.78-5.29a18 18 0 0 0-11.08 5.58 27.23 27.23 0 0 0-6.55 13.35c-.33 1.57 2.08 2.24 2.41.66z" transform="translate(-39.75 -47.28)"/><path class="cls-9" d="M566.21 273.7c-8.33 4.18-13.54 12.54-16.44 21.14-3.48 10.31-4.1 21.32-7.41 31.67a40.3 40.3 0 0 1-8.05 14.9c-1.07 1.19.69 3 1.77 1.77 14.23-15.85 9.54-39.31 20.31-56.77a28.06 28.06 0 0 1 11.09-10.55c1.43-.72.17-2.88-1.27-2.16z" transform="translate(-39.75 -47.28)"/><path class="cls-9" d="M548.75 306.8a49.14 49.14 0 0 0 11.33-2.37c3.49-1.19 7.22-2.66 10-5.09 1.22-1-.55-2.81-1.76-1.77-2.56 2.21-6.13 3.52-9.29 4.57a46.13 46.13 0 0 1-10.32 2.16c-1.58.14-1.6 2.65 0 2.5zM547.54 312.47a40.92 40.92 0 0 0 24.83-9.07c1.24-1-.53-2.78-1.77-1.77a38.15 38.15 0 0 1-23.06 8.37c-1.6 0-1.61 2.55 0 2.5zM544.7 322.5a21.43 21.43 0 0 1-9.7-15.12 1.28 1.28 0 0 0-1.25-1.25 1.26 1.26 0 0 0-1.25 1.25 24.14 24.14 0 0 0 10.95 17.28c1.37.86 2.62-1.3 1.27-2.16z" transform="translate(-39.75 -47.28)"/><path class="cls-1" d="M155.42 438a16.91 16.91 0 0 0-20.93 7 9 9 0 0 0-1.22 6.39c.53 2.15 2.58 4 4.78 3.77-3.11 2.11-5.83 5.24-6.18 9s2.53 7.85 6.28 7.72c-3.59 3.36-7.28 6.86-9.14 11.42s-1.32 10.47 2.56 13.48c3.45 2.68 8.41 2.32 12.51.83a27.73 27.73 0 0 0 17-18.38c.67 4.28 5.62 7 9.88 6.17s7.59-4.31 9.37-8.26 2.23-8.35 2.66-12.66c3.78 2.4 8.16 2.59 10.79.47 3-2.4 2.59-6.84 2.39-9.09a16.63 16.63 0 0 0-4.18-9.44c1.67.38 5.55 1 8.09-1.08 3.7-3.06 3.89-11.34-2-18.88l-21.73-7.08z" transform="translate(-39.75 -47.28)"/><g clip-path="url(#clip-path)"><path class="cls-11" d="M130.28 500.63c11.15-9.07 19.11-21.21 26.75-33.22 3.87-6.09 7.7-12.21 11.93-18.06a142 142 0 0 1 34.82-33.83c1.28-.88.07-3-1.22-2.09a145 145 0 0 0-33.27 31.47c-8.85 11.53-15.73 24.4-24.27 36.15a93.92 93.92 0 0 1-16.44 17.87c-1.21 1 .51 2.68 1.7 1.71z" transform="translate(-39.75 -47.28)"/><path class="cls-11" d="M142.49 485.67a10.24 10.24 0 0 0-4.06-.75h-4.5a76.93 76.93 0 0 0-9 .87 1.23 1.23 0 0 0-.85 1.49 1.24 1.24 0 0 0 1.49.84 71.47 71.47 0 0 1 8-.77c1.29-.05 2.58-.06 3.87 0a9.76 9.76 0 0 1 3.8.44 1.24 1.24 0 0 0 1.65-.43 1.22 1.22 0 0 0-.43-1.66zM146.06 480.5a37.84 37.84 0 0 0-22.36-1 1.21 1.21 0 0 0 .65 2.33 35.55 35.55 0 0 1 21.06 1c1.47.53 2.1-1.8.65-2.33zM159.56 460.47c-10.16-2.75-21-1.28-30.64 2.65-1.42.58-.8 2.92.64 2.33 9.26-3.78 19.59-5.29 29.36-2.65a1.21 1.21 0 0 0 .64-2.33zM170.58 486.21a58 58 0 0 0-2.34-36.41c-.57-1.42-2.91-.8-2.33.64a55.82 55.82 0 0 1 2.34 35.13 1.21 1.21 0 0 0 2.33.64z" transform="translate(-39.75 -47.28)"/><path class="cls-11" d="M175.1 486.25a66.27 66.27 0 0 0-3.1-41.63c-.59-1.41-2.93-.79-2.33.64a64.14 64.14 0 0 1 3.15 40.35 1.21 1.21 0 0 0 2.33.64z" transform="translate(-39.75 -47.28)"/></g><path class="cls-12" d="M221.67 142.29c-6.94 2.54-14.12-.58-19.79-4.62-2.75-2-5.81-4.34-7.36-7.42a7.49 7.49 0 0 1 .78-7.61c1.62-2.43 4.62-4.33 7.62-3.84 2 .33 3.44-2.32 1.45-3.42a43.61 43.61 0 0 1-15.24-13.74c-3-4.52-5.94-12.38 0-16 2-1.23 4.75-1.65 6.52.23 1.43 1.51 4.2-.52 2.94-2.28-3.86-5.41-10.55-16.47-2.11-21.18a10.68 10.68 0 0 1 9.85 0 17.31 17.31 0 0 1 7.63 8.86c2.14 5.12 2.44 10.78 2.76 16.24a1.88 1.88 0 0 0 3.68.5c2-4.75 9.16-4.58 12.7-1.92 5.55 4.18 4.47 12.92 1.6 18.29-1 1.8 1.48 3.94 3 2.27a12.7 12.7 0 0 1 17.62-.89c5.39 4.86 6.38 13 3 19.31a20.7 20.7 0 0 1-8.9 8.6c-2.14 1.11-.25 4.35 1.9 3.24 7.82-4 13.63-12.55 12.63-21.58-1-8.67-7.47-16.11-16.48-16.44A15.85 15.85 0 0 0 235 104l2.95 2.27c3.18-5.94 4.22-13.83.45-19.78a13.28 13.28 0 0 0-15-5.45 10.25 10.25 0 0 0-6.66 6l3.69.5c-.6-10.19-1.91-22.65-11.92-28.16a14.65 14.65 0 0 0-12.92-.64 11.71 11.71 0 0 0-6.94 10.9c0 5.85 3.38 11.31 6.66 15.92l3-2.28c-4.81-5.1-13.33-1.32-15.58 4.46-3.15 8.08 3.12 16.79 8.46 22.28a48.85 48.85 0 0 0 11.32 8.63l1.45-3.43c-7.44-1.22-14.74 5.72-13.8 13.28.54 4.28 3.71 7.51 6.89 10.14a40.09 40.09 0 0 0 11.36 6.82 20.56 20.56 0 0 0 14.29.48c2.25-.82 1.28-4.45-1-3.62z" transform="translate(-39.75 -47.28)"/><path class="cls-12" d="M239.35 143.83c-9.12-7.9-16.51-17.79-19.87-29.49-1.69-5.89-2.9-11.9-4.92-17.71-1.76-5-4.16-9.84-6.3-14.74a207.37 207.37 0 0 1-7.74-21.25c-.71-2.29-4.33-1.31-3.61 1 2 6.51 4.26 13 6.89 19.28 2.12 5.08 4.65 10 6.58 15.14 2.2 5.91 3.53 12 5.17 18.12a58.84 58.84 0 0 0 6 14.47 71.59 71.59 0 0 0 15.12 17.83c1.81 1.58 4.48-1.06 2.65-2.65z" transform="translate(-39.75 -47.28)"/><path class="cls-12" d="M217.24 111.7a1.5 1.5 0 0 1-1.27-2.29l15.58-24.82a1.5 1.5 0 1 1 2.54 1.6L218.51 111a1.49 1.49 0 0 1-1.27.7zM228.27 136.4a1.48 1.48 0 0 1-.8-.23 1.5 1.5 0 0 1-.47-2.07l21-33.4a1.5 1.5 0 0 1 2.54 1.6l-21 33.4a1.49 1.49 0 0 1-1.27.7zM233.37 142.29a1.57 1.57 0 0 1-.8-.23 1.5 1.5 0 0 1-.47-2.07l22.37-35.62A1.5 1.5 0 1 1 257 106l-22.37 35.61a1.48 1.48 0 0 1-1.26.68zM212.64 100.52a1.48 1.48 0 0 1-.51-.09l-27.62-10a1.5 1.5 0 0 1 1-2.82l27.62 10a1.5 1.5 0 0 1-.51 2.91z" transform="translate(-39.75 -47.28)"/><path class="cls-2" d="m67.05 422.32 6.93 8-13.52-.72a122.55 122.55 0 0 0-14.81 19s36.67 27.57 73.73 20.26a131.2 131.2 0 0 0 24-7.13l6-14.64 2.15 10.9c19.2-9.78 30.79-23.39 28.32-35.9-3.66-18.5-36.67-27.57-73.73-20.25-12.98 2.54-29.84 13.1-39.07 20.48z" transform="translate(-39.75 -47.28)"/><g clip-path="url(#clip-path-2)"><path class="cls-9" transform="rotate(-11.17 -151.66 615.51)" d="M38.7 434.3h142.52v3.14H38.7z"/><path class="cls-9" transform="rotate(-49.97 19.71 440.537)" d="M88.73 398.52h3.14v45.96h-3.14z"/><path class="cls-9" transform="rotate(-49.97 31.845 438.147)" d="M100.86 396.13H104v45.96h-3.14z"/><path class="cls-9" transform="rotate(-49.97 80.825 428.466)" d="M149.84 386.46h3.14v45.96h-3.14z"/><path class="cls-9" transform="rotate(-71.75 80.25 454.995)" d="M110.52 449.58h44.57v3.14h-44.57z"/><path class="cls-9" transform="rotate(-71.75 73.38 456.355)" d="M103.64 450.94h44.57v3.14h-44.57z"/><path class="cls-9" transform="rotate(-71.75 23.346 466.237)" d="M53.61 460.82h44.57v3.14H53.61z"/></g><path class="cls-14" d="M92.26 283.26a1.93 1.93 0 0 1-.53-.07 2 2 0 0 1-1.4-2.46c.73-2.67 1.54-5.21 2.49-7.78a2 2 0 0 1 3.75 1.38c-.9 2.46-1.68 4.9-2.38 7.46a2 2 0 0 1-1.93 1.47zM110.76 366a2 2 0 0 1-1.48-.65 81 81 0 0 1-9-12.08 2 2 0 0 1 3.41-2.09 76.45 76.45 0 0 0 8.6 11.47 2 2 0 0 1-1.48 3.35zm-15.43-24.93a2 2 0 0 1-1.85-1.26c-1-2.49-1.71-4.56-2.27-6.26-.87-2.65-1.62-5.38-2.23-8.1a2 2 0 1 1 3.9-.87c.58 2.59 1.3 5.19 2.13 7.72.54 1.64 1.22 3.63 2.18 6a2 2 0 0 1-1.86 2.75zM89 312.43a2 2 0 0 1-2-1.91c-.07-1.44-.1-2.91-.1-4.37a95.65 95.65 0 0 1 .61-10.66 2 2 0 0 1 4 .45 90.15 90.15 0 0 0-.59 10.21c0 1.39 0 2.8.1 4.18a2 2 0 0 1-1.9 2.09zM128.42 380.18a2 2 0 0 1-1-.27 74.35 74.35 0 0 1-6.89-4.46 2 2 0 0 1 2.35-3.24 70 70 0 0 0 6.53 4.23 2 2 0 0 1-1 3.74zM363 128.92a2 2 0 0 1-.35-4c2.65-.47 5.31-.81 8.13-1a2 2 0 1 1 .31 4c-2.69.21-5.22.53-7.74 1a2.07 2.07 0 0 1-.35 0zM450.41 166.45a2 2 0 0 1-1.68-.9 84.4 84.4 0 0 0-9.33-11.87 2 2 0 0 1 2.91-2.75 89.59 89.59 0 0 1 9.77 12.43 2 2 0 0 1-1.67 3.09zm-21.13-22.37a2 2 0 0 1-1.18-.39c-1-.75-2.08-1.48-3.14-2.19a83.86 83.86 0 0 0-9.79-5.57 2 2 0 1 1 1.73-3.6 86.13 86.13 0 0 1 10.27 5.84c1.11.74 2.22 1.51 3.29 2.29a2 2 0 0 1-1.18 3.62zm-27.73-13.34a1.86 1.86 0 0 1-.52-.07 87.5 87.5 0 0 0-14.87-2.67 2 2 0 1 1 .36-4 91.48 91.48 0 0 1 15.56 2.78 2 2 0 0 1-.53 3.93zM460.51 187.59a2 2 0 0 1-1.91-1.39 81.82 81.82 0 0 0-2.73-7.31 2 2 0 1 1 3.67-1.58c1.1 2.56 2 5.07 2.87 7.67a2 2 0 0 1-1.29 2.51 1.9 1.9 0 0 1-.61.1z" transform="translate(-39.75 -47.28)"/><path class="cls-3" d="M274 161.38c-1.41-7.22-2.82-14.52-2.45-21.86s2.69-14.84 7.83-20.09c2.39-2.44 5.56-4.39 9-4.31 3.58.08 6.82 2.45 8.72 5.48a22.64 22.64 0 0 1 2.9 10.22 72.33 72.33 0 0 1 7-15.45c2.31-3.84 5.22-7.65 9.41-9.23 6.63-2.51 14.95 2.57 15.75 9.61-.27-2.37 5.81-7.71 7.34-9.17a34.92 34.92 0 0 1 11.87-8c13.37-4.89 19.6 9 16.74 20.11a42.05 42.05 0 0 1-23.2 27.56c2.08-.61 4.35.84 5.24 2.82a9.15 9.15 0 0 1 0 6.36c-2.56 8.31-11.8 14-20.36 12.46 6.22 3.48 7 12.63 3.69 18.93a21.25 21.25 0 0 1-37.41.26z" transform="translate(-39.75 -47.28)"/><g clip-path="url(#clip-path-3)"><path class="cls-16" d="M364.23 93.68c-2.18 7.93-6.55 14.92-11.62 21.32s-10.84 12.62-16.5 18.68c-10.58 11.32-21.95 22.32-34.5 31.44a99.5 99.5 0 0 1-21.82 12.34c-1.47.59-.47 2.83 1 2.25 14.15-5.64 26.35-15.06 37.57-25.18a347.31 347.31 0 0 0 34.35-35.75c6-7.19 11.31-15.12 13.82-24.22.42-1.52-1.88-2.41-2.3-.88z" transform="translate(-39.75 -47.28)"/><path class="cls-16" transform="rotate(-81.67 296.303 114.221)" d="M328.41 113.39h30.21v2.95h-30.21z"/><path class="cls-16" transform="rotate(-82 286.402 123.572)" d="M319.09 122.36h31.25v2.95h-31.25z"/><path class="cls-16" d="m280.36 57.97-8.05 53.84-3.19 1.32 8.32-55.58 2.92.42zM273.09 59.64l-8.74 58.43-3.15 1.1 8.28-55.37 3.61-4.16z"/><path class="cls-16" transform="rotate(-88.92 290.304 152.38)" d="M332.79 137.02h2.95v37.49h-2.95z"/><path class="cls-16" d="m310.4 113.09-.05 2.95-42.43-.79 1.57-2.93 40.91.77z"/></g><path class="cls-4" d="m312.25 79.68-8.89 1.41 6.64-9.45a104.61 104.61 0 0 0-7-19.33s-36.55 14-48 44.17a111.27 111.27 0 0 0-5.71 20.57l7.85 11-8.85-3.38c-1.63 18.32 3 32.87 13.14 36.75 15 5.74 36.55-14 48-44.16 3.98-10.57 3.98-27.56 2.82-37.58z" transform="translate(-39.75 -47.28)"/><g clip-path="url(#clip-path-4)"><path class="cls-2" transform="rotate(-69.12 228.822 109.798)" d="M222.19 103.25h121.64v2.68H222.19z"/><path class="cls-2" transform="rotate(-17.92 132.574 199.297)" d="M282.7 95.53h39.22v2.68H282.7z"/><path class="cls-2" transform="rotate(-18.2 127.042 207.942)" d="M278.94 105.39h39.22v2.68h-39.22z"/><path class="cls-2" transform="rotate(-17.92 113.592 248.988)" d="M263.75 145.21h39.22v2.68h-39.22z"/><path class="cls-2" transform="rotate(-39.7 176.267 145.604)" d="M260.28 95.17h2.68v38.04h-2.68z"/><path class="cls-2" transform="rotate(-39.7 178.394 140.016)" d="M262.41 89.58h2.68v38.04h-2.68z"/><path class="cls-2" transform="rotate(-39.7 193.908 99.34)" d="M277.92 48.91h2.68v38.04h-2.68z"/></g><path class="cls-5" d="M503.17 290.76A32.29 32.29 0 0 1 485 267.08c-2.74-16.43 7.48-32 17.75-45.11 4.76-6.08 9.73-12.21 12.42-19.45s2.73-16-1.93-22.13a67.33 67.33 0 0 1 3.39 95.61z" transform="translate(-39.75 -47.28)"/><g clip-path="url(#clip-path-5)"><path class="cls-9" d="M508.8 179.25c13.63 10.13 17.69 29 14.86 45a49.08 49.08 0 0 1-3.54 11.6 85 85 0 0 1-7.3 12.2 72.68 72.68 0 0 0-7.43 13.06 46.22 46.22 0 0 0-3.13 13.51c-.82 10.36 1.82 21.17 8.95 29 1.06 1.16 3-.36 1.91-1.52-6.47-7.08-9.05-16.75-8.5-26.19a43.93 43.93 0 0 1 3-13.85 72.23 72.23 0 0 1 7.46-13 83.86 83.86 0 0 0 7.27-12.23 51.26 51.26 0 0 0 3.65-11.62 56.28 56.28 0 0 0-.9-25.13c-2.43-9-7.29-17.21-14.81-22.79a1.22 1.22 0 0 0-1.45 2z" transform="translate(-39.75 -47.28)"/><path class="cls-9" d="M536.81 220.82a48.17 48.17 0 0 1-13.3 7.87c-1.47.57-.5 2.81 1 2.24a50.43 50.43 0 0 0 13.86-8.2c1.2-1-.32-2.92-1.53-1.91zM538.41 226.73a69.94 69.94 0 0 1-17.33 8.88c-1.48.52-.51 2.76 1 2.25a72.26 72.26 0 0 0 17.89-9.23c1.28-.9-.24-2.81-1.53-1.9zM498.63 220a59 59 0 0 0 9.37 36.79c.86 1.31 2.76-.22 1.91-1.53a56.2 56.2 0 0 1-8.8-34.94c.12-1.56-2.3-1.86-2.43-.29zM513.8 201.27a58.83 58.83 0 0 0 10.71 18.09c1 1.19 2.94-.33 1.9-1.52a56.67 56.67 0 0 1-10.36-17.54c-.55-1.48-2.8-.5-2.25 1z" transform="translate(-39.75 -47.28)"/><path class="cls-9" d="M493.22 226.17a59 59 0 0 0 11.23 36.23c.93 1.27 2.84-.26 1.91-1.53a56.21 56.21 0 0 1-10.72-34.4c.05-1.56-2.38-1.87-2.42-.3z" transform="translate(-39.75 -47.28)"/></g><path class="cls-6" d="m551.46 280.68-7.48-.9 7.52-6.09a87.71 87.71 0 0 0-1.25-17.16s-32.62 2.92-48.77 24.53a92.53 92.53 0 0 0-9.3 15.25L496 307l-6.35-4.74c-5.51 14.37-5.14 27.12 2.16 32.57 10.79 8.06 32.62-2.92 48.77-24.52 5.63-7.63 9.52-21.31 10.88-29.63z" transform="translate(-39.75 -47.28)"/><g clip-path="url(#clip-path-6)"><path class="cls-1" transform="rotate(-53.23 455.181 310.042)" d="M471.35 292.91h101.76v2.24H471.35z"/><path class="cls-1" transform="rotate(-2.03 -813.965 1390.89)" d="M523.12 291.12h32.81v2.24h-32.81z"/><path class="cls-1" transform="rotate(-2.03 -819.17 1397.855)" d="M517.84 298.19h32.81v2.24h-32.81z"/><path class="cls-1" transform="translate(-51.06 -28.88)" d="M496.5 326.74h32.81v2.24H496.5z"/><path class="cls-1" transform="matrix(.91 -.4 .4 .91 -116.8 180.98)" d="M501.7 280.94h2.24v31.82h-2.24z"/><path class="cls-1" transform="rotate(-23.81 373.824 363.474)" d="M504.69 276.93h2.24v31.82h-2.24z"/><path class="cls-1" transform="rotate(-23.81 395.604 334.304)" d="M526.49 247.76h2.24v31.82h-2.24z"/></g><path class="cls-20" d="M509.39 439.11h-393a9.26 9.26 0 0 1-8.63-5.93l-6.26-16.3h422.79l-6.29 16.3a9.24 9.24 0 0 1-8.61 5.93z" transform="translate(-39.75 -47.28)"/><path d="M230.4 369.6h85.52v7.49a3.62 3.62 0 0 1-3.62 3.62H234a3.62 3.62 0 0 1-3.62-3.62v-7.49z" fill="#674199"/><path class="cls-12" d="M100.25 135.12h345.82a13.19 13.19 0 0 1 13.19 13.19V369.6H87.05V148.31a13.19 13.19 0 0 1 13.2-13.19z"/><path class="cls-20" d="M304.58 191.54a3.39 3.39 0 1 1-3.38-3.38 3.38 3.38 0 0 1 3.38 3.38zM324.62 194.93h-13.26a3.39 3.39 0 0 1-3.39-3.39 3.38 3.38 0 0 1 3.39-3.38h13.26a3.38 3.38 0 0 1 3.39 3.38 3.39 3.39 0 0 1-3.39 3.39z" transform="translate(-39.75 -47.28)"/><path class="cls-7" d="M101.89 153.4h342.54v208.01H101.89z"/><g clip-path="url(#clip-path-7)"><path class="cls-23" transform="rotate(-45 94.694 251.667)" d="M105.13 215.55h133.01v23.55H105.13z"/><path class="cls-23" transform="rotate(-45 133.875 288.897)" d="M77.14 252.78h267.39v23.55H77.14z"/><path class="cls-23" transform="rotate(-45 186.5 312.69)" d="M84.35 276.58h358.21v23.55H84.35z"/><path class="cls-23" transform="rotate(-45 256.332 319.284)" d="M163.45 283.16h339.67v23.55H163.45z"/><path class="cls-23" transform="rotate(-45 308.257 343.776)" d="M237.67 307.66h295.07v23.55H237.67z"/><path class="cls-23" transform="rotate(-45 343.523 384.928)" d="M321.83 348.82h197.29v23.55H321.83z"/><path class="cls-23" transform="rotate(-45 384.723 420.153)" d="M405.78 384.04h111.79v23.55H405.78z"/></g><rect class="cls-14" x="368.48" y="277.73" width="143.29" height="75.44" rx="4.44"/><rect class="cls-24" x="377.04" y="287.31" width="56.28" height="56.28" rx="4"/><path class="cls-14" d="M433.61 374.05a3.88 3.88 0 0 1 0-5.48l17.16-17.15a3.86 3.86 0 0 1 5.48 0 3.88 3.88 0 0 1 0 5.48l-17.16 17.15a3.86 3.86 0 0 1-5.48 0z" transform="translate(-39.75 -47.28)"/><path class="cls-14" d="M433.61 351.42a3.86 3.86 0 0 1 5.48 0l17.16 17.15a3.88 3.88 0 0 1 0 5.48 3.86 3.86 0 0 1-5.48 0l-17.16-17.15a3.88 3.88 0 0 1 0-5.48z" transform="translate(-39.75 -47.28)"/><path class="cls-24" d="M507.32 344.69H484a5 5 0 0 1-5-5.05 5 5 0 0 1 5-5h23.28a5 5 0 0 1 5 5 5 5 0 0 1-4.96 5.05zM527.72 344.69h-5a5 5 0 0 1-5-5.05 5 5 0 0 1 5-5h5a5 5 0 0 1 5 5 5 5 0 0 1-5 5.05zM481.21 372.3h4.5a2.25 2.25 0 0 1 2.24 1.84 2.21 2.21 0 0 1-2.18 2.57h-4.56a2.21 2.21 0 0 1-2.21-2.21 2.21 2.21 0 0 1 2.21-2.2zM492.52 372.3h10.34a2.24 2.24 0 0 1 2.24 1.84 2.21 2.21 0 0 1-2.18 2.57h-10.4a2.21 2.21 0 0 1-2.21-2.21 2.21 2.21 0 0 1 2.21-2.2zM509.29 372.3h31.4a2.26 2.26 0 0 1 2.24 1.84 2.21 2.21 0 0 1-2.18 2.57h-31.46a2.19 2.19 0 0 1-2.2-2.2 2.2 2.2 0 0 1 2.2-2.21zM481.21 382.39h33.66a2.25 2.25 0 0 1 2.24 1.85 2.21 2.21 0 0 1-2.18 2.57h-33.72a2.21 2.21 0 0 1-2.21-2.21 2.21 2.21 0 0 1 2.21-2.21zM522.21 382.39h18.48a2.26 2.26 0 0 1 2.24 1.85 2.21 2.21 0 0 1-2.18 2.57h-18.54a2.21 2.21 0 0 1-2.21-2.21 2.21 2.21 0 0 1 2.21-2.21zM481.21 362.2h15.38a2.25 2.25 0 0 1 2.24 1.85 2.21 2.21 0 0 1-2.18 2.57h-15.38a2.25 2.25 0 0 1-2.24-1.85 2.21 2.21 0 0 1 2.18-2.57zM502.63 364.05a2.25 2.25 0 0 1 2.24-1.85h35.82a2.26 2.26 0 0 1 2.24 1.85 2.22 2.22 0 0 1-2.18 2.57h-35.94a2.21 2.21 0 0 1-2.18-2.57zM540.72 356.52H535a2.24 2.24 0 0 1-2.24-1.84 2.21 2.21 0 0 1 2.18-2.57h5.75a2.2 2.2 0 0 1 2.2 2.21 2.19 2.19 0 0 1-2.17 2.2zM479 354.32a2.21 2.21 0 0 1 2.21-2.21h47.32a2.2 2.2 0 0 1 2.2 2.21 2.19 2.19 0 0 1-2.2 2.2h-47.32a2.2 2.2 0 0 1-2.21-2.2z" transform="translate(-39.75 -47.28)"/><path class="cls-14" d="m368.48 296.56-18.63 18.62 19.17 19.17-.54-37.79z"/><rect class="cls-25" x="46.93" y="85.27" width="206.57" height="156.2" rx="5.66"/><path class="cls-25" d="m147.13 238.54 23.61 23.61 26.52-26.51-50.13 2.9z"/><path class="cls-16" d="M261.22 229.93H118.73a3.83 3.83 0 0 1-3.83-3.83 3.82 3.82 0 0 1 3.83-3.82h142.49a3.82 3.82 0 0 1 3.78 3.82 3.83 3.83 0 0 1-3.78 3.83z" transform="translate(-39.75 -47.28)"/><text transform="translate(75.25 157.28)" font-size="40.02px" font-family="OpenSans-Extrabold,Open Sans" font-weight="800" fill="#5f3494">STYLUS</text><path class="cls-16" d="M98.58 258.53h13.91a2.31 2.31 0 0 1 2.3 1.89 2.27 2.27 0 0 1-2.24 2.64h-14a2.26 2.26 0 0 1-2.27-2.26 2.26 2.26 0 0 1 2.3-2.27zM119.48 258.53h10.61a2.31 2.31 0 0 1 2.3 1.89 2.26 2.26 0 0 1-2.24 2.64h-10.67a2.27 2.27 0 0 1-2.27-2.26 2.27 2.27 0 0 1 2.27-2.27zM136.7 258.53h41.51a2.3 2.3 0 0 1 2.3 1.9 2.26 2.26 0 0 1-2.23 2.63H136.7a2.27 2.27 0 0 1-2.27-2.26 2.27 2.27 0 0 1 2.27-2.27zM98.58 268.89h53.13a2.31 2.31 0 0 1 2.3 1.89 2.26 2.26 0 0 1-2.23 2.64h-53.2a2.26 2.26 0 0 1-2.27-2.26 2.26 2.26 0 0 1 2.27-2.27zM159.25 268.89h19a2.3 2.3 0 0 1 2.3 1.9 2.26 2.26 0 0 1-2.23 2.63h-19a2.27 2.27 0 0 1-2.27-2.26 2.27 2.27 0 0 1 2.2-2.27zM281.37 252.7h-23.21a2.3 2.3 0 0 1-2.3-1.89 2.27 2.27 0 0 1 2.24-2.64h23.27a2.27 2.27 0 0 1 2.26 2.27 2.26 2.26 0 0 1-2.26 2.26zM251.17 252.7h-10.61a2.3 2.3 0 0 1-2.3-1.89 2.26 2.26 0 0 1 2.23-2.64h10.68a2.27 2.27 0 0 1 2.27 2.27 2.27 2.27 0 0 1-2.27 2.26zM234 252.7h-32.27a2.31 2.31 0 0 1-2.3-1.89 2.27 2.27 0 0 1 2.24-2.64H234a2.27 2.27 0 0 1 2.27 2.27 2.27 2.27 0 0 1-2.27 2.26zM281.37 242.34h-53.14a2.3 2.3 0 0 1-2.3-1.89 2.27 2.27 0 0 1 2.24-2.64h53.2a2.27 2.27 0 0 1 2.26 2.27 2.26 2.26 0 0 1-2.26 2.26zM220.69 242.34h-19a2.31 2.31 0 0 1-2.3-1.89 2.27 2.27 0 0 1 2.24-2.64h19a2.26 2.26 0 0 1 2.27 2.27 2.26 2.26 0 0 1-2.21 2.26zM281.37 263.06H247a2.3 2.3 0 0 1-2.3-1.89 2.27 2.27 0 0 1 2.24-2.64h34.38a2.31 2.31 0 0 1 2.3 1.89 2.27 2.27 0 0 1-2.25 2.64zM240.79 261.17a2.3 2.3 0 0 1-2.3 1.89h-36.76a2.31 2.31 0 0 1-2.3-1.89 2.27 2.27 0 0 1 2.24-2.64h36.89a2.26 2.26 0 0 1 2.23 2.64zM201.7 268.89h5.83a2.3 2.3 0 0 1 2.3 1.9 2.26 2.26 0 0 1-2.23 2.63h-5.9a2.27 2.27 0 0 1-2.27-2.26 2.27 2.27 0 0 1 2.27-2.27zM283.63 271.16a2.26 2.26 0 0 1-2.26 2.26h-67.16a2.27 2.27 0 0 1-2.27-2.26 2.27 2.27 0 0 1 2.27-2.27h67.16a2.27 2.27 0 0 1 2.26 2.27z" transform="translate(-39.75 -47.28)"/><rect class="cls-16" x="56.56" y="190.53" width="84.2" height="14.89" rx="1.29"/><path class="cls-4" d="M247.77 293.05h50.78v16.28h-50.78z"/><path class="cls-9" d="M271.58 179.06h3.15v15.75h-3.15z"/><rect class="cls-2" x="210.64" y="207.74" width="125.05" height="88.46" rx="14.37"/><rect class="cls-4" x="223.11" y="221.23" width="100.1" height="61.48" rx="10.82"/><path class="cls-4" d="M335.68 234.3h4.17a2.11 2.11 0 0 1 2.11 2.11v27.8a2.11 2.11 0 0 1-2.11 2.11h-4.17V234.3z"/><path class="cls-9" d="M342 238.19h.2a7.62 7.62 0 0 1 7.62 7.62v9a7.62 7.62 0 0 1-7.62 7.62h-.2v-24.24z"/><path class="cls-4" d="M244.11 281.58h4.17a2.11 2.11 0 0 1 2.11 2.11v27.8a2.11 2.11 0 0 1-2.11 2.11h-4.17v-32.02z" transform="rotate(180 227.37 273.95)"/><path class="cls-9" d="M236.29 285.47h.2a7.62 7.62 0 0 1 7.62 7.62v9a7.62 7.62 0 0 1-7.62 7.62h-.2v-24.24z" transform="rotate(180 220.32 273.95)"/><path class="cls-4" d="M260.66 199.4h25a3.73 3.73 0 0 1 3.73 3.73v4.62h-32.46v-4.62a3.73 3.73 0 0 1 3.73-3.73z"/><path class="cls-9" d="M273 191.57h.34a6.42 6.42 0 0 1 6.42 6.42v1.41h-13.19V198a6.42 6.42 0 0 1 6.43-6.43z"/><circle class="cls-14" cx="273.16" cy="173.71" r="7.26"/><path class="cls-9" d="M298 292.82a4.77 4.77 0 1 1-4.77-4.78 4.77 4.77 0 0 1 4.77 4.78zM337.33 292.82a4.78 4.78 0 1 1-4.77-4.78 4.78 4.78 0 0 1 4.77 4.78z" transform="translate(-39.75 -47.28)"/><path d="M303.6 302.66a1 1 0 0 1-.36-1.41 11.79 11.79 0 0 1 9.22-5.53h.44a11.3 11.3 0 0 1 9.67 5.54 1 1 0 0 1-.35 1.41z" transform="translate(-39.75 -47.28)" fill="#5a87c5"/><path class="cls-2" d="M215.27 304.12H331a16.08 16.08 0 0 1 16.08 16.08v41.21H199.19V320.2a16.08 16.08 0 0 1 16.08-16.08z"/><rect class="cls-9" x="288.68" y="324.19" width="47.47" height="26.42" rx="2.17"/><path class="cls-7" d="M368.11 383.16H349.5a2 2 0 0 1-2-1.65 2 2 0 0 1 1.95-2.31h18.67a2 2 0 0 1 2 2 2 2 0 0 1-2.01 1.96zM342.91 383.16h-6.63a2 2 0 0 1-2-1.65 2 2 0 0 1 2-2.31h6.69a2 2 0 0 1 2 2 2 2 0 0 1-2.06 1.96zM368.11 390.16h-8a2 2 0 0 1-2-1.65 2 2 0 0 1 2-2.31h8a2 2 0 0 1 2 1.66 2 2 0 0 1-2 2.3zM354.68 388.51a2 2 0 0 1-2 1.65h-16.4a2 2 0 0 1-2-1.65 2 2 0 0 1 2-2.31h16.5a2 2 0 0 1 1.9 2.31z" transform="translate(-39.75 -47.28)"/><path class="cls-28" d="M256.62 278.7a2.3 2.3 0 0 1-2.29-2.3v-8.3a2.29 2.29 0 0 1 2.29-2.29 2.28 2.28 0 0 1 2.29 2.29v8.3a2.29 2.29 0 0 1-2.29 2.3zM256.62 289.82a2.3 2.3 0 0 1-2.29-2.29V285a2.29 2.29 0 0 1 2.29-2.29 2.28 2.28 0 0 1 2.29 2.29v2.51a2.29 2.29 0 0 1-2.29 2.31zM265.72 356.61a2.3 2.3 0 0 1 2.3-2.29h14.49a2.29 2.29 0 0 1 2.29 2.29 2.28 2.28 0 0 1-2.29 2.29H268a2.29 2.29 0 0 1-2.28-2.29zM252.83 356.61a2.3 2.3 0 0 1 2.3-2.29h5.43a2.3 2.3 0 0 1 2.3 2.29 2.29 2.29 0 0 1-2.3 2.29h-5.43a2.29 2.29 0 0 1-2.3-2.29z" transform="translate(-39.75 -47.28)"/></svg>