<svg id="Layer_19" data-name="Layer 19" xmlns="http://www.w3.org/2000/svg" viewBox="0 0 524.9 443.33"><defs><clipPath id="clip-path" transform="translate(-60.37 -65.18)"><path class="cls-1" d="m108.1 151.49-4.68 5.4-.79-9.15a83.31 83.31 0 0 0-14.17-8.14s-15 27.23-6.63 51.42a88.32 88.32 0 0 0 7 15.43l10.4 2.67-7.12 2.48c8.38 12 18.62 18.46 26.78 15.62C131 223 134 200 125.57 175.8c-2.95-8.49-11.63-18.8-17.47-24.31z"/></clipPath><clipPath id="clip-path-2" transform="translate(-60.37 -65.18)"><path class="cls-2" d="M124.65 271.15c-14.59 4-30.43-.93-42.9-9.48-5.19-3.56-10.47-9.46-8.33-15.37 1.27-3.49 4.93-5.69 8.61-6.24s7.41.26 11 1.14c-8.84-4.87-14.78-13.72-19.2-22.8-2.33-4.77-4.38-9.86-4.4-15.18s2.36-10.93 7-13.44c5.37-2.88 12.33-.92 16.87 3.15s7.17 9.82 9.44 15.47c-.13-3.74 4.67-6.13 8.2-4.88s5.73 4.79 7.06 8.3a34.3 34.3 0 0 1 2.22 11.64z"/></clipPath><clipPath id="clip-path-3" transform="translate(-60.37 -65.18)"><path class="cls-3" d="M222.31 192.44a41.41 41.41 0 0 1-.58-38.3c9.77-19 32.21-27.14 52.81-32.75 9.55-2.6 19.35-5.09 27.67-10.47s15-14.32 15-24.22a86.32 86.32 0 0 1-69.74 100.9z"/></clipPath><clipPath id="clip-path-4" transform="translate(-60.37 -65.18)"><path class="cls-2" d="M496 439.64c-.94 6.11 6.15 13.73 6.71 19.88s2.76 12.37 7.26 16.6c2.09 2 4.82 3.5 7.68 3.32 3.74-.24 6.07-3.47 7.14-4.9a15.9 15.9 0 0 0 3-10 35.21 35.21 0 0 0 5.53 14c2.58 3.82 5.19 6.43 8.21 7.43 5.66 1.88 12.1-5.41 12.53-11.36-.14 2 5.52 9 6.85 10.21a29.64 29.64 0 0 0 10.24 6.29c11.4 3.64 16.15-8.25 13.37-17.47a35.32 35.32 0 0 0-20.42-22.35c1 .41 2.68-.78 3.46-1.36a6.17 6.17 0 0 0 1.74-7.62 9.87 9.87 0 0 0-4.72-4.43 43.36 43.36 0 0 0-13.91-4.25c5.11-3.13 5.47-10.85 2.46-16a17.86 17.86 0 0 0-31.43 1.06L482.19 426z"/></clipPath><clipPath id="clip-path-5" transform="translate(-60.37 -65.18)"><path class="cls-4" d="M416 411a51.17 51.17 0 0 1 46.19-10.23c25.39 7.09 40.84 32.2 52.75 55.73 5.53 10.91 11 22.14 19.56 30.86s21.05 14.63 33 12.09a106.61 106.61 0 0 1-139.41-59.25z"/></clipPath><clipPath id="clip-path-6" transform="translate(-60.37 -65.18)"><path class="cls-4" d="m262.4 107-9.08.49 7.66-8.8a106.18 106.18 0 0 0-5.07-20.13s-38.16 10.29-52.82 39.35a112.07 112.07 0 0 0-7.87 20.06l6.78 11.82-8.54-4.31c-3.53 18.22-.43 33.3 9.38 38.25 14.51 7.32 38.15-10.29 52.82-39.35 5.1-10.19 6.87-27.24 6.74-37.38z"/></clipPath><style>.cls-1{fill:#f49bc2}.cls-2{fill:#7e61aa}.cls-3{fill:#6695ce}.cls-4{fill:#f4b027}.cls-7{fill:#f174ac}.cls-9{fill:#704b9e}.cls-10{fill:#ed2480}.cls-12{fill:#5986c5}.cls-14{fill:#784ea0}.cls-16{fill:#f5982d}.cls-18{fill:#4661ad}.cls-19{fill:#5397d1}.cls-20{fill:#a5def5}.cls-21{fill:#fff}.cls-22{fill:#8090c8}.cls-23{fill:#f6a9ca}.cls-24{fill:#88c0e8}.cls-30{fill:#354ea2}.cls-32{fill:#6867af}.cls-35{fill:#3e439b}</style></defs><path d="M488.21 392c21.62-9.68 43.41-19.89 61.34-35.41s31.79-37.25 32.81-61c.69-16.2-4.54-32.05-5.62-48.23-1.62-24.39 6.24-48.76 3.94-73.09-4.14-43.72-36.54-78.75-75.87-95.25-57.45-24.12-125.32-17.39-171.44 25.53-24.45 22.75-48.1 49.79-82.19 57.09-41.28 8.84-85.59-1.46-122.53 24.06-30.94 21.37-45.06 55-47.4 91.64-1.57 24.54-2.1 50.47-8.42 74.31-7.13 26.89-18.1 57.65-9 85.32 9.73 29.65 35 48.41 64 57 37.42 11.11 76.36.56 113.37-8.75 28.08-7.06 70.49-8 122.76-5.18z" transform="translate(-60.37 -65.18)" style="fill:#e4d7ea"/><path class="cls-1" d="m108.1 151.49-4.68 5.4-.79-9.15a83.31 83.31 0 0 0-14.17-8.14s-15 27.23-6.63 51.42a88.32 88.32 0 0 0 7 15.43l10.4 2.67-7.12 2.48c8.38 12 18.62 18.46 26.78 15.62C131 223 134 200 125.57 175.8c-2.95-8.49-11.63-18.8-17.47-24.31z" transform="translate(-60.37 -65.18)"/><g style="clip-path:url(#clip-path)"><path class="cls-7" transform="rotate(-19.18 -119.981 327.665)" d="M102 133.26h2.13v96.64H102z"/><path class="cls-7" transform="rotate(-57.99 21.848 188.886)" d="M95.27 165.96h31.16v2.13H95.27z"/><path class="cls-7" transform="rotate(-57.98 24.627 196.835)" d="M98.03 173.88h31.16v2.13H98.03z"/><path class="cls-7" transform="rotate(-57.99 35.728 228.786)" d="M109.15 205.85h31.16v2.13h-31.16z"/><path class="cls-7" transform="rotate(-79.76 25.791 201.902)" d="M93.9 183.25h2.13v30.22H93.9z"/><path class="cls-7" transform="rotate(-79.76 24.226 197.414)" d="M92.34 178.76h2.13v30.22h-2.13z"/><path class="cls-7" transform="rotate(-79.76 12.863 164.75)" d="M80.98 146.1h2.13v30.22h-2.13z"/></g><path class="cls-2" d="M124.65 271.15c-14.59 4-30.43-.93-42.9-9.48-5.19-3.56-10.47-9.46-8.33-15.37 1.27-3.49 4.93-5.69 8.61-6.24s7.41.26 11 1.14c-8.84-4.87-14.78-13.72-19.2-22.8-2.33-4.77-4.38-9.86-4.4-15.18s2.36-10.93 7-13.44c5.37-2.88 12.33-.92 16.87 3.15s7.17 9.82 9.44 15.47c-.13-3.74 4.67-6.13 8.2-4.88s5.73 4.79 7.06 8.3a34.3 34.3 0 0 1 2.22 11.64z" transform="translate(-60.37 -65.18)"/><g style="clip-path:url(#clip-path-2)"><path class="cls-9" d="M75.15 188.2c.83 6.43 1.92 13 4.81 18.84s7.16 10.68 11.23 15.58c2 2.42 4.07 4.8 6.29 7s4.81 4.36 7.29 6.47a58.79 58.79 0 0 1 12.06 14.28 128.71 128.71 0 0 1 9 18.57c.28.69 1.37.29 1.08-.4-4.45-10.89-9.57-21.9-18-30.29-2.28-2.26-4.83-4.23-7.25-6.34a72.38 72.38 0 0 1-7-7.1C90.36 220 86 215 82.62 209.47c-4-6.49-5.35-13.93-6.32-21.37-.09-.74-1.25-.64-1.15.1z" transform="translate(-60.37 -65.18)"/><path class="cls-9" d="M110.36 239.43a62.57 62.57 0 0 0-1.94-39.9.58.58 0 0 0-1.09.41 61.55 61.55 0 0 1 1.89 39.28c-.2.72.94.93 1.14.21zM86.9 216a62.86 62.86 0 0 0 1.4-28.18c-.13-.73-1.29-.63-1.16.1a61.93 61.93 0 0 1-1.38 27.87c-.2.72.94.92 1.14.21zM84 211.64a62.91 62.91 0 0 0 .86-28.2c-.15-.72-1.3-.63-1.16.1a62.11 62.11 0 0 1-.84 27.89c-.19.73.95.93 1.14.21zM70.72 246.54c11.45 8.13 25.31 12 39.2 12.93a112.31 112.31 0 0 0 11.89.16c.75 0 .65-1.18-.1-1.15-13.64.51-27.66-1.27-40.15-7a62.78 62.78 0 0 1-10.09-5.82c-.61-.43-1.36.45-.75.89z" transform="translate(-60.37 -65.18)"/><path class="cls-9" d="M69.89 242.15c11.22 8.48 25 12.74 38.89 14.1a113.16 113.16 0 0 0 11.79.5c.75 0 .64-1.16-.1-1.15-13.62.1-27.53-2.1-39.83-8.18a62.2 62.2 0 0 1-10-6.16c-.6-.45-1.34.43-.75.89z" transform="translate(-60.37 -65.18)"/></g><path class="cls-10" d="M469.53 188.33a2 2 0 0 1-1.94-1.53 100.81 100.81 0 0 0-3.86-12.29 2 2 0 0 1 3.74-1.44 106.13 106.13 0 0 1 4 12.79 2 2 0 0 1-1.47 2.41 2 2 0 0 1-.47.06zm-10.78-27a2 2 0 0 1-1.74-1 94.85 94.85 0 0 0-8.86-12.9 2 2 0 1 1 3.09-2.53 98.37 98.37 0 0 1 9.24 13.45 2 2 0 0 1-.74 2.73 2 2 0 0 1-.99.26zM305.25 141a2 2 0 0 1-1.58-.77 2 2 0 0 1 .36-2.81 127.45 127.45 0 0 1 13.45-9.1 2 2 0 1 1 2 3.44 126.37 126.37 0 0 0-13 8.82 1.92 1.92 0 0 1-1.23.42zm133.25-4.19a2.05 2.05 0 0 1-1.29-.47 84.3 84.3 0 0 0-10.91-7.86c-.62-.37-1.24-.74-1.87-1.1a2 2 0 1 1 2-3.47c.66.37 1.31.76 2 1.15a88.06 88.06 0 0 1 11.43 8.23 2 2 0 0 1-1.3 3.52zm-105.73-12A2 2 0 0 1 332 121a124.05 124.05 0 0 1 15.35-5.35 2 2 0 0 1 1.06 3.86 119.1 119.1 0 0 0-14.84 5.17 2 2 0 0 1-.8.11zm78.11-3.81a1.91 1.91 0 0 1-.66-.11 93 93 0 0 0-15.14-3.95 2 2 0 1 1 .68-3.94 97.35 97.35 0 0 1 15.79 4.12 2 2 0 0 1-.67 3.88zm-47.34-4.6a2 2 0 0 1-.25-4 112.52 112.52 0 0 1 16.25-.93 2 2 0 0 1 0 4 108.94 108.94 0 0 0-15.67.9zM140.45 275.31a2 2 0 0 1-1.43-3.4c1.89-1.93 3.88-3.82 5.9-5.61a2 2 0 1 1 2.65 3c-1.95 1.73-3.86 3.56-5.69 5.42a2 2 0 0 1-1.43.59zM170.11 421.83a2.2 2.2 0 0 1-.5-.06 68.09 68.09 0 0 1-14.42-5.56 2 2 0 1 1 1.85-3.55 63.93 63.93 0 0 0 13.57 5.23 2 2 0 0 1-.5 3.94zm-26.49-13.71a2.05 2.05 0 0 1-1.27-.45 85.75 85.75 0 0 1-10.92-10.82 2 2 0 0 1 3-2.58 82.32 82.32 0 0 0 10.41 10.31 2 2 0 0 1 .28 2.81 2 2 0 0 1-1.5.73zm-19.41-22.77a2 2 0 0 1-1.72-1 97.54 97.54 0 0 1-6.87-13.71 2 2 0 1 1 3.7-1.5 94.52 94.52 0 0 0 6.6 13.15 2 2 0 0 1-.68 2.74 1.94 1.94 0 0 1-1.03.32zm-11.13-27.79a2 2 0 0 1-2-1.6 81.5 81.5 0 0 1-1.61-15.31 2 2 0 0 1 2-2 2 2 0 0 1 2 2 77.58 77.58 0 0 0 1.53 14.51 2 2 0 0 1-1.56 2.36 2.71 2.71 0 0 1-.36.04zm-.34-29.9a2.07 2.07 0 0 1-.35 0 2 2 0 0 1-1.63-2.31 92.06 92.06 0 0 1 3.89-14.85 2 2 0 1 1 3.77 1.33A89.5 89.5 0 0 0 114.7 326a2 2 0 0 1-1.96 1.66zm9.88-28.25a2.06 2.06 0 0 1-1-.24 2 2 0 0 1-.81-2.71 106.6 106.6 0 0 1 8.23-12.92 2 2 0 0 1 3.21 2.39 102.43 102.43 0 0 0-7.92 12.42 2 2 0 0 1-1.71 1.06zM186.65 423.9h-1.69a2 2 0 0 1-2-2.05 2 2 0 0 1 2.05-1.95 69.87 69.87 0 0 0 7.76-.26 2 2 0 0 1 .36 4c-2.13.16-4.32.26-6.48.26z" transform="translate(-60.37 -65.18)"/><path class="cls-3" d="M222.31 192.44a41.41 41.41 0 0 1-.58-38.3c9.77-19 32.21-27.14 52.81-32.75 9.55-2.6 19.35-5.09 27.67-10.47s15-14.32 15-24.22a86.32 86.32 0 0 1-69.74 100.9z" transform="translate(-60.37 -65.18)"/><g style="clip-path:url(#clip-path-3)"><path class="cls-12" d="M313.54 82.17c6.25 20.84-4 43.33-19.21 57.61a62.76 62.76 0 0 1-12.52 9.22c-5.33 3-11.13 4.92-16.86 6.94-6.05 2.14-12.13 4.38-17.64 7.73a59 59 0 0 0-13.56 11.48c-8.78 10-14.35 23.16-13 36.63.2 2 3.33 1.9 3.13-.11-1.23-12.22 3.54-24.14 11.33-33.42A56.29 56.29 0 0 1 249 166.33c5.51-3.35 11.6-5.52 17.65-7.66 5.74-2 11.52-4 16.85-7a66.24 66.24 0 0 0 12.5-9.13A72.36 72.36 0 0 0 314.29 116c4.35-11.06 5.69-23.27 2.25-34.77a1.57 1.57 0 0 0-3 .91z" transform="translate(-60.37 -65.18)"/><path class="cls-12" d="M310.47 146.35a61.79 61.79 0 0 1-19.7-2.11c-1.94-.54-2.66 2.51-.72 3a64.34 64.34 0 0 0 20.53 2.2c2-.11 1.91-3.24-.11-3.13zM307.59 153.64a89.14 89.14 0 0 1-24.59-4.15c-1.92-.6-2.64 2.44-.72 3a92.38 92.38 0 0 0 25.45 4.23c2 .06 1.9-3.07-.11-3.13zM271.85 116.27a75.57 75.57 0 0 0-18.6 44.92c-.13 2 3 1.89 3.14-.11a72 72 0 0 1 17.72-42.64c1.33-1.52-.93-3.68-2.26-2.17zM301.81 108.62a75.62 75.62 0 0 0-2.87 26.8c.15 2 3.28 1.91 3.13-.11a72.79 72.79 0 0 1 2.79-26c.56-1.94-2.48-2.66-3.05-.73z" transform="translate(-60.37 -65.18)"/><path class="cls-12" d="M261.57 118.44a75.55 75.55 0 0 0-16.21 45.84c0 2 3.11 1.9 3.13-.11a72 72 0 0 1 15.35-43.56c1.24-1.57-1-3.75-2.27-2.17z" transform="translate(-60.37 -65.18)"/></g><path class="cls-2" d="M496 439.64c-.94 6.11 6.15 13.73 6.71 19.88s2.76 12.37 7.26 16.6c2.09 2 4.82 3.5 7.68 3.32 3.74-.24 6.07-3.47 7.14-4.9a15.9 15.9 0 0 0 3-10 35.21 35.21 0 0 0 5.53 14c2.58 3.82 5.19 6.43 8.21 7.43 5.66 1.88 12.1-5.41 12.53-11.36-.14 2 5.52 9 6.85 10.21a29.64 29.64 0 0 0 10.24 6.29c11.4 3.64 16.15-8.25 13.37-17.47a35.32 35.32 0 0 0-20.42-22.35c1 .41 2.68-.78 3.46-1.36a6.17 6.17 0 0 0 1.74-7.62 9.87 9.87 0 0 0-4.72-4.43 43.36 43.36 0 0 0-13.91-4.25c5.11-3.13 5.47-10.85 2.46-16a17.86 17.86 0 0 0-31.43 1.06L482.19 426z" transform="translate(-60.37 -65.18)"/><g style="clip-path:url(#clip-path-4)"><path class="cls-14" d="M582.08 494.86c-2.1-6.59-6-12.31-10.48-17.51s-9.54-10.23-14.5-15.13c-9.27-9.15-19.19-18-30-25.23a83.89 83.89 0 0 0-18.75-9.61c-1.25-.45-.49-2.37.77-1.92 12.07 4.24 22.64 11.74 32.41 19.86a291.5 291.5 0 0 1 30.06 28.85c5.26 5.83 10 12.31 12.43 19.87.41 1.26-1.49 2.09-1.9.82z" transform="translate(-60.37 -65.18)"/><path class="cls-14" transform="rotate(-10.65 184.304 769.144)" d="M562.72 465.07h2.48v25.39h-2.48z"/><path class="cls-14" d="m500 420.46-5.31-28.23-2.44.45 4.86 25.82 2.89 1.96zM484.27 421.46l-8.6-44.94-2.72-1 8.88 46.4 2.44-.46zM478.11 420.31l-9.33-48.77-2.69-.82 8.85 46.22 3.17 3.37z"/><path class="cls-14" transform="rotate(-3.4 -572.7 1428.716)" d="M539.04 442.49h31.51v2.48h-31.51z"/><path class="cls-14" d="m507.62 374.15-.15-2.48-35.6 2.12 1.42 2.4 34.33-2.04z"/></g><path class="cls-4" d="M416 411a51.17 51.17 0 0 1 46.19-10.23c25.39 7.09 40.84 32.2 52.75 55.73 5.53 10.91 11 22.14 19.56 30.86s21.05 14.63 33 12.09a106.61 106.61 0 0 1-139.41-59.25z" transform="translate(-60.37 -65.18)"/><g style="clip-path:url(#clip-path-5)"><path class="cls-16" d="M572.11 493.94c-23.66 12.73-53.41 5.9-74.47-8.9a77.78 77.78 0 0 1-14.26-12.86c-4.9-5.71-8.71-12.24-12.59-18.66-4.09-6.79-8.31-13.59-13.73-19.42a73.2 73.2 0 0 0-17.27-13.55c-14.3-8.12-31.57-11.59-47.53-6.6-2.36.73-1.47 4.5.91 3.76 14.48-4.53 30.08-1.74 43.24 5.39a69.56 69.56 0 0 1 17.83 13.65c5.43 5.83 9.57 12.65 13.66 19.45 3.87 6.43 7.75 12.92 12.66 18.63a81.85 81.85 0 0 0 14.15 12.86 89.41 89.41 0 0 0 36.63 15.58c14.46 2.51 29.56 1.09 42.61-5.93 2.2-1.18.36-4.59-1.84-3.4z" transform="translate(-60.37 -65.18)"/><path class="cls-16" d="M493.72 506.19a76 76 0 0 1-2.35-24.35c.16-2.48-3.7-2.6-3.86-.12A79.23 79.23 0 0 0 490 507.1c.63 2.4 4.39 1.5 3.76-.91zM484.18 504.52a110.47 110.47 0 0 1-1.11-30.81c.26-2.48-3.61-2.59-3.87-.12a114.43 114.43 0 0 0 1.22 31.84c.43 2.45 4.19 1.54 3.76-.91zM520.48 452a93.31 93.31 0 0 0-59-11.31c-2.46.34-1.54 4.1.91 3.76a88.92 88.92 0 0 1 56 10.83c2.16 1.23 4.22-2 2.05-3.28zM537.2 486.33a92.92 92.92 0 0 0-33.14 3.2c-2.38.68-1.49 4.44.92 3.76a89.83 89.83 0 0 1 32.09-3.1c2.49.21 2.6-3.66.13-3.86z" transform="translate(-60.37 -65.18)"/><path class="cls-16" d="M515.3 440.1a93.32 93.32 0 0 0-59.47-8.21c-2.44.48-1.53 4.24.91 3.76a88.93 88.93 0 0 1 56.51 7.73c2.21 1.11 4.28-2.16 2-3.28z" transform="translate(-60.37 -65.18)"/></g><path class="cls-4" d="m262.4 107-9.08.49 7.66-8.8a106.18 106.18 0 0 0-5.07-20.13s-38.16 10.29-52.82 39.35a112.07 112.07 0 0 0-7.87 20.06l6.78 11.82-8.54-4.31c-3.53 18.22-.43 33.3 9.38 38.25 14.51 7.32 38.15-10.29 52.82-39.35 5.1-10.19 6.87-27.24 6.74-37.38z" transform="translate(-60.37 -65.18)"/><g style="clip-path:url(#clip-path-6)"><path class="cls-16" transform="rotate(-63.22 147.32 145.387)" d="M169.07 127.58h122.78v2.7H169.07z"/><path class="cls-16" transform="rotate(-12.02 -89.087 377.314)" d="M230.84 121.83h39.59v2.7h-39.59z"/><path class="cls-16" transform="rotate(-12.02 -93.879 386.797)" d="M226.04 131.34h39.59v2.7h-39.59z"/><path class="cls-16" transform="rotate(-12.02 -113.239 425.19)" d="M206.66 169.74h39.59v2.7h-39.59z"/><path class="cls-16" transform="rotate(-33.9 70.112 201.748)" d="M206.63 117.15h2.7v38.4h-2.7z"/><path class="cls-16" transform="rotate(-33.8 73.256 197.721)" d="M209.35 111.76h2.7v38.4h-2.7z"/><path class="cls-16" transform="rotate(-33.8 93.05 158.49)" d="M229.15 72.54h2.7v38.4h-2.7z"/></g><path class="cls-18" d="M279.3 491h145.05a20.27 20.27 0 0 1 17.49 10.05h2.1A20.28 20.28 0 0 0 424.35 486h-145a20.28 20.28 0 0 0-19.59 15.07h2.1A20.28 20.28 0 0 1 279.3 491z" transform="translate(-60.37 -65.18)"/><path class="cls-19" d="M424.35 491h-145a20.28 20.28 0 0 0-17.49 10.05h180A20.27 20.27 0 0 0 424.35 491z" transform="translate(-60.37 -65.18)"/><path class="cls-19" d="m238.44 396.09-7.91 24.74h121.86l-7.91-24.74H238.44z"/><path class="cls-18" d="M339.39 380.18h-95.86l-5.09 15.91h106.04l-5.09-15.91z"/><path class="cls-19" d="M100.58 344.93h381.25v21.58a13.67 13.67 0 0 1-13.67 13.67H114.24a13.67 13.67 0 0 1-13.67-13.67v-21.58h.01z"/><circle class="cls-18" cx="291.2" cy="362.56" r="9.72"/><path class="cls-20" d="M112.52 115.37h357.37a11.94 11.94 0 0 1 11.94 11.94v217.62H100.58V127.31a11.94 11.94 0 0 1 11.94-11.94z"/><rect class="cls-21" x="112.13" y="125.5" width="358.14" height="27.34" rx="1.88"/><path class="cls-20" d="M264.34 208h-32.66a3.64 3.64 0 0 1-3.63-3.64 3.64 3.64 0 0 1 3.63-3.63h32.66a3.64 3.64 0 0 1 3.63 3.63 3.64 3.64 0 0 1-3.63 3.64zM325.84 208h-32.66a3.64 3.64 0 0 1-3.63-3.64 3.64 3.64 0 0 1 3.63-3.63h32.66a3.64 3.64 0 0 1 3.63 3.63 3.64 3.64 0 0 1-3.63 3.64zM387.33 208h-32.65a3.63 3.63 0 0 1-3.63-3.64 3.63 3.63 0 0 1 3.63-3.63h32.65a3.64 3.64 0 0 1 3.64 3.63 3.64 3.64 0 0 1-3.64 3.64zM448.83 208h-32.65a3.63 3.63 0 0 1-3.63-3.64 3.63 3.63 0 0 1 3.63-3.63h32.65a3.64 3.64 0 0 1 3.64 3.63 3.64 3.64 0 0 1-3.64 3.64zM510.33 208h-32.65a3.64 3.64 0 0 1-3.64-3.64 3.64 3.64 0 0 1 3.64-3.63h32.65a3.63 3.63 0 0 1 3.63 3.63 3.63 3.63 0 0 1-3.63 3.64z" transform="translate(-60.37 -65.18)"/><rect class="cls-21" x="113.05" y="164.39" width="136.09" height="170.41" rx="2.44"/><rect class="cls-21" x="260.46" y="164.39" width="209.81" height="170.41" rx="2.44"/><rect class="cls-22" x="119.26" y="174.3" width="119.02" height="72.5" rx="3.35"/><path class="cls-7" d="M183.25 127.68v-38.8L152.86 58.5l-97.29.01.01 75.72v39.56h127.67v-46.11z"/><path class="cls-10" d="M55.58 173.79v41.57l127.67-.01v-41.56H55.58zM152.86 88.89l30.39-.01-30.39-30.38v30.39z"/><path class="cls-10" d="M138.86 178.55a9.1 9.1 0 0 1-.89 1.1 6.64 6.64 0 0 0-.73.92 1.38 1.38 0 0 0 0 1.54 8.4 8.4 0 0 0 .75.95 7.32 7.32 0 0 1 .84 1.06 1.85 1.85 0 0 1 .28 1v5.54a19.86 19.86 0 0 0 .4 4.48 2.31 2.31 0 0 0 1.9 2 2.3 2.3 0 0 1 1.4.78 2.11 2.11 0 0 1 .5 1.35 1.61 1.61 0 0 1-.5 1.2 2 2 0 0 1-1.4.48h-.62a6.58 6.58 0 0 1-5.68-2.66 11.37 11.37 0 0 1-1.93-6.86v-6.27a1.85 1.85 0 0 0-.28-1 9.06 9.06 0 0 0-.84-1.06 3 3 0 0 1-1-1.73 1.4 1.4 0 0 1 .22-.76 6.64 6.64 0 0 1 .73-.92 8.29 8.29 0 0 0 .84-1.07 1.93 1.93 0 0 0 .28-1.06v-6.27a11.39 11.39 0 0 1 1.93-6.86 6.58 6.58 0 0 1 5.68-2.66h.62a2 2 0 0 1 1.4.48 1.61 1.61 0 0 1 .5 1.2 2.11 2.11 0 0 1-.5 1.35 2.3 2.3 0 0 1-1.4.78 2.31 2.31 0 0 0-1.9 2 19.86 19.86 0 0 0-.4 4.48v5.54a1.78 1.78 0 0 1-.2.95zM164 164.93a7.64 7.64 0 0 1 2.73 3.06 9.33 9.33 0 0 1 1 4.28v3a.85.85 0 0 1-.28.65 1 1 0 0 1-.68.25h-3.35a.93.93 0 0 1-.67-.25.82.82 0 0 1-.28-.65V173a4.69 4.69 0 0 0-.8-2.81 2.69 2.69 0 0 0-2.3-1.1 2.75 2.75 0 0 0-2.36 1.1 4.69 4.69 0 0 0-.8 2.81v16.71a4.69 4.69 0 0 0 .8 2.81 2.75 2.75 0 0 0 2.36 1.1 2.69 2.69 0 0 0 2.3-1.1 4.69 4.69 0 0 0 .8-2.81v-2.15a.89.89 0 0 1 .28-.67.88.88 0 0 1 .67-.28h3.35a.9.9 0 0 1 .68.28.93.93 0 0 1 .28.67v2.86a9.32 9.32 0 0 1-1 4.27 7.64 7.64 0 0 1-2.73 3.06 7.24 7.24 0 0 1-4 1.12h-1.35a7.35 7.35 0 0 1-4.06-1.12 7.64 7.64 0 0 1-2.73-3.06 9.31 9.31 0 0 1-1-4.27v-18.15a9.32 9.32 0 0 1 1-4.28 7.64 7.64 0 0 1 2.73-3.06 7.35 7.35 0 0 1 4.06-1.12H160a7.24 7.24 0 0 1 4 1.12zM184.49 164.93a7.69 7.69 0 0 1 2.72 3.06 9.33 9.33 0 0 1 1 4.28v1.15a.93.93 0 0 1-.28.65.87.87 0 0 1-.67.3h-3.41a1 1 0 0 1-1-1V173a4.83 4.83 0 0 0-.77-2.81 3 3 0 0 0-4.63 0 4.63 4.63 0 0 0-.8 2.81v1.55a4.53 4.53 0 0 0 .75 2.85 5.91 5.91 0 0 0 1.37 1.18 15.3 15.3 0 0 0 2 1 21.44 21.44 0 0 1 3.58 2 10.57 10.57 0 0 1 2.78 3.2 6.59 6.59 0 0 1 .77 2.2 11.63 11.63 0 0 1 .28 2.1v1.36a9.32 9.32 0 0 1-1 4.27 7.69 7.69 0 0 1-2.72 3.06 7.37 7.37 0 0 1-4.06 1.12h-1.3a7.27 7.27 0 0 1-4-1.12 7.69 7.69 0 0 1-2.72-3.06 9.32 9.32 0 0 1-1-4.27v-1a.89.89 0 0 1 .28-.67.91.91 0 0 1 .67-.28h3.36a1 1 0 0 1 1 1v.25a4.63 4.63 0 0 0 .8 2.81 3 3 0 0 0 4.63 0 4.83 4.83 0 0 0 .77-2.81V189a8 8 0 0 0-.22-1.7 3.87 3.87 0 0 0-.83-1.7 4.92 4.92 0 0 0-1.45-1.23 16.65 16.65 0 0 0-2.2-1 16.2 16.2 0 0 1-3.78-1.9 7.46 7.46 0 0 1-2.43-3.36 7.06 7.06 0 0 1-.42-1.83 14.73 14.73 0 0 1-.13-1.82v-2.25a9.33 9.33 0 0 1 1-4.28 7.69 7.69 0 0 1 2.72-3.06 7.27 7.27 0 0 1 4-1.12h1.3a7.37 7.37 0 0 1 4.04 1.18zM205 164.93a7.71 7.71 0 0 1 2.73 3.06 9.32 9.32 0 0 1 1 4.28v1.15a1 1 0 0 1-.27.65.9.9 0 0 1-.68.3h-3.4a.9.9 0 0 1-.65-.3.93.93 0 0 1-.31-.65V173a4.76 4.76 0 0 0-.77-2.81 3 3 0 0 0-4.63 0 4.69 4.69 0 0 0-.8 2.81v1.55a4.53 4.53 0 0 0 .75 2.85 5.76 5.76 0 0 0 1.38 1.18 14.49 14.49 0 0 0 2 1 21 21 0 0 1 3.58 2 10.43 10.43 0 0 1 2.78 3.2 6.81 6.81 0 0 1 .78 2.2 12.36 12.36 0 0 1 .27 2.1v1.36a9.31 9.31 0 0 1-1 4.27 7.71 7.71 0 0 1-2.73 3.06 7.35 7.35 0 0 1-4.06 1.12h-1.3a7.22 7.22 0 0 1-4-1.12 7.64 7.64 0 0 1-2.73-3.06 9.32 9.32 0 0 1-1-4.27v-1a.89.89 0 0 1 .28-.67.93.93 0 0 1 .67-.28h3.36a.93.93 0 0 1 .67.28.89.89 0 0 1 .28.67v.25a4.69 4.69 0 0 0 .8 2.81 3 3 0 0 0 4.63 0 4.76 4.76 0 0 0 .77-2.81V189a8 8 0 0 0-.22-1.7 3.87 3.87 0 0 0-.83-1.7 4.92 4.92 0 0 0-1.45-1.23 16.65 16.65 0 0 0-2.2-1 16.4 16.4 0 0 1-3.78-1.9 7.61 7.61 0 0 1-2.43-3.36 7.06 7.06 0 0 1-.42-1.83 14.73 14.73 0 0 1-.13-1.82v-2.25a9.33 9.33 0 0 1 1-4.28 7.64 7.64 0 0 1 2.73-3.06 7.22 7.22 0 0 1 4-1.12h1.3a7.35 7.35 0 0 1 4.03 1.18zM220.42 172a20.47 20.47 0 0 0-.4-4.48 2.31 2.31 0 0 0-1.9-2 2.27 2.27 0 0 1-1.4-.78 2.11 2.11 0 0 1-.5-1.35 1.61 1.61 0 0 1 .5-1.2 2 2 0 0 1 1.4-.48h.62a6.58 6.58 0 0 1 5.68 2.66 11.46 11.46 0 0 1 1.93 6.86v6.27a1.93 1.93 0 0 0 .28 1.06 6.83 6.83 0 0 0 .84 1.07 7.51 7.51 0 0 1 .73.92 1.49 1.49 0 0 1 .22.76 3 3 0 0 1-.95 1.73 7.32 7.32 0 0 0-.84 1.06 1.85 1.85 0 0 0-.28 1v6.27a11.44 11.44 0 0 1-1.93 6.86 6.58 6.58 0 0 1-5.68 2.66h-.62a2 2 0 0 1-1.4-.48 1.61 1.61 0 0 1-.5-1.2 2.11 2.11 0 0 1 .5-1.35 2.27 2.27 0 0 1 1.4-.78 2.31 2.31 0 0 0 1.9-2 20.47 20.47 0 0 0 .4-4.48v-5.54a1.85 1.85 0 0 1 .28-1 7.32 7.32 0 0 1 .84-1.06 8.4 8.4 0 0 0 .75-.95 1.38 1.38 0 0 0 0-1.54 6.64 6.64 0 0 0-.73-.92 9.1 9.1 0 0 1-.89-1.1 1.78 1.78 0 0 1-.28-1zM225.07 213.19h-90.58a3.35 3.35 0 0 1-3.35-3.35 3.35 3.35 0 0 1 3.35-3.35h90.58a3.35 3.35 0 0 1 3.35 3.35 3.35 3.35 0 0 1-3.35 3.35z" transform="translate(-60.37 -65.18)"/><path class="cls-23" d="M124.62 267.64h4.5a2.25 2.25 0 0 1 2.24 1.85 2.21 2.21 0 0 1-2.18 2.57h-4.56a2.21 2.21 0 0 1-2.21-2.21 2.21 2.21 0 0 1 2.21-2.21zM135.93 267.64h26.34a2.25 2.25 0 0 1 2.24 1.85 2.21 2.21 0 0 1-2.18 2.57h-26.4a2.21 2.21 0 0 1-2.21-2.21 2.21 2.21 0 0 1 2.21-2.21zM168.7 267.64h31.4a2.25 2.25 0 0 1 2.24 1.85 2.21 2.21 0 0 1-2.18 2.57H168.7a2.21 2.21 0 0 1-2.2-2.21 2.21 2.21 0 0 1 2.2-2.21zM124.62 257.55H156a2.24 2.24 0 0 1 2.24 1.84 2.21 2.21 0 0 1-2.18 2.57h-31.38a2.24 2.24 0 0 1-2.24-1.84 2.21 2.21 0 0 1 2.18-2.57zM162 259.39a2.25 2.25 0 0 1 2.24-1.84h35.86a2.25 2.25 0 0 1 2.24 1.84 2.21 2.21 0 0 1-2.18 2.57h-35.94a2.21 2.21 0 0 1-2.22-2.57zM155.13 251.87h-5.69a2.25 2.25 0 0 1-2.24-1.87 2.21 2.21 0 0 1 2.18-2.57h5.75a2.2 2.2 0 0 1 2.2 2.21 2.2 2.2 0 0 1-2.2 2.23zM122.41 249.66a2.21 2.21 0 0 1 2.21-2.21h18.32a2.21 2.21 0 0 1 2.21 2.21 2.21 2.21 0 0 1-2.21 2.21h-18.32a2.21 2.21 0 0 1-2.21-2.21z" transform="translate(-60.37 -65.18)"/><path class="cls-22" d="M234 324.33h-21.16a2.29 2.29 0 0 1-2.29-1.88 2.25 2.25 0 0 1 2.22-2.61H234a2.24 2.24 0 0 1 2.25 2.24 2.25 2.25 0 0 1-2.25 2.25zM205.36 324.33h-23.25a2.29 2.29 0 0 1-2.28-1.88 2.25 2.25 0 0 1 2.22-2.61h23.31a2.24 2.24 0 0 1 2.25 2.24 2.25 2.25 0 0 1-2.25 2.25zM234 335.52h-9.09a2.29 2.29 0 0 1-2.29-1.88 2.26 2.26 0 0 1 2.22-2.62h9.1a2.29 2.29 0 0 1 2.28 1.88 2.25 2.25 0 0 1-2.22 2.62zM218.71 333.64a2.29 2.29 0 0 1-2.28 1.88h-34.32a2.29 2.29 0 0 1-2.28-1.88 2.26 2.26 0 0 1 2.22-2.62h34.44a2.26 2.26 0 0 1 2.22 2.62zM182.08 342.21h4.56a2.29 2.29 0 0 1 2.28 1.88 2.26 2.26 0 0 1-2.22 2.62h-4.62a2.25 2.25 0 0 1-2.25-2.25 2.25 2.25 0 0 1 2.25-2.25zM236.19 344.46a2.24 2.24 0 0 1-2.24 2.25H195a2.24 2.24 0 0 1-2.24-2.25 2.24 2.24 0 0 1 2.24-2.25h39a2.24 2.24 0 0 1 2.24 2.25zM296.41 324.33h-21.12a2.29 2.29 0 0 1-2.28-1.88 2.25 2.25 0 0 1 2.22-2.61h21.18a2.24 2.24 0 0 1 2.24 2.24 2.24 2.24 0 0 1-2.24 2.25zM267.82 324.33h-23.25a2.29 2.29 0 0 1-2.28-1.88 2.25 2.25 0 0 1 2.22-2.61h23.31a2.24 2.24 0 0 1 2.25 2.24 2.25 2.25 0 0 1-2.25 2.25zM296.41 335.52h-9.1a2.29 2.29 0 0 1-2.28-1.88 2.26 2.26 0 0 1 2.22-2.62h9.09a2.28 2.28 0 0 1 2.28 1.88 2.24 2.24 0 0 1-2.21 2.62zM281.17 333.64a2.29 2.29 0 0 1-2.28 1.88h-34.32a2.29 2.29 0 0 1-2.28-1.88 2.26 2.26 0 0 1 2.22-2.62H279a2.26 2.26 0 0 1 2.17 2.62zM244.54 342.21h4.56a2.29 2.29 0 0 1 2.28 1.88 2.26 2.26 0 0 1-2.22 2.62h-4.62a2.25 2.25 0 0 1-2.25-2.25 2.25 2.25 0 0 1 2.25-2.25zM298.65 344.46a2.24 2.24 0 0 1-2.24 2.25h-39a2.25 2.25 0 0 1-2.25-2.25 2.25 2.25 0 0 1 2.25-2.25h39a2.24 2.24 0 0 1 2.24 2.25z" transform="translate(-60.37 -65.18)"/><path class="cls-20" d="M293.92 367.23H184.4a4.74 4.74 0 0 1-4.74-4.74 4.74 4.74 0 0 1 4.74-4.73h109.52a4.73 4.73 0 0 1 4.73 4.73 4.74 4.74 0 0 1-4.73 4.74zM227 382h-2.7a2.35 2.35 0 0 1-2.29-2 2.39 2.39 0 0 1 2.22-2.84H227a2.34 2.34 0 0 1 2.28 2A2.39 2.39 0 0 1 227 382zM253.71 382h-19.79a2.34 2.34 0 0 1-2.28-2 2.39 2.39 0 0 1 2.22-2.84h19.79a2.36 2.36 0 0 1 2.29 2 2.39 2.39 0 0 1-2.23 2.84zM218.62 380a2.34 2.34 0 0 1-2.28 2H182a2.35 2.35 0 0 1-2.28-2 2.39 2.39 0 0 1 2.22-2.84h34.46a2.39 2.39 0 0 1 2.22 2.84zM298.62 380a2.34 2.34 0 0 1-2.28 2h-36.62a2.34 2.34 0 0 1-2.28-2 2.38 2.38 0 0 1 2.22-2.84h36.74a2.38 2.38 0 0 1 2.22 2.84zM181.94 387.28h4.56a2.35 2.35 0 0 1 2.29 2 2.38 2.38 0 0 1-2.22 2.83h-4.63a2.35 2.35 0 0 1-2.25-2.43 2.35 2.35 0 0 1 2.25-2.4zM246.77 387.28h49.57a2.34 2.34 0 0 1 2.28 2 2.37 2.37 0 0 1-2.22 2.83h-49.63a2.34 2.34 0 0 1-2.24-2.43 2.34 2.34 0 0 1 2.24-2.4zM241.41 389.72a2.35 2.35 0 0 1-2.25 2.43h-44.28a2.35 2.35 0 0 1-2.25-2.43 2.35 2.35 0 0 1 2.25-2.44h44.28a2.35 2.35 0 0 1 2.25 2.44z" transform="translate(-60.37 -65.18)"/><path class="cls-19" d="M359 249.66h-24.44a5.09 5.09 0 0 1-5.09-5.09 5.09 5.09 0 0 1 5.09-5.09H359a5.09 5.09 0 0 1 5.1 5.09 5.09 5.09 0 0 1-5.1 5.09zM460 249.66h-8.24a5.09 5.09 0 0 1-5.09-5.09 5.09 5.09 0 0 1 5.09-5.09H460a5.09 5.09 0 0 1 5.09 5.09 5.09 5.09 0 0 1-5.09 5.09zM435.62 249.66h-43.14a5.09 5.09 0 0 1-5.09-5.09 5.09 5.09 0 0 1 5.09-5.09h43.14a5.09 5.09 0 0 1 5.09 5.09 5.09 5.09 0 0 1-5.09 5.09zM375.2 249.66a5.09 5.09 0 0 1-5.1-5.09 5.09 5.09 0 0 1 5.1-5.09 5.09 5.09 0 0 1 5.09 5.09 5.09 5.09 0 0 1-5.09 5.09z" transform="translate(-60.37 -65.18)"/><rect class="cls-19" x="269.1" y="192.37" width="192.53" height="86.91" rx="2.91"/><rect class="cls-10" x="269.1" y="284.01" width="65.22" height="13.21" rx="1.97"/><rect class="cls-10" x="341.66" y="284.01" width="65.22" height="13.21" rx="1.97"/><rect class="cls-19" x="269.1" y="303.08" width="65.22" height="25.4" rx="1.97"/><rect class="cls-19" x="341.66" y="303.08" width="65.22" height="25.4" rx="1.97"/><path class="cls-24" d="M388 378.61h-21.08a2.29 2.29 0 0 1-2.29-1.88 2.25 2.25 0 0 1 2.22-2.62H388a2.24 2.24 0 0 1 2.24 2.25 2.24 2.24 0 0 1-2.24 2.25zM359.44 378.61h-23.25a2.3 2.3 0 0 1-2.28-1.88 2.25 2.25 0 0 1 2.22-2.62h23.31a2.25 2.25 0 0 1 2.25 2.25 2.25 2.25 0 0 1-2.25 2.25zM388 387.79h-9.09a2.29 2.29 0 0 1-2.29-1.87 2.25 2.25 0 0 1 2.22-2.62H388a2.29 2.29 0 0 1 2.28 1.88 2.25 2.25 0 0 1-2.28 2.61zM372.79 385.92a2.29 2.29 0 0 1-2.28 1.87h-34.32a2.29 2.29 0 0 1-2.28-1.87 2.25 2.25 0 0 1 2.22-2.62h34.44a2.25 2.25 0 0 1 2.22 2.62zM408.69 383.3h21.11a2.28 2.28 0 0 1 2.28 1.88 2.24 2.24 0 0 1-2.21 2.61h-21.18a2.24 2.24 0 0 1-2.25-2.24 2.25 2.25 0 0 1 2.25-2.25zM437.28 383.3h23.24a2.28 2.28 0 0 1 2.28 1.88 2.24 2.24 0 0 1-2.21 2.61h-23.31a2.24 2.24 0 0 1-2.25-2.24 2.25 2.25 0 0 1 2.25-2.25zM408.69 374.11h9.09a2.28 2.28 0 0 1 2.28 1.88 2.25 2.25 0 0 1-2.21 2.62h-9.1a2.3 2.3 0 0 1-2.28-1.88 2.25 2.25 0 0 1 2.22-2.62zM423.93 376a2.28 2.28 0 0 1 2.28-1.88h34.31a2.28 2.28 0 0 1 2.28 1.88 2.25 2.25 0 0 1-2.21 2.62h-34.44a2.26 2.26 0 0 1-2.22-2.62z" transform="translate(-60.37 -65.18)"/><path class="cls-21" d="m426.84 301 7.8-9.49 6.89 5.4 1.21-6 8.65 4.83.79-3.29-14.35-14a2.3 2.3 0 0 0-3.22 0l-16.11 16.16 11-4.12z" transform="translate(-60.37 -65.18)"/><path class="cls-24" d="m445.02 279.28-53.21-51.96-.78 3.29-8.65-4.83-1.21 5.95-6.9-5.39-7.8 9.49 2.7-10.52-11.04 4.13-49.85 49.84h136.74z"/><path style="fill:#5a71b6" d="m435.2 214.25-1.34 5.03-5.16-3.42-3.13 5.73-2.73-3.63-5.44 4.75-1.12-3.21-7.32 2.27-29.03 29.03 81.7-5.3v-4.82l-26.43-26.43z"/><path class="cls-21" d="m477.77 287.89 5.44-4.75 2.73 3.63 3.13-5.74 5.16 3.43 1.34-5-7.74-7.74a2.28 2.28 0 0 0-3.24 0L469.33 287l7.32-2.27z" transform="translate(-60.37 -65.18)"/><path d="M445.86 406.2a4.15 4.15 0 0 0 4.15 3.91h72.66a4.15 4.15 0 0 0 4.15-3.94L531 326.4h-90.1z" transform="translate(-60.37 -65.18)" style="fill:#7553a2"/><path style="fill:#744c9e" d="m379.93 250.8.64 10.42h90.1l.55-10.42h-91.29z"/><rect class="cls-2" x="371.67" y="241.45" width="107.82" height="13.49" rx="4.07"/><circle cx="404.87" cy="249.05" r="4.09" style="fill:#4b2b82"/><path d="M465.31 313.38a2.48 2.48 0 0 0-2.49 2.48v38.87a12.48 12.48 0 0 1-11.63 12.58 12.25 12.25 0 0 1-12.86-12.23v-35h-2.26a4 4 0 0 1-2.71-1.06v35.6a17.5 17.5 0 0 0 16.55 17.63 17.23 17.23 0 0 0 17.88-17.21v-39.18a2.48 2.48 0 0 0-2.48-2.48z" transform="translate(-60.37 -65.18)" style="fill:#5f3494"/><rect class="cls-18" x="501.68" y="381.22" width="7.41" height="7.41" rx="3.47" transform="rotate(90 507.79 322.15)"/><path class="cls-30" d="M463.55 254.94h-51.88V261.22h51.88V254.94z"/><path class="cls-18" d="M472 330.75v31.86a3.71 3.71 0 1 0 7.41 0v-20a3.71 3.71 0 0 1 7.42 0V375a3.71 3.71 0 1 0 7.41 0v-11.62a3.71 3.71 0 0 1 7.41 0V375a3.71 3.71 0 1 0 7.41 0v-29a3.71 3.71 0 1 1 7.41 0v4.22a3.71 3.71 0 0 0 7.41 0V326.4H472z" transform="translate(-60.37 -65.18)"/><path class="cls-18" d="M411.67 241.45h51.88v13.49h-51.88z"/><path class="cls-21" d="M414 313.61a5.76 5.76 0 0 0-8.13-5.24 6.06 6.06 0 0 0-11.24 2.83h-.22a4.1 4.1 0 0 0-4.09 4.09 4.1 4.1 0 0 0 4.09 4.08h14.73c1.52 0 4.86-.6 4.86-5.76zM344.83 326.51a2 2 0 1 0-.51 4h17a3.08 3.08 0 0 0 0-6.16h-.33v-.07a6.11 6.11 0 0 0-11.88-2 4.27 4.27 0 0 0-1.86-.42 4.57 4.57 0 0 0-2.53.66 3.27 3.27 0 0 0-1.4 2.65 2.57 2.57 0 0 0 .42 1.72z" transform="translate(-60.37 -65.18)"/><path class="cls-21" d="M408.46 320.43a1.3 1.3 0 1 0-.33 2.57h10.95a2 2 0 0 0 0-4h-.22a3.94 3.94 0 0 0-7.66-1.29 2.68 2.68 0 0 0-1.2-.28 2.93 2.93 0 0 0-1.63.43 2.12 2.12 0 0 0-.9 1.71 1.65 1.65 0 0 0 .27 1.11zM369.7 280.36a1.3 1.3 0 1 0-.33 2.57h10.95a2 2 0 0 0 0-4h-.22v-.05a3.94 3.94 0 0 0-7.66-1.29 2.82 2.82 0 0 0-1.2-.27 3 3 0 0 0-1.63.42 2.15 2.15 0 0 0-.9 1.71 1.64 1.64 0 0 0 .27 1.11z" transform="translate(-60.37 -65.18)"/><path style="fill:#8580bd" d="M113.39 210.57h79.33v7.02h-79.33z"/><path class="cls-32" d="M113.39 217.59h79.33v5.11a10.16 10.16 0 0 1-10.16 10.16h-59a10.16 10.16 0 0 1-10.16-10.16v-5.11z"/><path class="cls-30" d="M162.85 240.66h-18.29l-3.61 34.33h25.52l-3.62-34.33z"/><path style="fill:#403b97" d="M162.03 232.85h-16.64l-.83 7.81h18.29l-.82-7.81z"/><path class="cls-32" d="m227.78 349.12-.94-8.95h-25.53l-.94 8.95a13.78 13.78 0 1 0 27.41 0zm-13.7 6.81a4.49 4.49 0 1 1 4.49-4.49 4.49 4.49 0 0 1-4.49 4.49z" transform="translate(-60.37 -65.18)"/><path d="m238.52 222-5.59 2.14-5.59-2.14h-18.73l-5.85 4.74L197 222h-21a2.24 2.24 0 0 0-2.24 2.24v51.52h79.33v-51.54a2.24 2.24 0 0 0-2.24-2.24z" transform="translate(-60.37 -65.18)" style="fill:#dfe6f4"/><path class="cls-35" d="M186.63 275.74h-5.57v-17.42a2.79 2.79 0 0 1 2.79-2.79 2.79 2.79 0 0 1 2.78 2.79zM183.85 251.21a2.78 2.78 0 0 1-2.79-2.78v-6.58a2.78 2.78 0 0 1 2.79-2.78 2.78 2.78 0 0 1 2.78 2.78v6.58a2.78 2.78 0 0 1-2.78 2.78zM245.77 275.74h-5.56v-17.42a2.78 2.78 0 0 1 2.78-2.79 2.78 2.78 0 0 1 2.78 2.79zM243 251.21a2.77 2.77 0 0 1-2.78-2.78v-6.58a2.77 2.77 0 0 1 2.78-2.78 2.77 2.77 0 0 1 2.78 2.78v6.58a2.77 2.77 0 0 1-2.78 2.78zM216.2 275.74h-5.57v-29.21a2.78 2.78 0 0 1 2.79-2.78 2.77 2.77 0 0 1 2.78 2.78z" transform="translate(-60.37 -65.18)"/><path class="cls-35" d="M138.26 200.87a2.78 2.78 0 0 1 2.78 2.78v6.91h-5.57v-6.91a2.78 2.78 0 0 1 2.78-2.78z"/><path class="cls-35" d="M198.63 261.73a2.78 2.78 0 0 1-2.78-2.79v-6.57a2.78 2.78 0 0 1 2.78-2.79 2.79 2.79 0 0 1 2.79 2.79v6.57a2.79 2.79 0 0 1-2.79 2.79zM231 275.74h-5.57v-6.91a2.79 2.79 0 0 1 2.78-2.78 2.79 2.79 0 0 1 2.79 2.78zM228.2 261.73a2.79 2.79 0 0 1-2.78-2.79v-6.57a2.79 2.79 0 0 1 2.78-2.79 2.79 2.79 0 0 1 2.79 2.79v6.57a2.79 2.79 0 0 1-2.79 2.79z" transform="translate(-60.37 -65.18)"/></svg>