<svg viewBox="0 0 652 575" xmlns="http://www.w3.org/2000/svg"><path d="m56.3 486c-8.1 0-15.3-7.1-15.3-15.3v-152c0-8.1 7.1-15.3 15.3-15.3h87.4c8.4 0 15.3 6.8 15.3 15.3v152.1c0 8.4-6.8 15.3-15.3 15.3h-87.4zm81.8-36.9v-119.5h-76.3v119.5z" fill="#5f3594"/><path d="m143.6 308.4c5.4 0 10.3 4.3 10.3 10.3v152.1c0 5.4-4.3 10.3-10.3 10.3h-87.3c-5.4 0-10.3-4.9-10.3-10.3v-152.1c0-5.4 4.9-10.3 10.3-10.3zm-86.8 145.7h86.3v-129.5h-86.3zm42.1 17.8c2.7 0 4.3-1.6 4.3-4.3s-1.6-4.3-4.3-4.3-4.3 2.2-4.3 4.3c-.1 2.6 2.1 4.3 4.3 4.3m44.7-173.5h-87.3c-11 0-20.3 9.3-20.3 20.3v152.1c0 11 9.3 20.3 20.3 20.3h87.4c11.2 0 20.3-9.1 20.3-20.3v-152.1c-.1-11.2-9.2-20.3-20.4-20.3zm-76.8 36.2h66.3v109.5h-66.3z" fill="#fff"/><path d="m89 291.6c-2.8 0-5-2.2-5-5v-155.4c0-20.1 16.4-36.5 36.5-36.5h353.2c20.1 0 36.5 16.4 36.5 36.5v85.3c0 2.8-2.2 5-5 5h-21.9c-2.8 0-5-2.2-5-5v-85.3c0-2.6-2.1-4.7-4.7-4.7h-353.1c-2.6 0-4.7 2.1-4.7 4.7v155.4c0 1.3-.5 2.6-1.5 3.5-.9.9-2.2 1.5-3.5 1.5z" fill="#5f3594"/><path d="m473.7 99.6c17.4 0 31.5 14.2 31.5 31.5v85.3h-21.9v-85.3c0-5.3-4.3-9.7-9.7-9.7h-353.1c-5.3 0-9.7 4.3-9.7 9.7v155.4h-21.8v-155.3c0-17.4 14.1-31.5 31.5-31.5zm0-10h-353.2c-22.9 0-41.5 18.6-41.5 41.5v155.4c0 5.5 4.5 10 10 10h21.9c2.7 0 5.2-1.1 7.1-2.9 1.9-1.9 2.9-4.4 2.9-7.1v-155.1h352.5v85c0 5.5 4.5 10 10 10h21.9c5.5 0 10-4.5 10-10v-85.3c-.1-22.8-18.7-41.5-41.6-41.5z" fill="#fff"/><path d="m435.5 486c-12 0-21.7-9.7-21.7-21.7v-209.3c0-12 9.7-21.7 21.7-21.7h133.8c12 0 21.7 9.7 21.7 21.7v209.3c0 12-9.7 21.7-21.7 21.7zm127.7-42.3v-178.8h-123.2v178.8z" fill="#5f3594"/><path d="m569.3 238.3c9.2 0 16.7 7.6 16.7 16.7v209.3c0 9.2-7.6 16.7-16.7 16.7h-133.8c-9.2 0-16.7-7.6-16.7-16.7v-209.3c0-9.2 7.6-16.7 16.7-16.7zm-134.3 210.4h133.3v-188.8h-133.3zm67.9 22.1c2.2 0 4.3-2.2 4.3-4.3 0-2.7-2.2-4.3-4.3-4.3-2.7 0-4.3 2.2-4.3 4.3 0 2.7 2.2 4.3 4.3 4.3m66.4-242.5h-133.8c-14.7 0-26.7 12-26.7 26.7v209.3c0 14.7 12 26.7 26.7 26.7h133.8c14.7 0 26.7-12 26.7-26.7v-209.3c0-14.7-12-26.7-26.7-26.7zm-124.3 41.6h113.3v168.8h-113.3z" fill="#fff"/><path d="m186.2 460.7c-8.4 0-15.2-6.8-15.2-15.2s6.8-15.2 15.2-15.2h39.3l11.3-32.3c.7-2 2.6-3.3 4.7-3.3h111.2c2.1 0 4 1.3 4.7 3.3l11.4 32.3h28.2c2.8 0 5 2.2 5 5v20.4c0 2.8-2.2 5-5 5z" fill="#5f3594"/><path d="m352.7 399.6 12.5 35.6h31.7v20.4h-210.7c-5.7 0-10.2-4.6-10.2-10.2 0-5.7 4.6-10.2 10.2-10.2h42.8l12.5-35.6zm0-10h-111.2c-4.2 0-8 2.7-9.4 6.7l-10.1 28.9h-35.8c-11.2 0-20.2 9.1-20.2 20.2s9.1 20.2 20.2 20.2h210.8c5.5 0 10-4.5 10-10v-20.4c0-5.5-4.5-10-10-10h-24.6l-10.2-28.9c-1.5-4-5.2-6.7-9.5-6.7z" fill="#fff"/><path d="m175.8 390.1c-2.8 0-5-2.2-5-5v-66.4c0-.3-.1-.7-.1-1-.1-1.4.4-2.7 1.4-3.7s2.3-1.6 3.6-1.6h221.3c2.8 0 5 2.2 5 5v67.7c0 2.8-2.2 5-5 5zm120.3-46.4c-4.2 0-7.6 3.4-7.6 7.6s3.4 7.6 7.6 7.6 7.6-3.4 7.6-7.6-3.4-7.6-7.6-7.6z" fill="#5f3594"/><path d="m396.9 317.4v67.7h-221.1v-66.5c0-.4-.1-.8-.1-1.2zm-100.8 46.5c6.9 0 12.6-5.6 12.6-12.6 0-6.9-5.6-12.6-12.6-12.6-6.9 0-12.6 5.7-12.6 12.6s5.7 12.6 12.6 12.6m100.8-56.5h-221.3c-2.7 0-5.4 1.1-7.2 3.1-1.9 2-2.9 4.7-2.7 7.4 0 .5.1.9.1 1.2v66c0 5.5 4.5 10 10 10h221.2c5.5 0 10-4.5 10-10v-67.7c-.1-5.5-4.6-10-10.1-10zm-100.8 46.5c-1.4 0-2.6-1.2-2.6-2.6s1.2-2.6 2.6-2.6 2.6 1.2 2.6 2.6-1.2 2.6-2.6 2.6z" fill="#fff"/></svg>