<svg id="Layer_16" data-name="Layer 16" xmlns="http://www.w3.org/2000/svg" xmlns:xlink="http://www.w3.org/1999/xlink" viewBox="0 0 554.55 453.64"><defs><style>.cls-1{fill:#f5982d;}.cls-2{fill:#a5def5;}.cls-3{fill:#7e61aa;}.cls-4{fill:#79d1f1;}.cls-5{fill:#6695ce;}.cls-6{fill:#f4b027;}.cls-7{fill:#fff;}.cls-8{fill:#e4d7ea;}.cls-9{fill:#5986c5;}.cls-10{clip-path:url(#clip-path);}.cls-11{fill:#f4792c;}.cls-12,.cls-26{fill:#5f3494;}.cls-13{clip-path:url(#clip-path-2);}.cls-14{fill:#ed2480;}.cls-15{clip-path:url(#clip-path-3);}.cls-16{fill:#784ea0;}.cls-17{clip-path:url(#clip-path-4);}.cls-18{clip-path:url(#clip-path-5);}.cls-19{clip-path:url(#clip-path-6);}.cls-20{fill:#725ba7;}.cls-21{fill:#674199;}.cls-22{clip-path:url(#clip-path-7);}.cls-23{fill:#e9f7fe;}.cls-24{fill:#f174ac;}.cls-25{fill:#967db9;}.cls-26{font-size:40.02px;font-family:OpenSans-Extrabold, Open Sans;font-weight:800;}.cls-27{fill:#5a87c5;}.cls-28{fill:#d6effc;}</style><clipPath id="clip-path" transform="translate(-39.75 -47.28)"><path class="cls-1" d="M155.42,438a16.91,16.91,0,0,0-20.93,7,9,9,0,0,0-1.22,6.39c.53,2.15,2.58,4,4.78,3.77-3.11,2.11-5.83,5.24-6.18,9s2.53,7.85,6.28,7.72c-3.59,3.36-7.28,6.86-9.14,11.42s-1.32,10.47,2.56,13.48c3.45,2.68,8.41,2.32,12.51.83a27.73,27.73,0,0,0,17-18.38c.67,4.28,5.62,7,9.88,6.17s7.59-4.31,9.37-8.26,2.23-8.35,2.66-12.66c3.78,2.4,8.16,2.59,10.79.47,3-2.4,2.59-6.84,2.39-9.09a16.63,16.63,0,0,0-4.18-9.44c1.67.38,5.55,1,8.09-1.08,3.7-3.06,3.89-11.34-2-18.88l-21.73-7.08Z"/></clipPath><clipPath id="clip-path-2" transform="translate(-39.75 -47.28)"><path class="cls-2" d="M67.05,422.32l6.93,8-13.52-.72a122.55,122.55,0,0,0-14.81,19s36.67,27.57,73.73,20.26a131.2,131.2,0,0,0,24-7.13l6-14.64,2.15,10.9c19.2-9.78,30.79-23.39,28.32-35.9-3.66-18.5-36.67-27.57-73.73-20.25C93.14,404.38,76.28,414.94,67.05,422.32Z"/></clipPath><clipPath id="clip-path-3" transform="translate(-39.75 -47.28)"><path class="cls-3" d="M274,161.38c-1.41-7.22-2.82-14.52-2.45-21.86s2.69-14.84,7.83-20.09c2.39-2.44,5.56-4.39,9-4.31,3.58.08,6.82,2.45,8.72,5.48A22.64,22.64,0,0,1,300,130.82a72.33,72.33,0,0,1,7-15.45c2.31-3.84,5.22-7.65,9.41-9.23,6.63-2.51,14.95,2.57,15.75,9.61-.27-2.37,5.81-7.71,7.34-9.17a34.92,34.92,0,0,1,11.87-8c13.37-4.89,19.6,9,16.74,20.11a42.05,42.05,0,0,1-23.2,27.56c2.08-.61,4.35.84,5.24,2.82a9.15,9.15,0,0,1,0,6.36c-2.56,8.31-11.8,14-20.36,12.46,6.22,3.48,7,12.63,3.69,18.93a21.25,21.25,0,0,1-37.41.26Z"/></clipPath><clipPath id="clip-path-4" transform="translate(-39.75 -47.28)"><path class="cls-4" d="M312.25,79.68l-8.89,1.41L310,71.64A104.61,104.61,0,0,0,303,52.31s-36.55,14-48,44.17a111.27,111.27,0,0,0-5.71,20.57l7.85,11-8.85-3.38c-1.63,18.32,3,32.87,13.14,36.75,15,5.74,36.55-14,48-44.16C313.41,106.69,313.41,89.7,312.25,79.68Z"/></clipPath><clipPath id="clip-path-5" transform="translate(-39.75 -47.28)"><path class="cls-5" d="M503.17,290.76A32.29,32.29,0,0,1,485,267.08c-2.74-16.43,7.48-32,17.75-45.11,4.76-6.08,9.73-12.21,12.42-19.45s2.73-16-1.93-22.13A67.33,67.33,0,0,1,516.63,276Z"/></clipPath><clipPath id="clip-path-6" transform="translate(-39.75 -47.28)"><path class="cls-6" d="M551.46,280.68l-7.48-.9,7.52-6.09a87.71,87.71,0,0,0-1.25-17.16s-32.62,2.92-48.77,24.53a92.53,92.53,0,0,0-9.3,15.25L496,307l-6.35-4.74c-5.51,14.37-5.14,27.12,2.16,32.57,10.79,8.06,32.62-2.92,48.77-24.52C546.21,302.68,550.1,289,551.46,280.68Z"/></clipPath><clipPath id="clip-path-7" transform="translate(-39.75 -47.28)"><rect class="cls-7" x="141.64" y="200.68" width="342.54" height="208.01"/></clipPath></defs><path class="cls-8" d="M104.71,222.51C51.07,280.76,34.53,382.09,95.3,441.77c20.08,19.72,48,33.88,76.37,33.68,26.86-.19,53.69-5,80.49-6.62,65.87-4,131.17,12.81,197.09,9.12,40.61-2.28,85.09-15.47,115.49-44.09,27.78-26.16,34.27-59.27,26.54-92.14a145.85,145.85,0,0,0-14.58-37c-9.48-17.13-20.9-33.05-31.18-49.68-12.11-19.61-20.48-38.32-24.93-60.89-4-20.47-6.91-41.23-12.64-61.34-8.89-31.21-26-59.93-59.67-67.8-33.36-7.81-66.82,8.33-98.77,15.56-20.69,4.69-42.06,3.29-62.88.38-18.88-2.64-39.3-7-57.11,2.39-22.79,12-27.79,38.54-41.34,58.2-16.85,24.47-41.49,41.52-63.33,61.11C117.85,209,111.09,215.57,104.71,222.51Z" transform="translate(-39.75 -47.28)"/><path class="cls-9" d="M546.21,291c1.53-7.23,5.63-14.68,13.27-16.72,3.17-.84,7.89-.74,9.26,2.91,1.24,3.33-.32,7.25-2.13,10.06-2.24,3.45-5.41,6.21-8.49,8.87-1.06.91.38,2.82,1.51,2a6.73,6.73,0,0,1,7.26-.44,7.19,7.19,0,0,1,3.68,6.92c-.33,6.72-7.29,10.14-13.33,9.13-.11.82-.23,1.63-.34,2.45,6.45,0,10.76,7.13,9.38,13-1.57,6.79-8.14,11.06-14.7,12.05a34.86,34.86,0,0,1-13.92-1.13,1.25,1.25,0,0,0-.66,2.41c8.59,2.22,18.34,2.47,25.6-3.37,5.92-4.75,8.61-13.08,4.22-19.77a12,12,0,0,0-9.92-5.73c-1.36,0-1.76,2.22-.33,2.46a15.35,15.35,0,0,0,11.36-2.25,12,12,0,0,0,5.15-9.64,9.6,9.6,0,0,0-5.07-8.8,9.18,9.18,0,0,0-9.64.51l1.52,2c3.25-2.8,6.52-5.73,8.87-9.37,2.16-3.34,3.73-7.86,2.45-11.81-1.35-4.17-5.74-5.69-9.78-5.29a18,18,0,0,0-11.08,5.58,27.23,27.23,0,0,0-6.55,13.35c-.33,1.57,2.08,2.24,2.41.66Z" transform="translate(-39.75 -47.28)"/><path class="cls-9" d="M566.21,273.7c-8.33,4.18-13.54,12.54-16.44,21.14-3.48,10.31-4.1,21.32-7.41,31.67a40.3,40.3,0,0,1-8.05,14.9c-1.07,1.19.69,3,1.77,1.77,14.23-15.85,9.54-39.31,20.31-56.77a28.06,28.06,0,0,1,11.09-10.55c1.43-.72.17-2.88-1.27-2.16Z" transform="translate(-39.75 -47.28)"/><path class="cls-9" d="M548.75,306.8a49.14,49.14,0,0,0,11.33-2.37c3.49-1.19,7.22-2.66,10-5.09,1.22-1-.55-2.81-1.76-1.77-2.56,2.21-6.13,3.52-9.29,4.57a46.13,46.13,0,0,1-10.32,2.16c-1.58.14-1.6,2.65,0,2.5Z" transform="translate(-39.75 -47.28)"/><path class="cls-9" d="M547.54,312.47a40.92,40.92,0,0,0,24.83-9.07c1.24-1-.53-2.78-1.77-1.77A38.15,38.15,0,0,1,547.54,310c-1.6,0-1.61,2.55,0,2.5Z" transform="translate(-39.75 -47.28)"/><path class="cls-9" d="M544.7,322.5A21.43,21.43,0,0,1,535,307.38a1.28,1.28,0,0,0-1.25-1.25,1.26,1.26,0,0,0-1.25,1.25,24.14,24.14,0,0,0,10.95,17.28c1.37.86,2.62-1.3,1.27-2.16Z" transform="translate(-39.75 -47.28)"/><path class="cls-1" d="M155.42,438a16.91,16.91,0,0,0-20.93,7,9,9,0,0,0-1.22,6.39c.53,2.15,2.58,4,4.78,3.77-3.11,2.11-5.83,5.24-6.18,9s2.53,7.85,6.28,7.72c-3.59,3.36-7.28,6.86-9.14,11.42s-1.32,10.47,2.56,13.48c3.45,2.68,8.41,2.32,12.51.83a27.73,27.73,0,0,0,17-18.38c.67,4.28,5.62,7,9.88,6.17s7.59-4.31,9.37-8.26,2.23-8.35,2.66-12.66c3.78,2.4,8.16,2.59,10.79.47,3-2.4,2.59-6.84,2.39-9.09a16.63,16.63,0,0,0-4.18-9.44c1.67.38,5.55,1,8.09-1.08,3.7-3.06,3.89-11.34-2-18.88l-21.73-7.08Z" transform="translate(-39.75 -47.28)"/><g class="cls-10"><path class="cls-11" d="M130.28,500.63c11.15-9.07,19.11-21.21,26.75-33.22,3.87-6.09,7.7-12.21,11.93-18.06a142,142,0,0,1,34.82-33.83c1.28-.88.07-3-1.22-2.09a145,145,0,0,0-33.27,31.47c-8.85,11.53-15.73,24.4-24.27,36.15a93.92,93.92,0,0,1-16.44,17.87c-1.21,1,.51,2.68,1.7,1.71Z" transform="translate(-39.75 -47.28)"/><path class="cls-11" d="M142.49,485.67a10.24,10.24,0,0,0-4.06-.75c-1.5,0-3,0-4.5,0a76.93,76.93,0,0,0-9,.87,1.23,1.23,0,0,0-.85,1.49,1.24,1.24,0,0,0,1.49.84,71.47,71.47,0,0,1,8-.77c1.29-.05,2.58-.06,3.87,0a9.76,9.76,0,0,1,3.8.44,1.24,1.24,0,0,0,1.65-.43,1.22,1.22,0,0,0-.43-1.66Z" transform="translate(-39.75 -47.28)"/><path class="cls-11" d="M146.06,480.5a37.84,37.84,0,0,0-22.36-1,1.21,1.21,0,0,0,.65,2.33,35.55,35.55,0,0,1,21.06,1c1.47.53,2.1-1.8.65-2.33Z" transform="translate(-39.75 -47.28)"/><path class="cls-11" d="M159.56,460.47c-10.16-2.75-21-1.28-30.64,2.65-1.42.58-.8,2.92.64,2.33,9.26-3.78,19.59-5.29,29.36-2.65a1.21,1.21,0,0,0,.64-2.33Z" transform="translate(-39.75 -47.28)"/><path class="cls-11" d="M170.58,486.21a58,58,0,0,0-2.34-36.41c-.57-1.42-2.91-.8-2.33.64a55.82,55.82,0,0,1,2.34,35.13,1.21,1.21,0,0,0,2.33.64Z" transform="translate(-39.75 -47.28)"/><path class="cls-11" d="M175.1,486.25A66.27,66.27,0,0,0,172,444.62c-.59-1.41-2.93-.79-2.33.64a64.14,64.14,0,0,1,3.15,40.35,1.21,1.21,0,0,0,2.33.64Z" transform="translate(-39.75 -47.28)"/></g><path class="cls-12" d="M221.67,142.29c-6.94,2.54-14.12-.58-19.79-4.62-2.75-2-5.81-4.34-7.36-7.42a7.49,7.49,0,0,1,.78-7.61c1.62-2.43,4.62-4.33,7.62-3.84,2,.33,3.44-2.32,1.45-3.42a43.61,43.61,0,0,1-15.24-13.74c-3-4.52-5.94-12.38,0-16,2-1.23,4.75-1.65,6.52.23,1.43,1.51,4.2-.52,2.94-2.28-3.86-5.41-10.55-16.47-2.11-21.18a10.68,10.68,0,0,1,9.85,0,17.31,17.31,0,0,1,7.63,8.86c2.14,5.12,2.44,10.78,2.76,16.24a1.88,1.88,0,0,0,3.68.5c2-4.75,9.16-4.58,12.7-1.92,5.55,4.18,4.47,12.92,1.6,18.29-1,1.8,1.48,3.94,3,2.27a12.7,12.7,0,0,1,17.62-.89c5.39,4.86,6.38,13,3,19.31a20.7,20.7,0,0,1-8.9,8.6c-2.14,1.11-.25,4.35,1.9,3.24,7.82-4,13.63-12.55,12.63-21.58-1-8.67-7.47-16.11-16.48-16.44A15.85,15.85,0,0,0,235,104l2.95,2.27c3.18-5.94,4.22-13.83.45-19.78a13.28,13.28,0,0,0-15-5.45,10.25,10.25,0,0,0-6.66,6l3.69.5c-.6-10.19-1.91-22.65-11.92-28.16a14.65,14.65,0,0,0-12.92-.64,11.71,11.71,0,0,0-6.94,10.9c0,5.85,3.38,11.31,6.66,15.92l3-2.28c-4.81-5.1-13.33-1.32-15.58,4.46-3.15,8.08,3.12,16.79,8.46,22.28a48.85,48.85,0,0,0,11.32,8.63l1.45-3.43c-7.44-1.22-14.74,5.72-13.8,13.28.54,4.28,3.71,7.51,6.89,10.14a40.09,40.09,0,0,0,11.36,6.82,20.56,20.56,0,0,0,14.29.48c2.25-.82,1.28-4.45-1-3.62Z" transform="translate(-39.75 -47.28)"/><path class="cls-12" d="M239.35,143.83c-9.12-7.9-16.51-17.79-19.87-29.49-1.69-5.89-2.9-11.9-4.92-17.71-1.76-5-4.16-9.84-6.3-14.74a207.37,207.37,0,0,1-7.74-21.25c-.71-2.29-4.33-1.31-3.61,1,2,6.51,4.26,13,6.89,19.28,2.12,5.08,4.65,10,6.58,15.14,2.2,5.91,3.53,12,5.17,18.12a58.84,58.84,0,0,0,6,14.47,71.59,71.59,0,0,0,15.12,17.83c1.81,1.58,4.48-1.06,2.65-2.65Z" transform="translate(-39.75 -47.28)"/><path class="cls-12" d="M217.24,111.7a1.5,1.5,0,0,1-1.27-2.29l15.58-24.82a1.5,1.5,0,1,1,2.54,1.6L218.51,111A1.49,1.49,0,0,1,217.24,111.7Z" transform="translate(-39.75 -47.28)"/><path class="cls-12" d="M228.27,136.4a1.48,1.48,0,0,1-.8-.23,1.5,1.5,0,0,1-.47-2.07l21-33.4a1.5,1.5,0,0,1,2.54,1.6l-21,33.4A1.49,1.49,0,0,1,228.27,136.4Z" transform="translate(-39.75 -47.28)"/><path class="cls-12" d="M233.37,142.29a1.57,1.57,0,0,1-.8-.23,1.5,1.5,0,0,1-.47-2.07l22.37-35.62A1.5,1.5,0,1,1,257,106l-22.37,35.61A1.48,1.48,0,0,1,233.37,142.29Z" transform="translate(-39.75 -47.28)"/><path class="cls-12" d="M212.64,100.52a1.48,1.48,0,0,1-.51-.09l-27.62-10a1.5,1.5,0,0,1,1-2.82l27.62,10a1.5,1.5,0,0,1-.51,2.91Z" transform="translate(-39.75 -47.28)"/><path class="cls-2" d="M67.05,422.32l6.93,8-13.52-.72a122.55,122.55,0,0,0-14.81,19s36.67,27.57,73.73,20.26a131.2,131.2,0,0,0,24-7.13l6-14.64,2.15,10.9c19.2-9.78,30.79-23.39,28.32-35.9-3.66-18.5-36.67-27.57-73.73-20.25C93.14,404.38,76.28,414.94,67.05,422.32Z" transform="translate(-39.75 -47.28)"/><g class="cls-13"><rect class="cls-9" x="38.7" y="434.3" width="142.52" height="3.14" transform="translate(-122.11 -17.72) rotate(-11.17)"/><rect class="cls-9" x="88.73" y="398.52" width="3.14" height="45.96" transform="translate(-330.29 172.28) rotate(-49.97)"/><rect class="cls-9" x="100.86" y="396.13" width="3.14" height="45.96" transform="translate(-324.13 180.72) rotate(-49.97)"/><rect class="cls-9" x="149.84" y="386.46" width="3.14" height="45.96" transform="translate(-299.24 214.77) rotate(-49.97)"/><rect class="cls-9" x="110.52" y="449.58" width="44.57" height="3.14" transform="translate(-376.99 388.72) rotate(-71.75)"/><rect class="cls-9" x="103.64" y="450.94" width="44.57" height="3.14" transform="translate(-383 383.13) rotate(-71.75)"/><rect class="cls-9" x="53.61" y="460.82" width="44.57" height="3.14" transform="translate(-426.75 342.4) rotate(-71.75)"/></g><path class="cls-14" d="M92.26,283.26a1.93,1.93,0,0,1-.53-.07,2,2,0,0,1-1.4-2.46c.73-2.67,1.54-5.21,2.49-7.78a2,2,0,0,1,3.75,1.38c-.9,2.46-1.68,4.9-2.38,7.46A2,2,0,0,1,92.26,283.26Z" transform="translate(-39.75 -47.28)"/><path class="cls-14" d="M110.76,366a2,2,0,0,1-1.48-.65,81,81,0,0,1-9-12.08,2,2,0,0,1,3.41-2.09,76.45,76.45,0,0,0,8.6,11.47,2,2,0,0,1-1.48,3.35ZM95.33,341.07a2,2,0,0,1-1.85-1.26c-1-2.49-1.71-4.56-2.27-6.26-.87-2.65-1.62-5.38-2.23-8.1a2,2,0,1,1,3.9-.87c.58,2.59,1.3,5.19,2.13,7.72.54,1.64,1.22,3.63,2.18,6a2,2,0,0,1-1.86,2.75ZM89,312.43a2,2,0,0,1-2-1.91c-.07-1.44-.1-2.91-.1-4.37a95.65,95.65,0,0,1,.61-10.66,2,2,0,0,1,4,.45,90.15,90.15,0,0,0-.59,10.21c0,1.39,0,2.8.1,4.18a2,2,0,0,1-1.9,2.09Z" transform="translate(-39.75 -47.28)"/><path class="cls-14" d="M128.42,380.18a2,2,0,0,1-1-.27,74.35,74.35,0,0,1-6.89-4.46,2,2,0,0,1,2.35-3.24,70,70,0,0,0,6.53,4.23,2,2,0,0,1-1,3.74Z" transform="translate(-39.75 -47.28)"/><path class="cls-14" d="M363,128.92a2,2,0,0,1-.35-4c2.65-.47,5.31-.81,8.13-1a2,2,0,1,1,.31,4c-2.69.21-5.22.53-7.74,1A2.07,2.07,0,0,1,363,128.92Z" transform="translate(-39.75 -47.28)"/><path class="cls-14" d="M450.41,166.45a2,2,0,0,1-1.68-.9,84.4,84.4,0,0,0-9.33-11.87,2,2,0,0,1,2.91-2.75,89.59,89.59,0,0,1,9.77,12.43,2,2,0,0,1-1.67,3.09Zm-21.13-22.37a2,2,0,0,1-1.18-.39c-1-.75-2.08-1.48-3.14-2.19a83.86,83.86,0,0,0-9.79-5.57,2,2,0,1,1,1.73-3.6,86.13,86.13,0,0,1,10.27,5.84c1.11.74,2.22,1.51,3.29,2.29a2,2,0,0,1-1.18,3.62Zm-27.73-13.34a1.86,1.86,0,0,1-.52-.07A87.5,87.5,0,0,0,386.16,128a2,2,0,1,1,.36-4,91.48,91.48,0,0,1,15.56,2.78,2,2,0,0,1-.53,3.93Z" transform="translate(-39.75 -47.28)"/><path class="cls-14" d="M460.51,187.59a2,2,0,0,1-1.91-1.39c-.79-2.48-1.69-4.87-2.73-7.31a2,2,0,1,1,3.67-1.58c1.1,2.56,2,5.07,2.87,7.67a2,2,0,0,1-1.29,2.51A1.9,1.9,0,0,1,460.51,187.59Z" transform="translate(-39.75 -47.28)"/><path class="cls-3" d="M274,161.38c-1.41-7.22-2.82-14.52-2.45-21.86s2.69-14.84,7.83-20.09c2.39-2.44,5.56-4.39,9-4.31,3.58.08,6.82,2.45,8.72,5.48A22.64,22.64,0,0,1,300,130.82a72.33,72.33,0,0,1,7-15.45c2.31-3.84,5.22-7.65,9.41-9.23,6.63-2.51,14.95,2.57,15.75,9.61-.27-2.37,5.81-7.71,7.34-9.17a34.92,34.92,0,0,1,11.87-8c13.37-4.89,19.6,9,16.74,20.11a42.05,42.05,0,0,1-23.2,27.56c2.08-.61,4.35.84,5.24,2.82a9.15,9.15,0,0,1,0,6.36c-2.56,8.31-11.8,14-20.36,12.46,6.22,3.48,7,12.63,3.69,18.93a21.25,21.25,0,0,1-37.41.26Z" transform="translate(-39.75 -47.28)"/><g class="cls-15"><path class="cls-16" d="M364.23,93.68c-2.18,7.93-6.55,14.92-11.62,21.32s-10.84,12.62-16.5,18.68C325.53,145,314.16,156,301.61,165.12a99.5,99.5,0,0,1-21.82,12.34c-1.47.59-.47,2.83,1,2.25,14.15-5.64,26.35-15.06,37.57-25.18a347.31,347.31,0,0,0,34.35-35.75c6-7.19,11.31-15.12,13.82-24.22.42-1.52-1.88-2.41-2.3-.88Z" transform="translate(-39.75 -47.28)"/><rect class="cls-16" x="328.41" y="113.39" width="30.21" height="2.95" transform="translate(140.36 390.85) rotate(-81.67)"/><rect class="cls-16" x="319.09" y="122.36" width="31.25" height="2.95" transform="matrix(0.14, -0.99, 0.99, 0.14, 123.97, 389.81)"/><polygon class="cls-16" points="280.36 57.97 272.31 111.81 269.12 113.13 277.44 57.55 280.36 57.97"/><polygon class="cls-16" points="273.09 59.64 264.35 118.07 261.2 119.17 269.48 63.8 273.09 59.64"/><rect class="cls-16" x="332.79" y="137.02" width="2.95" height="37.49" transform="translate(132.48 439.76) rotate(-88.92)"/><polygon class="cls-16" points="310.4 113.09 310.35 116.04 267.92 115.25 269.49 112.32 310.4 113.09"/></g><path class="cls-4" d="M312.25,79.68l-8.89,1.41L310,71.64A104.61,104.61,0,0,0,303,52.31s-36.55,14-48,44.17a111.27,111.27,0,0,0-5.71,20.57l7.85,11-8.85-3.38c-1.63,18.32,3,32.87,13.14,36.75,15,5.74,36.55-14,48-44.16C313.41,106.69,313.41,89.7,312.25,79.68Z" transform="translate(-39.75 -47.28)"/><g class="cls-17"><rect class="cls-2" x="222.19" y="103.25" width="121.64" height="2.68" transform="translate(44.68 284.46) rotate(-69.12)"/><rect class="cls-2" x="282.7" y="95.53" width="39.22" height="2.68" transform="translate(-54.89 50.46) rotate(-17.92)"/><rect class="cls-2" x="278.94" y="105.39" width="39.22" height="2.68" transform="matrix(0.95, -0.31, 0.31, 0.95, -58.11, 49.78)"/><rect class="cls-2" x="263.75" y="145.21" width="39.22" height="2.68" transform="translate(-71.1 47.03) rotate(-17.92)"/><rect class="cls-2" x="260.28" y="95.17" width="2.68" height="38.04" transform="translate(-52.36 146.17) rotate(-39.7)"/><rect class="cls-2" x="262.41" y="89.58" width="2.68" height="38.04" transform="translate(-48.3 146.24) rotate(-39.7)"/><rect class="cls-2" x="277.92" y="48.91" width="2.68" height="38.04" transform="translate(-18.74 146.77) rotate(-39.7)"/></g><path class="cls-5" d="M503.17,290.76A32.29,32.29,0,0,1,485,267.08c-2.74-16.43,7.48-32,17.75-45.11,4.76-6.08,9.73-12.21,12.42-19.45s2.73-16-1.93-22.13A67.33,67.33,0,0,1,516.63,276Z" transform="translate(-39.75 -47.28)"/><g class="cls-18"><path class="cls-9" d="M508.8,179.25c13.63,10.13,17.69,29,14.86,45a49.08,49.08,0,0,1-3.54,11.6,85,85,0,0,1-7.3,12.2,72.68,72.68,0,0,0-7.43,13.06,46.22,46.22,0,0,0-3.13,13.51c-.82,10.36,1.82,21.17,8.95,29,1.06,1.16,3-.36,1.91-1.52-6.47-7.08-9.05-16.75-8.5-26.19a43.93,43.93,0,0,1,3-13.85,72.23,72.23,0,0,1,7.46-13,83.86,83.86,0,0,0,7.27-12.23A51.26,51.26,0,0,0,526,225.21a56.28,56.28,0,0,0-.9-25.13c-2.43-9-7.29-17.21-14.81-22.79a1.22,1.22,0,0,0-1.45,2Z" transform="translate(-39.75 -47.28)"/><path class="cls-9" d="M536.81,220.82a48.17,48.17,0,0,1-13.3,7.87c-1.47.57-.5,2.81,1,2.24a50.43,50.43,0,0,0,13.86-8.2c1.2-1-.32-2.92-1.53-1.91Z" transform="translate(-39.75 -47.28)"/><path class="cls-9" d="M538.41,226.73a69.94,69.94,0,0,1-17.33,8.88c-1.48.52-.51,2.76,1,2.25a72.26,72.26,0,0,0,17.89-9.23c1.28-.9-.24-2.81-1.53-1.9Z" transform="translate(-39.75 -47.28)"/><path class="cls-9" d="M498.63,220A59,59,0,0,0,508,256.79c.86,1.31,2.76-.22,1.91-1.53a56.2,56.2,0,0,1-8.8-34.94c.12-1.56-2.3-1.86-2.43-.29Z" transform="translate(-39.75 -47.28)"/><path class="cls-9" d="M513.8,201.27a58.83,58.83,0,0,0,10.71,18.09c1,1.19,2.94-.33,1.9-1.52a56.67,56.67,0,0,1-10.36-17.54c-.55-1.48-2.8-.5-2.25,1Z" transform="translate(-39.75 -47.28)"/><path class="cls-9" d="M493.22,226.17a59,59,0,0,0,11.23,36.23c.93,1.27,2.84-.26,1.91-1.53a56.21,56.21,0,0,1-10.72-34.4c.05-1.56-2.38-1.87-2.42-.3Z" transform="translate(-39.75 -47.28)"/></g><path class="cls-6" d="M551.46,280.68l-7.48-.9,7.52-6.09a87.71,87.71,0,0,0-1.25-17.16s-32.62,2.92-48.77,24.53a92.53,92.53,0,0,0-9.3,15.25L496,307l-6.35-4.74c-5.51,14.37-5.14,27.12,2.16,32.57,10.79,8.06,32.62-2.92,48.77-24.52C546.21,302.68,550.1,289,551.46,280.68Z" transform="translate(-39.75 -47.28)"/><g class="cls-19"><rect class="cls-1" x="471.35" y="292.91" width="101.76" height="2.24" transform="translate(-65.65 489.07) rotate(-53.23)"/><rect class="cls-1" x="523.12" y="291.12" width="32.81" height="2.24" transform="translate(-49.78 -27.96) rotate(-2.03)"/><rect class="cls-1" x="517.84" y="298.19" width="32.81" height="2.24" transform="translate(-50.03 -28.14) rotate(-2.03)"/><rect class="cls-1" x="496.5" y="326.74" width="32.81" height="2.24" transform="matrix(1, -0.04, 0.04, 1, -51.06, -28.88)"/><rect class="cls-1" x="501.7" y="280.94" width="2.24" height="31.82" transform="matrix(0.91, -0.4, 0.4, 0.91, -116.8, 180.98)"/><rect class="cls-1" x="504.69" y="276.93" width="2.24" height="31.82" transform="translate(-114.92 181.85) rotate(-23.81)"/><rect class="cls-1" x="526.49" y="247.76" width="2.24" height="31.82" transform="translate(-101.29 188.16) rotate(-23.81)"/></g><path class="cls-20" d="M509.39,439.11h-393a9.26,9.26,0,0,1-8.63-5.93l-6.26-16.3H524.29L518,433.18A9.24,9.24,0,0,1,509.39,439.11Z" transform="translate(-39.75 -47.28)"/><path class="cls-21" d="M230.4,369.6h85.52a0,0,0,0,1,0,0v7.49a3.62,3.62,0,0,1-3.62,3.62H234a3.62,3.62,0,0,1-3.62-3.62V369.6a0,0,0,0,1,0,0Z"/><path class="cls-12" d="M100.25,135.12H446.07a13.19,13.19,0,0,1,13.19,13.19V369.6a0,0,0,0,1,0,0H87.05a0,0,0,0,1,0,0V148.31A13.19,13.19,0,0,1,100.25,135.12Z"/><path class="cls-20" d="M304.58,191.54a3.39,3.39,0,1,1-3.38-3.38A3.38,3.38,0,0,1,304.58,191.54Z" transform="translate(-39.75 -47.28)"/><path class="cls-20" d="M324.62,194.93H311.36a3.39,3.39,0,0,1-3.39-3.39h0a3.38,3.38,0,0,1,3.39-3.38h13.26a3.38,3.38,0,0,1,3.39,3.38h0A3.39,3.39,0,0,1,324.62,194.93Z" transform="translate(-39.75 -47.28)"/><rect class="cls-7" x="101.89" y="153.4" width="342.54" height="208.01"/><g class="cls-22"><rect class="cls-23" x="105.13" y="215.55" width="133.01" height="23.55" transform="translate(-150.22 140.67) rotate(-45)"/><rect class="cls-23" x="77.14" y="252.78" width="267.39" height="23.55" transform="translate(-165.07 179.28) rotate(-45)"/><rect class="cls-23" x="84.35" y="276.58" width="358.21" height="23.55" transform="translate(-166.48 223.46) rotate(-45)"/><rect class="cls-23" x="163.45" y="283.16" width="339.67" height="23.55" transform="translate(-150.69 274.77) rotate(-45)"/><rect class="cls-23" x="237.67" y="307.66" width="295.07" height="23.55" transform="translate(-152.8 318.66) rotate(-45)"/><rect class="cls-23" x="321.83" y="348.82" width="197.29" height="23.55" transform="translate(-171.57 355.65) rotate(-45)"/><rect class="cls-23" x="405.78" y="384.04" width="111.79" height="23.55" transform="translate(-184.41 395.1) rotate(-45)"/></g><rect class="cls-14" x="368.48" y="277.73" width="143.29" height="75.44" rx="4.44"/><rect class="cls-24" x="377.04" y="287.31" width="56.28" height="56.28" rx="4"/><path class="cls-14" d="M433.61,374.05h0a3.88,3.88,0,0,1,0-5.48l17.16-17.15a3.86,3.86,0,0,1,5.48,0h0a3.88,3.88,0,0,1,0,5.48l-17.16,17.15A3.86,3.86,0,0,1,433.61,374.05Z" transform="translate(-39.75 -47.28)"/><path class="cls-14" d="M433.61,351.42h0a3.86,3.86,0,0,1,5.48,0l17.16,17.15a3.88,3.88,0,0,1,0,5.48h0a3.86,3.86,0,0,1-5.48,0L433.61,356.9A3.88,3.88,0,0,1,433.61,351.42Z" transform="translate(-39.75 -47.28)"/><path class="cls-24" d="M507.32,344.69H484a5,5,0,0,1-5-5.05h0a5,5,0,0,1,5-5h23.28a5,5,0,0,1,5,5h0A5,5,0,0,1,507.32,344.69Z" transform="translate(-39.75 -47.28)"/><path class="cls-24" d="M527.72,344.69h-5a5,5,0,0,1-5-5.05h0a5,5,0,0,1,5-5h5a5,5,0,0,1,5,5h0A5,5,0,0,1,527.72,344.69Z" transform="translate(-39.75 -47.28)"/><path class="cls-24" d="M481.21,372.3h4.5a2.25,2.25,0,0,1,2.24,1.84,2.21,2.21,0,0,1-2.18,2.57h-4.56A2.21,2.21,0,0,1,479,374.5h0A2.21,2.21,0,0,1,481.21,372.3Z" transform="translate(-39.75 -47.28)"/><path class="cls-24" d="M492.52,372.3h10.34a2.24,2.24,0,0,1,2.24,1.84,2.21,2.21,0,0,1-2.18,2.57h-10.4a2.21,2.21,0,0,1-2.21-2.21h0A2.21,2.21,0,0,1,492.52,372.3Z" transform="translate(-39.75 -47.28)"/><path class="cls-24" d="M509.29,372.3h31.4a2.26,2.26,0,0,1,2.24,1.84,2.21,2.21,0,0,1-2.18,2.57H509.29a2.19,2.19,0,0,1-2.2-2.2h0A2.2,2.2,0,0,1,509.29,372.3Z" transform="translate(-39.75 -47.28)"/><path class="cls-24" d="M481.21,382.39h33.66a2.25,2.25,0,0,1,2.24,1.85,2.21,2.21,0,0,1-2.18,2.57H481.21A2.21,2.21,0,0,1,479,384.6h0A2.21,2.21,0,0,1,481.21,382.39Z" transform="translate(-39.75 -47.28)"/><path class="cls-24" d="M522.21,382.39h18.48a2.26,2.26,0,0,1,2.24,1.85,2.21,2.21,0,0,1-2.18,2.57H522.21A2.21,2.21,0,0,1,520,384.6h0A2.21,2.21,0,0,1,522.21,382.39Z" transform="translate(-39.75 -47.28)"/><path class="cls-24" d="M481.21,362.2h15.38a2.25,2.25,0,0,1,2.24,1.85,2.21,2.21,0,0,1-2.18,2.57H481.27a2.25,2.25,0,0,1-2.24-1.85A2.21,2.21,0,0,1,481.21,362.2Z" transform="translate(-39.75 -47.28)"/><path class="cls-24" d="M502.63,364.05a2.25,2.25,0,0,1,2.24-1.85h35.82a2.26,2.26,0,0,1,2.24,1.85,2.22,2.22,0,0,1-2.18,2.57H504.81A2.21,2.21,0,0,1,502.63,364.05Z" transform="translate(-39.75 -47.28)"/><path class="cls-24" d="M540.72,356.52H535a2.24,2.24,0,0,1-2.24-1.84,2.21,2.21,0,0,1,2.18-2.57h5.75a2.2,2.2,0,0,1,2.2,2.21h0A2.19,2.19,0,0,1,540.72,356.52Z" transform="translate(-39.75 -47.28)"/><path class="cls-24" d="M479,354.32a2.21,2.21,0,0,1,2.21-2.21h47.32a2.2,2.2,0,0,1,2.2,2.21h0a2.19,2.19,0,0,1-2.2,2.2H481.21a2.2,2.2,0,0,1-2.21-2.2Z" transform="translate(-39.75 -47.28)"/><polygon class="cls-14" points="368.48 296.56 349.85 315.18 369.02 334.35 368.48 296.56"/><rect class="cls-25" x="46.93" y="85.27" width="206.57" height="156.2" rx="5.66"/><polygon class="cls-25" points="147.13 238.54 170.74 262.15 197.26 235.64 147.13 238.54"/><path class="cls-16" d="M261.22,229.93H118.73a3.83,3.83,0,0,1-3.83-3.83h0a3.82,3.82,0,0,1,3.83-3.82H261.22A3.82,3.82,0,0,1,265,226.1h0A3.83,3.83,0,0,1,261.22,229.93Z" transform="translate(-39.75 -47.28)"/><text class="cls-26" transform="translate(75.25 157.28)">STYLUS</text><path class="cls-16" d="M98.58,258.53h13.91a2.31,2.31,0,0,1,2.3,1.89,2.27,2.27,0,0,1-2.24,2.64h-14a2.26,2.26,0,0,1-2.27-2.26h0A2.26,2.26,0,0,1,98.58,258.53Z" transform="translate(-39.75 -47.28)"/><path class="cls-16" d="M119.48,258.53h10.61a2.31,2.31,0,0,1,2.3,1.89,2.26,2.26,0,0,1-2.24,2.64H119.48a2.27,2.27,0,0,1-2.27-2.26h0A2.27,2.27,0,0,1,119.48,258.53Z" transform="translate(-39.75 -47.28)"/><path class="cls-16" d="M136.7,258.53h41.51a2.3,2.3,0,0,1,2.3,1.9,2.26,2.26,0,0,1-2.23,2.63H136.7a2.27,2.27,0,0,1-2.27-2.26h0A2.27,2.27,0,0,1,136.7,258.53Z" transform="translate(-39.75 -47.28)"/><path class="cls-16" d="M98.58,268.89h53.13a2.31,2.31,0,0,1,2.3,1.89,2.26,2.26,0,0,1-2.23,2.64H98.58a2.26,2.26,0,0,1-2.27-2.26h0A2.26,2.26,0,0,1,98.58,268.89Z" transform="translate(-39.75 -47.28)"/><path class="cls-16" d="M159.25,268.89h19a2.3,2.3,0,0,1,2.3,1.9,2.26,2.26,0,0,1-2.23,2.63h-19a2.27,2.27,0,0,1-2.27-2.26h0A2.27,2.27,0,0,1,159.25,268.89Z" transform="translate(-39.75 -47.28)"/><path class="cls-16" d="M281.37,252.7H258.16a2.3,2.3,0,0,1-2.3-1.89,2.27,2.27,0,0,1,2.24-2.64h23.27a2.27,2.27,0,0,1,2.26,2.27h0A2.26,2.26,0,0,1,281.37,252.7Z" transform="translate(-39.75 -47.28)"/><path class="cls-16" d="M251.17,252.7H240.56a2.3,2.3,0,0,1-2.3-1.89,2.26,2.26,0,0,1,2.23-2.64h10.68a2.27,2.27,0,0,1,2.27,2.27h0A2.27,2.27,0,0,1,251.17,252.7Z" transform="translate(-39.75 -47.28)"/><path class="cls-16" d="M234,252.7H201.73a2.31,2.31,0,0,1-2.3-1.89,2.27,2.27,0,0,1,2.24-2.64H234a2.27,2.27,0,0,1,2.27,2.27h0A2.27,2.27,0,0,1,234,252.7Z" transform="translate(-39.75 -47.28)"/><path class="cls-16" d="M281.37,242.34H228.23a2.3,2.3,0,0,1-2.3-1.89,2.27,2.27,0,0,1,2.24-2.64h53.2a2.27,2.27,0,0,1,2.26,2.27h0A2.26,2.26,0,0,1,281.37,242.34Z" transform="translate(-39.75 -47.28)"/><path class="cls-16" d="M220.69,242.34h-19a2.31,2.31,0,0,1-2.3-1.89,2.27,2.27,0,0,1,2.24-2.64h19a2.26,2.26,0,0,1,2.27,2.27h0A2.26,2.26,0,0,1,220.69,242.34Z" transform="translate(-39.75 -47.28)"/><path class="cls-16" d="M281.37,263.06H247a2.3,2.3,0,0,1-2.3-1.89,2.27,2.27,0,0,1,2.24-2.64h34.38a2.31,2.31,0,0,1,2.3,1.89A2.27,2.27,0,0,1,281.37,263.06Z" transform="translate(-39.75 -47.28)"/><path class="cls-16" d="M240.79,261.17a2.3,2.3,0,0,1-2.3,1.89H201.73a2.31,2.31,0,0,1-2.3-1.89,2.27,2.27,0,0,1,2.24-2.64h36.89A2.26,2.26,0,0,1,240.79,261.17Z" transform="translate(-39.75 -47.28)"/><path class="cls-16" d="M201.7,268.89h5.83a2.3,2.3,0,0,1,2.3,1.9,2.26,2.26,0,0,1-2.23,2.63h-5.9a2.27,2.27,0,0,1-2.27-2.26h0A2.27,2.27,0,0,1,201.7,268.89Z" transform="translate(-39.75 -47.28)"/><path class="cls-16" d="M283.63,271.16a2.26,2.26,0,0,1-2.26,2.26H214.21a2.27,2.27,0,0,1-2.27-2.26h0a2.27,2.27,0,0,1,2.27-2.27h67.16a2.27,2.27,0,0,1,2.26,2.27Z" transform="translate(-39.75 -47.28)"/><rect class="cls-16" x="56.56" y="190.53" width="84.2" height="14.89" rx="1.29"/><rect class="cls-4" x="247.77" y="293.05" width="50.78" height="16.28"/><rect class="cls-9" x="271.58" y="179.06" width="3.15" height="15.75"/><rect class="cls-2" x="210.64" y="207.74" width="125.05" height="88.46" rx="14.37"/><rect class="cls-4" x="223.11" y="221.23" width="100.1" height="61.48" rx="10.82"/><path class="cls-4" d="M335.68,234.3h4.17a2.11,2.11,0,0,1,2.11,2.11v27.8a2.11,2.11,0,0,1-2.11,2.11h-4.17a0,0,0,0,1,0,0v-32A0,0,0,0,1,335.68,234.3Z"/><path class="cls-9" d="M342,238.19h.2a7.62,7.62,0,0,1,7.62,7.62v9a7.62,7.62,0,0,1-7.62,7.62H342a0,0,0,0,1,0,0V238.19A0,0,0,0,1,342,238.19Z"/><path class="cls-4" d="M244.11,281.58h4.17a2.11,2.11,0,0,1,2.11,2.11v27.8a2.11,2.11,0,0,1-2.11,2.11h-4.17a0,0,0,0,1,0,0v-32A0,0,0,0,1,244.11,281.58Z" transform="translate(454.74 547.9) rotate(180)"/><path class="cls-9" d="M236.29,285.47h.2a7.62,7.62,0,0,1,7.62,7.62v9a7.62,7.62,0,0,1-7.62,7.62h-.2a0,0,0,0,1,0,0V285.47a0,0,0,0,1,0,0Z" transform="translate(440.64 547.9) rotate(180)"/><path class="cls-4" d="M260.66,199.4h25a3.73,3.73,0,0,1,3.73,3.73v4.62a0,0,0,0,1,0,0H256.93a0,0,0,0,1,0,0v-4.62A3.73,3.73,0,0,1,260.66,199.4Z"/><path class="cls-9" d="M273,191.57h.34a6.42,6.42,0,0,1,6.42,6.42v1.41a0,0,0,0,1,0,0H266.57a0,0,0,0,1,0,0V198A6.42,6.42,0,0,1,273,191.57Z"/><circle class="cls-14" cx="273.16" cy="173.71" r="7.26"/><path class="cls-9" d="M298,292.82a4.77,4.77,0,1,1-4.77-4.78A4.77,4.77,0,0,1,298,292.82Z" transform="translate(-39.75 -47.28)"/><path class="cls-9" d="M337.33,292.82a4.78,4.78,0,1,1-4.77-4.78A4.78,4.78,0,0,1,337.33,292.82Z" transform="translate(-39.75 -47.28)"/><path class="cls-27" d="M303.6,302.66a1,1,0,0,1-.36-1.41,11.79,11.79,0,0,1,9.22-5.53h.44a11.3,11.3,0,0,1,9.67,5.54,1,1,0,0,1-.35,1.41Z" transform="translate(-39.75 -47.28)"/><path class="cls-2" d="M215.27,304.12H331a16.08,16.08,0,0,1,16.08,16.08v41.21a0,0,0,0,1,0,0H199.19a0,0,0,0,1,0,0V320.2A16.08,16.08,0,0,1,215.27,304.12Z"/><rect class="cls-9" x="288.68" y="324.19" width="47.47" height="26.42" rx="2.17"/><path class="cls-7" d="M368.11,383.16H349.5a2,2,0,0,1-2-1.65,2,2,0,0,1,1.95-2.31h18.67a2,2,0,0,1,2,2h0A2,2,0,0,1,368.11,383.16Z" transform="translate(-39.75 -47.28)"/><path class="cls-7" d="M342.91,383.16h-6.63a2,2,0,0,1-2-1.65,2,2,0,0,1,2-2.31h6.69a2,2,0,0,1,2,2h0A2,2,0,0,1,342.91,383.16Z" transform="translate(-39.75 -47.28)"/><path class="cls-7" d="M368.11,390.16h-8a2,2,0,0,1-2-1.65,2,2,0,0,1,2-2.31h8a2,2,0,0,1,2,1.66A2,2,0,0,1,368.11,390.16Z" transform="translate(-39.75 -47.28)"/><path class="cls-7" d="M354.68,388.51a2,2,0,0,1-2,1.65H336.28a2,2,0,0,1-2-1.65,2,2,0,0,1,2-2.31h16.5A2,2,0,0,1,354.68,388.51Z" transform="translate(-39.75 -47.28)"/><path class="cls-28" d="M256.62,278.7h0a2.3,2.3,0,0,1-2.29-2.3v-8.3a2.29,2.29,0,0,1,2.29-2.29h0a2.28,2.28,0,0,1,2.29,2.29v8.3A2.29,2.29,0,0,1,256.62,278.7Z" transform="translate(-39.75 -47.28)"/><path class="cls-28" d="M256.62,289.82h0a2.3,2.3,0,0,1-2.29-2.29V285a2.29,2.29,0,0,1,2.29-2.29h0a2.28,2.28,0,0,1,2.29,2.29v2.51A2.29,2.29,0,0,1,256.62,289.82Z" transform="translate(-39.75 -47.28)"/><path class="cls-28" d="M265.72,356.61h0a2.3,2.3,0,0,1,2.3-2.29h14.49a2.29,2.29,0,0,1,2.29,2.29h0a2.28,2.28,0,0,1-2.29,2.29H268A2.29,2.29,0,0,1,265.72,356.61Z" transform="translate(-39.75 -47.28)"/><path class="cls-28" d="M252.83,356.61h0a2.3,2.3,0,0,1,2.3-2.29h5.43a2.3,2.3,0,0,1,2.3,2.29h0a2.29,2.29,0,0,1-2.3,2.29h-5.43A2.29,2.29,0,0,1,252.83,356.61Z" transform="translate(-39.75 -47.28)"/></svg>